<!DOCTYPE svg PUBLIC "-//W3C//DTD SVG 1.1//EN" "http://www.w3.org/Graphics/SVG/1.1/DTD/svg11.dtd" [
	<!ENTITY ns_flows "http://ns.adobe.com/Flows/1.0/">
]><svg xmlns="http://www.w3.org/2000/svg" width="300" height="300" overflow="visible"><defs><pattern x="-454" y="100" width="300" height="300" patternUnits="userSpaceOnUse" viewBox="57.839 -324.055 300 300" overflow="visible"><polygon points="357.839,-24.055 57.839,-24.055 57.839,-324.055 357.839,-324.055" fill="none"/><polygon fill="#0F1D26" points="357.839,-24.055 57.839,-24.055 57.839,-324.055 357.839,-324.055"/><g fill="#192F40"><path d="M134.443-92.275c23.373 15.553 16.859 34.426 16.439 36.213 1.072-.219 2.807-.93 3.633-2.197 4.457-.486 5.539-5.002 1.793-7.457-.117-1.039-.453-1.898-.936-2.555.584-1.428.182-3.268-1.514-4.756.068-2.223-.957-3.762-2.375-4.334 1.1-2.391.229-4.57-1.627-5.369.385-.902.078-2.059-1.08-2.879-.139-1.918-1.588-2.816-2.943-2.312-.242-.291-.547-.578-.914-.84-.172-2.439-1.898-3.672-3.631-3.281.316-1.785-1.043-3.475-3.535-3.512-.338-.414-.697-.746-1.08-.994-.209-1.221-1.242-2.299-3.006-2.635-1.195-2.184-3.324-2.586-4.753-1.475-.469-1.719-2.369-2.662-4.603-1.668-.397-.209-.795-.342-1.174-.422-.183-1.436-1.653-2.291-3.413-1.51-1.272-.643-2.437-.377-3.059.391-1.477-1.197-3.623-1.043-5.21.729-.868-.805-2.104-.992-3.259-.422-.631.086-1.297.314-1.975.701-2.319-.879-4.271-.189-5.182 1.262-2.55-.805-4.636 1.225-3.789 4.062l-.212.07c-2.237-1.342-4.328.367-3.456 2.824-.607 1.012-.586 1.994-.16 2.686 1.623-1.701 17.647-15.873 41.021-.32z"/><path d="M132.278-91.791c-25.721-15.564-38.998 2.723-40.192 4.184l56.144 33.287c.551-1.549 9.768-21.909-15.952-37.471z"/></g><path fill-rule="evenodd" clip-rule="evenodd" fill="#192F40" d="M417.127-185.399c.01.424.024.844.041 1.262-10.203-.582-12.081 6.598-14.663 13.119-1.655-3.442-7.814-2.065-12.673-2.075-3.877 2.075-5.249 6.478-7.201 10.338-1.307-2.518-4.93-2.546-8.907-2.204-3.493 1.609-4.005 6.009-5.979 9.037-2.43-5.227-16.15-4.585-18.88.665 1.126-6.442-2.603-7.667-5.394-9.895-5.297-.881-5.858 2.658-9.983 2.87-1.626-8.712-12.952-11.863-20.412-6.84.294-9.453-5.898-11.962-13.075-13.402 18.332-20.58 36.195 2.833 52.062 10.763 1.536-1.311-3.53-4.962.997-7.594 4.953 4.309 6.027 2.711 11.321-.396 4.081 1.773-2.342 8.722 2.787 7.46 12.7-9.932 32.563-32.123 49.959-13.108"/><path fill-rule="evenodd" clip-rule="evenodd" fill="#192F40" d="M117.127-185.399c.01.424.024.844.041 1.262-10.203-.582-12.081 6.598-14.663 13.119-1.655-3.442-7.814-2.065-12.673-2.075-3.877 2.075-5.249 6.478-7.201 10.338-1.307-2.518-4.93-2.546-8.907-2.204-3.493 1.609-4.005 6.009-5.979 9.037-2.43-5.227-16.15-4.585-18.88.665 1.126-6.442-2.603-7.667-5.394-9.895-5.297-.881-5.858 2.658-9.983 2.87-1.626-8.712-12.952-11.863-20.412-6.84.294-9.453-5.898-11.962-13.075-13.402 18.332-20.58 36.195 2.833 52.062 10.763 1.536-1.311-3.53-4.962.997-7.594 4.953 4.309 6.027 2.711 11.321-.396 4.081 1.773-2.342 8.722 2.787 7.46 12.7-9.932 32.563-32.123 49.959-13.108"/><path fill="#192F40" d="M248.272-163.082c0 22.333-18.102 40.434-40.432 40.434-22.328 0-40.436-18.101-40.436-40.432 0-34.209 36.133-37.52 40.436-62.381 4.093 24.861 40.432 28.172 40.432 62.379zm-61.603-5.834c1.84-5.567 1.792-15.094 9.958-25.921 0 0-16.015 10.523-20.312 19.857-1.663 3.612-1.416 9.74 2.053 11.101 4.757 1.865 7.104-1.414 8.301-5.037z"/><polygon fill="#192F40" points="201.378,-30.344 207.917,-47.812 214.307,-30.288 232.939,-29.467 218.248,-17.977 223.225,0 207.755,-10.423 192.199,-0.133 197.33,-18.066 182.738,-29.683"/><polygon fill="#192F40" points="201.378,-330.344 207.917,-347.812 214.307,-330.288 232.939,-329.467 218.248,-317.977 223.225,-300 207.755,-310.423 192.199,-300.133 197.33,-318.067 182.738,-329.683"/><path fill="#192F40" d="M103.657-309.419c-.584.446-2.818 2.195-2.818 2.195v36.557l-31.823 15.719s-.017 2.994-.017 3.85c0 .856.058 1.202 1.155 1.757 7.035 3.087 43.521 19.109 44.091 19.348.631.265 1.269.182 1.827-.252 5.282-4.112 33.532-25.652 33.76-25.85.253-.217 1.008-.414 1.008-.934v-4.109999999999999s1.892-1.97 2.089-2.145c.196-.175.052-.325.052-.821-.005-4.649-.158-35.748-.15-36.011.001-1.74-.721-2.263-2.408-2.639-.344-.077-44.938-6.941-45.196-6.979-.862-.132-1.047-.076-1.57.315z"/><polygon fill="#0F1D26" points="103.839,-272.849 146.839,-263.684 146.839,-297.59 103.839,-304.64"/><g fill="#0F1D26"><polygon points="101.422,-268.333 107.063,-267.044 103.8,-265.208 98.202,-266.613"/><polygon points="108.23,-266.777 113.871,-265.488 110.558,-263.513 104.959,-264.917"/><polygon points="114.845,-265.266 120.486,-263.976 117.121,-261.865 111.522,-263.271"/><polygon points="121.653,-263.71 127.293,-262.42 123.878,-260.169 118.28,-261.575"/><polygon points="128.461,-262.154 134.102,-260.864 130.637,-258.474 125.037,-259.878"/><polygon points="135.269,-260.598 140.714,-259.353 137.201,-256.826 131.793,-258.183"/><polygon points="97.128,-266.039 102.712,-264.597 99.448,-262.76 93.906,-264.319"/><polygon points="103.867,-264.298 109.452,-262.854 106.138,-260.878 100.596,-262.437"/><polygon points="110.415,-262.605 116,-261.161 112.637,-259.051 107.095,-260.61"/><polygon points="117.156,-260.863 122.741,-259.419 119.327,-257.168 113.783,-258.727"/><polygon points="123.896,-259.12 129.48,-257.677 126.016,-255.286 120.473,-256.846"/><polygon points="130.637,-257.378 136.028,-255.984 132.514,-253.459 127.162,-254.964"/><polygon points="92.832,-263.745 98.362,-262.148 95.098,-260.312 89.611,-262.025"/><polygon points="99.504,-261.816 105.035,-260.22 101.719,-258.244 96.233,-259.957"/><polygon points="105.987,-259.944 111.516,-258.346 108.153,-256.235 102.665,-257.949"/><polygon points="112.66,-258.016 118.188,-256.417 114.774,-254.167 109.287,-255.88"/><polygon points="119.333,-256.088 124.861,-254.49 121.396,-252.1 115.908,-253.812"/><polygon points="126.005,-254.16 131.344,-252.617 127.828,-250.091 122.532,-251.745"/><polygon points="88.538,-261.452 94.01,-259.699 90.747,-257.863 85.315,-259.731"/><polygon points="95.142,-259.337 100.615,-257.585 97.3,-255.61 91.87,-257.478"/><polygon points="101.558,-257.283 107.031,-255.532 103.667,-253.419 98.237,-255.288"/><polygon points="108.164,-255.168 113.635,-253.417 110.222,-251.166 104.792,-253.034"/><polygon points="114.769,-253.055 120.241,-251.303 116.777,-248.913 111.345,-250.78"/><polygon points="121.374,-250.94 126.657,-249.249 123.144,-246.723 117.9,-248.526"/><polygon points="84.241,-259.157 89.659,-257.25 86.395,-255.416 81.021,-257.437"/><polygon points="90.779,-256.857 96.196,-254.952 92.881,-252.976 87.507,-254.996"/><polygon points="97.13,-254.623 102.545,-252.716 99.183,-250.605 93.809,-252.627"/><polygon points="103.667,-252.322 109.084,-250.417 105.669,-248.166 100.295,-250.187"/><polygon points="110.204,-250.021 115.622,-248.115 112.155,-245.726 106.782,-247.747"/><polygon points="116.742,-247.722 121.971,-245.881 118.457,-243.355 113.268,-245.307"/><polygon points="79.947,-256.863 85.307,-254.803 82.044,-252.967 76.725,-255.143"/><polygon points="86.416,-254.377 91.777,-252.316 88.462,-250.341 83.145,-252.517"/><polygon points="92.702,-251.961 98.062,-249.901 94.699,-247.79 89.379,-249.965"/><polygon points="99.17,-249.475 104.532,-247.415 101.116,-245.165 95.799,-247.34"/><polygon points="105.641,-246.989 111,-244.928 107.536,-242.539 102.217,-244.714"/><polygon points="112.11,-244.503 117.287,-242.513 113.772,-239.987 108.636,-242.088"/></g><path fill="#192F40" d="M330.188-42.072c0 1.316-1.066 2.385-2.385 2.385h-35.586c-1.316 0-2.385-1.068-2.385-2.385v-62.016c0-1.316 1.068-2.385 2.385-2.385h35.586c1.318 0 2.385 1.068 2.385 2.385v62.016z"/><polygon fill="#0F1D26" points="326.486,-50.146 293.535,-50.146 293.535,-99.176 326.486,-99.176"/><path fill="#0F1D26" d="M310.938-103.195c0 .512-.416.927-.928.927s-.928-.415-.928-.927c0-.513.416-.928.928-.928s.928.415.928.928z"/><path fill="#192F40" d="M325.597-250.204c0 7.941-6.461 14.402-14.402 14.402s-14.402-6.461-14.402-14.402c0-5.522 3.125-10.325 7.697-12.741l-1.299-3.059-14.287 15.662c.311.553.49 1.189.49 1.868 0 2.104-1.705 3.809-3.809 3.809-1.809 0-3.32-1.263-3.709-2.955l-2.053-.19c-1.145 6.806-7.074 12.009-14.201 12.009-7.941 0-14.402-6.461-14.402-14.402 0-7.941 6.461-14.402 14.402-14.402 2.371 0 4.607.579 6.58 1.599l4.699-7.395.045-.063-2.695-8.015-1.949.398-.238.025c-.258 0-.512-.083-.721-.241l-2.262-1.71c-.408-.308-.574-.845-.41-1.331.162-.486.617-.813 1.131-.813h10.623c.611 0 1.125.463 1.188 1.073.061.609-.35 1.167-.949 1.289l-4.057.83 2.693 8.006h21.785l-2.805-6.601c-.158-.368-.119-.791.102-1.125.221-.334.596-.535.996-.535h9.387c3.139 0 5.695 2.561 5.695 5.708 0 3.139-2.557 5.693-5.695 5.693-.658 0-1.191-.534-1.191-1.193s.533-1.193 1.191-1.193c1.824 0 3.307-1.484 3.307-3.307 0-1.832-1.482-3.322-3.307-3.322h-7.584l5.506 12.95c1.418-.469 2.934-.727 4.508-.727 7.941-.001 14.402 6.46 14.402 14.401zm-48.159 2.173l-11.984-1.113c-.414-.038-.779-.289-.961-.662-.184-.374-.16-.815.064-1.166l6.361-10.013c-1.6-.789-3.396-1.234-5.297-1.234-6.625 0-12.016 5.391-12.016 12.016 0 6.626 5.391 12.016 12.016 12.016 5.886-.001 10.79-4.252 11.817-9.844zm.196-2.379c-.064-3.788-1.889-7.153-4.689-9.312l-5.326 8.382 10.015.93zm5.683-1.118l-5.393-16.034-3.697 5.817c3.518 2.628 5.797 6.824 5.797 11.542v.016l2.07.192c.268-.613.694-1.139 1.223-1.533zm18.848-16.887l-.092-.213c-.117.038-.242.06-.371.06h-21.6l5.479 16.287h.004c.555 0 1.08.121 1.555.334l14.977-16.418.048-.05zm21.045 18.211c0-6.625-5.389-12.016-12.016-12.016-1.242 0-2.443.19-3.572.542l4.855 11.421c.258.606-.025 1.307-.633 1.565-.152.065-.311.096-.465.096-.465 0-.906-.273-1.1-.727l-4.854-11.419c-3.721 2.045-6.248 6.001-6.248 10.538 0 6.626 5.391 12.016 12.016 12.016 6.628 0 12.017-5.39 12.017-12.016z"/></pattern></defs><rect fill="url(#SVGID_1_)" width="300" height="300"/></svg>