<!DOCTYPE svg PUBLIC "-//W3C//DTD SVG 1.1//EN" "http://www.w3.org/Graphics/SVG/1.1/DTD/svg11.dtd" [
	<!ENTITY ns_flows "http://ns.adobe.com/Flows/1.0/">
]><svg xmlns="http://www.w3.org/2000/svg" width="248" height="190" viewBox="30 29 248 190" overflow="visible" enable-background="new 30 29 248 190"><path fill="#176DAD" d="M153.908 30.055c-5.019 29.02-47.192 32.886-47.192 72.807 0 26.07 21.132 47.193 47.192 47.193s47.189-21.123 47.189-47.193c.001-39.921-42.415-43.787-47.189-72.807z"/><path fill="#135C91" d="M153.908 30.055c-5.019 29.02 32.308 41.78 32.308 81.701 0 26.07-32.308 38.299-32.308 38.299 26.06 0 47.189-21.123 47.189-47.193.001-39.921-42.415-43.787-47.189-72.807z"/><path fill="#152835" d="M183.863 124.807c-.379-3.228-2.182-6.608-5.679-7.128-3.055-.455-5.775 1.882-5.877 4.962-.04 1.178.842-.857 1.947-1.788 1.104-.93 2.681-1.294 3.979-.427 2.641 1.766 1.685 6.217-.682 7.624-2.83 2.32-7.911-1.412-10.139-3.349-2.729-2.376-9.771-8.533-13.579-5.295-3.808-3.237-10.849 2.919-13.579 5.295-2.226 1.937-7.307 5.669-10.139 3.349-2.365-1.407-3.32-5.858-.682-7.624 1.3-.867 2.875-.502 3.98.427 1.105.93 1.986 2.965 1.946 1.788-.101-3.08-2.821-5.417-5.876-4.962-3.498.52-5.3 3.9-5.679 7.128-.854 7.277 6.193 12.282 12.819 12.779 7.382.554 14.249-3.984 17.208-10.683 2.962 6.699 9.825 11.237 17.209 10.683 6.63-.497 13.676-5.502 12.823-12.779z"/><path fill="#0B151C" d="M183.127 129.864c-.375.856-.868 1.654-1.454 2.387-2.477 3.093-6.63 5.036-10.629 5.335-2.406.18-4.758-.181-6.938-.98-1.022-.376-2.009-.849-2.945-1.408-.935-.559-1.818-1.204-2.64-1.923 0 0 9.806 2.612 16.521 1.115 6.716-1.497 8.085-4.526 8.085-4.526z"/><path fill="#0B151C" d="M153.835 126.903c-2.959 6.699-9.826 11.237-17.208 10.683-3.312-.248-6.73-1.624-9.214-3.847 0 0 3.502 3.284 11.648 1.079 8.147-2.206 14.774-7.915 14.774-7.915z"/><path fill="#152835" d="M205.128 76.129l-8.913-1.193c-4.122-.685-8.228-1.032-12.219-1.032-15.132 0-23.905 4.856-24.131 4.997-.657.235-1.361.28-2.065.43-.262-.143-.556-.331-.884-.331h-5.841c-.329 0-.621.193-.894.34-.656-.143-1.322-.22-1.905-.42-.367-.208-9.148-5.04-24.281-5.04-3.983 0-8.097.359-12.183 1.04l-8.829 1.194-1.963.708.394 9.432.555.208c.027.009 2.628 1.296 2.967 3.462.057.333.263 1.071.536 1.987.33 1.145.742 2.596 1.09 4.094.638 1.87 1.296 3.795 2.235 5.612 1.155 2.241 2.583 5.021 5.55 6.054 3.054 1.831 7.072 2.798 12.221 2.958 0 0 .75.075 1.964.075 3.887 0 13.317-.79 16.926-8.097l4.216-8.014c.01-.028.518-2.594 1.745-2.594h5.131c1.249 0 1.785 2.623 1.831 2.764l4.151 8.121c3.607 7.307 13.046 7.958 16.937 7.958 1.163 0 1.896-.14 1.896-.144 5.214-.16 9.234-1.167 12.126-2.918 3.118-1.108 4.556-3.905 5.701-6.142.949-1.821 1.605-3.755 2.319-5.889.263-1.234.687-2.689 1.016-3.835.263-.915.47-1.655.524-1.994.292-1.812 2.05-3.11 2.979-3.458l.555-.207.393-9.431-1.85-.695zm-60.355 16.866c-.811 2.46-3.581 9.266-6.67 11.141-2.395 1.469-5.647 2.239-9.384 2.239-2.064 0-4.2-.234-6.331-.713-5.842-1.288-7.382-2.847-8.8-6.6-1.495-3.958-2.18-6.786-2.02-12.149.142-4.687 6.545-6.077 6.603-6.091 3.081-.635 6.19-.954 9.253-.954 8.519 0 14.659 2.526 15.919 3.814 1.569 1.625 1.814 3.626 1.87 4.989.047 1.087-.328 3.586-.44 4.324zm-40.419-11.997c0-.527.422-.998.969-.998h3.156c.524 0 .949.471.949.998 0 .531-.424 1.002-.949 1.002h-3.156c-.546 0-.969-.471-.969-1.002zm98.455 1.002h-3.164c-.526 0-.959-.471-.959-1.002 0-.527.433-.998.959-.998h3.164c.519 0 .949.471.949.998 0 .531-.431 1.002-.949 1.002zm-17.085 23.661c-2.132.479-4.256.713-6.319.713-3.738 0-6.991-.771-9.395-2.239-3.701-2.251-6.612-11.014-6.622-11.014-.149-.874-.524-3.368-.488-4.451.059-1.362.31-3.369 1.879-4.989 1.26-1.288 7.392-3.814 15.921-3.814 3.052 0 6.161.319 9.243.954.057.015 6.462 1.404 6.603 6.091.16 5.355-.556 8.293-2.012 12.155-1.417 3.74-2.958 5.304-8.81 6.594z"/><path fill="#C5D5F0" d="M127.425 79.868c-3.062 0-6.172.319-9.253.954-.058.015-6.461 1.404-6.603 6.091-.16 5.363.524 8.191 2.02 12.149 1.418 3.753 2.958 5.312 8.8 6.6 2.131.479 4.267.713 6.331.713 3.736 0 6.989-.771 9.384-2.239 3.089-1.875 5.859-8.681 6.67-11.141.111-.737.486-3.236.44-4.324-.056-1.362-.301-3.364-1.87-4.989-1.26-1.288-7.401-3.814-15.919-3.814z"/><path fill="#C5D5F0" d="M189.942 80.821c-3.082-.635-6.191-.954-9.243-.954-8.529 0-14.661 2.526-15.921 3.814-1.569 1.62-1.82 3.626-1.879 4.989-.036 1.083.339 3.578.488 4.451.01 0 2.921 8.763 6.622 11.014 2.403 1.469 5.656 2.239 9.395 2.239 2.063 0 4.188-.234 6.319-.713 5.853-1.291 7.394-2.854 8.81-6.594 1.456-3.862 2.172-6.8 2.012-12.155-.141-4.686-6.546-6.076-6.603-6.091z"/><path fill="#C5D5F0" d="M108.479 80h-3.156c-.546 0-.969.471-.969.998 0 .531.422 1.002.969 1.002h3.156c.524 0 .949-.471.949-1.002 0-.527-.424-.998-.949-.998z"/><path fill="#C5D5F0" d="M202.809 80h-3.164c-.526 0-.959.471-.959.998 0 .531.433 1.002.959 1.002h3.164c.519 0 .949-.471.949-1.002 0-.527-.431-.998-.949-.998z"/><path fill="#A5B3C9" d="M189.942 80.821c-.637 9.571-10.21 21.297-19.933 23.314 2.403 1.469 5.656 2.239 9.395 2.239 2.063 0 4.188-.234 6.319-.713 5.853-1.291 7.394-2.854 8.81-6.594 1.456-3.862 2.172-6.8 2.012-12.155-.141-4.686-6.546-6.076-6.603-6.091z"/><path fill="#A5B3C9" d="M116.606 103.494c1.277.911 3.063 1.568 5.782 2.167 2.131.479 4.267.713 6.331.713 3.736 0 6.989-.771 9.384-2.239 3.089-1.875 5.859-8.681 6.67-11.141.111-.737.486-3.236.44-4.324-.056-1.362-.301-3.364-1.87-4.989-.59-.603-2.252-1.479-4.73-2.24-2.432 9.802-12.687 18.83-22.007 22.053z"/><path fill="#97C441" d="M54.386 170.57c0 8.753-5.124 13.352-15.033 13.352-3.066 0-5.908-.375-9.274-1.123v-25.503h11.183c8.186 0 13.124 4.225 13.124 13.274zm-14.734-5.195v10.395c.261.038.599.075.934.075 2.692 0 3.702-1.832 3.702-5.122 0-3.816-1.16-5.348-3.027-5.348h-1.609z"/><path fill="#97C441" d="M65.458 183.546h-9.575v-26.25h10.884c6.955 0 11.405 3.327 11.405 9.835 0 3.066-1.197 5.422-3.104 7.029l4.04 9.013-10.661.749-2.428-7.255c-.189 0-.375-.038-.562-.074v6.953zm0-14.657c.412.112.744.149 1.045.149 1.16 0 2.095-.449 2.095-2.132 0-1.309-.747-1.944-2.095-1.944h-1.045v3.927z"/><path fill="#97C441" d="M89.431 173.116c0 2.167.712 2.579 2.43 2.579 1.647 0 2.356-.412 2.356-2.579v-15.819h9.575v16.753c0 7.217-5.087 9.873-11.932 9.873-7.029 0-12.003-2.656-12.003-9.873v-16.753h9.573v15.819z"/><path fill="#97C441" d="M115.611 183.546h-9.576v-26.25h11.668c6.358 0 10.509 3.327 10.509 9.984 0 6.432-4.562 9.871-10.582 9.871-.675 0-1.311-.037-2.019-.112v6.507zm0-14.247c.335.113.708.149 1.009.149 1.12 0 2.021-.596 2.021-2.391 0-1.197-.562-2.057-1.76-2.057h-1.271v4.299z"/><path fill="#97C441" d="M136.442 180.37l-.524 3.176h-10.134l6.619-26.063 13.609-.375 6.659 26.438h-10.171l-.562-3.176h-5.496zm2.767-16.345l-1.384 8.115h2.729l-1.345-8.115z"/><path fill="#97C441" d="M162.997 157.296v18.174h9.012l-.376 8.076h-18.212v-26.25h9.576z"/><path fill="#97C441" d="M182.479 170.421c0 3.665 1.049 4.899 3.967 4.899 1.682 0 3.063-.226 5.459-.674l1.494 8.301c-2.468.598-5.497.974-7.928.974-7.253 0-13.088-3.367-13.088-13.5 0-10.135 5.835-13.5 13.088-13.5 2.431 0 5.46.375 7.928.972l-1.494 8.302c-2.396-.449-3.777-.673-5.459-.673-2.919.001-3.967 1.235-3.967 4.899z"/><path fill="#97C441" d="M203.873 180.37l-.523 3.176h-10.136l6.618-26.063 13.612-.375 6.658 26.438h-10.174l-.56-3.176h-5.495zm2.767-16.345l-1.385 8.115h2.729l-1.344-8.115z"/><path fill="#97C441" d="M229.789 167.618l-.412 15.929h-9.273l2.805-26.063 12.116-.375 2.094 14.509 1.869-14.135 12.116-.375 3.141 26.438h-9.382l-.451-15.893-2.769 15.707-8.974.375-2.88-16.117z"/><path fill="#97C441" d="M265.318 183.546h-9.572v-26.25h11.667c6.354 0 10.509 3.327 10.509 9.984 0 6.432-4.563 9.871-10.585 9.871-.673 0-1.309-.037-2.019-.112v6.507zm0-14.247c.336.113.71.149 1.012.149 1.122 0 2.017-.596 2.017-2.391 0-1.197-.56-2.057-1.756-2.057h-1.272v4.299z"/><path fill="#97C441" d="M97.228 212.965l-.524 3.178h-10.136l6.618-26.064 13.613-.375 6.657 26.439h-10.173l-.561-3.178h-5.494zm2.766-16.342l-1.384 8.115h2.73l-1.346-8.115z"/><path fill="#97C441" d="M123.781 205.71c0 2.169.711 2.581 2.432 2.581 1.645 0 2.355-.412 2.355-2.581v-15.819h9.574v16.755c0 7.217-5.086 9.872-11.93 9.872-7.031 0-12.004-2.654-12.004-9.872v-16.755h9.572v15.819z"/><path fill="#97C441" d="M142.107 207.207c3.703 1.045 6.844 1.494 9.35 1.494 1.533 0 1.158-1.645.412-1.645-4.674.112-12.416-1.346-12.416-8.601 0-5.535 2.992-8.938 12.041-8.938 3.029 0 6.844.412 9.574 1.234l-1.57 8.077c-3.516-.971-6.547-1.494-9.35-1.494-1.496 0-1.16 1.645-.41 1.645.859 0 12.412-.449 12.412 8.75 0 5.423-2.914 8.788-11.928 8.788-3.027 0-6.955-.411-9.686-1.234l1.571-8.076z"/><path fill="#97C441" d="M162.342 197.969l.375-8.078h21.838l-.373 8.078h-5.947v18.174h-9.574v-18.174h-6.319z"/><path fill="#97C441" d="M195.252 189.891v26.252h-9.574v-26.252h9.574z"/><path fill="#97C441" d="M206.697 216.143h-9.199v-26.064l8.637-.375 6.096 11.033v-10.846h9.201v26.065l-8.641.375-6.094-11.032v10.844z"/></svg>