<!DOCTYPE svg PUBLIC "-//W3C//DTD SVG 1.1//EN" "http://www.w3.org/Graphics/SVG/1.1/DTD/svg11.dtd" [
	<!ENTITY ns_flows "http://ns.adobe.com/Flows/1.0/">
]><svg xmlns="http://www.w3.org/2000/svg" width="248" height="190" viewBox="-0.078 0 248 190" overflow="visible" enable-background="new -0.078 0 248 190"><path fill="#97C441" d="M24.307 140.516c0 8.753-5.124 13.352-15.032 13.352-3.066 0-5.908-.375-9.274-1.123v-25.503h11.183c8.185-.001 13.123 4.225 13.123 13.274zm-14.734-5.196v10.395c.261.039.599.075.934.075 2.691 0 3.702-1.831 3.702-5.122 0-3.815-1.16-5.348-3.026-5.348h-1.61z"/><path fill="#97C441" d="M35.379 153.491h-9.575v-26.25h10.885c6.955 0 11.404 3.327 11.404 9.835 0 3.066-1.197 5.422-3.104 7.029l4.039 9.013-10.66.749-2.428-7.255c-.189 0-.375-.038-.562-.074l.001 6.953zm0-14.657c.412.112.744.149 1.045.149 1.16 0 2.095-.449 2.095-2.132 0-1.309-.746-1.944-2.095-1.944h-1.045v3.927z"/><path fill="#97C441" d="M59.353 143.062c0 2.167.711 2.579 2.43 2.579 1.646 0 2.355-.412 2.355-2.579v-15.819h9.575v16.753c0 7.218-5.087 9.873-11.933 9.873-7.028 0-12.002-2.655-12.002-9.873v-16.753h9.572v15.819h.003z"/><path fill="#97C441" d="M85.532 153.491h-9.576v-26.25h11.668c6.357 0 10.509 3.327 10.509 9.984 0 6.432-4.562 9.87-10.582 9.87-.675 0-1.312-.036-2.019-.111v6.507zm0-14.247c.334.113.707.149 1.009.149 1.12 0 2.021-.597 2.021-2.392 0-1.197-.562-2.057-1.76-2.057h-1.272v4.299h.002z"/><path fill="#97C441" d="M106.362 150.315l-.523 3.176h-10.134l6.618-26.063 13.609-.375 6.659 26.438h-10.171l-.562-3.176h-5.496zm2.768-16.344l-1.384 8.115h2.729l-1.345-8.115z"/><path fill="#97C441" d="M132.918 127.241v18.174h9.012l-.376 8.076h-18.212v-26.25h9.576z"/><path fill="#97C441" d="M152.399 140.366c0 3.665 1.049 4.899 3.967 4.899 1.683 0 3.063-.227 5.459-.674l1.494 8.301c-2.467.598-5.496.974-7.928.974-7.253 0-13.088-3.366-13.088-13.5 0-10.135 5.835-13.5 13.088-13.5 2.432 0 5.461.375 7.928.972l-1.494 8.303c-2.396-.449-3.776-.674-5.459-.674-2.918.002-3.967 1.235-3.967 4.899z"/><path fill="#97C441" d="M173.794 150.315l-.523 3.176h-10.136l6.618-26.063 13.611-.375 6.658 26.438h-10.174l-.56-3.176h-5.494zm2.768-16.344l-1.386 8.115h2.729l-1.343-8.115z"/><path fill="#97C441" d="M199.71 137.563l-.412 15.929h-9.273l2.806-26.062 12.116-.375 2.094 14.509 1.869-14.136 12.115-.375 3.142 26.438h-9.382l-.451-15.894-2.77 15.707-8.974.375-2.88-16.116z"/><path fill="#97C441" d="M235.239 153.491h-9.572v-26.25h11.667c6.354 0 10.509 3.327 10.509 9.984 0 6.432-4.562 9.87-10.585 9.87-.673 0-1.31-.036-2.019-.111v6.507zm0-14.247c.336.113.709.149 1.012.149 1.122 0 2.018-.597 2.018-2.392 0-1.197-.561-2.057-1.757-2.057h-1.272v4.3h-.001z"/><path fill="#97C441" d="M67.149 182.91l-.524 3.178h-10.136l6.617-26.063 13.613-.375 6.657 26.438h-10.172l-.561-3.178h-5.494zm2.766-16.342l-1.385 8.115h2.73l-1.345-8.115z"/><path fill="#97C441" d="M93.702 175.655c0 2.169.711 2.581 2.432 2.581 1.645 0 2.355-.412 2.355-2.581v-15.819h9.574v16.756c0 7.217-5.086 9.871-11.931 9.871-7.03 0-12.004-2.653-12.004-9.871v-16.756h9.572v15.819h.002z"/><path fill="#97C441" d="M112.028 177.152c3.703 1.045 6.844 1.494 9.35 1.494 1.533 0 1.158-1.645.412-1.645-4.674.111-12.416-1.347-12.416-8.602 0-5.535 2.992-8.938 12.041-8.938 3.029 0 6.844.412 9.574 1.233l-1.57 8.077c-3.516-.971-6.547-1.494-9.35-1.494-1.496 0-1.16 1.645-.41 1.645.859 0 12.412-.449 12.412 8.75 0 5.424-2.914 8.789-11.928 8.789-3.027 0-6.955-.412-9.687-1.234l1.572-8.075z"/><path fill="#97C441" d="M132.263 167.914l.375-8.078h21.838l-.373 8.078h-5.947v18.174h-9.573v-18.174h-6.32z"/><path fill="#97C441" d="M165.173 159.836v26.252h-9.574v-26.252h9.574z"/><path fill="#97C441" d="M176.618 186.088h-9.199v-26.063l8.637-.375 6.096 11.032v-10.846h9.201v26.065l-8.641.375-6.094-11.032v10.844z"/><path fill="#176DAD" d="M123.922 0c-5.018 29.02-47.192 32.887-47.192 72.807 0 26.07 21.133 47.193 47.191 47.193 26.061 0 47.189-21.123 47.189-47.193.001-39.92-42.415-43.787-47.188-72.807z"/><path fill="#135C91" d="M123.922 0c-5.018 29.02 32.309 41.779 32.309 81.701 0 26.07-32.309 38.299-32.309 38.299 26.061 0 47.189-21.123 47.189-47.193 0-39.92-42.416-43.787-47.189-72.807z"/><path fill="#152835" d="M102.016 94.801s12.244-4.512 18.254-4.002c6.008.512 8.797 2.23 8.797 2.23s3.766-1.711 7.301-1.416c3.535.293 8.631 1.824 8.631 1.824s-4.666 15.84-17.582 15.324c-12.919-.513-17.999-12.527-25.401-13.96z"/><path fill="#0B151C" d="M142.059 99.771c-2.676 4.346-7.34 9.281-14.643 8.99-7.443-.297-12.283-4.41-16.467-8.119 9.02 5.085 18.78 9.922 31.11-.871z"/><path fill="#C5D5F0" d="M109.922 95.35c3.057-.641 8.516.732 10.953 1.535 2.498.82 5.059 1.611 7.709 1.615l11.811-2.396c-2.412.895-7.857 4.766-11.75 4.766-9.434-.005-10.954-3.78-18.723-5.52z"/><path fill="#C5D5F0" d="M129.729 63.18c0 7.197 7.826 13.031 17.479 13.031 9.654 0 17.48-5.834 17.48-13.031 0-13.641-3.461-13.031-17.48-13.031-9.653-.001-17.479 5.833-17.479 13.031z"/><path fill="#C5D5F0" d="M118.236 63.18c0 7.197-7.826 13.031-17.48 13.031s-17.48-5.834-17.48-13.031c0-13.641 3.463-13.031 17.48-13.031 9.654-.001 17.48 5.833 17.48 13.031z"/><path fill="#A5B3C9" d="M153.932 50.598c4.441 6.637-2.16 22.027-11.883 25.508 12.004 3.842 22.326-11.402 22.326-11.402s1.281-17.048-10.443-14.106z"/><path fill="#A5B3C9" d="M116.555 62.844c.193-2.393-1.791-4.619-4.902-6.471-.096 6.244-13.779 16.012-19.254 15.049 2.684 2.123 6.014 3.498 9.734 3.385 9.857-.301 14.058-7.491 14.422-11.963z"/><path fill="#152835" d="M176.627 50.258c-.393-.369-8.936-7.594-28.807-2.541-13.068 3.322-19.068 8.566-19.846 9.566 0 0-1.895-.58-4.053-.58l-4.055.58c-.777-1-6.777-6.244-19.844-9.566-19.873-5.053-28.414 2.172-28.809 2.541-.393.371-.42 1.846.26 2.311 1.219.838 2.826 2.045 4.32 4.598 2.324 3.973 12.086 22.141 24.873 22.141 17.826 0 19.648-15.488 20.279-16.248.631-.762 1.471-1.051 2.975-1.051s2.342.289 2.973 1.051c.633.76 2.455 16.248 20.281 16.248 12.787 0 22.547-18.168 24.873-22.141 1.494-2.553 3.1-3.76 4.32-4.598.68-.465.654-1.94.26-2.311zm-60.072 12.586c-.363 4.473-4.564 11.662-14.422 11.963-9.855.301-16.959-9.84-16.598-16.652.363-6.811 8.164-7.568 16.145-5.621 7.982 1.945 15.238 5.837 14.875 10.31zm29.154 11.963c-9.855-.301-14.059-7.49-14.42-11.963-.363-4.473 6.893-8.365 14.873-10.311 7.982-1.947 15.783-1.189 16.145 5.621.363 6.813-6.741 16.953-16.598 16.653z"/><circle fill="#C5D5F0" cx="81.247" cy="50.598" r=".938"/><circle fill="#C5D5F0" cx="77.929" cy="50.598" r=".938"/><circle fill="#C5D5F0" cx="74.856" cy="51.184" r=".938"/><circle fill="#C5D5F0" cx="80.418" cy="53.918" r=".938"/><circle fill="#C5D5F0" cx="77.59" cy="54.162" r=".938"/><circle fill="#C5D5F0" cx="79.591" cy="57.234" r=".938"/><circle fill="#C5D5F0" cx="166.595" cy="50.598" r=".938"/><circle fill="#C5D5F0" cx="169.913" cy="50.598" r=".938"/><circle fill="#C5D5F0" cx="172.987" cy="51.184" r=".938"/><circle fill="#C5D5F0" cx="167.425" cy="53.918" r=".938"/><circle fill="#C5D5F0" cx="170.253" cy="54.162" r=".938"/><circle fill="#C5D5F0" cx="168.253" cy="57.234" r=".938"/></svg>