<!DOCTYPE svg PUBLIC "-//W3C//DTD SVG 1.1//EN" "http://www.w3.org/Graphics/SVG/1.1/DTD/svg11.dtd" [
	<!ENTITY ns_flows "http://ns.adobe.com/Flows/1.0/">
]><svg xmlns="http://www.w3.org/2000/svg" width="140" height="140" viewBox="121.026 113.975 140 140" overflow="visible" enable-background="new 121.026 113.975 140 140"><path fill="#FFFFFE" d="M136.941 216.882c-.786 0-1.521-.475-1.811-1.234l-.682-1.891h-7.508l-.709 1.891c-.288.76-1.024 1.234-1.837 1.234-1.182 0-1.97-.998-1.97-1.995 0-.238.025-.473.133-.709l5.117-13.151c.447-1.181 1.628-1.969 2.862-1.969 1.338-.106 2.677.683 3.177 1.969l5.092 13.151c.077.236.132.471.132.709.001.971-.787 1.995-1.996 1.995m-6.246-13.939l-2.73 7.532h5.46l-2.73-7.532z"/><path fill="#FFFFFE" d="M148.934 217.037c-2.547 0-5.697-.84-6.668-2.281-.183-.263-.289-.578-.289-.894 0-.997.866-1.732 1.759-1.732.341 0 .708.078.998.289 1.181.812 2.678 1.365 4.384 1.365 2.046 0 3.045-.946 3.045-1.942 0-3.098-10.079-.972-10.079-7.56 0-2.914 2.519-5.331 6.641-5.331 1.994 0 5.04.658 6.011 1.943.21.263.315.578.315.894 0 .997-.972 1.68-1.864 1.68-.315 0-.63-.078-.944-.263-1.207-.682-2.574-.997-3.859-.997-1.601 0-2.494.708-2.494 1.759 0 2.783 10.054.919 10.054 7.454-.003 3.204-2.287 5.616-7.01 5.616"/><path fill="#FFFFFE" d="M171.057 202.496h-3.649v12.522c0 1.022-.839 1.862-1.89 1.862-1.022 0-1.863-.84-1.863-1.862v-12.522h-3.648c-.892 0-1.627-.734-1.627-1.68 0-.866.735-1.602 1.627-1.602h11.051c.866 0 1.602.735 1.602 1.655-.002.893-.737 1.627-1.603 1.627"/><path fill="#FFFFFE" d="M184.046 217.037c-5.276 0-9.135-3.778-9.135-9.055s3.858-9.055 9.135-9.055c5.303 0 9.161 3.778 9.161 9.055s-3.858 9.055-9.161 9.055m0-14.804c-3.229 0-5.304 2.467-5.304 5.749 0 3.256 2.075 5.749 5.304 5.749 3.228 0 5.328-2.493 5.328-5.749 0-3.282-2.101-5.749-5.328-5.749"/><path fill="#FFFFFE" d="M210.683 216.882c-.709 0-1.417-.342-1.863-.946l-7.77-10.631v9.739c0 .997-.841 1.838-1.891 1.838-.997 0-1.838-.841-1.838-1.838v-13.597c0-1.234 1.051-2.39 2.44-2.39.789 0 1.576.367 2.05 1.024l7.454 10.132v-9.319c0-.996.84-1.837 1.891-1.837.997 0 1.837.841 1.837 1.837v13.73c0 1.181-.972 2.258-2.31 2.258"/><path fill="#FFFFFE" d="M219.785 216.882c-.996 0-1.837-.841-1.837-1.838v-14.149c0-.996.841-1.837 1.89-1.837.998 0 1.837.841 1.837 1.837v14.149c0 .997-.839 1.838-1.89 1.838"/><path fill="#FFFFFE" d="M232.854 217.037c-2.546 0-5.695-.84-6.668-2.281-.183-.263-.288-.578-.288-.894 0-.997.867-1.732 1.759-1.732.341 0 .709.078.998.289 1.181.812 2.677 1.365 4.384 1.365 2.047 0 3.044-.946 3.044-1.942 0-3.098-10.079-.972-10.079-7.56 0-2.914 2.52-5.331 6.642-5.331 1.995 0 5.041.658 6.011 1.943.21.263.315.578.315.894 0 .997-.972 1.68-1.864 1.68-.314 0-.631-.078-.945-.263-1.207-.682-2.572-.997-3.858-.997-1.6 0-2.494.708-2.494 1.759 0 2.783 10.054.919 10.054 7.454-.002 3.204-2.286 5.616-7.011 5.616"/><path fill="#FFFFFE" d="M257.735 216.882c-1.024 0-1.863-.841-1.863-1.863v-5.646h-8.27v5.671c0 .997-.84 1.838-1.89 1.838-.997 0-1.837-.841-1.837-1.838v-14.149c0-.996.84-1.837 1.889-1.837.998 0 1.838.841 1.838 1.837v5.198h8.27v-5.198c0-.996.839-1.837 1.915-1.837.999 0 1.838.841 1.838 1.837v14.124c0 1.022-.839 1.863-1.89 1.863"/><path fill="#FFFFFE" d="M237.138 150.271c-1.941-1.141-36.434-21.639-36.434-21.639-2.015-1.202-4.625-.536-5.823 1.479-1.199 2.021-.535 4.626 1.484 5.824l30.287 17.989-26.632 15.817s-22.71-38.251-23.555-39.659c-.843-1.401-2.175-2.081-3.664-2.081-1.49 0-2.896.823-3.646 2.075-.747 1.252-25.729 43.319-25.729 43.319-1.198 2.015-.531 4.617 1.481 5.822 1.951 1.172 4.59.563 5.822-1.486 2.068-3.424 22.078-37.168 22.078-37.168s20.744 34.944 22.072 37.168c1.331 2.229 4.015 2.561 5.826 1.486 4.235-2.501 34.236-20.296 36.431-21.639 1.563-.957 2.139-2.466 2.077-3.734-.051-1.243-.5-2.646-2.075-3.573"/><path fill="#FFFFFE" d="M154.359 239.667h-3.939c-.947 0-1.724-.774-1.724-1.723v-10.914c0-.946.776-1.722 1.724-1.722h3.939c4.499 0 7.62 2.863 7.62 7.19 0 4.329-3.121 7.169-7.62 7.169m0-11.668h-2.605v8.979h2.605c2.841 0 4.499-2.047 4.499-4.479 0-2.541-1.549-4.5-4.499-4.5"/><path fill="#FFFFFE" d="M174.866 239.667h-7.253c-.949 0-1.722-.774-1.722-1.723v-10.914c0-.946.772-1.722 1.722-1.722h7.253c.712 0 1.313.603 1.313 1.356 0 .732-.602 1.334-1.313 1.334h-5.919v3.036h5.77c.709 0 1.313.602 1.313 1.356 0 .731-.604 1.334-1.313 1.334h-5.77v3.253h5.919c.712 0 1.313.601 1.313 1.312.001.775-.601 1.378-1.313 1.378"/><path fill="#FFFFFE" d="M185.479 239.926c-2.089 0-4.672-.689-5.468-1.874-.151-.214-.237-.473-.237-.731 0-.817.711-1.422 1.442-1.422.281 0 .581.065.817.238.971.667 2.197 1.119 3.597 1.119 1.679 0 2.496-.775 2.496-1.592 0-2.541-8.267-.798-8.267-6.201 0-2.388 2.067-4.37 5.447-4.37 1.637 0 4.134.539 4.929 1.594.173.214.259.474.259.731 0 .817-.796 1.379-1.528 1.379-.259 0-.516-.065-.774-.216-.991-.56-2.11-.818-3.166-.818-1.312 0-2.044.58-2.044 1.441 0 2.282 8.245.754 8.245 6.115.001 2.625-1.873 4.607-5.748 4.607"/><path fill="#FFFFFE" d="M196.736 239.798c-.816 0-1.505-.689-1.505-1.508v-11.604c0-.817.688-1.508 1.55-1.508.818 0 1.506.69 1.506 1.508v11.604c0 .818-.687 1.508-1.551 1.508"/><path fill="#FFFFFE" d="M210.02 239.948c-4.197 0-7.643-2.929-7.643-7.448 0-4.544 3.445-7.43 7.643-7.43 2.324 0 3.981.906 5.101 2.111.238.259.368.603.368.926 0 .752-.691 1.377-1.444 1.377-.366 0-.753-.151-1.032-.43-.817-.797-1.896-1.271-2.992-1.271-2.605 0-4.5 2.002-4.5 4.716 0 2.712 1.895 4.711 4.5 4.711 1.271 0 2.475-.558 3.056-1.096v-1.723h-2.604c-.731 0-1.313-.581-1.313-1.355 0-.733.582-1.312 1.313-1.312h3.938c.949 0 1.724.775 1.724 1.721v2.433c-.002 2.606-3.209 4.07-6.115 4.07"/><path fill="#FFFFFE" d="M231.46 239.798c-.582 0-1.164-.28-1.528-.776l-6.371-8.718v7.986c0 .818-.69 1.508-1.552 1.508-.816 0-1.507-.689-1.507-1.508v-11.151c0-1.014.861-1.96 2.003-1.96.646 0 1.29.302 1.679.841l6.112 8.31v-7.643c0-.817.69-1.508 1.552-1.508.817 0 1.507.69 1.507 1.508v11.258c-.001.968-.797 1.853-1.895 1.853"/></svg>