<!DOCTYPE svg PUBLIC "-//W3C//DTD SVG 1.1//EN" "http://www.w3.org/Graphics/SVG/1.1/DTD/svg11.dtd" [
	<!ENTITY ns_flows "http://ns.adobe.com/Flows/1.0/">
]><svg xmlns="http://www.w3.org/2000/svg" width="140" height="140" overflow="visible"><path fill="#fff" d="M97.215 84.266c5.737-4.385 9.08-10.121 10.026-17.208.946-7.086-.773-13.499-5.159-19.235-1.878-2.459-4.499-4.699-7.859-6.716-.607-3.173-2.081-6.29-4.42-9.349-4.384-5.738-10.119-9.082-17.207-10.027-7.086-.946-13.498.772-19.235 5.159l-16.066 12.277-.095.086-4.481 3.425 7.01 9.171 4.573-3.495.009-.007 16.066-12.28c3.168-2.42 6.729-3.369 10.683-2.84 3.952.528 7.141 2.377 9.564 5.545.876 1.148 1.484 2.112 1.821 2.894.338.781 1.051 1.908 1.327 3.691.124.8.352 2.211.938 2.977.645.847 1.733 1.312 2.555 1.7 1.182.554 1.944 1.22 2.389 1.575 1.328 1.062 2.412 2.137 3.248 3.23 2.423 3.17 3.369 6.731 2.842 10.685-.529 3.952-2.378 7.14-5.546 9.562l-16.066 12.28-.036.031-4.561 3.487 7.01 9.172 4.523-3.461.08-.05 16.067-12.279z"/><path fill="#fff" d="M85.688 60.352c-.961-1.258-2.153-2.055-3.581-2.393-1.426-.337-2.822.016-4.188 1.059l-11.477 8.772-5.263-6.887 11.477-8.77c1.365-1.044 2.073-2.299 2.122-3.764.049-1.466-.408-2.828-1.368-4.083-.961-1.258-2.156-2.055-3.582-2.392-1.426-.338-2.824.014-4.189 1.058l-16.066 12.28-.032.031-4.547 3.474 3.438 4.498.061.097 12.279 16.066.104.12 3.407 4.456 4.461-3.41.127-.083 16.066-12.281c1.365-1.044 2.073-2.299 2.12-3.764.049-1.465-.407-2.827-1.369-4.084"/><path fill="#fff" d="M1.4 105.254h7.8c3.046 0 5.076.855 5.076 3.313 0 1.639-.801 2.244-1.496 2.689.909.392 1.995 1.495 1.995 3.188 0 2.44-1.941 3.758-5.094 3.758h-8.281v-12.948zm7.961 5.112c1.656 0 2.387-.41 2.387-1.496 0-1.104-.73-1.515-2.387-1.515h-5.432v3.011h5.432zm.072 5.735c1.603 0 2.813-.321 2.813-1.853 0-1.352-1.104-1.781-2.813-1.781h-5.504v3.634h5.504z"/><polygon fill="#fff" points="17.231,105.254 19.761,105.254 19.761,115.959 29.146,115.959 29.146,118.202 17.231,118.202"/><path fill="#fff" d="M36.074 105.254h2.885l6.287 12.948h-2.671l-1.354-2.974h-7.464l-1.37 2.974h-2.69l6.377-12.948zm4.151 7.801l-2.708-5.771-2.707 5.771h5.415z"/><path fill="#fff" d="M60.526 113.59c-.25 1.443-1.282 4.933-7.231 4.933-4.097 0-7.319-2.278-7.319-7 0-3.774 2.368-6.589 7.516-6.589 5.788 0 6.644 3.758 6.839 4.452h-2.528c-.143-.444-1.141-2.277-4.168-2.277-3.579 0-5.077 2.011-5.077 4.699 0 2.976 2.156 4.542 4.935 4.542 2.956 0 4.257-1.763 4.506-2.76h2.527z"/><polygon fill="#fff" points="62.751,105.254 65.28,105.254 65.28,111.292 72.458,105.254 76.056,105.254 69.875,110.384 76.679,118.202 73.366,118.202 68.041,111.879 65.28,114.178 65.28,118.202 62.751,118.202"/><polygon fill="#fff" points="78.742,105.254 81.165,105.254 85.957,116.154 90.746,105.254 93.171,105.254 93.171,118.202 91.728,118.202 91.728,106.643 91.692,106.643 86.632,118.202 85.315,118.202 80.221,106.643 80.186,106.643 80.186,118.202 78.742,118.202"/><polygon fill="#fff" points="96.553,105.254 108.094,105.254 108.094,106.643 98.119,106.643 98.119,110.776 106.454,110.776 106.454,112.164 98.119,112.164 98.119,116.814 108.307,116.814 108.307,118.202 96.553,118.202"/><path fill="#fff" d="M110.532 114.498c.748.996 1.995 2.637 5.878 2.637 1.994 0 4.719-.57 4.719-2.584 0-3.937-11.291-.479-11.291-5.733 0-2.762 2.546-3.884 6.074-3.884 3.418 0 5.52 1.407 6.411 2.653l-1.142.927c-.532-.606-1.779-2.262-5.306-2.262-2.6 0-4.436.676-4.436 2.315 0 3.918 11.293.178 11.293 5.983 0 2.173-2.103 3.972-6.501 3.972-4.24 0-5.807-1.763-6.912-2.991l1.213-1.033z"/><polygon fill="#fff" points="125.279,105.254 126.846,105.254 126.846,110.741 137.033,110.741 137.033,105.254 138.6,105.254 138.6,118.202 137.033,118.202 137.033,112.129 126.846,112.129 126.846,118.202 125.279,118.202"/></svg>