<!DOCTYPE svg PUBLIC "-//W3C//DTD SVG 1.1//EN" "http://www.w3.org/Graphics/SVG/1.1/DTD/svg11.dtd" [
	<!ENTITY ns_flows "http://ns.adobe.com/Flows/1.0/">
]><svg xmlns="http://www.w3.org/2000/svg" width="140" height="140" viewBox="41.332 35 140 140" overflow="visible" enable-background="new 41.332 35 140 140"><polygon fill="#fff" points="90.367,89.274 87.089,85.995 87.089,91.971 93.064,91.971"/><path fill="#fff" d="M86.348 92.711v-7.086l-16.962-.001c-.001 0-.488.014-.651.034-3.482 0-6.39 1.138-6.72 6.281-.33-5.144-3.239-6.281-6.721-6.281-.164-.021-.65-.034-.65-.034h-8.311v33.979h6.854c3.524 0 6.387 1.896 6.804 4.772h4.049c.417-2.876 3.281-4.772 6.805-4.772h22.591v-26.892h-7.088zm-10.835 23.243c-3.333 0-6.345-1.63-7.196-3.224-1.028-2.341-.284-4.716 1.772-4.716 1.631 0 2.304 1.24 2.304 2.375 0 1.347-.921 2.552-1.311 3.048.531 1.063 3.013 1.49 4.431 1.49 3.049 0 4.786-2.447 4.786-5.992 0-4.432-2.446-6.452-7.622-5.353l-.567-1.241h.037l-.284-.46c7.197-.957 7.764-3.475 7.764-5.921 0-2.305-1.205-4.855-3.97-4.855-1.17 0-2.588.211-3.617 1.027.603.991 1.206 1.879 1.206 3.332 0 1.666-.957 2.409-2.447 2.409-1.808 0-2.374-2.516-1.524-4.287 1.383-2.696 4.999-3.547 7.303-3.547 3.829 0 7.939 1.772 7.939 6.028 0 2.94-2.374 5.317-7.55 6.38l.071.319c5.743.035 8.473 3.085 8.473 6.275-.001 4.965-4.999 6.913-9.998 6.913z"/><path fill="#fff" d="M102.544 98.962c-1.28 0-2.451-.476-3.328-1.354-1.225-1.223-1.225-2.503-1.225-5.265 0-2.761 0-4.04 1.225-5.265.877-.879 2.048-1.354 3.328-1.354 2.339 0 4.076 1.428 4.516 3.877h-1.426c-.349-1.591-1.463-2.633-3.09-2.633-.86 0-1.684.329-2.25.914-.823.842-.914 1.737-.914 4.461s.091 3.62.914 4.462c.566.585 1.39.914 2.25.914 1.627 0 2.777-1.043 3.126-2.634h1.39c-.421 2.45-2.196 3.877-4.516 3.877z"/><path fill="#fff" d="M116.533 98.851v-6.014h-6.253v6.014h-1.405v-13.174h1.405v5.902h6.253v-5.902h1.406v13.174h-1.406z"/><path fill="#fff" d="M129.616 98.851l-1.054-2.979h-5.756l-1.054 2.979h-1.499l4.848-13.174h1.185l4.829 13.174h-1.499zm-3.904-11.158l-2.479 6.957h4.921l-2.442-6.957z"/><path fill="#fff" d="M138.701 93.429h-3.497v5.422h-1.406v-13.174h4.903c2.406 0 4.07 1.498 4.07 3.866 0 2.369-1.664 3.886-4.07 3.886zm-.129-6.494h-3.368v5.237h3.368c1.646 0 2.793-.889 2.793-2.629 0-1.739-1.146-2.608-2.793-2.608z"/><path fill="#fff" d="M149.877 86.935v11.916h-1.405v-11.916h-3.812v-1.258h9.028v1.258h-3.811z"/><path fill="#fff" d="M156.335 98.851v-13.174h8.179v1.258h-6.771v4.645h5.771v1.258h-5.771v4.755h6.771v1.259h-8.179z"/><path fill="#fff" d="M174.68 98.851l-3.006-5.865h-3.173v5.865h-1.411v-13.214h5.066c2.302 0 3.915 1.393 3.915 3.675 0 1.931-1.168 3.192-2.875 3.545l3.136 5.994h-1.652zm-2.653-11.953h-3.526v4.844h3.526c1.539 0 2.634-.799 2.634-2.412 0-1.615-1.095-2.432-2.634-2.432z"/><path fill="#fff" d="M106.414 104.129v15.249h-3.604v-15.249h-4.823v-3.216h13.252v3.216h-4.825z"/><path fill="#fff" d="M124.282 119.378v-7.729h-6.25v7.729h-3.604v-18.465h3.604v7.547h6.25v-7.547h3.606v18.465h-3.606z"/><path fill="#fff" d="M141.146 119.378l-3.605-7.364h-2.594v7.364h-3.605v-18.465h7.237c3.761 0 5.991 2.568 5.991 5.654 0 2.592-1.583 4.201-3.373 4.85l4.125 7.961h-4.176zm-2.802-15.249h-3.397v4.876h3.397c1.583 0 2.62-1.012 2.62-2.438 0-1.426-1.037-2.438-2.62-2.438z"/><path fill="#fff" d="M148.191 119.378v-18.465h12.164v3.216h-8.56v4.331h7.288v3.216h-7.288v4.487h8.56v3.215h-12.164z"/><path fill="#fff" d="M164.14 119.378v-18.465h12.164v3.216h-8.559v4.331h7.288v3.216h-7.288v4.487h8.559v3.215h-12.164z"/></svg>