<!DOCTYPE svg PUBLIC "-//W3C//DTD SVG 1.1//EN" "http://www.w3.org/Graphics/SVG/1.1/DTD/svg11.dtd" [
	<!ENTITY ns_flows "http://ns.adobe.com/Flows/1.0/">
]><svg xmlns="http://www.w3.org/2000/svg" width="140" height="140" viewBox="0 -50.54 140 140" overflow="visible" enable-background="new 0 -50.54 140 140"><path fill="#fff" d="M71.756 32.802l3.934.5c.066.479.217.809.454.988.327.258.844.386 1.545.386.901 0 1.574-.141 2.022-.425.302-.188.532-.491.687-.911.106-.3.157-.852.157-1.657v-1.991c-1.027 1.474-2.328 2.209-3.896 2.209-1.75 0-3.137-.774-4.156-2.324-.802-1.225-1.201-2.748-1.201-4.573 0-2.286.521-4.033 1.574-5.241 1.05-1.208 2.356-1.812 3.917-1.812 1.609 0 2.938.741 3.985 2.222v-1.914h3.224v12.241c0 1.61-.127 2.815-.381 3.61-.251.798-.607 1.422-1.066 1.876-.456.452-1.067.81-1.834 1.065-.764.258-1.73.386-2.897.386-2.208 0-3.771-.396-4.695-1.188-.924-.794-1.386-1.797-1.386-3.013l.013-.434m3.076-8.004c0 1.448.268 2.507.802 3.181.536.671 1.196 1.007 1.98 1.007.843 0 1.554-.345 2.136-1.034.577-.689.87-1.71.87-3.063 0-1.413-.279-2.462-.836-3.147-.554-.685-1.26-1.027-2.107-1.027-.825 0-1.507.336-2.043 1.008-.534.671-.802 1.697-.802 3.075"/><path fill="#fff" d="M94.334 31.9v-2.041c-.473.728-1.097 1.302-1.869 1.72-.771.42-1.588.63-2.444.63-.877 0-1.661-.2-2.356-.604-.693-.401-1.197-.967-1.507-1.694-.311-.729-.465-1.735-.465-3.02v-8.633h3.443v6.271c0 1.916.065 3.093.189 3.524.127.433.359.776.695 1.027.332.253.759.38 1.274.38.588 0 1.115-.17 1.582-.508.465-.338.782-.758.956-1.258.171-.503.256-1.729.256-3.681v-5.756h3.446v13.643h-3.2z"/><path fill="#fff" d="M98.484 18.258h3.664l3.115 9.688 3.042-9.688h3.567l-4.6 13.128-.82 2.378c-.304.795-.59 1.404-.863 1.824-.273.419-.589.76-.945 1.021-.355.26-.792.465-1.312.609s-1.104.218-1.76.218c-.662 0-1.312-.073-1.948-.218l-.309-2.825c.541.109 1.026.165 1.461.165.801 0 1.394-.245 1.777-.738.383-.491.679-1.119.882-1.882l-4.951-13.68z"/><path fill="#fff" d="M111.219 28.01l3.457-.553c.147.703.447 1.236.896 1.598.449.365 1.077.547 1.887.547.891 0 1.562-.172 2.011-.513.302-.241.454-.562.454-.964 0-.272-.082-.502-.245-.682-.171-.17-.557-.329-1.153-.476-2.777-.642-4.538-1.228-5.282-1.76-1.029-.736-1.547-1.76-1.547-3.07 0-1.181.445-2.174 1.338-2.98.89-.803 2.271-1.207 4.144-1.207 1.781 0 3.104.304 3.972.912.868.609 1.464 1.508 1.789 2.699l-3.247.629c-.141-.531-.401-.938-.791-1.22-.389-.283-.943-.424-1.662-.424-.907 0-1.556.132-1.948.397-.262.189-.392.434-.392.732 0 .258.112.477.344.655.309.239 1.381.577 3.216 1.016 1.835.436 3.117.973 3.844 1.604.721.642 1.079 1.537 1.079 2.685 0 1.251-.497 2.325-1.496 3.225-.997.898-2.473 1.349-4.426 1.349-1.773 0-3.179-.375-4.211-1.13-1.035-.754-1.71-1.777-2.031-3.069"/><path fill="#fff" d="M12.678 4.595l-3.556.673c-.119-.744-.39-1.304-.814-1.68-.424-.377-.973-.565-1.649-.565-.897 0-1.615.324-2.149.974-.534.649-.803 1.737-.803 3.26 0 1.694.271 2.891.816 3.59.543.699 1.271 1.049 2.188 1.049.685 0 1.243-.203 1.681-.612.437-.407.744-1.109.924-2.103l3.543.631c-.369 1.704-1.074 2.99-2.118 3.859-1.043.869-2.442 1.305-4.196 1.305-1.993 0-3.582-.661-4.768-1.978-1.186-1.316-1.777-3.141-1.777-5.471 0-2.358.593-4.191 1.782-5.506 1.189-1.313 2.799-1.97 4.825-1.97 1.66 0 2.98.375 3.959 1.123.98.748 1.683 1.889 2.112 3.421"/><path fill="#fff" d="M28.763.373h3.324v1.951c1.189-1.515 2.604-2.273 4.247-2.273.875 0 1.629.19 2.272.565.644.377 1.167.946 1.577 1.708.599-.763 1.247-1.332 1.94-1.708.692-.375 1.434-.565 2.219-.565 1.002 0 1.849.214 2.541.638.695.426 1.211 1.052 1.553 1.876.249.61.373 1.595.373 2.958v9.128h-3.608v-8.16c0-1.415-.122-2.331-.371-2.742-.332-.538-.846-.807-1.539-.807-.504 0-.98.162-1.423.483-.447.324-.769.797-.964 1.419-.196.624-.295 1.608-.295 2.952v6.856h-3.605v-7.824c0-1.39-.065-2.286-.193-2.689-.128-.404-.327-.704-.597-.901-.27-.197-.634-.295-1.096-.295-.557 0-1.058.157-1.501.471-.448.314-.764.767-.956 1.358-.195.591-.291 1.574-.291 2.944v6.938h-3.605v-14.281z"/><path fill="#fff" d="M50.555.373h3.323v1.951c1.188-1.515 2.603-2.273 4.249-2.273.871 0 1.629.19 2.271.565.639.377 1.166.946 1.577 1.708.599-.763 1.245-1.332 1.938-1.708.691-.375 1.433-.565 2.22-.565 1.001 0 1.849.214 2.541.638.692.426 1.21 1.052 1.552 1.876.249.61.372 1.595.372 2.958v9.128h-3.605v-8.16c0-1.415-.125-2.331-.373-2.742-.334-.538-.846-.807-1.541-.807-.502 0-.979.162-1.424.483-.444.324-.765.797-.962 1.419-.198.624-.295 1.608-.295 2.952v6.856h-3.605v-7.824c0-1.39-.062-2.286-.193-2.689-.128-.404-.328-.704-.597-.901-.267-.197-.636-.295-1.096-.295-.557 0-1.057.157-1.501.471s-.764.767-.956 1.358c-.192.591-.29 1.574-.29 2.944v6.938h-3.604v-14.281z"/><path fill="#fff" d="M81.493 10.107l3.593.632c-.462 1.38-1.191 2.432-2.188 3.154-.998.72-2.245 1.083-3.74 1.083-2.37 0-4.124-.812-5.262-2.434-.898-1.3-1.347-2.94-1.347-4.92 0-2.367.589-4.219 1.77-5.561 1.18-1.339 2.674-2.01 4.479-2.01 2.026 0 3.629.702 4.799 2.104 1.173 1.404 1.733 3.553 1.682 6.448h-9.033c.024 1.12.316 1.992.872 2.614.557.624 1.249.936 2.079.936.565 0 1.039-.163 1.425-.483.384-.325.673-.845.871-1.563m.206-3.818c-.024-1.093-.295-1.924-.81-2.493-.513-.569-1.137-.854-1.874-.854-.786 0-1.437.302-1.949.901-.513.601-.766 1.415-.758 2.446h5.391z"/><path fill="#fff" d="M90.422 14.654h-3.606v-14.281h3.35v2.03c.573-.958 1.089-1.59 1.546-1.894.456-.306.979-.459 1.56-.459.821 0 1.612.239 2.375.714l-1.118 3.292c-.605-.412-1.172-.618-1.693-.618-.504 0-.933.146-1.283.437-.352.292-.626.818-.827 1.581-.2.761-.302 2.355-.302 4.786v4.412z"/><path fill="#fff" d="M108.491 4.609l-3.556.673c-.12-.745-.392-1.304-.813-1.68-.423-.377-.975-.565-1.649-.565-.896 0-1.614.325-2.15.976-.534.648-.802 1.737-.802 3.26 0 1.694.272 2.891.815 3.59s1.271 1.048 2.188 1.048c.686 0 1.244-.202 1.683-.611.436-.408.742-1.109.923-2.104l3.54.632c-.365 1.705-1.073 2.989-2.117 3.859-1.044.87-2.442 1.305-4.193 1.305-1.993 0-3.583-.66-4.769-1.978-1.186-1.317-1.777-3.142-1.777-5.472 0-2.358.596-4.191 1.784-5.505s2.797-1.97 4.825-1.97c1.658 0 2.979.375 3.957 1.123.98.747 1.682 1.886 2.111 3.419"/><path fill="#fff" d="M119.245 10.107l3.593.632c-.462 1.38-1.191 2.432-2.188 3.154-.997.72-2.243 1.083-3.741 1.083-2.37 0-4.124-.812-5.261-2.434-.898-1.3-1.348-2.94-1.348-4.92 0-2.367.591-4.219 1.771-5.561 1.18-1.339 2.674-2.01 4.479-2.01 2.028 0 3.627.702 4.799 2.104 1.172 1.404 1.733 3.553 1.682 6.448h-9.035c.025 1.12.318 1.992.875 2.614.554.624 1.247.936 2.077.936.564 0 1.039-.163 1.423-.483.386-.325.678-.845.874-1.563m.204-3.818c-.025-1.093-.294-1.924-.808-2.493s-1.138-.854-1.876-.854c-.785 0-1.437.302-1.949.901-.514.601-.766 1.415-.757 2.446h5.39z"/><path fill="#fff" d="M27.695 7.526c0 4.127-3.192 7.473-7.133 7.473-3.938 0-7.131-3.346-7.131-7.473s3.193-7.473 7.131-7.473c3.941 0 7.133 3.345 7.133 7.473zm-5.222-3.791l-.023-.014c-.422-.276-.833-.406-1.239-.652l-.151-.098c-.286-.202-.681-.685-1.013-1.101v.001l-.002-.003c-.021.206-.052.375-.091.515-.084.284-.207.454-.348.582l-.041.035c-.472.387-.767.503-1.172.735l-.145.087c-.247.154-.678.469-1.079.966-.508.625-.972 1.535-.972 2.782 0 .797.204 1.526.557 2.149.376.673.924 1.223 1.569 1.604l.011.005.037.021.031.019.037.018.035.019.016.011.049.025.006.002c.577.294 1.217.459 1.879.459 2.225 0 4.153-1.692 4.153-4.253-.001-2.562-1.81-3.72-2.104-3.914"/><path fill="#fff" d="M139.445 25.907c-.102-.31-.1-.897-.386-1.149-.239-.21-.519-.277-.519-.277-.219-.538-.553-.812-.566-1.326-.008-.295.166-.841.226-1.154.067-.413-.092-.885-.057-1.312.014-.15.226-.035.205-.231-.041-.389-.011-.794-.012-1.186-.011-1.538-.202-3.066-.42-4.593l-.11-.959s-.137-1.538-.392-2.633c-.073-.597-.298-1.07-.287-1.67.01-.658-.652-1.024-.652-1.024l-2.795-.823c-.283-.178-.536-.381-.722-.619.95-.502 1.614-1.47 1.614-2.726 0-1.872-1.384-2.718-1.61-2.86l-.019-.01c-.321-.202-.638-.297-.948-.477l-.114-.07c-.22-.15-.521-.502-.776-.806l-.002.002v-.004c-.015.151-.041.273-.07.375-.064.209-.16.333-.265.426l-.032.025c-.36.282-.587.367-.896.536l-.114.064c-.186.113-.516.342-.824.707-.388.455-.743 1.122-.743 2.033 0 .583.156 1.115.424 1.571.291.491.709.894 1.202 1.171l.009.005.029.015.023.013.026.015.026.013.015.008.037.018h.004l.103.047c-.185.243-.45.467-.752.654l-.977.435s-1.103.483-1.312.585c-.211.103-.216.245-.216.245l-.248 1.179-.254 1.141c-.038.141-.527 2.991-.623 3.272-.096.282-.491 1.001-.455 1.254.035.254.42 2.338.42 2.338l.388 1.162.492.985.14.776.493.422v-1.1l.026.044.135.734.6 1.224.017-.039v.001c.098.459.199.946.199.989.288.368.408 2.527.408 2.527l.244.571-.516 3.316.026 4.921.816 1.386.218.925.406.082.034-.04.004.018-.009.104-.681 1.005v.489l.136.273 1.768-.055.217-.436h.328l-.022-1.333.006-.014.151.096.163-.216.026-.491-.108-1.304-.216-3.289s-.164-1.033-.191-1.143c-.028-.109.082-4.974.082-4.974l.381-.871 1.168 3.941-.407 2.475.623 2.283c.029.082.137.652.137.652l.101-.009-.009.191-.002.027.002.001-.037.851.082.922.624.926.626-.055.22-.271.323-1.168-.08-.899-.372-.917-.006.01.076-.177s.355-.408.381-.518l.354-2.961c.028-.083.193-.572.193-.681 0-.109-.25-.691-.165-1.061l.011-.042.154.229c.219.246.386.535.496.846.218.57.534 1.093.836 1.622.3.525 1.089.147 1.551.054.215-.045.725-.253 1.083-.364.671-.201-.3-4.539-.319-4.89zm-11.738-5.608h-.555v-.216l.316-.6.213-.422.158-.174-.132 1.412zm2.444-13.166l.276.096c.283.367.665.587.665.587s-.333-.203-.835.549c-.018-.011-.106-1.232-.106-1.232zm1.279 4.732l-.952-2.727s-.274-.633-.158-.772c.12-.14.226-.248.471-.356.244-.109.139-.11.67-.205.589.013 1.156.321 1.281.638.087.263-.018.439-.14.768.109-.146-1.172 2.654-1.172 2.654zm1.57-4.354l-.009-.072c-.004.258-.173.911-.173.911s-.266-.391-.834-.581c-.028.014.557-.363.739-.706l.001-.002.165-.076.075.225.039.293-.003.008zm3.609 14.794l-.019-.11c0-.136-.095-.613-.192-1.161l.104-.083.352.036c-.005.446-.137 1.318-.245 1.318zm1.193 2.149c-.074-.027-.358.016-.303.039-.125-.054-.168.128-.151-.084.024-.322.052-.646.039-.967.317.037.44.744.544 1.043l-.129-.031z"/><polygon fill="#fff" points="130.998,7.804 131.979,7.804 131.595,8.55 132.157,10.258 131.422,11.865 130.908,10.409 131.368,8.528"/></svg>