<!DOCTYPE svg PUBLIC "-//W3C//DTD SVG 1.1//EN" "http://www.w3.org/Graphics/SVG/1.1/DTD/svg11.dtd" [
	<!ENTITY ns_flows "http://ns.adobe.com/Flows/1.0/">
]><svg xmlns="http://www.w3.org/2000/svg" width="250" height="140" overflow="visible"><path fill="#fff" d="M28.155 90h-14.474v-40h14.223v4.553h-8.885v12.684h8.226v4.554h-8.226v13.783h9.136v4.426z"/><path fill="#fff" d="M52.833 90h-4.238l-10.204-27.453-.125.012v27.441h-4.836v-40h4.301l10.236 27.449.125.023v-27.472h4.741v40z"/><path fill="#fff" d="M75.625 54.553h-6.122v35.447h-5.4v-35.447h-6.091v-4.553h17.614v4.553z"/><path fill="#fff" d="M95.303 90h-14.474v-40h14.223v4.553h-8.885v12.684h8.226v4.554h-8.226v13.783h9.136v4.426z"/><path fill="#fff" d="M118.521 90h-5.603l-6.265-18.775h-.471v18.775h-5.4v-40h7.473c6.091 0 9.137 3.412 9.137 10.235 0 3.099-.451 5.432-1.35 7.001-.9 1.57-2.365 2.754-4.395 3.549l6.874 19.215zm-12.339-22.449c2.093-.041 3.605-.538 4.537-1.491.931-.952 1.397-2.685 1.397-5.196 0-2.406-.424-4.123-1.271-5.148s-2.297-1.539-4.349-1.539h-.314v13.374z"/><path fill="#fff" d="M151.582 90h-4.982l-2.031-25.589h-.125l-5.452 25.589h-3.359l-5.158-25.589h-.158l-2.1 25.589h-5.048l3.925-40h4.668l5.566 28.038h.125l5.695-28.038h4.666l3.768 40z"/><path fill="#fff" d="M171.406 90h-14.473v-40h14.223v4.553h-8.887v12.684h8.227v4.554h-8.227v13.783h9.137v4.426z"/><path fill="#fff" d="M177.018 50h7.787c3.684 0 6.588 1.387 8.713 4.16s3.188 7.99 3.188 15.651c0 7.39-.932 12.602-2.795 15.636-1.864 3.035-5.214 4.553-10.048 4.553h-6.846v-40zm5.4 4.113v31.837c2.262 0 3.977-.419 5.15-1.256 1.172-.837 2.045-2.396 2.621-4.679.576-2.281.863-5.703.863-10.267 0-5.819-.539-9.88-1.617-12.183-1.078-2.302-3.176-3.453-6.295-3.453h-.722z"/><path fill="#fff" d="M203.174 50h5.4v40h-5.4v-40z"/><path fill="#fff" d="M236.318 90h-5.205l-1.463-7.912h-8.467l-1.484 7.912h-5.139l8.635-40h4.426l8.697 40zm-7.388-11.962l-3.516-18.979h-.129l-3.324 18.979h6.969z"/></svg>