<!DOCTYPE svg PUBLIC "-//W3C//DTD SVG 1.1//EN" "http://www.w3.org/Graphics/SVG/1.1/DTD/svg11.dtd" [
	<!ENTITY ns_flows "http://ns.adobe.com/Flows/1.0/">
]><svg xmlns="http://www.w3.org/2000/svg" width="140" height="140" viewBox="676.435 52.596 140 140" overflow="visible" enable-background="new 676.435 52.596 140 140"><path fill="#fff" d="M680.798 112.498h-.081l-.121.04h-.727l-.142.041h-.829c-.27 0-.525-.014-.768-.041-.242-.026-.472-.066-.687-.121-.242-.054-.438-.141-.586-.263-.148-.121-.249-.262-.303-.424l-.061-.061-.021-.061v-.161l-.04-.041v-.203c0-.188.04-.356.121-.505.081-.147.202-.275.363-.384.135-.134.289-.228.465-.282.175-.054.356-.081.545-.081h12.199000000000002c.161 0 .336-.013.524-.04.216 0 .425-.007.627-.021.201-.013.424-.033.666-.061h.6859999999999999l.242-.04h1.131l.202-.041h.9299999999999999l.222.041h.223l.363.02.323.061c.188.027.343.088.465.183.121.095.194.209.222.343.054.136.094.276.121.424.026.148.04.304.04.465v.526l-.04.101v.385l-.202 4.646c-.027.216-.067.404-.121.565-.055.161-.135.31-.242.444l-.161.161-.162.121-.202.122-.161.04-.061.04h-.14200000000000002c-.135 0-.263-.026-.384-.08s-.236-.135-.343-.243c-.108-.08-.196-.194-.263-.343-.068-.147-.115-.316-.142-.505l-.021-.142-.021-.142-.04-.121v-.404l-.04-.122v-.161l-.081-.707c-.027-.229-.067-.45-.121-.666-.055-.216-.148-.425-.283-.626-.135-.202-.31-.397-.524-.586-.189-.162-.398-.296-.626-.404-.229-.107-.465-.202-.707-.282-.27-.081-.532-.148-.788-.202s-.519-.095-.787-.121h-.223l-.182-.041h-.627l-.182-.04h-4.848v8.846h.8069999999999999l.243.041h1.3329999999999997c.106 0 .229-.014.363-.041l.343-.02.344-.061c.215-.054.41-.114.586-.182.175-.067.316-.155.424-.263.081-.107.147-.216.202-.323.054-.107.094-.216.121-.323l.061-.344.061-.343v-.28400000000000003c.026-.296.081-.545.162-.747.08-.202.175-.37.282-.505.135-.135.263-.235.384-.303s.263-.102.424-.102h.081c.135 0 .275.027.424.081.148.055.276.148.384.283.135.107.229.235.283.384.054.147.081.316.081.504v8.281c0 .188-.034.35-.102.484s-.168.27-.303.404c-.135.107-.276.188-.424.242-.148.054-.304.081-.465.081h-.182l-.182-.041-.162-.081-.161-.08c-.136-.081-.242-.209-.323-.384s-.148-.384-.202-.626c-.027-.243-.047-.491-.061-.747s-.021-.519-.021-.788v-.8500000000000001l.021-.121.021-.121v-.8089999999999999h-4.848v10.583h4.524c.215 0 .39.034.525.101.134.067.255.169.363.303.107.136.188.277.242.425.054.148.081.303.081.464-.027.162-.067.311-.121.445-.055.135-.122.269-.202.403-.108.108-.229.196-.363.263-.136.067-.311.101-.525.101h-10.341c-.188 0-.37-.026-.545-.08-.176-.054-.33-.135-.465-.242-.135-.135-.236-.27-.303-.404-.067-.135-.102-.296-.102-.485v-.142l.041-.101.02-.142.061-.141c.054-.162.148-.297.283-.404s.296-.188.484-.242c.216-.054.425-.094.626-.121.202-.026.411-.041.626-.041h.9709999999999999l.162.041h.444v-21.731h-.072z"/><path fill="#fff" d="M713.051 135.562c-.552.323-1.124.593-1.716.808-.593.216-1.199.384-1.818.505-.62.121-1.252.195-1.898.222h-.487l-.102-.04h-.626c-.593-.08-1.158-.202-1.696-.363-.539-.162-1.064-.39-1.575-.687-.512-.296-.929-.673-1.252-1.132-.323-.457-.553-.995-.687-1.615l-.062-.323-.061-.323-.04-.343v-.303c0-.916.195-1.718.586-2.403.39-.688.989-1.246 1.797-1.677.809-.458 1.656-.834 2.545-1.131.889-.296 1.818-.539 2.787-.728l1.515-.242s1.003-.135 1.515-.161c.485-.054.95-.095 1.395-.122.443-.026.841-.053 1.191-.08v-.6869999999999999l.04-.243v-1.01c0-.349-.027-.687-.081-1.01-.054-.322-.121-.646-.202-.969-.107-.323-.275-.599-.505-.828-.229-.229-.531-.424-.908-.586-.081-.054-.169-.087-.263-.101l-.303-.061-.304-.061-.262-.021h-.081l-.04-.04h-.44400000000000006c-.217 0-.425.007-.627.02-.201.015-.41.048-.626.102-.188.027-.384.074-.585.142l-.586.182c-.378.107-.687.229-.93.363-.242.135-.431.282-.565.444-.107.161-.195.323-.262.484-.068.162-.102.323-.102.485v.445l-.021.404-.061.404c-.026.135-.094.262-.201.384-.108.121-.243.235-.404.343l-.323.142-.323.142-.303.061-.263.02c-.27 0-.512-.054-.727-.161-.216-.107-.404-.27-.565-.484-.162-.216-.277-.458-.344-.728-.067-.269-.101-.552-.101-.848v-.446l.04-.081c0-.107.014-.215.04-.323l.081-.323.121-.282.162-.323c.106-.216.242-.41.403-.586.162-.175.337-.316.525-.424.296-.188.626-.364.989-.525s.761-.323 1.191-.484c.431-.135.869-.263 1.313-.384l1.312-.344c.215-.054.431-.087.646-.101.215-.014.431-.034.646-.061.215-.027.437-.047.666-.062l.626-.02h.445l.182.04h.223l.182.021.222.021.183.061.182.02c.35.081.687.182 1.01.304.323.121.646.276.969.464.297.188.572.411.828.667s.479.532.667.828c.188.297.336.605.444.929.107.323.175.646.202.97.054.323.087.653.101.989.014.337.021.681.021 1.03v10.301l.182-.04.222-.081.263-.142.303-.101.183-.061.182-.061.182-.061.222-.061.202-.062.242-.06h.121l.121-.041h.203c.135 0 .256.021.364.061l.322.142c.081.054.162.135.243.242.08.108.134.229.161.363v.081l.04.04v.283c0 .188-.033.351-.101.484-.067.136-.168.257-.303.364s-.283.195-.444.262c-.162.067-.337.115-.525.142l-.161.061-.162.061-.182.061-.182.062-.121.04-.081.04h-.081l-.121.04-.081.061-.08.021-.687.243c-.216.08-.432.147-.646.201-.216.055-.424.095-.626.121-.202.027-.384.041-.546.041-.242 0-.458-.034-.646-.102-.189-.066-.364-.182-.525-.343-.162-.162-.283-.397-.363-.707-.081-.31-.136-.693-.162-1.151-.509.403-1.041.767-1.593 1.09m.525-7.452c-.256.013-.519.02-.787.02-.27.027-.532.048-.788.061-.256.014-.505.034-.747.061l-.404.061-.363.021-.404.061-.404.061c-.269.027-.531.074-.787.142l-.747.182-.102.021-.101.02-.121.061-.121.021-.101.061-.102.021-.121.061-.121.021c-.323.135-.633.296-.93.484-.296.188-.592.403-.888.646-.27.243-.472.513-.606.809s-.202.605-.202.929c0 .108.014.209.041.303l.08.344.061.162.061.161.102.202.101.161c.135.242.304.451.505.626.202.176.438.317.707.425.242.107.505.182.788.222.282.04.571.061.868.061h.424c.148 0 .303-.013.465-.04l.484-.102.485-.101c.403-.107.801-.235 1.191-.384.39-.147.773-.316 1.151-.505.377-.215.727-.424 1.05-.626s.606-.41.849-.626l.08-.081.081-.081.081-.08.081-.081v-3.838l-.789.053"/><path fill="#fff" d="M724.583 120.496h-.081l-.08.04h-.607l-.081.041h-.607c-.216 0-.424-.014-.626-.041-.202-.026-.384-.066-.546-.121-.134-.054-.262-.135-.383-.242-.122-.107-.209-.242-.263-.404l-.041-.081v-.04l-.04-.081v-.323c0-.188.034-.364.101-.525.067-.162.169-.31.304-.444.107-.135.235-.235.384-.303.147-.067.315-.114.505-.142h7.068c.215.027.41.067.586.121.175.054.329.148.464.283.135.107.235.235.304.383.066.148.101.33.101.546v.243l-.04.081c-.027.216-.095.397-.202.545-.108.148-.242.249-.404.303-.161.055-.323.095-.484.121-.162.027-.337.041-.525.041h-.97c.054.135.102.276.142.424.041.148.087.29.142.424.026.162.066.317.121.465l.162.424.141.425c.041.148.087.289.142.424l.161.464.162.425c.296.808.605 1.615.929 2.424.323.808.66 1.615 1.01 2.423.35.809.714 1.596 1.091 2.363s.781 1.515 1.212 2.242c.457-1.051.902-2.107 1.333-3.172.431-1.062.834-2.134 1.212-3.211.377-1.076.733-2.161 1.07-3.251.336-1.091.64-2.188.909-3.292h-.162l-.121.04h-.729l-.101.041h-.9099999999999999c-.216 0-.424-.021-.626-.061l-.626-.142c-.188-.054-.35-.135-.484-.242s-.229-.243-.283-.404l-.02-.081-.021-.081-.04-.04v-.081l-.041-.161v-.162c0-.215.041-.396.121-.545.081-.147.202-.275.364-.384.161-.134.343-.229.545-.282s.41-.081.626-.081h7.23c.215 0 .404.027.565.081.162.054.31.148.444.282.135.108.242.242.323.404.081.161.121.337.121.524v.28400000000000003l-.04.081c-.055.188-.136.356-.243.505s-.242.263-.403.343c-.162.081-.323.136-.484.162-.162.027-.323.04-.485.04h-.543l-.142-.04h-.486c-.081.188-.155.384-.223.586-.067.201-.128.41-.182.626l-.182.585-.182.586c-.108.297-.209.6-.304.909-.094.31-.182.612-.262.908-.108.297-.209.6-.303.909-.095.31-.196.612-.304.908-.188.593-.397 1.186-.626 1.778l-.666 1.736c-.027.108-.067.216-.121.323-.055.107-.095.216-.121.323-.055.107-.102.229-.142.363l-.142.404-.161.424-.162.425-.161.464-.162.424c-.161.378-.33.748-.505 1.111-.176.363-.357.721-.545 1.07-.189.351-.384.646-.586.889s-.411.418-.626.525l-.303.222c-.095.067-.196.114-.304.142-.107.054-.222.087-.343.101l-.384.061h-.162c-.323 0-.64-.095-.949-.282-.31-.188-.612-.458-.908-.808-.27-.377-.539-.781-.808-1.212-.27-.431-.513-.875-.728-1.333l-.465-1.01s-.289-.646-.424-.97c-.107-.323-.216-.599-.323-.828-.107-.229-.188-.424-.242-.586l-1.05-2.423c-.351-.809-.688-1.616-1.011-2.424-.35-.808-.687-1.622-1.01-2.443s-.646-1.649-.969-2.484h-.074z"/><path fill="#fff" d="M750.515 121.062h-.404c-.162-.026-.31-.067-.444-.121-.136-.054-.27-.121-.404-.202-.107-.081-.195-.182-.263-.303s-.101-.276-.101-.465v-.121c.026-.269.101-.491.222-.666.122-.176.304-.316.546-.425.215-.08.45-.154.707-.222.255-.067.518-.114.787-.142h.668l.141-.04h1.2129999999999999l.162-.041h.484l.202-.04.161-.021.162-.02c.215-.055.438-.102.666-.142l.667-.102.666-.161s.451-.121.667-.202l.08-.04h.14200000000000002l.061-.041.081-.04.121-.04.081-.041h.081l.141-.021.142-.06h.081l.081-.041h.48400000000000004c.215.027.397.081.545.162.148.08.263.188.344.322.054.162.101.331.142.506.04.175.061.37.061.585v13.896c0 .188.013.37.04.545.026.176.081.33.162.465.08.161.194.276.343.343.147.068.33.102.545.102h5.655c.27 0 .505.034.707.101.202.067.37.169.505.303.135.108.235.236.303.384.067.148.102.29.102.425v.08c0 .162-.034.311-.102.445s-.168.269-.303.403c-.135.108-.303.196-.505.263s-.438.101-.707.101h-15.433c-.27 0-.512-.033-.728-.101-.216-.066-.391-.154-.524-.263-.136-.135-.243-.263-.323-.384-.081-.121-.121-.249-.121-.384v-.121c0-.135.04-.275.121-.424.08-.147.188-.276.323-.384.134-.135.309-.235.524-.303s.458-.102.728-.102h4.12c.296 0 .538-.04.727-.121s.296-.215.323-.404c.054-.161.095-.343.121-.545s.041-.424.041-.666v-11.876l-5.817.407zm5.534-6.1c-.242-.161-.431-.35-.565-.565-.135-.215-.236-.438-.303-.666-.067-.229-.102-.465-.102-.707v-.242l.041-.081c.054-.377.161-.747.323-1.111.161-.363.403-.706.727-1.029s.673-.565 1.051-.728c.376-.161.78-.242 1.211-.242l.323.021.323.061.162.061.202.061.161.08.161.081c.243.136.458.283.646.444.188.162.337.351.444.565.107.189.188.384.242.586s.081.411.081.626v.203c-.027.404-.135.795-.323 1.172s-.431.727-.727 1.05c-.323.323-.667.565-1.03.727-.363.162-.747.242-1.151.242h-.323l-.242-.04-.242-.04-.242-.081c-.323-.139-.606-.286-.848-.448"/><path fill="#fff" d="M772.832 134.795l-.021-.283v-.323l-.04-.182v-.182l-.061-.242-.021-.242v-.284l-.041-.121v-.484l-.04-.161v-1.2530000000000001l.021-.222.061-.182c.054-.135.114-.263.182-.385.067-.12.154-.222.263-.303.107-.08.222-.141.344-.182l.383-.101.081-.04h.243c.243 0 .444.054.606.161.161.108.296.27.403.484.107.188.202.404.283.646l.242.728v.12h.04l.102.485.101.444c.054.135.114.256.182.363.067.108.142.202.223.283.215.27.484.512.808.727.323.216.687.391 1.091.525s.814.236 1.231.303c.418.067.842.102 1.272.102h.202c.377 0 .761-.021 1.151-.061.39-.041.761-.114 1.111-.223.376-.107.713-.235 1.01-.384.296-.147.565-.315.808-.505.135-.135.263-.275.384-.424.121-.147.222-.316.303-.505.081-.162.147-.344.202-.546.054-.201.081-.396.081-.586v-.161l-.041-.04v-.242l-.04-.081v-.081c-.108-.296-.249-.559-.424-.787-.176-.229-.385-.397-.627-.505-.242-.135-.491-.249-.747-.344-.256-.094-.519-.168-.787-.223h-.061l-.021-.04h-.14200000000000002l-.021-.04h-.08l-.242-.021-.243-.061-.242-.02-.242-.062-.323-.061-.282-.061-.323-.02-.323-.061c-.216-.054-.432-.102-.646-.142-.216-.041-.431-.074-.646-.101-.646-.135-1.266-.304-1.857-.505-.593-.202-1.172-.438-1.737-.707-.565-.297-1.03-.667-1.394-1.111s-.653-.963-.868-1.555l-.102-.425-.101-.384-.021-.182-.02-.222v-.364c0-.781.161-1.501.484-2.161s.821-1.245 1.494-1.757c.646-.512 1.333-.93 2.061-1.253.727-.323 1.48-.538 2.262-.646h.28300000000000003l.201-.041h.485l.161-.04h.323c.296 0 .572.007.828.02.256.015.505.048.747.102l.323.081c.107.026.215.04.323.04l.303.081.304.08.181.061.223.061.182.062.182.02.384.081.344.081h.161l.081.04h.9279999999999999l.081-.04h.323c.242 0 .457.027.646.08.188.055.35.136.484.243s.242.276.323.505.135.519.162.868v.404l.04.04.021.081.02.08.021.323.061.283.021.323.02.323.021.322.021.283c.026.108.04.216.04.323v.809c0 .107-.027.216-.081.323s-.121.202-.201.282l-.304.202-.303.162h-.081l-.08.04h-.406c-.27 0-.492-.047-.667-.142-.175-.094-.316-.235-.424-.424-.107-.215-.202-.431-.282-.646-.081-.215-.148-.444-.202-.687l-.041-.04v-.081l-.08-.242-.081-.283-.121-.242-.081-.242c-.08-.161-.168-.303-.263-.424s-.209-.235-.343-.344c-.216-.134-.458-.256-.728-.363s-.552-.202-.848-.283c-.297-.08-.606-.141-.93-.182-.323-.04-.646-.061-.969-.061h-.28400000000000003c-.351.027-.693.067-1.03.121-.337.055-.666.121-.989.202-.323.108-.62.229-.889.363-.27.136-.512.283-.728.444-.135.108-.256.243-.363.404s-.202.323-.282.484c-.081.162-.136.33-.162.505-.027.176-.04.357-.04.546v.242l.04.081v.222l.041.021v.08c.08.297.201.56.363.788.161.229.363.411.605.545.242.136.491.257.747.363.256.108.519.202.788.283l.525.101.565.142.303.061.303.021.323.061.323.061.384.061.384.061.424.061.425.061c.565.108 1.131.229 1.696.364s1.104.31 1.615.524c.539.188.996.451 1.374.788.377.337.699.733.969 1.191l.142.303.142.263.101.303.102.304c.054.188.094.383.121.585.026.202.04.411.04.626 0 .593-.101 1.151-.303 1.677s-.492 1.03-.868 1.515c-.404.484-.849.909-1.333 1.272-.485.363-1.01.653-1.575.868l-.99.242c-.337.081-.693.148-1.07.202l-.545.061-.505.061c-.189 0-.371.007-.546.021l-.545.021h-.5660000000000001c-.108-.027-.209-.041-.304-.041h-.262l-.546-.061-.545-.061-.344-.061s-.249-.047-.384-.101l-.182-.061-.182-.021-.222-.061-.183-.021-.565-.142-.524-.101-.485-.121c-.135-.026-.27-.04-.403-.04h-.162l-.121.04h-.606l-.081.041h-.404c-.188 0-.35-.021-.484-.062-.135-.04-.27-.101-.404-.182-.107-.081-.195-.215-.262-.403-.068-.188-.115-.431-.142-.728l-.059-.23"/><path fill="#fff" d="M807.974 136.633c-.176-.066-.33-.154-.465-.263-.135-.135-.236-.275-.303-.424-.067-.147-.102-.316-.102-.505v-.081l.041-.04v-.263l.04-.061.041-.081c.053-.135.127-.256.222-.363.094-.107.195-.175.303-.202.135-.054.27-.087.404-.101l.444-.062h.6889999999999998v-.424c0-.147.013-.303.04-.464v-.89c0-.296.007-.599.021-.908s.033-.626.061-.949v-.424c0-.148.014-.304.04-.465v-1.354c0-.147.014-.303.041-.464v-1.858l-.041-.202v-1.049l-.04-.162v-.484l-.04-.162v-.161c-.027-.269-.081-.531-.162-.787-.08-.256-.175-.506-.282-.748-.108-.242-.25-.471-.425-.687-.175-.215-.37-.403-.585-.565-.189-.135-.378-.242-.566-.323-.188-.08-.391-.147-.605-.202l-.323-.061-.282-.061-.323-.02-.323-.021h-.242l-.142.04h-.385l-.101.041h-.142c-.323.054-.646.121-.97.202-.323.08-.633.188-.929.322-.297.108-.586.223-.869.344l-.868.384-.222.101-.182.102-.162.08-.161.081v12.198h.42400000000000004l.101-.04h.829l.102-.04h.243c.242 0 .484.014.727.04.243.027.472.067.688.121.215.055.39.142.524.263s.243.263.323.424v.061l.041.021v.081l.04.04v.14200000000000002l.04.021v.202c-.026.189-.08.357-.161.505-.081.148-.202.277-.363.385-.162.107-.331.188-.506.242s-.37.08-.585.08h-6.705c-.189 0-.371-.033-.546-.101-.175-.066-.33-.154-.464-.263-.136-.135-.236-.269-.304-.403s-.101-.297-.101-.485v-.32599999999999996l.021-.142.061-.101c.054-.135.134-.256.242-.363.107-.107.229-.175.363-.202.135-.054.283-.094.444-.121.162-.026.323-.041.484-.041h.7299999999999999v-22.861l-.182.06-.223.021-.101.021-.101.021-.122.04h-.121l-.101.021-.101.02-.121.041h-.122l-.101.02-.102.021-.12.04h-.28300000000000003l-.081.041h-.403c-.162 0-.304-.014-.425-.041l-.384-.08c-.107-.054-.209-.128-.303-.223-.095-.094-.168-.194-.223-.303l-.02-.081-.021-.081-.04-.04v-.081l-.021-.08-.02-.081v-.121c0-.162.033-.323.101-.484.066-.162.154-.297.263-.404.134-.135.269-.242.403-.323s.283-.147.445-.202l.282-.061.484-.142.667-.182c.229-.066.464-.127.707-.182l.08-.04h.121l.081-.041c.296-.054.572-.114.828-.182l.747-.182.586-.121.263-.04c.242.027.438.08.586.161.147.081.248.202.303.363.054.162.101.33.142.505.04.176.061.371.061.586v10.22c.511-.296 1.029-.586 1.555-.868.525-.283 1.07-.546 1.636-.788s1.145-.424 1.737-.545c.592-.122 1.185-.182 1.777-.182l.182.02.223.021.182.04h.182l.403.061.404.061c.889.189 1.629.505 2.222.949.592.444 1.023 1.004 1.293 1.677.296.673.511 1.38.646 2.12.135.741.202 1.515.202 2.323v9.572h.404l.121-.04h.749l.101-.04h.405c.188 0 .37.02.545.061.176.04.344.088.506.142.161.054.303.135.424.242s.222.242.303.403l.061.142.021.142v.061l.04.061v.122c-.027.188-.081.351-.161.485-.081.135-.189.269-.323.403-.162.108-.323.196-.485.263-.161.067-.35.101-.565.101h-6.382c-.197-.006-.379-.039-.553-.106"/><path fill="#fff" d="M717.709 112.863c0 .895-.635 1.62-1.418 1.62h-12.154c-.783 0-1.418-.726-1.418-1.62 0-.896.635-1.62 1.418-1.62h12.154c.783 0 1.418.725 1.418 1.62"/></svg>