<!DOCTYPE svg PUBLIC "-//W3C//DTD SVG 1.1//EN" "http://www.w3.org/Graphics/SVG/1.1/DTD/svg11.dtd" [
	<!ENTITY ns_flows "http://ns.adobe.com/Flows/1.0/">
]><svg xmlns="http://www.w3.org/2000/svg" width="140" height="140" viewBox="30 1 140 140" overflow="visible" enable-background="new 30 1 140 140"><path fill="#fff" d="M123.451 98.721c-.555.246-1.6.452-2.79.452-3.24 0-5.313-1.97-5.313-5.129 0-2.934 2.012-5.334 5.745-5.334.819 0 1.723.144 2.379.39l-.493 2.318c-.368-.165-.922-.309-1.743-.309-1.642 0-2.707 1.169-2.688 2.812 0 1.846 1.23 2.81 2.749 2.81.738 0 1.313-.124 1.785-.308l.369 2.298z"/><path fill="#fff" d="M125.502 84.401h3.118v14.565h-3.118v-14.565z"/><path fill="#fff" d="M141.379 93.838c0 3.672-2.604 5.354-5.291 5.354-2.934 0-5.192-1.928-5.192-5.17 0-3.241 2.134-5.313 5.355-5.313 3.077 0 5.128 2.113 5.128 5.129zm-7.262.103c0 1.723.719 3.016 2.051 3.016 1.212 0 1.99-1.211 1.99-3.016 0-1.498-.573-3.016-1.99-3.016-1.496 0-2.051 1.538-2.051 3.016z"/><path fill="#fff" d="M153.094 95.746c0 1.313.04 2.38.083 3.221h-2.709l-.145-1.416h-.061c-.39.615-1.334 1.641-3.139 1.641-2.033 0-3.529-1.272-3.529-4.37v-5.888h3.14v5.396c0 1.457.472 2.339 1.559 2.339.861 0 1.354-.595 1.559-1.087.082-.185.104-.432.104-.677v-5.97h3.139v6.811z"/><path fill="#fff" d="M165.647 84.401v11.57c0 1.128.041 2.318.081 2.996h-2.769l-.144-1.478h-.041c-.636 1.129-1.846 1.703-3.139 1.703-2.38 0-4.288-2.031-4.288-5.149-.021-3.385 2.093-5.334 4.492-5.334 1.231 0 2.196.431 2.647 1.129h.041v-5.437h3.12zm-3.118 8.781c0-.165-.02-.39-.041-.555-.185-.84-.861-1.539-1.826-1.539-1.416 0-2.154 1.272-2.154 2.853 0 1.702.841 2.769 2.135 2.769.902 0 1.621-.615 1.805-1.497.062-.226.082-.452.082-.718v-1.313z"/><path fill="#fff" d="M81.762 98.967l-.186-1.005h-.061c-.655.8-1.683 1.231-2.872 1.231-2.03 0-3.241-1.477-3.241-3.077 0-2.606 2.339-3.857 5.887-3.837v-.144c0-.533-.287-1.292-1.826-1.292-1.025 0-2.112.349-2.769.76l-.574-2.011c.698-.39 2.073-.882 3.898-.882 3.344 0 4.41 1.97 4.41 4.328v3.488c0 .964.041 1.888.144 2.442h-2.81zm-.368-4.739c-1.643-.021-2.914.369-2.914 1.58 0 .799.534 1.189 1.231 1.189.779 0 1.415-.512 1.62-1.148.041-.164.062-.349.062-.533v-1.088z"/><path fill="#fff" d="M96.941 84.401v11.57c0 1.128.043 2.318.083 2.996h-2.771l-.143-1.478h-.04c-.638 1.129-1.847 1.703-3.14 1.703-2.38 0-4.287-2.031-4.287-5.149-.021-3.385 2.091-5.334 4.491-5.334 1.232 0 2.195.431 2.647 1.129h.041v-5.437h3.119zm-3.117 8.781c0-.165-.021-.39-.041-.555-.185-.84-.861-1.539-1.827-1.539-1.414 0-2.153 1.272-2.153 2.853 0 1.702.842 2.769 2.135 2.769.902 0 1.62-.615 1.805-1.497.061-.226.082-.452.082-.718v-1.313z"/><path fill="#fff" d="M109.498 84.401v11.57c0 1.128.038 2.318.081 2.996h-2.77l-.144-1.478h-.042c-.634 1.129-1.847 1.703-3.139 1.703-2.381 0-4.288-2.031-4.288-5.149-.02-3.385 2.094-5.334 4.493-5.334 1.231 0 2.195.431 2.646 1.129h.042v-5.437h3.121zm-3.119 8.781c0-.165-.021-.39-.042-.555-.184-.84-.862-1.539-1.825-1.539-1.417 0-2.155 1.272-2.155 2.853 0 1.702.842 2.769 2.134 2.769.902 0 1.621-.615 1.806-1.497.062-.226.083-.452.083-.718v-1.313z"/><path fill="#fff" d="M34.271 100.813c.821-.061 1.458-.246 1.847-.656.452-.472.615-1.272.615-3.262v-7.96h3.139v8.699c0 2.194-.492 3.528-1.416 4.39-.923.862-2.38 1.231-3.877 1.231l-.308-2.442zm5.683-14.668c0 .862-.635 1.56-1.683 1.56-.984 0-1.62-.698-1.62-1.56 0-.903.636-1.58 1.662-1.58 1.006 0 1.62.677 1.641 1.58z"/><path fill="#fff" d="M52.099 95.746c0 1.313.042 2.38.083 3.221h-2.708l-.144-1.416h-.062c-.389.615-1.333 1.641-3.139 1.641-2.031 0-3.529-1.272-3.529-4.37v-5.888h3.139v5.396c0 1.457.471 2.339 1.559 2.339.861 0 1.354-.595 1.559-1.087.083-.185.103-.432.103-.677v-5.97h3.139v6.811z"/><path fill="#fff" d="M54.908 96.238c.575.349 1.765.759 2.688.759.944 0 1.333-.328 1.333-.841 0-.514-.308-.759-1.478-1.149-2.072-.697-2.872-1.826-2.852-3.015 0-1.868 1.601-3.283 4.082-3.283 1.17 0 2.217.267 2.832.575l-.554 2.154c-.451-.246-1.313-.574-2.175-.574-.759 0-1.189.307-1.189.82 0 .472.39.718 1.62 1.148 1.908.657 2.708 1.622 2.729 3.098 0 1.868-1.478 3.243-4.349 3.243-1.314 0-2.483-.288-3.242-.699l.555-2.236z"/><path fill="#fff" d="M67.647 86.062v2.872h2.236v2.298h-2.236v3.631c0 1.21.288 1.764 1.231 1.764.39 0 .697-.041.923-.083l.021 2.36c-.41.165-1.149.267-2.03.267-1.006 0-1.847-.349-2.339-.862-.575-.595-.862-1.559-.862-2.975v-4.103h-1.333v-2.298h1.333v-2.173l3.056-.698z"/><path fill="#fff" d="M116.347 46.729c-3.077-4.744-9.235-7.983-16.335-7.983-6.094 0-11.493 2.384-14.847 6.058-.869.951-1.6 1.986-2.17 3.09l3.755 5.077 6.694 9.05 1.082 1.461 1.437 1.943-1.521-2.904-.008-.118-.066-.024-6.574-12.555c.582-.986 1.391-1.91 2.41-2.732 2.571-2.07 6.054-3.212 9.809-3.212 3.526 0 6.815 1.009 9.332 2.85l.476.363c1.638 1.322 3.375 3.443 3.851 5.13 1.788-.183 3.065-.188 4.726.417 1.524.556 2.92 1.342 4.116 2.345 2.271 1.905 3.524 4.359 3.524 6.91s-1.253 5.005-3.524 6.91c-2.287 1.916-3.708 3.22-9.174 2.373l3.877 5.723c8.066-1.646 14.057-7.738 14.057-15.006-.003-7.53-6.426-13.795-14.927-15.166z"/><path fill="#fff" d="M99.277 79.449c-6.069 0-9.86-2.224-11.711-3.706-4.821 1.33-12.946 1.11-17.325-7.414-4.951-9.638 3.423-17.587 8.543-20.443l2.485 4.455-1.243-2.228 1.249 2.225c-.429.241-10.432 5.998-6.496 13.661 4.019 7.822 12.101 4.628 12.442 4.488l1.804-.738 1.129 1.475c.241.27 2.946 3.125 9.124 3.125 3.454 0 5.835-.754 7.32-1.469 0 0-6.712-15.896-6.66-15.949l12.288 18.217c-.416.439-4.305 4.301-12.949 4.301z"/></svg>