<!DOCTYPE svg PUBLIC "-//W3C//DTD SVG 1.1//EN" "http://www.w3.org/Graphics/SVG/1.1/DTD/svg11.dtd" [
	<!ENTITY ns_flows "http://ns.adobe.com/Flows/1.0/">
]><svg xmlns="http://www.w3.org/2000/svg" width="140" height="140" viewBox="-0.092 -57.519 140 140" overflow="visible" enable-background="new -0.092 -57.519 140 140"><path fill="#fff" d="M108.74 18.816c-.408.181-1.178.333-2.054.333-2.386 0-3.911-1.45-3.911-3.776 0-2.16 1.48-3.926 4.229-3.926.604 0 1.269.106 1.752.287l-.363 1.707c-.271-.121-.679-.227-1.283-.227-1.208 0-1.993.861-1.979 2.069 0 1.359.906 2.069 2.023 2.069.544 0 .967-.091 1.314-.227l.272 1.691z"/><path fill="#fff" d="M110.25 8.276h2.295v10.722h-2.295v-10.722z"/><path fill="#fff" d="M121.937 15.222c0 2.703-1.917 3.941-3.896 3.941-2.159 0-3.821-1.419-3.821-3.806 0-2.386 1.57-3.911 3.941-3.911 2.266.001 3.776 1.556 3.776 3.776zm-5.346.076c0 1.269.529 2.22 1.51 2.22.892 0 1.465-.891 1.465-2.22 0-1.103-.422-2.22-1.465-2.22-1.101 0-1.51 1.132-1.51 2.22z"/><path fill="#fff" d="M130.56 16.626c0 .967.029 1.752.061 2.371h-1.994l-.105-1.042h-.045c-.287.453-.982 1.208-2.311 1.208-1.496 0-2.598-.937-2.598-3.217v-4.334h2.311v3.972c0 1.072.348 1.722 1.147 1.722.635 0 .997-.438 1.147-.8.061-.136.076-.317.076-.499v-4.395h2.311v5.014z"/><path fill="#fff" d="M139.801 8.276v8.517c0 .831.03 1.707.06 2.205h-2.038l-.105-1.087h-.03c-.469.831-1.359 1.253-2.311 1.253-1.752 0-3.156-1.495-3.156-3.791-.016-2.492 1.54-3.926 3.307-3.926.906 0 1.616.317 1.948.831h.03v-4.002h2.295zm-2.296 6.463l-.03-.408c-.136-.619-.634-1.133-1.344-1.133-1.042 0-1.586.937-1.586 2.1 0 1.253.619 2.038 1.571 2.038.664 0 1.193-.453 1.328-1.102.046-.167.061-.333.061-.528v-.967z"/><path fill="#fff" d="M78.052 18.998l-.137-.74h-.045c-.482.589-1.238.906-2.114.906-1.495 0-2.386-1.087-2.386-2.265 0-1.918 1.722-2.839 4.333-2.824v-.105c0-.393-.211-.952-1.344-.952-.755 0-1.555.257-2.039.559l-.423-1.48c.514-.287 1.525-.649 2.87-.649 2.461 0 3.246 1.45 3.246 3.186v2.566c0 .71.03 1.39.105 1.797h-2.066zm-.271-3.489c-1.209-.015-2.145.271-2.145 1.163 0 .589.393.876.906.876.573 0 1.041-.377 1.192-.846.03-.121.046-.257.046-.393v-.8z"/><path fill="#fff" d="M89.226 8.276v8.517c0 .831.031 1.707.061 2.205h-2.039l-.105-1.087h-.029c-.469.831-1.359 1.253-2.311 1.253-1.752 0-3.156-1.495-3.156-3.791-.016-2.492 1.539-3.926 3.307-3.926.906 0 1.615.317 1.948.831h.03v-4.002h2.294zm-2.295 6.463l-.03-.408c-.136-.619-.634-1.133-1.345-1.133-1.041 0-1.585.937-1.585 2.1 0 1.253.619 2.038 1.571 2.038.664 0 1.192-.453 1.328-1.102.045-.167.061-.333.061-.528v-.967z"/><path fill="#fff" d="M98.468 8.276v8.517c0 .831.029 1.707.061 2.205h-2.039l-.105-1.087h-.031c-.467.831-1.359 1.253-2.311 1.253-1.752 0-3.156-1.495-3.156-3.791-.015-2.492 1.541-3.926 3.308-3.926.906 0 1.616.317 1.948.831h.03v-4.002h2.295zm-2.296 6.463l-.03-.408c-.136-.619-.635-1.133-1.344-1.133-1.043 0-1.586.937-1.586 2.1 0 1.253.619 2.038 1.57 2.038.664 0 1.193-.453 1.329-1.102.046-.167.061-.333.061-.528v-.967z"/><path fill="#fff" d="M43.094 20.356c.604-.045 1.073-.181 1.359-.483.333-.348.453-.937.453-2.401v-5.859h2.311v6.403c0 1.616-.362 2.597-1.042 3.231s-1.752.906-2.854.906l-.227-1.797zm4.183-10.797c0 .634-.468 1.148-1.238 1.148-.725 0-1.193-.514-1.193-1.148 0-.665.468-1.163 1.224-1.163.739 0 1.192.499 1.207 1.163z"/><path fill="#fff" d="M56.217 16.626c0 .967.03 1.752.061 2.371h-1.994l-.106-1.042h-.045c-.287.453-.981 1.208-2.311 1.208-1.495 0-2.598-.937-2.598-3.217v-4.334h2.311v3.972c0 1.072.347 1.722 1.148 1.722.634 0 .997-.438 1.147-.8.061-.136.076-.317.076-.499v-4.395h2.311v5.014z"/><path fill="#fff" d="M58.285 16.989c.423.256 1.299.559 1.979.559.695 0 .981-.242.981-.619 0-.378-.227-.559-1.087-.846-1.525-.513-2.114-1.344-2.099-2.22 0-1.375 1.178-2.417 3.005-2.417.861 0 1.631.196 2.084.423l-.408 1.585c-.332-.181-.966-.423-1.601-.423-.559 0-.875.227-.875.604 0 .348.287.529 1.193.846 1.404.483 1.993 1.193 2.008 2.28 0 1.375-1.087 2.387-3.201 2.387-.967 0-1.828-.212-2.386-.514l.407-1.645z"/><path fill="#fff" d="M67.662 9.499v2.114h1.646v1.691h-1.646v2.673c0 .891.211 1.298.906 1.298.287 0 .513-.03.679-.061l.015 1.737c-.302.121-.846.197-1.495.197-.74 0-1.359-.257-1.722-.635-.423-.438-.635-1.147-.635-2.19v-3.02h-.981v-1.691h.981v-1.601l2.252-.512z"/><path fill="#fff" d="M30.07 5.041c-1.943-2.996-5.832-5.041-10.316-5.041-3.848 0-7.258 1.506-9.376 3.825-.548.601-1.01 1.255-1.37 1.952l2.372 3.206 4.228 5.715.683.923.907 1.227-.96-1.833-.005-.075-.042-.015-4.152-7.929c.368-.623.878-1.206 1.522-1.725 1.624-1.308 3.823-2.029 6.194-2.029 2.227 0 4.304.637 5.893 1.799l.3.229c1.035.834 2.131 2.174 2.432 3.239 1.129-.116 1.936-.119 2.984.263.963.351 1.844.848 2.599 1.48 1.435 1.203 2.226 2.753 2.226 4.364s-.791 3.161-2.226 4.364c-1.444 1.21-2.341 2.033-5.793 1.499l2.449 3.614c5.094-1.039 8.876-4.886 8.876-9.477 0-4.752-4.056-8.709-9.425-9.575z"/><path fill="#fff" d="M19.291 25.704c-3.833 0-6.227-1.405-7.396-2.34-3.044.84-8.175.701-10.941-4.682-3.127-6.086 2.162-11.106 5.395-12.91l1.569 2.813-.784-1.407.788 1.405c-.271.152-6.588 3.788-4.103 8.627 2.538 4.94 7.642 2.923 7.857 2.834l1.139-.466.713.931c.152.17 1.861 1.973 5.762 1.973 2.181 0 3.685-.476 4.623-.928 0 0-4.239-10.039-4.206-10.072l7.76 11.504c-.261.28-2.717 2.718-8.176 2.718z"/></svg>