<!DOCTYPE svg PUBLIC "-//W3C//DTD SVG 1.1//EN" "http://www.w3.org/Graphics/SVG/1.1/DTD/svg11.dtd" [
	<!ENTITY ns_flows "http://ns.adobe.com/Flows/1.0/">
]><svg xmlns="http://www.w3.org/2000/svg" width="200" height="140" viewBox="0.375 0 200 140" overflow="visible" enable-background="new 0.375 0 200 140"><path fill-rule="evenodd" clip-rule="evenodd" fill="#fff" d="M48.412 73.946c-2.252 0-3.901-.1-4.95-.304-1.045-.204-1.892-.549-2.551-1.042-.739-.554-1.278-1.274-1.606-2.169-.328-.898-.492-2.083-.492-3.559v-3.93h5.999v2.543c0 1.389.35 2.345 1.044 2.862.694.517 2.079.778 4.154.778h3.742c2.084 0 3.463-.262 4.148-.783.681-.523 1.022-1.495 1.022-2.911v-2.731c0-1.415-.342-2.392-1.022-2.911-.686-.521-2.064-.785-4.148-.785h-3.77c-.562 0-1.074.021-1.534.06v-4.881h6.872c2.196 0 3.831.104 4.919.311 1.085.207 1.946.554 2.585 1.039.716.546 1.242 1.288 1.575 2.232.33.941.498 2.145.498 3.612v5.379c0 1.487-.168 2.693-.498 3.623-.333.928-.859 1.668-1.575 2.222-.646.493-1.506.838-2.567 1.042-1.06.204-2.707.304-4.937.304h-6.908z"/><path fill-rule="evenodd" clip-rule="evenodd" fill="#fff" d="M34.041 52.58h5.247v5.248h-5.247v-5.248zm6.524 9.359h7.048v-7.048h-7.048v7.048z"/><path fill-rule="evenodd" clip-rule="evenodd" fill="#fff" d="M13.9 78.126l6.847-6.844c.387-.387 1.018-.387 1.409 0l6.818 6.821-6.101 6.097c-.846.846-2.076.858-2.833.095l-6.14-6.169z"/><path fill-rule="evenodd" clip-rule="evenodd" fill="#fff" d="M19.941 53.227c.896-.736 2.232-.685 3.067.156l13.722 13.722c.887.881.896 2.311.035 3.205l-2.917 2.923-.002-.003-11.247-11.241c-.63-.639-1.658-.639-2.293 0l-11.266 11.266.314.311-.003.003-3.525-3.486-.032-.035c-.59-.829-.557-1.971.096-2.77l14.051-14.051z"/><path fill="#fff" d="M65.564 67.353l5.737-.014v.345c0 .715.175 1.2.525 1.449.349.256 1.081.379 2.197.379h7.297c.717 0 1.227-.121 1.534-.365.306-.241.46-.645.46-1.206 0-.573-.176-.98-.53-1.228-.354-.246-1.114-.413-2.282-.498l-9.124-.204c-2.282-.068-3.827-.504-4.633-1.305-.805-.8-1.207-2.256-1.207-4.371 0-1.089.106-1.986.318-2.695.214-.707.556-1.294 1.023-1.766.554-.524 1.277-.9 2.173-1.124.895-.219 2.351-.331 4.37-.331h8.868c2.198 0 3.781.401 4.749 1.201.966.803 1.449 2.102 1.449 3.899l-.007.382-.044.665h-5.598v-.078c0-.63-.158-1.103-.479-1.417-.318-.315-.799-.472-1.438-.472h-6.697c-1.115 0-1.853.109-2.21.331-.359.223-.536.61-.536 1.164 0 .543.161.938.483 1.182.325.241.921.398 1.79.467l9.56.15c2.18.062 3.716.552 4.606 1.471.892.922 1.335 2.493 1.335 4.717 0 1.319-.162 2.343-.49 3.067-.328.724-.88 1.34-1.655 1.853-.513.322-1.206.557-2.084.696-.877.142-2.146.21-3.808.21h-7.744c-3.178 0-5.304-.354-6.377-1.066-1.075-.712-1.61-2.038-1.61-3.981l.019-.557.06-.95z"/><path fill="#fff" d="M89.981 67.353l5.736-.014v.345c0 .715.175 1.2.525 1.449.349.256 1.081.379 2.198.379h7.296c.718 0 1.228-.121 1.535-.365.306-.241.459-.645.459-1.206 0-.573-.177-.98-.53-1.228-.354-.246-1.114-.413-2.281-.498l-9.124-.204c-2.283-.068-3.827-.504-4.633-1.305-.805-.8-1.208-2.256-1.208-4.371 0-1.089.107-1.986.319-2.695.214-.707.555-1.294 1.022-1.766.555-.524 1.278-.9 2.173-1.124.896-.219 2.352-.331 4.369-.331h8.87c2.198 0 3.781.401 4.748 1.201.967.803 1.45 2.102 1.45 3.899l-.007.382-.044.665h-5.598v-.078c0-.63-.158-1.103-.479-1.417-.319-.315-.798-.472-1.438-.472h-6.696c-1.115 0-1.853.109-2.211.331-.358.223-.537.61-.537 1.164 0 .543.163.938.485 1.182.325.241.921.398 1.79.467l9.559.15c2.181.062 3.717.552 4.607 1.471.89.922 1.335 2.493 1.335 4.717 0 1.319-.164 2.343-.49 3.067-.328.724-.881 1.34-1.655 1.853-.513.322-1.206.557-2.084.696-.877.142-2.147.21-3.809.21h-7.744c-3.177 0-5.303-.354-6.379-1.066-1.072-.712-1.607-2.038-1.607-3.981l.019-.557.059-.95z"/><path fill="#fff" d="M133.242 61.261v-.194c0-.758-.25-1.312-.75-1.664s-1.294-.527-2.38-.527h-4.748c-2.035 0-3.341.246-3.92.737-.578.49-.867 1.52-.867 3.083v2.701c0 1.399.322 2.358.965 2.881.645.522 1.916.784 3.822.784h3.442c1.888 0 3.125-.188 3.711-.567s.88-1.081.88-2.107v-.209h6.013l.013.144c.027.564.041.988.041 1.267 0 1.244-.156 2.27-.471 3.078-.313.808-.803 1.457-1.474 1.942-.634.47-1.48.806-2.536 1.005-1.057.201-2.606.3-4.65.3h-6.625c-2.028 0-3.518-.109-4.475-.327-.957-.217-1.773-.585-2.452-1.108-.781-.616-1.352-1.375-1.708-2.275-.357-.898-.536-2.036-.536-3.409v-5.296c0-2.783.661-4.724 1.984-5.824 1.32-1.101 3.717-1.651 7.187-1.651h6.625c2.131 0 3.7.096 4.707.286 1.011.193 1.806.516 2.388.969.617.469 1.072 1.103 1.363 1.894.292.799.438 1.795.438 2.996l-.007.657-.031.438h-5.949z"/><path fill="#fff" d="M152.971 59.942h4.944v13.736h-4.944v-2.115c-.549.846-1.261 1.438-2.141 1.782-.878.341-2.221.513-4.029.513-2.304 0-4.003-.412-5.093-1.244-1.092-.83-1.638-2.123-1.638-3.878v-8.794h4.943v7.007c0 1.182.265 1.967.796 2.354.531.386 1.513.579 2.949.579 1.599 0 2.702-.235 3.306-.71.605-.475.906-1.317.906-2.526v-6.704z"/><path fill="#fff" d="M164.274 62.488c.269-.931.855-1.588 1.76-1.97.903-.385 2.382-.576 4.435-.576 2.609 0 4.454.366 5.537 1.097 1.081.731 1.624 1.979 1.624 3.744v4.538c0 1.67-.543 2.853-1.624 3.547-1.083.697-2.955 1.045-5.615 1.045-2.139 0-3.668-.208-4.585-.619-.917-.412-1.428-1.103-1.531-2.069v2.454h-4.944v-19.421h4.944v8.23zm3.052 7.643h2.242c1.147 0 1.954-.178 2.42-.534.464-.357.697-.956.697-1.802v-1.708c0-.835-.241-1.433-.723-1.799-.483-.367-1.281-.55-2.395-.55h-2.242c-1.185 0-2 .179-2.453.528-.452.353-.678.991-.678 1.911v1.643c0 .835.236 1.43.711 1.781.475.353 1.282.53 2.421.53z"/><path fill="#fff" d="M190.693 69.112h4.657v.209c0 1.609-.492 2.767-1.474 3.476-.982.71-2.604 1.062-4.865 1.062h-4.592c-2.068 0-3.649-.431-4.739-1.296-1.092-.865-1.64-2.115-1.64-3.75v-3.729c0-1.72.548-3.04 1.64-3.951 1.09-.916 2.662-1.372 4.715-1.372h4.616c2.069 0 3.647.456 4.735 1.363 1.086.909 1.628 2.229 1.628 3.96v2.934h-12.402l-.013.196-.014.17c0 .793.229 1.357.685 1.702.457.344 1.211.515 2.264.515h2.073c1.07 0 1.766-.104 2.087-.313.322-.209.536-.601.639-1.176zm-7.72-4.122h7.617v-.05c0-.652-.207-1.113-.62-1.385-.412-.271-1.132-.404-2.157-.404h-2.035c-1.026 0-1.75.137-2.173.412-.42.273-.632.731-.632 1.377v.05z"/><path fill="#fff" d="M42.526 79.201v6.202h-1.45v-6.202h-1.939v-1.31h5.328v1.31h-1.939z"/><path fill="#fff" d="M50.684 85.403v-3.353c0-.729-.459-.97-.887-.97-.426 0-.876.252-.876.97v3.354h-1.355v-7.512h1.355v2.523c.365-.379.825-.57 1.304-.57 1.19 0 1.815.843 1.815 2.003v3.556h-1.356z"/><path fill="#fff" d="M56.59 83.084c0 .704.428 1.222 1.19 1.222.594 0 .884-.166 1.229-.518l.823.815c-.553.559-1.084.862-2.063.862-1.283 0-2.515-.59-2.515-2.813 0-1.795.96-2.808 2.367-2.808 1.512 0 2.368 1.119 2.368 2.627v.612h-3.399zm1.938-1.529c-.145-.326-.446-.569-.906-.569-.458 0-.761.243-.908.569-.082.198-.113.348-.124.588h2.065c-.009-.241-.043-.39-.127-.588z"/><path fill="#fff" d="M72.314 84.645c-.521.528-1.156.821-2.001.821-.846 0-1.491-.293-2.013-.821-.752-.761-.731-1.698-.731-2.995 0-1.299-.021-2.236.731-2.997.521-.528 1.167-.821 2.013-.821.845 0 1.48.293 2.001.821.752.761.74 1.698.74 2.997.001 1.296.012 2.234-.74 2.995zm-1.073-5.108c-.208-.241-.532-.399-.928-.399s-.729.158-.939.399c-.281.318-.354.665-.354 2.112 0 1.445.072 1.792.354 2.108.21.243.543.401.939.401.396 0 .72-.158.928-.401.282-.316.366-.663.366-2.108 0-1.447-.084-1.794-.366-2.112z"/><path fill="#fff" d="M80.454 84.972c-.303.307-.793.494-1.325.494-.553 0-.96-.147-1.315-.548v2.502h-1.354v-7.512h1.313v.518c.375-.423.781-.581 1.355-.581.532 0 1.022.191 1.325.496.542.549.553 1.487.553 2.312.001.821-.01 1.77-.552 2.319zm-1.723-3.892c-.813 0-.918.673-.918 1.572 0 .896.104 1.58.918 1.58s.917-.685.917-1.58c0-.899-.103-1.572-.917-1.572z"/><path fill="#fff" d="M85.389 83.084c0 .704.429 1.222 1.189 1.222.595 0 .887-.166 1.23-.518l.824.815c-.554.559-1.085.862-2.063.862-1.284 0-2.515-.59-2.515-2.813 0-1.795.959-2.808 2.366-2.808 1.513 0 2.368 1.119 2.368 2.627v.612h-3.399zm1.94-1.529c-.146-.326-.449-.569-.908-.569s-.761.243-.907.569c-.082.198-.115.348-.125.588h2.065c-.011-.241-.042-.39-.125-.588z"/><path fill="#fff" d="M95.226 85.403v-3.321c0-.75-.468-1.002-.897-1.002-.427 0-.907.252-.907 1.002v3.321h-1.354v-5.495h1.322v.507c.355-.379.855-.57 1.357-.57.541 0 .979.178 1.282.485.438.442.553.959.553 1.562v3.512h-1.356z"/><path fill="#fff" d="M106.666 85.466c-1.127 0-1.98-.24-2.713-.99l.939-.949c.47.475 1.105.633 1.794.633.856 0 1.314-.328 1.314-.931 0-.262-.072-.483-.231-.63-.144-.138-.311-.211-.655-.265l-.897-.128c-.636-.093-1.105-.293-1.438-.623-.354-.354-.532-.843-.532-1.476 0-1.338.98-2.276 2.585-2.276 1.022 0 1.763.251 2.4.873l-.918.92c-.468-.456-1.031-.519-1.522-.519-.771 0-1.148.432-1.148.952 0 .188.063.388.22.535.146.137.387.254.688.297l.876.126c.68.093 1.105.284 1.419.581.396.379.572.928.572 1.591-.001 1.458-1.2 2.279-2.753 2.279z"/><path fill="#fff" d="M116.461 84.791c-.333.36-.888.675-1.688.675-.804 0-1.346-.314-1.68-.675-.49-.518-.614-1.137-.614-2.139 0-.992.124-1.615.614-2.131.334-.36.876-.677 1.68-.677.801 0 1.355.316 1.688.677.491.516.616 1.139.616 2.131 0 1.002-.125 1.621-.616 2.139zm-1.054-3.47c-.155-.159-.364-.241-.635-.241s-.47.082-.627.241c-.28.286-.312.761-.312 1.331s.031 1.051.312 1.338c.157.16.355.242.627.242.271 0 .479-.082.635-.242.282-.287.314-.768.314-1.338s-.032-1.045-.314-1.331z"/><path fill="#fff" d="M123.525 85.403v-.507c-.356.382-.855.569-1.356.569-.542 0-.98-.177-1.283-.483-.437-.444-.553-.96-.553-1.562v-3.512h1.355v3.32c0 .751.468 1.004.898 1.004.426 0 .906-.253.906-1.004v-3.32h1.355v5.495h-1.322z"/><path fill="#fff" d="M131.35 81.406c-.207-.213-.387-.326-.72-.326-.417 0-.877.314-.877 1.013v3.311h-1.354v-5.495h1.324v.528c.261-.318.781-.592 1.365-.592.532 0 .908.137 1.283.517l-1.021 1.044z"/><path fill="#fff" d="M137.007 85.466c-1.085 0-2.431-.59-2.431-2.813 0-2.227 1.346-2.808 2.431-2.808.751 0 1.313.229 1.794.737l-.917.93c-.282-.308-.523-.432-.877-.432-.324 0-.574.113-.771.358-.209.265-.304.633-.304 1.214 0 .576.095.958.304 1.222.196.244.446.358.771.358.354 0 .595-.125.877-.434l.917.92c-.481.508-1.043.748-1.794.748z"/><path fill="#fff" d="M142.757 83.084c0 .704.429 1.222 1.19 1.222.594 0 .885-.166 1.229-.518l.822.815c-.552.559-1.083.862-2.063.862-1.283 0-2.513-.59-2.513-2.813 0-1.795.958-2.808 2.366-2.808 1.514 0 2.369 1.119 2.369 2.627v.612h-3.4zm1.939-1.529c-.145-.326-.447-.569-.907-.569-.459 0-.761.243-.907.569-.082.198-.114.348-.125.588h2.066c-.011-.241-.042-.39-.127-.588z"/><path fill="#fff" d="M156.866 82.577h-1.428v2.826h-1.451v-7.512h2.879c1.532 0 2.451 1.067 2.451 2.343 0 1.278-.919 2.343-2.451 2.343zm-.074-3.376h-1.354v2.057h1.354c.657 0 1.077-.411 1.077-1.023 0-.611-.42-1.034-1.077-1.034z"/><path fill="#fff" d="M163.419 83.084c0 .704.428 1.222 1.188 1.222.595 0 .887-.166 1.232-.518l.822.815c-.553.559-1.085.862-2.066.862-1.281 0-2.513-.59-2.513-2.813 0-1.795.96-2.808 2.369-2.808 1.511 0 2.366 1.119 2.366 2.627v.612h-3.398zm1.939-1.529c-.146-.326-.448-.569-.906-.569-.46 0-.763.243-.909.569-.082.198-.114.348-.124.588h2.064c-.009-.241-.042-.39-.125-.588z"/><path fill="#fff" d="M173.849 84.791c-.332.36-.886.675-1.688.675-.805 0-1.346-.314-1.679-.675-.491-.518-.616-1.137-.616-2.139 0-.992.125-1.615.616-2.131.333-.36.874-.677 1.679-.677.802 0 1.355.316 1.688.677.491.516.617 1.139.617 2.131 0 1.002-.126 1.621-.617 2.139zm-1.053-3.47c-.155-.159-.364-.241-.635-.241-.272 0-.469.082-.628.241-.28.286-.311.761-.311 1.331s.03 1.051.311 1.338c.159.16.355.242.628.242.271 0 .479-.082.635-.242.282-.287.313-.768.313-1.338s-.031-1.045-.313-1.331z"/><path fill="#fff" d="M181.78 84.972c-.303.307-.793.494-1.324.494-.554 0-.96-.147-1.315-.548v2.502h-1.354v-7.512h1.314v.518c.375-.423.781-.581 1.355-.581.531 0 1.021.191 1.324.496.543.549.553 1.487.553 2.312 0 .821-.01 1.77-.553 2.319zm-1.72-3.892c-.813 0-.919.673-.919 1.572 0 .896.105 1.58.919 1.58s.918-.685.918-1.58c0-.899-.105-1.572-.918-1.572z"/><path fill="#fff" d="M187.186 85.403c-1.116 0-1.585-.789-1.585-1.572v-5.939h1.356v5.855c0 .327.135.498.479.498h.521v1.158h-.771z"/><path fill="#fff" d="M191.873 83.084c0 .704.429 1.222 1.189 1.222.595 0 .886-.166 1.23-.518l.822.815c-.552.559-1.083.862-2.064.862-1.281 0-2.512-.59-2.512-2.813 0-1.795.958-2.808 2.366-2.808 1.513 0 2.367 1.119 2.367 2.627v.612h-3.398zm1.939-1.529c-.144-.326-.446-.569-.906-.569-.459 0-.761.243-.907.569-.082.198-.114.348-.125.588h2.066c-.011-.241-.044-.39-.128-.588z"/></svg>