<!DOCTYPE svg PUBLIC "-//W3C//DTD SVG 1.1//EN" "http://www.w3.org/Graphics/SVG/1.1/DTD/svg11.dtd" [
	<!ENTITY ns_flows "http://ns.adobe.com/Flows/1.0/">
]><svg xmlns="http://www.w3.org/2000/svg" width="140" height="140" viewBox="76.927 4.667 140 140" overflow="visible" enable-background="new 76.927 4.667 140 140"><path fill="#fff" d="M79.976 51.888l4.185 9.942h-5.325l1.761 4.189h10.799l-11.42-14.131zm14.128 35.616l-1.763-4.193h-2.473l-.05-.125-3.421-8.121h-1.993l3.471 8.246h-6.33l11.417 14.135-4.185-9.941h5.327z"/><path fill="#fff" d="M95.691 70.145c.131 0 .433-.165.433-1.664 0-1.503-.302-1.663-.433-1.663h-7.423l1.4 3.327h6.023zm.616 4.92h-9.043l1.4 3.324h7.644c.131 0 .438-.162.438-1.66-.001-1.503-.308-1.664-.439-1.664zm14.674-7.163h-5.381v13.522h3.515v-4.486h1.992c3.068 0 4.787-1.398 4.787-4.588.001-3.105-2.006-4.448-4.913-4.448zm-1.273 6.204h-.593v-3.372h.593c1.363 0 2.526.019 2.526 1.724 0 1.648-1.253 1.648-2.526 1.648zm-14.017 5.08h-6.692l1.401 3.328h5.291c.131 0 .433-.166.433-1.664s-.302-1.664-.433-1.664zm-8.765-4.919h3.612l-3.136-7.449h-7.813c-.598 0-.927 0-1.196.866-.32 1.036-.466 3.186-.466 6.982 0 3.798.146 5.947.466 6.984.269.865.599.865 1.196.865h7.083l-3.472-8.252h2.861l-1.734-4.118h.867l1.732 4.122zm9.381-3.324h-6.303l1.401 3.323h4.902c.131 0 .438-.161.438-1.665 0-1.497-.307-1.658-.438-1.658zm83.144 5.173h3.963v-2.979h-3.963v-2.257h5.352v-2.978h-8.865v13.522h8.865l.021-2.977h-5.373v-2.331zm-31.522-5.236h3.398v10.544h3.516v-10.544h3.398v-2.978h-10.312v2.978zm-26.807-2.978l-5.202 13.522h3.731l.933-2.35h4.839l.881 2.35h3.746l-5.093-13.522h-3.835zm.429 8.481l1.456-4.302h.033l1.437 4.302h-2.926zm72.171-8.751c-3.855 0-6.979 3.123-6.979 6.975 0 3.856 3.123 6.979 6.979 6.979 3.854 0 6.975-3.123 6.975-6.979 0-3.852-3.121-6.975-6.975-6.975zm0 10.523c-1.957 0-3.549-1.59-3.549-3.547 0-1.958 1.592-3.544 3.549-3.544 1.959 0 3.543 1.586 3.543 3.544 0 1.957-1.584 3.547-3.543 3.547zm18.69-10.253v8.269l-.037-.742-5.697-7.527h-3.516v13.522h3.516v-8.288l.037.492 5.697 7.795h3.516v-13.521h-3.516zm-42.803 5.217h-5.078v-5.217h-3.516v13.522h3.516v-5.541h5.078v5.541h3.516v-13.522h-3.516v5.217zm-27.955 3.051l-.037-.742-5.697-7.527h-3.516v13.522h3.516v-8.288l.036.492 5.698 7.795h3.516v-13.52h-3.516v8.268z"/></svg>