<!DOCTYPE svg PUBLIC "-//W3C//DTD SVG 1.1//EN" "http://www.w3.org/Graphics/SVG/1.1/DTD/svg11.dtd" [
	<!ENTITY ns_flows "http://ns.adobe.com/Flows/1.0/">
]><svg xmlns="http://www.w3.org/2000/svg" width="200" height="140" viewBox="46.927 4.667 200 140" overflow="visible" enable-background="new 46.927 4.667 200 140"><path fill="#fff" d="M54.748 43.304l5.761 13.688h-7.332l2.425 5.768h14.868l-15.722-19.456zm19.453 49.036l-2.427-5.772h-3.405l-.069-.173-4.71-11.18h-2.744l4.779 11.353h-8.715l15.718 19.461-5.761-13.689h7.334z"/><path fill="#fff" d="M76.385 68.44c.181 0 .596-.228.596-2.291 0-2.069-.416-2.29-.596-2.29h-10.22l1.928 4.581h8.292zm.848 6.775h-12.451l1.928 4.576h10.523c.181 0 .603-.224.603-2.286-.001-2.07-.422-2.29-.603-2.29zm20.204-9.863h-7.409v18.618h4.84v-6.178h2.743c4.223 0 6.59-1.925 6.59-6.316.001-4.274-2.762-6.124-6.764-6.124zm-1.753 8.542h-.816v-4.642h.816c1.876 0 3.478.025 3.478 2.373 0 2.269-1.725 2.269-3.478 2.269zm-19.299 6.994h-9.213l1.928 4.582h7.285c.181 0 .596-.229.596-2.291 0-2.063-.416-2.291-.596-2.291zm-12.068-6.773h4.973l-4.317-10.256h-10.758c-.823 0-1.276 0-1.647 1.191-.44 1.428-.641 4.388-.641 9.613 0 5.229.201 8.188.641 9.615.371 1.191.824 1.191 1.647 1.191h9.752l-4.781-11.36h3.938l-2.387-5.67h1.194l2.386 5.676zm12.916-4.575h-8.678l1.929 4.575h6.749c.181 0 .603-.222.603-2.292-.001-2.062-.422-2.283-.603-2.283zm114.474 7.121h5.456v-4.102h-5.456v-3.106h7.368v-4.101h-12.207v18.618h12.207l.028-4.1h-7.396v-3.209zm-43.4-7.208h4.679v14.517h4.841v-14.517h4.678v-4.101h-14.197v4.101zm-36.908-4.101l-7.162 18.618h5.137l1.284-3.235h6.663l1.213 3.235h5.158l-7.013-18.618h-5.28zm.59 11.678l2.004-5.924h.046l1.979 5.924h-4.029zm99.366-12.049c-5.308 0-9.607 4.3-9.607 9.604 0 5.309 4.3 9.608 9.607 9.608 5.306 0 9.603-4.3 9.603-9.608 0-5.304-4.297-9.604-9.603-9.604zm0 14.487c-2.694 0-4.886-2.189-4.886-4.884 0-2.696 2.191-4.879 4.886-4.879 2.696 0 4.878 2.183 4.878 4.879 0 2.695-2.182 4.884-4.878 4.884zm25.731-14.116v11.384l-.051-1.021-7.845-10.362h-4.84v18.617h4.84v-11.411l.052.678 7.844 10.733h4.841v-18.618h-4.841zm-58.93 7.184h-6.991v-7.184h-4.841v18.618h4.841v-7.629h6.991v7.629h4.84v-18.618h-4.84v7.184zm-38.489 4.2l-.051-1.021-7.844-10.362h-4.84v18.617h4.84v-11.411l.05.678 7.845 10.733h4.84v-18.618h-4.84v11.384z"/></svg>