<!DOCTYPE svg PUBLIC "-//W3C//DTD SVG 1.1//EN" "http://www.w3.org/Graphics/SVG/1.1/DTD/svg11.dtd" [
	<!ENTITY ns_flows "http://ns.adobe.com/Flows/1.0/">
]><svg xmlns="http://www.w3.org/2000/svg" width="140" height="140" overflow="visible"><path fill="#fff" d="M56.783 68.888l3.069-15.449h4.41c1.457 0 2.529.283 3.22.85.689.568 1.034 1.342 1.034 2.323 0 .981-.319 1.977-.959 2.986-.64 1.009-1.504 1.78-2.592 2.312-1.088.532-2.258.798-3.51.798h-1.262l-1.228 6.18h-2.182zm3.735-7.819h.991c1.557 0 2.731-.456 3.523-1.367.792-.912 1.188-1.879 1.188-2.902 0-.724-.266-1.192-.799-1.404-.533-.212-1.335-.318-2.408-.318h-1.305l-1.19 5.991z"/><path fill="#fff" d="M72.683 69.235c-1.259 0-2.197-.366-2.812-1.098-.616-.731-.924-1.64-.924-2.727 0-1.344.322-2.674.966-3.991.644-1.317 1.452-2.319 2.421-3.009.972-.69 2.107-1.034 3.409-1.034 1.308 0 2.263.367 2.864 1.102.603.735.903 1.639.903 2.711 0 1.337-.317 2.659-.955 3.965-.637 1.306-1.436 2.312-2.396 3.02-.96.707-2.119 1.061-3.476 1.061zm.46-1.545c1.154 0 2.141-.629 2.955-1.887.812-1.258 1.22-2.649 1.22-4.175 0-.906-.172-1.583-.516-2.033-.345-.449-.861-.674-1.551-.674-1.106 0-2.068.624-2.886 1.871-.818 1.247-1.227 2.641-1.227 4.18 0 .892.173 1.568.516 2.028.345.459.841.69 1.489.69z"/><path fill="#fff" d="M81.229 68.973l3.274-16.482h2.074l-3.284 16.482h-2.064z"/><path fill="#fff" d="M87.488 73.097l2.588-4.133-1.889-11.327h2.107l1.452 8.714 5.419-8.714h1.973l-9.677 15.459h-1.973z"/><path fill="#fff" d="M106.93 68.029c-1.573.689-2.969 1.034-4.187 1.034-1.189 0-2.104-.347-2.739-1.04-.638-.693-.955-1.677-.955-2.952 0-1.352.331-2.629.996-3.834.664-1.205 1.547-2.178 2.646-2.92s2.234-1.113 3.402-1.113c.794 0 1.677.125 2.652.376l-.334 1.649c-.822-.32-1.607-.48-2.359-.48-.843 0-1.623.254-2.344.763-.721.509-1.312 1.272-1.774 2.289-.463 1.017-.695 2.066-.695 3.146 0 .85.202 1.461.606 1.834.403.372.901.559 1.492.559.293 0 .649-.048 1.07-.146.421-.097.875-.229 1.362-.396s1.009-.411 1.565-.731l-.404 1.962z"/><path fill="#fff" d="M113.465 69.063c-1.259 0-2.197-.366-2.812-1.097-.616-.731-.925-1.64-.925-2.727 0-1.344.322-2.674.966-3.991s1.451-2.319 2.422-3.009c.971-.689 2.107-1.034 3.408-1.034 1.309 0 2.264.368 2.865 1.102.603.735.903 1.639.903 2.711 0 1.337-.319 2.659-.955 3.965-.637 1.306-1.436 2.312-2.396 3.02-.96.706-2.119 1.06-3.476 1.06zm.46-1.545c1.154 0 2.139-.629 2.953-1.886.814-1.258 1.222-2.65 1.222-4.175 0-.906-.172-1.583-.517-2.033s-.86-.674-1.55-.674c-1.106 0-2.069.624-2.886 1.871-.818 1.247-1.228 2.641-1.228 4.18 0 .892.172 1.568.517 2.028.345.459.841.689 1.489.689z"/><path fill="#fff" d="M127.666 68.854c-.49.139-.943.209-1.36.209-.971 0-1.717-.226-2.236-.679-.519-.453-.778-1.027-.778-1.723 0-.445.062-.991.188-1.639l1.196-6.013h-1.696l.303-1.545h1.7l.408-2.056 2.109-.25-.458 2.307h2.89l-.332 1.545h-2.863l-1.236 6.235c-.118.576-.178.957-.178 1.141 0 .295.103.558.308.787s.577.345 1.115.345c.36 0 .769-.069 1.225-.209l-.305 1.545z"/><path fill="#fff" d="M67.488 85.201l5.892-10.237h1.451l1.981 10.237h-1.467l-.529-2.636h-4.401l-1.502 2.636h-1.425zm3.547-3.722h3.583l-.949-4.621-2.634 4.621z"/><path fill="#fff" d="M78.106 84.885l.228-1.148c.945.466 1.734.699 2.365.699.384 0 .683-.09.899-.27.217-.181.325-.414.325-.7 0-.18-.044-.343-.132-.488s-.255-.347-.505-.606l-.629-.644c-.53-.544-.864-.959-1.003-1.242-.138-.284-.208-.562-.208-.834 0-.48.213-.942.637-1.385s1.074-.665 1.95-.665c.263 0 .533.02.812.059s.71.165 1.29.377l-.228 1.148c-.567-.268-.976-.428-1.225-.48-.25-.053-.489-.08-.72-.08-.396 0-.688.086-.875.259-.187.173-.279.38-.279.62 0 .157.041.31.124.457.082.148.29.39.622.728l.685.692c.379.383.647.723.806 1.018.16.295.239.616.239.962 0 .624-.242 1.129-.726 1.517-.484.388-1.142.582-1.972.582-.24 0-.49-.02-.751-.059-.26-.04-.51-.092-.75-.159-.236-.068-.564-.187-.979-.358z"/><path fill="#fff" d="M85.06 84.885l.229-1.148c.945.466 1.733.699 2.365.699.383 0 .683-.09.9-.27.216-.181.324-.414.324-.7 0-.18-.044-.343-.131-.488-.088-.146-.256-.347-.506-.606l-.629-.644c-.531-.544-.865-.959-1.003-1.242-.138-.284-.207-.562-.207-.834 0-.48.211-.942.636-1.385s1.074-.665 1.95-.665c.263 0 .534.02.812.059.28.039.71.165 1.291.377l-.229 1.148c-.567-.268-.976-.428-1.224-.48-.25-.053-.489-.08-.721-.08-.396 0-.688.086-.874.259-.187.173-.281.38-.281.62 0 .157.043.31.125.457.083.148.291.39.623.728l.685.692c.378.383.646.723.806 1.018s.239.616.239.962c0 .624-.243 1.129-.727 1.517-.484.388-1.142.582-1.972.582-.24 0-.49-.02-.75-.059-.261-.04-.512-.092-.751-.159-.238-.068-.565-.187-.98-.358z"/><path fill="#fff" d="M132.968 84.885l.229-1.148c.945.466 1.733.699 2.365.699.383 0 .683-.09.9-.27.215-.181.324-.414.324-.7 0-.18-.044-.343-.131-.488-.088-.146-.257-.347-.506-.606l-.629-.644c-.531-.544-.865-.959-1.004-1.242-.138-.284-.206-.562-.206-.834 0-.48.211-.942.636-1.385.424-.443 1.074-.665 1.95-.665.263 0 .534.02.812.059.279.039.71.165 1.291.377l-.229 1.148c-.567-.268-.976-.428-1.225-.48-.249-.053-.488-.08-.72-.08-.396 0-.688.086-.875.259-.186.173-.28.38-.28.62 0 .157.042.31.125.457.083.148.29.39.622.728l.686.692c.378.383.646.723.806 1.018s.239.616.239.962c0 .624-.243 1.129-.728 1.517s-1.141.582-1.971.582c-.24 0-.49-.02-.75-.059-.261-.04-.512-.092-.751-.159-.238-.068-.565-.187-.98-.358z"/><path fill="#fff" d="M94.699 85.545c-.834 0-1.456-.243-1.864-.728-.408-.484-.612-1.087-.612-1.807 0-.891.214-1.772.641-2.645.426-.872.961-1.537 1.604-1.994.643-.457 1.396-.685 2.258-.685.867 0 1.5.244 1.899.73.398.487.598 1.086.598 1.797 0 .886-.211 1.762-.632 2.627-.423.865-.951 1.532-1.588 2-.637.471-1.404.705-2.304.705zm.305-1.024c.766 0 1.418-.417 1.958-1.25.539-.833.809-1.756.809-2.767 0-.6-.113-1.049-.342-1.348-.229-.297-.571-.446-1.027-.446-.733 0-1.372.413-1.912 1.24-.542.826-.813 1.75-.813 2.77 0 .591.114 1.039.343 1.344.226.305.554.457.984.457z"/><path fill="#fff" d="M105.207 84.86c-1.042.457-1.967.685-2.773.685-.789 0-1.395-.23-1.815-.689-.422-.459-.633-1.111-.633-1.956 0-.895.22-1.742.66-2.541.44-.798 1.024-1.443 1.753-1.935.729-.492 1.48-.737 2.256-.737.525 0 1.11.083 1.757.249l-.222 1.093c-.544-.212-1.064-.318-1.563-.318-.558 0-1.075.168-1.553.505s-.869.842-1.176 1.517-.461 1.37-.461 2.085c0 .563.134.968.401 1.215s.599.371.99.371c.193 0 .43-.032.708-.097.279-.064.581-.152.903-.263s.669-.272 1.037-.484l-.269 1.3z"/><path fill="#fff" d="M107.537 85.244l1.493-7.512h1.374l-1.499 7.512h-1.368zm1.765-8.875l.276-1.363h1.369l-.27 1.363h-1.375z"/><path fill="#fff" d="M116.176 85.373l.608-3.072c-.58.978-1.216 1.763-1.911 2.355-.694.592-1.343.889-1.945.889-.438 0-.785-.187-1.046-.561-.26-.374-.39-.791-.39-1.252 0-.917.257-1.879.77-2.884s1.143-1.783 1.888-2.334c.745-.551 1.541-.826 2.388-.826.161 0 .336.013.524.042.188.027.389.071.601.131h1.366l-1.485 7.512h-1.368zm.931-4.698l.348-1.743c-.166-.088-.336-.154-.512-.197-.174-.044-.355-.066-.544-.066-.52 0-1.048.217-1.586.65-.537.433-.984 1.065-1.337 1.895-.354.83-.531 1.582-.531 2.255 0 .212.047.39.142.532.094.143.235.215.424.215.681.001 1.88-1.179 3.596-3.541z"/><path fill="#fff" d="M123.863 85.407c-.325.092-.624.138-.9.138-.645 0-1.138-.15-1.482-.45-.344-.3-.516-.68-.516-1.142 0-.295.041-.657.124-1.086l.792-3.984h-1.123l.2-1.023h1.126l.271-1.363 1.396-.166-.302 1.529h1.914l-.22 1.023h-1.897l-.819 4.132c-.079.381-.117.634-.117.756 0 .195.067.369.203.522.137.152.382.228.739.228.238 0 .509-.046.812-.138l-.201 1.024z"/><path fill="#fff" d="M131.451 84.618c-1.189.618-2.311.927-3.361.927-.788 0-1.398-.231-1.83-.693-.432-.461-.646-1.089-.646-1.883 0-.863.198-1.699.595-2.506s.935-1.472 1.615-1.994c.681-.522 1.419-.782 2.217-.782.554 0 .978.131 1.272.395.296.263.442.633.442 1.108 0 .568-.181 1.091-.543 1.569-.361.478-.901.883-1.618 1.216-.717.333-1.588.54-2.611.623 0 .641.14 1.112.419 1.411.278.3.642.45 1.09.45.354 0 .831-.093 1.428-.28.598-.186 1.195-.479 1.795-.875l-.264 1.314zm-4.345-3.044c.826-.078 1.459-.211 1.899-.401.44-.189.789-.442 1.045-.757.256-.316.384-.619.384-.91 0-.185-.075-.356-.226-.515-.149-.159-.343-.239-.577-.239-.317 0-.637.102-.955.304-.258.161-.496.374-.712.636-.176.208-.329.435-.463.682-.133.248-.266.647-.395 1.2z"/><path fill="#fff" d="M15.553 55.58s7.212-.086 7.985 3.177c.772 3.262-.344 6.869-.344 6.869s-6.654-1.289-7.641-10.046z"/><path fill="#fff" d="M39.979 60.345s.472 11.848-10.174 7.212c0 0-.043-2.833 3.606-5.108 0 0 1.374-1.374 3.692-1.975 0 0 2.447-.086 2.876-.129z"/><path fill="#fff" d="M34.312 84.642s0-6.353-4.55-9.572c0 0-3.091-1.932-3.477.558 0 0-1.76 6.182 2.833 7.985.001-.001.773.429 5.194 1.029z"/><path fill="#fff" d="M9.586 79.706s.043-11.547 9.444-7.512c0 0 .687.3.987.343.001 0-.729 6.61-10.431 7.169z"/><path fill="#fff" d="M8.813 52.918s4.937-2.575 17.772-2.79c0 0 13.05.343 13.608.858v7.083s-4.937-.944-10.303 4.422c0 0-2.919 3.09-2.791 6.268 0 0 5.065 3.606 9.917 1.76 4.851-1.847 5.366-9.96 5.409-10.475.042-.515.558-8.156.214-8.758 0 0 5.795-.773 6.783 4.808 0 0-1.91 22.58-6.675 28.697l-6.117.064c-.515-5.066-2.232-7.169-2.232-7.169s-3.262-5.323-6.354-5.795c-3.091-.472-2.619-.558-4.121 4.079-1.503 4.636.214 8.328 5.108 10.174 0 0 2.275 1.159 11.978 1.202 0 0-6.396 3.691-31.424 2.146l-.043-7.426s11.161.085 13.05-10.518c0 0-7.126-5.538-12.449-.215 0 0-2.104 2.447-2.618 5.495 0 0-.602 4.165-.43 12.106 0 0-5.538-.257-5.967-2.833 0 0-1.545-17.858 6.053-30.951l6.01.085s-1.245 2.576 2.576 8.5c3.82 5.924 8.157 4.765 8.157 4.765s1.374-1.588 2.49-6.654c0 0 .644-4.808-4.035-7.169s-13.566-1.587-13.566-1.759z"/></svg>