<!DOCTYPE svg PUBLIC "-//W3C//DTD SVG 1.1//EN" "http://www.w3.org/Graphics/SVG/1.1/DTD/svg11.dtd" [
	<!ENTITY ns_flows "http://ns.adobe.com/Flows/1.0/">
]><svg xmlns="http://www.w3.org/2000/svg" width="140" height="140" overflow="visible"><path fill="#fff" d="M92.176 33.357c-.943.864-2.401 1.786-4.593 2.251-4.787 1.017-6.197 2.705-5.814 6.964.384 4.26 3.167 10.881-2.225 18.197-2.187-1.825-8.093-6.758-11.018-9.198l-1.689-1.409-11.017-9.2c6.236-6.61 13.249-5.054 17.507-5.437 4.26-.383 5.671-2.072 5.814-6.965.067-2.225.706-3.816 1.383-4.898-3.229-1.389-6.785-2.16-10.522-2.16-14.729 0-26.668 11.939-26.668 26.667 0 7.918 3.454 15.025 8.933 19.909l9.667-14.486 4.095 3.418-12.532 12.097c4.541 3.584 10.271 5.729 16.504 5.729 14.727 0 26.666-11.938 26.666-26.667 0-5.481-1.656-10.574-4.491-14.812z"/><path fill="#fff" d="M70.001 81.836c-18.564 0-33.668-15.104-33.668-33.667 0-18.562 15.104-33.667 33.668-33.667 18.563 0 33.666 15.104 33.666 33.667 0 18.563-15.103 33.667-33.666 33.667m0-65.334c-17.462 0-31.668 14.205-31.668 31.667s14.206 31.667 31.668 31.667c17.461 0 31.666-14.205 31.666-31.667s-14.205-31.667-31.666-31.667"/><path fill="#fff" d="M37.51 102.464h-2.219v3.9h1.387v.867h-3.676v-.867h1.041v-10.922h-1.041v-.867h4.508c1.63 0 2.693.41 3.19 1.231.243.404.404.809.485 1.213.081.405.121.873.121 1.404 0 .532-.02.966-.061 1.301-.04.335-.136.688-.286 1.058s-.358.67-.624.901c-.623.521-1.565.781-2.825.781zm-2.219-1.024h2.219c1.099 0 1.814-.288 2.15-.866.161-.289.269-.584.32-.885.052-.3.078-.688.078-1.161s-.026-.864-.078-1.171c-.052-.306-.159-.609-.32-.91-.336-.565-1.052-.85-2.15-.85h-2.219v5.843z"/><path fill="#fff" d="M43.127 95.442v-.867h3.329v.867h-1.04v7.61c0 1.445.341 2.388 1.022 2.826.323.208.656.35.997.425s.751.113 1.23.113.891-.038 1.231-.113.679-.217 1.014-.425c.683-.438 1.023-1.381 1.023-2.826v-7.61h-1.04v-.867h3.328v.867h-1.04v7.61c0 1.48-.307 2.572-.919 3.277-.254.312-.592.558-1.014.736-.423.18-.827.292-1.214.339-.388.046-.847.069-1.378.069-.532 0-.988-.023-1.37-.069-.382-.047-.78-.159-1.196-.339-.416-.179-.751-.425-1.006-.736-.612-.705-.919-1.797-.919-3.277v-7.61h-1.038z"/><path fill="#fff" d="M56.928 107.231h-.937v-3.745h.937c.022.867.306 1.575.85 2.124.543.549 1.354.823 2.436.823s1.838-.196 2.271-.589.65-.985.65-1.777-.156-1.35-.469-1.673c-.312-.323-.884-.566-1.716-.729l-1.561-.295c-1.248-.242-2.106-.595-2.575-1.058-.468-.462-.702-1.263-.702-2.4 0-1.139.277-2.021.833-2.645.555-.624 1.514-.937 2.878-.937 1.583 0 2.687.532 3.312 1.596v-1.353h.936v3.086h-.936c-.231-1.525-1.249-2.288-3.052-2.288-1.052 0-1.769.214-2.149.642-.382.428-.572 1.04-.572 1.837 0 .798.133 1.347.398 1.647s.826.532 1.682.693l1.543.295c1.271.242 2.155.604 2.652 1.084s.746 1.282.746 2.409-.298 1.991-.893 2.592c-.596.602-1.662.902-3.199.902s-2.658-.578-3.363-1.734v1.493z"/><path fill="#fff" d="M73.658 107.231v-.867h1.04v-4.94h-6.033v4.94h1.04v.867h-3.329v-.867h1.041v-10.922h-1.041v-.867h3.329v.867h-1.04v4.94h6.033v-4.94h-1.04v-.867h3.329v.867h-1.041v10.922h1.041v.867h-3.329z"/><path fill="#fff" d="M83.922 102.464h-2.22v3.9h1.388v.867h-3.676v-.867h1.04v-10.922h-1.04v-.867h4.508c1.63 0 2.692.41 3.189 1.231.243.404.405.809.486 1.213.08.405.121.873.121 1.404 0 .532-.021.966-.061 1.301-.041.335-.137.688-.286 1.058-.15.37-.358.67-.624.901-.623.521-1.565.781-2.825.781zm-2.22-1.024h2.22c1.098 0 1.814-.288 2.149-.866.162-.289.269-.584.321-.885.052-.3.078-.688.078-1.161s-.026-.864-.078-1.171c-.053-.306-.159-.609-.321-.91-.335-.565-1.052-.85-2.149-.85h-2.22v5.843z"/><path fill="#fff" d="M89.799 95.442v-.867h3.676v.867h-1.214v10.922h1.214v.867h-3.676v-.867h1.214v-10.922h-1.214z"/><path fill="#fff" d="M103.669 95.442v-.867h3.329v.867h-1.041v11.789h-1.387l-6.38-10.576v9.709h1.04v.867h-3.329v-.867h1.041v-10.922h-1.041v-.867h2.428l6.38 10.593v-9.726h-1.04z"/><path fill="#fff" d="M50.328 115.643l.21.15c-.48 1.101-.9 2.365-1.261 3.795h.12l.24-.66c.83-2.279 1.78-3.42 2.85-3.42.431 0 .798.21 1.103.63.306.42.458.931.458 1.53s-.078 1.157-.232 1.673c-.155.515-.378.995-.668 1.439-.29.445-.67.808-1.14 1.088s-.99.42-1.56.42c-.87 0-1.551-.385-2.04-1.155l.104-.255c.48.73 1.11 1.095 1.89 1.095.45 0 .853-.149 1.208-.449.354-.301.627-.676.817-1.125.38-.92.57-1.82.57-2.7 0-.511-.073-.908-.218-1.192-.146-.285-.333-.428-.562-.428-.47 0-.997.455-1.582 1.365-.586.91-1.113 2.33-1.583 4.26l-.9 3.705-1.05.09 2.266-9.3-.96.075-.016-.256c.691-.09 1.336-.215 1.936-.375z"/><path fill="#fff" d="M56.058 121.433c0 .33.125.495.375.495.19 0 .396-.127.615-.382.22-.256.41-.618.57-1.088l.239.06c-.43 1.221-.989 1.83-1.68 1.83-.62 0-.93-.392-.93-1.177s.654-3.553 1.965-8.303l-.96.075-.015-.256c.689-.09 1.335-.215 1.935-.375l.21.15c-.42 1.23-.912 2.897-1.478 5.003-.564 2.105-.846 3.428-.846 3.968z"/><path fill="#fff" d="M64.022 119.138c-.31 1.19-.465 1.953-.465 2.288s.125.502.375.502c.189 0 .395-.127.615-.382.22-.256.41-.618.569-1.088l.24.06c-.43 1.221-.99 1.83-1.68 1.83-.62 0-.93-.375-.93-1.125 0-.149.024-.39.074-.72h-.074c-.62 1.23-1.341 1.845-2.16 1.845-.471 0-.862-.207-1.178-.622s-.473-.925-.473-1.53c0-.604.08-1.167.24-1.688.16-.52.385-1.007.675-1.462s.675-.825 1.155-1.11c.479-.285 1.005-.428 1.575-.428.739 0 1.324.315 1.755.945l.465-.811.21.15c-.348 1.041-.678 2.156-.988 3.346zm-3.075 2.76c.42 0 .846-.325 1.275-.976.49-.75.945-1.975 1.365-3.675.09-.4.159-.69.21-.87-.351-.34-.753-.51-1.208-.51s-.859.155-1.215.465c-.354.31-.633.7-.832 1.17-.41.96-.615 1.865-.615 2.715 0 .561.092.98.277 1.26.186.281.434.421.743.421z"/><path fill="#fff" d="M72.558 116.873c0 .43-.242 1.22-.728 2.37-.485 1.149-.728 1.885-.728 2.205s.125.479.375.479c.19 0 .396-.127.615-.382.22-.256.41-.618.57-1.088l.239.06c-.43 1.221-.989 1.83-1.68 1.83-.62 0-.93-.34-.93-1.02 0-.29.227-1.01.683-2.16.454-1.149.682-1.89.682-2.22 0-.63-.229-.945-.689-.945-.5 0-1.04.405-1.62 1.215-.67.971-1.266 2.62-1.785 4.95l-1.05.09 1.47-6.06-.96.075-.015-.256c.689-.09 1.335-.215 1.935-.375l.21.15c-.479 1.101-.899 2.365-1.26 3.795h.12l.24-.66c.54-1.51 1.125-2.49 1.755-2.939.3-.2.547-.33.742-.391.195-.06.44-.09.735-.09s.547.12.757.36c.212.242.317.577.317 1.007z"/><path fill="#fff" d="M80.103 116.873c0 .43-.242 1.22-.728 2.37-.485 1.149-.728 1.885-.728 2.205s.125.479.375.479c.19 0 .396-.127.615-.382.22-.256.41-.618.57-1.088l.239.06c-.43 1.221-.989 1.83-1.68 1.83-.62 0-.93-.34-.93-1.02 0-.29.227-1.01.683-2.16.454-1.149.682-1.89.682-2.22 0-.63-.229-.945-.689-.945-.5 0-1.04.405-1.62 1.215-.67.971-1.266 2.62-1.785 4.95l-1.05.09 1.47-6.06-.96.075-.015-.256c.689-.09 1.335-.215 1.935-.375l.21.15c-.479 1.101-.899 2.365-1.26 3.795h.12l.24-.66c.54-1.51 1.125-2.49 1.755-2.939.3-.2.547-.33.742-.391.195-.06.44-.09.735-.09s.547.12.757.36c.212.242.317.577.317 1.007z"/><path fill="#fff" d="M86.335 115.891c.265.255.397.62.397 1.095 0 .476-.186.888-.555 1.237-.63.601-1.565.9-2.806.9-.37 0-.689-.03-.96-.09v-.285c.351.05.641.075.87.075.83 0 1.473-.21 1.928-.63s.683-.88.683-1.381c0-.27-.072-.494-.218-.675-.145-.18-.385-.27-.72-.27s-.675.155-1.021.465c-.345.31-.617.695-.817 1.155-.399.97-.6 1.81-.6 2.52 0 1.32.399 1.98 1.2 1.98.989 0 1.715-.54 2.175-1.62l.24.06c-.24.61-.588 1.083-1.043 1.418s-.968.502-1.537.502c-.57 0-1.05-.21-1.44-.63-.39-.42-.585-.984-.585-1.694s.135-1.397.405-2.062c.27-.665.689-1.24 1.26-1.726.57-.484 1.22-.728 1.95-.728.532.001.929.129 1.194.384z"/><path fill="#fff" d="M89.987 115.643l.21.15c-.48 1.101-.9 2.365-1.26 3.795h.119l.24-.66c.47-1.279.936-2.17 1.396-2.67s.859-.75 1.199-.75.593.11.758.33.248.505.248.855-.065.654-.195.915c-.13.26-.317.39-.562.39s-.447-.08-.607-.24c.1-.13.195-.319.285-.57.09-.249.135-.47.135-.659 0-.29-.12-.436-.36-.436-.25 0-.56.245-.93.735-.81 1.06-1.495 2.84-2.055 5.34l-1.051.09 1.471-6.06-.96.075-.016-.256c.69-.089 1.335-.214 1.935-.374z"/></svg>