<svg xmlns="http://www.w3.org/2000/svg" width="140" height="140"><g opacity=".6" fill="#fff"><path d="M59.009 66.354c-1.333 0-2.112.931-2.112 3.621 0 2.741.78 3.672 2.112 3.672s2.112-.931 2.112-3.672c0-2.691-.78-3.621-2.112-3.621z"/><path d="M61.402 48.646c1.333 0 2.112-.93 2.112-3.671 0-2.69-.78-3.621-2.112-3.621s-2.112.931-2.112 3.621c0 2.741.78 3.671 2.112 3.671z"/><path d="M94.627 66.354c-1.332 0-2.111.931-2.111 3.621 0 2.741.779 3.672 2.111 3.672 1.334 0 2.113-.931 2.113-3.672 0-2.691-.779-3.621-2.113-3.621z"/><path d="M79.084 91h-1.084v2.969c1 .075.692.101.894.101.781 0 1.503-.466 1.503-1.598-.001-.88-.407-1.472-1.313-1.472z"/><path d="M96.689 41h-.689v2.969c0 .075.496.101.697.101.779 0 1.404-.466 1.404-1.598.001-.88-.507-1.472-1.412-1.472z"/><path d="M25 25v91h91v-91h-91zm47 11h6v10.811c0 1.458.369 1.735 1.525 1.735 1.107 0 1.475-.277 1.475-1.735v-10.811h7v11.439c0 4.853-3.373 6.639-7.975 6.639-4.727 0-8.025-1.786-8.025-6.639v-11.439zm-10.573-.078c5.206 0 8.877 2.188 8.877 9.078 0 6.865-3.671 9.078-8.877 9.078-5.255 0-8.927-2.213-8.927-9.078 0-6.891 3.672-9.078 8.927-9.078zm6.484 34.078c0 6.865-3.671 9.078-8.877 9.078-5.255 0-8.927-2.213-8.927-9.078 0-6.891 3.671-9.078 8.927-9.078 5.205 0 8.877 2.187 8.877 9.078zm-25.632-33.978l1.911 5.583 1.911-5.583 7.239.302-6.34 11.291v6.385h-6v-6.385l-6.15-11.291 7.429-.302zm-5.279 24.978h7v12h5.721l-.251 6h-12.47v-18zm18 43h-7v-6h-3v6h-6v-18h6v6h3v-6h7v18zm13.895-11l-.252 4h-5.643v1h7.404l-.252 6h-13.152v-18h13.404l-.252 6h-7.152v1h5.895zm-.172-23c0-6.815 4.225-9.078 9.455-9.078 1.785 0 3.973.251 5.758.654l-1.105 5.583c-1.76-.302-2.516-.453-3.771-.453-2.164 0-3.547.58-3.547 3.647 0 2.816.83 3.647 2.742 3.647h-.255v-1h-.93l.252-5h7.678v9.946c-3 .628-4.517 1.132-7.208 1.132-7.141 0-9.069-4.904-9.069-9.078zm11.67 34.078l-1.825-4.879c-.125 0 .433-.025-.567-.051v4.852h-6v-18h7.262c4.676 0 7.668 2.324 7.668 6.7 0 2.062-.805 3.69-2.086 4.771l2.715 6.082-7.167.525zm20.017-11.078l-.25 4h-5.16v1h6.92l-.252 6h-13.668v-18h13.92l-.252 6h-6.668v1h5.41zm-5.758-13.922c-5.256 0-8.928-2.213-8.928-9.078 0-6.891 3.672-9.078 8.928-9.078 5.205 0 8.877 2.188 8.877 9.078 0 6.865-3.672 9.078-8.877 9.078zm3.344-25l-1.625-4.878c-.127 0-.371-.025-.371-.05v4.85h-6v-18h6.865c4.678 0 7.67 2.324 7.67 6.7 0 2.062-.805 3.689-2.088 4.771l2.717 6.082-7.168.525z"/></g></svg>