<!DOCTYPE svg PUBLIC "-//W3C//DTD SVG 1.1//EN" "http://www.w3.org/Graphics/SVG/1.1/DTD/svg11.dtd" [
	<!ENTITY ns_flows "http://ns.adobe.com/Flows/1.0/">
]><svg xmlns="http://www.w3.org/2000/svg" xmlns:xlink="http://www.w3.org/1999/xlink" width="140" height="140" viewBox="86.5 77.002 140 140" overflow="visible" enable-background="new 86.5 77.002 140 140"><defs><path id="a" d="M127.899 104.84c-2.32 2.321-4.002 7.013-5.049 12.787 3.003-1.676 6.314-3.226 9.95-4.533 6.143-2.208 12.558-3.581 18.977-4.274 2.676-.289 5.354-.44 7.997-.479 7.926-.113 15.583.87 22.33 2.912l.062.025-.652.417-.406.221-51.292 29.037-.221.11c-3.385 1.954-6.693 3.207-6.523 8.918.296 1.479.622 2.875 1.002 4.175.088-1.109.502-3.039 2.205-4.028 1.406-.817 4.2-2.469 4.2-2.469l4.237-2.432 4.2-2.469 4.238-2.432 4.201-2.468 4.237-2.433 4.201-2.469 4.236-2.432 4.201-2.468 4.238-2.433 4.201-2.469 4.237-2.432 4.199-2.469s2.83-1.619 4.24-2.432c2.287-1.321 2.834-3.788 2.946-4.496-.939-2.824-2.109-5.094-3.501-6.485-4.225-4.225-16.332-6.338-28.447-6.338-12.11 0-24.218 2.114-28.444 6.338"/></defs><use xlink:href="#a" overflow="visible" fill="#fff"/><clipPath id="b"><use xlink:href="#a" overflow="visible"/></clipPath><rect x="122.851" y="98.502" clip-path="url(#b)" fill="#fff" width="65.444" height="55.653"/><defs><path id="c" d="M185.315 115.621c-1.407.813-4.237 2.432-4.237 2.432l-4.201 2.469-4.236 2.432-4.201 2.469-4.237 2.432-4.2 2.469-4.237 2.432-4.201 2.469-4.237 2.432-4.2 2.469-4.238 2.431-4.201 2.47-4.237 2.431s-2.795 1.651-4.201 2.47c-1.802 1.046-2.128 3.188-2.177 4.196l.003.034c.965 3.184 2.207 5.751 3.723 7.266 8.45 8.449 48.443 8.449 56.894 0 2.473-2.473 4.207-7.635 5.232-13.93-3.098 1.75-6.547 3.361-10.318 4.716-6.142 2.21-12.557 3.583-18.977 4.275-10.7 1.156-21.331.29-30.326-2.431l-.05-.022.64-.42.442-.222 51.255-29.036.223-.111c3.377-1.95 6.714-3.201 6.559-8.88-.314-1.452-.674-2.793-1.08-4.051-.215.998-.932 3.128-2.979 4.309"/></defs><use xlink:href="#c" overflow="visible" fill="#fff"/><clipPath id="d"><use xlink:href="#c" overflow="visible"/></clipPath><rect x="124.07" y="111.312" clip-path="url(#d)" fill="#fff" width="65.853" height="58.561"/><defs><path id="e" d="M136.649 112.411c-5.125 1.545-9.69 3.474-13.645 5.695l8.845.797.129-.116-.158.229c3.591-2.299 7.715-4.309 12.311-5.931 9.032-3.188 18.529-4.38 27.281-3.803l-1.063-.119c-2.761-.272-5.587-.41-8.448-.41-8.361.001-17.027 1.18-25.252 3.658"/></defs><use xlink:href="#e" overflow="visible" fill="#fff"/><clipPath id="f"><use xlink:href="#e" overflow="visible"/></clipPath><polygon clip-path="url(#f)" fill="#fff" points="126.833,127.625 175.636,118.202 167.585,100.098 118.782,109.521"/><defs><path id="g" d="M168.672 151.956c-9.03 3.188-18.529 4.381-27.28 3.804l1.063.119c10.824 1.064 22.66.079 33.699-3.247 5.124-1.545 9.69-3.474 13.645-5.695l-8.845-.797-.129.116.158-.23c-3.59 2.3-7.714 4.308-12.311 5.93"/></defs><clipPath id="h"><use xlink:href="#g" overflow="visible"/></clipPath><polygon clip-path="url(#h)" fill="#fff" points="185.972,137.418 136.919,146.888 145.218,165.551 194.27,156.08"/><polygon fill="#fff" points="104.813,195.145 115.835,195.145 115.835,193.431 107.181,193.431 115.346,181.974 115.346,180.259 105.085,180.259 105.085,181.974 113.06,181.974 104.813,193.486"/><path fill="#fff" d="M134.29 188.396l.014-.272.014-.271c.006-.656-.079-1.337-.258-2.042-.179-.704-.482-1.411-.912-2.121-.536-.968-1.368-1.831-2.493-2.59-1.125-.758-2.508-1.166-4.146-1.221-2.216.098-4.045.888-5.487 2.367-1.443 1.479-2.19 3.305-2.242 5.471.063 2.254.835 4.102 2.317 5.545 1.481 1.442 3.295 2.189 5.439 2.238 1.739-.032 3.259-.532 4.558-1.501 1.298-.968 2.219-2.209 2.763-3.725h-2.015c-.35.952-.983 1.763-1.901 2.429s-2.062 1.028-3.432 1.082c-1.506-.042-2.814-.577-3.926-1.603s-1.726-2.288-1.845-3.786h13.552zm-13.553-1.714c.334-1.749 1.076-3.035 2.226-3.861s2.34-1.235 3.572-1.228c1.241-.008 2.432.401 3.575 1.228 1.142.826 1.891 2.112 2.248 3.861h-11.621z"/><path fill="#fff" d="M138.829 195.145h1.905v-8.326c.009-.928.141-1.722.398-2.382.257-.661.586-1.183.988-1.565.535-.494 1.1-.833 1.692-1.017.592-.185 1.108-.271 1.547-.262.439-.01.956.077 1.548.262.592.184 1.156.522 1.691 1.017.416.395.754.933 1.014 1.612.259.68.394 1.504.401 2.47v8.191h1.904v-8.191c-.008-1.223-.177-2.268-.506-3.137-.331-.869-.778-1.573-1.344-2.116-.679-.671-1.405-1.145-2.181-1.421s-1.62-.41-2.528-.401c-1.262.039-2.269.308-3.021.806-.752.499-1.269.992-1.551 1.48h-.055v-1.905h-1.905v14.885z"/><path fill="#fff" d="M171.806 188.396l.014-.272.015-.271c.005-.656-.081-1.337-.259-2.042-.179-.704-.482-1.411-.912-2.121-.537-.968-1.368-1.831-2.493-2.59-1.125-.758-2.508-1.166-4.147-1.221-2.216.098-4.044.888-5.487 2.367-1.441 1.479-2.189 3.305-2.241 5.471.063 2.254.835 4.102 2.316 5.545 1.481 1.442 3.295 2.189 5.44 2.238 1.738-.032 3.259-.532 4.558-1.501 1.299-.968 2.219-2.209 2.762-3.725h-2.014c-.35.952-.984 1.763-1.902 2.429s-2.062 1.028-3.432 1.082c-1.506-.042-2.814-.577-3.925-1.603-1.112-1.025-1.726-2.288-1.845-3.786h13.552zm-13.553-1.714c.334-1.749 1.075-3.035 2.226-3.861 1.148-.826 2.339-1.235 3.572-1.228 1.24-.008 2.432.401 3.574 1.228s1.893 2.112 2.249 3.861h-11.621z"/><polygon fill="#fff" points="181.053,195.145 183.147,195.145 189.435,180.259 187.394,180.259 182.06,192.777 176.807,180.259 174.767,180.259"/><path fill="#fff" d="M208.187 180.259h-1.904v2.612h-.054c-.832-1.208-1.795-2.017-2.89-2.426-1.092-.408-2.062-.597-2.908-.567-2.465.075-4.406.876-5.827 2.401-1.419 1.525-2.145 3.319-2.174 5.381.041 2.196.79 4.037 2.246 5.522 1.455 1.484 3.375 2.257 5.755 2.316.819.029 1.774-.159 2.868-.565 1.094-.405 2.07-1.207 2.93-2.402h.054v2.613h1.904v-14.885zm-13.852 7.485c.05-1.912.658-3.41 1.824-4.495 1.166-1.083 2.589-1.637 4.271-1.655 1.749.05 3.171.663 4.268 1.837 1.094 1.174 1.659 2.602 1.692 4.286-.047 1.776-.639 3.223-1.775 4.341-1.136 1.117-2.53 1.692-4.185 1.728-1.849-.044-3.321-.637-4.415-1.775-1.093-1.141-1.654-2.564-1.68-4.267"/></svg>