<?xml version="1.0" encoding="utf-8"?>
<!-- Generator: Adobe Illustrator 15.0.2, SVG Export Plug-In  -->
<!DOCTYPE svg PUBLIC "-//W3C//DTD SVG 1.1//EN" "http://www.w3.org/Graphics/SVG/1.1/DTD/svg11.dtd" [
	<!ENTITY ns_flows "http://ns.adobe.com/Flows/1.0/">
]>
<svg version="1.1"
	 xmlns="http://www.w3.org/2000/svg" xmlns:xlink="http://www.w3.org/1999/xlink" xmlns:a="http://ns.adobe.com/AdobeSVGViewerExtensions/3.0/"
	 x="0px" y="0px" width="140px" height="140px" viewBox="121.026 113.975 140 140"
	 overflow="visible" enable-background="new 121.026 113.975 140 140" xml:space="preserve">
<defs>
</defs>
<rect display="none" fill="#1A2C4A" width="384" height="367.949"/>
<path display="none" fill="#696C71" d="M140.347,214.811c-0.738,0-1.426-0.443-1.697-1.156l-0.639-1.771h-7.035l-0.665,1.771
	c-0.27,0.713-0.959,1.156-1.721,1.156c-1.107,0-1.845-0.936-1.845-1.869c0-0.223,0.024-0.443,0.123-0.664l4.796-12.324
	c0.419-1.106,1.525-1.844,2.682-1.844c1.254-0.1,2.508,0.639,2.976,1.844l4.772,12.324c0.073,0.221,0.123,0.441,0.123,0.664
	C142.217,213.852,141.479,214.811,140.347,214.811 M134.493,201.749l-2.558,7.06h5.116L134.493,201.749z"/>
<path display="none" fill="#696C71" d="M151.583,214.957c-2.386,0-5.338-0.787-6.248-2.139c-0.172-0.246-0.271-0.541-0.271-0.837
	c0-0.935,0.812-1.624,1.648-1.624c0.32,0,0.664,0.074,0.935,0.271c1.107,0.762,2.509,1.279,4.108,1.279
	c1.918,0,2.853-0.887,2.853-1.82c0-2.902-9.445-0.91-9.445-7.084c0-2.73,2.361-4.994,6.223-4.994c1.869,0,4.723,0.615,5.633,1.82
	c0.196,0.246,0.295,0.541,0.295,0.837c0,0.935-0.91,1.574-1.747,1.574c-0.295,0-0.59-0.073-0.885-0.246
	c-1.131-0.64-2.411-0.935-3.616-0.935c-1.5,0-2.337,0.664-2.337,1.648c0,2.607,9.421,0.86,9.421,6.984
	C158.15,212.695,156.01,214.957,151.583,214.957"/>
<path display="none" fill="#696C71" d="M172.314,201.331h-3.419v11.733c0,0.959-0.787,1.745-1.771,1.745
	c-0.959,0-1.746-0.786-1.746-1.745v-11.733h-3.419c-0.836,0-1.525-0.688-1.525-1.574c0-0.812,0.689-1.501,1.525-1.501h10.355
	c0.812,0,1.5,0.689,1.5,1.551C173.814,200.643,173.126,201.331,172.314,201.331"/>
<path display="none" fill="#696C71" d="M184.485,214.957c-4.944,0-8.56-3.541-8.56-8.485s3.616-8.485,8.56-8.485
	c4.969,0,8.585,3.541,8.585,8.485S189.455,214.957,184.485,214.957 M184.485,201.085c-3.025,0-4.969,2.312-4.969,5.387
	c0,3.05,1.944,5.387,4.969,5.387s4.993-2.337,4.993-5.387C189.479,203.396,187.51,201.085,184.485,201.085"/>
<path display="none" fill="#696C71" d="M209.445,214.811c-0.664,0-1.328-0.32-1.746-0.886l-7.281-9.962v9.125
	c0,0.936-0.787,1.723-1.771,1.723c-0.935,0-1.722-0.787-1.722-1.723v-12.74c0-1.156,0.984-2.238,2.287-2.238
	c0.738,0,1.477,0.344,1.919,0.959l6.985,9.494v-8.732c0-0.934,0.787-1.721,1.771-1.721c0.935,0,1.722,0.787,1.722,1.721v12.865
	C211.61,213.802,210.7,214.811,209.445,214.811"/>
<path display="none" fill="#696C71" d="M217.975,214.811c-0.934,0-1.721-0.787-1.721-1.723V199.83c0-0.934,0.787-1.721,1.771-1.721
	c0.935,0,1.721,0.787,1.721,1.721v13.258C219.745,214.023,218.959,214.811,217.975,214.811"/>
<path display="none" fill="#696C71" d="M230.222,214.957c-2.386,0-5.338-0.787-6.248-2.139c-0.172-0.246-0.271-0.541-0.271-0.837
	c0-0.935,0.812-1.624,1.648-1.624c0.319,0,0.664,0.074,0.935,0.271c1.106,0.762,2.509,1.279,4.107,1.279
	c1.919,0,2.854-0.887,2.854-1.82c0-2.902-9.445-0.91-9.445-7.084c0-2.73,2.361-4.994,6.224-4.994c1.869,0,4.723,0.615,5.632,1.82
	c0.197,0.246,0.296,0.541,0.296,0.837c0,0.935-0.91,1.574-1.747,1.574c-0.295,0-0.591-0.073-0.886-0.246
	c-1.131-0.64-2.41-0.935-3.615-0.935c-1.5,0-2.337,0.664-2.337,1.648c0,2.607,9.421,0.86,9.421,6.984
	C236.789,212.695,234.648,214.957,230.222,214.957"/>
<path display="none" fill="#696C71" d="M253.535,214.811c-0.959,0-1.746-0.787-1.746-1.746v-5.289h-7.748v5.312
	c0,0.936-0.787,1.723-1.771,1.723c-0.935,0-1.722-0.787-1.722-1.723V199.83c0-0.934,0.787-1.721,1.771-1.721
	c0.936,0,1.723,0.787,1.723,1.721v4.871h7.748v-4.871c0-0.934,0.787-1.721,1.795-1.721c0.936,0,1.723,0.787,1.723,1.721v13.234
	C255.307,214.023,254.52,214.811,253.535,214.811"/>
<path display="none" fill="#E4457D" d="M234.235,152.393c-1.819-1.069-34.141-20.277-34.141-20.277
	c-1.888-1.126-4.333-0.502-5.456,1.386c-1.125,1.894-0.502,4.335,1.391,5.458l28.381,16.856l-24.955,14.822
	c0,0-21.281-35.843-22.073-37.162c-0.79-1.314-2.037-1.95-3.434-1.95c-1.396,0-2.713,0.771-3.415,1.944
	c-0.7,1.173-24.11,40.592-24.11,40.592c-1.123,1.888-0.498,4.327,1.388,5.456c1.829,1.098,4.301,0.528,5.456-1.392
	c1.938-3.209,20.688-34.829,20.688-34.829s19.439,32.745,20.683,34.829c1.247,2.088,3.761,2.399,5.459,1.392
	c3.969-2.343,32.081-19.018,34.138-20.277c1.464-0.896,2.003-2.31,1.946-3.499C236.132,154.576,235.711,153.262,234.235,152.393"/>
<path display="none" fill="#696C71" d="M156.667,236.162h-3.691c-0.888,0-1.615-0.727-1.615-1.614V224.32
	c0-0.887,0.727-1.613,1.615-1.613h3.691c4.216,0,7.141,2.683,7.141,6.737C163.809,233.5,160.883,236.162,156.667,236.162
	 M156.667,225.229h-2.441v8.412h2.441c2.662,0,4.216-1.917,4.216-4.196C160.883,227.064,159.432,225.229,156.667,225.229"/>
<path display="none" fill="#696C71" d="M175.884,236.162h-6.798c-0.888,0-1.613-0.727-1.613-1.614V224.32
	c0-0.887,0.725-1.613,1.613-1.613h6.798c0.666,0,1.23,0.564,1.23,1.271c0,0.687-0.564,1.251-1.23,1.251h-5.547v2.844h5.406
	c0.665,0,1.231,0.564,1.231,1.271c0,0.686-0.566,1.25-1.231,1.25h-5.406v3.048h5.547c0.666,0,1.23,0.563,1.23,1.229
	C177.114,235.597,176.55,236.162,175.884,236.162"/>
<path display="none" fill="#696C71" d="M185.829,236.404c-1.957,0-4.377-0.646-5.124-1.756c-0.141-0.201-0.222-0.443-0.222-0.686
	c0-0.767,0.666-1.332,1.352-1.332c0.263,0,0.545,0.061,0.766,0.223c0.909,0.625,2.058,1.049,3.37,1.049
	c1.573,0,2.339-0.727,2.339-1.492c0-2.381-7.746-0.747-7.746-5.811c0-2.238,1.937-4.095,5.104-4.095
	c1.533,0,3.873,0.505,4.619,1.493c0.161,0.201,0.242,0.443,0.242,0.686c0,0.767-0.746,1.291-1.432,1.291
	c-0.242,0-0.484-0.061-0.726-0.201c-0.928-0.525-1.978-0.768-2.966-0.768c-1.23,0-1.916,0.545-1.916,1.352
	c0,2.139,7.726,0.707,7.726,5.729C191.215,234.548,189.459,236.404,185.829,236.404"/>
<path display="none" fill="#696C71" d="M196.377,236.283c-0.766,0-1.41-0.646-1.41-1.412v-10.873c0-0.767,0.645-1.412,1.451-1.412
	c0.768,0,1.412,0.646,1.412,1.412v10.873C197.83,235.638,197.186,236.283,196.377,236.283"/>
<path display="none" fill="#696C71" d="M208.824,236.424c-3.934,0-7.162-2.743-7.162-6.979c0-4.258,3.229-6.961,7.162-6.961
	c2.178,0,3.73,0.848,4.779,1.978c0.223,0.242,0.344,0.564,0.344,0.867c0,0.706-0.646,1.291-1.353,1.291
	c-0.343,0-0.706-0.142-0.968-0.403c-0.766-0.746-1.775-1.19-2.803-1.19c-2.441,0-4.217,1.876-4.217,4.419
	c0,2.541,1.775,4.415,4.217,4.415c1.189,0,2.318-0.522,2.863-1.027v-1.614h-2.441c-0.686,0-1.23-0.544-1.23-1.27
	c0-0.687,0.545-1.23,1.23-1.23h3.691c0.889,0,1.615,0.727,1.615,1.613v2.278C214.553,235.053,211.547,236.424,208.824,236.424"/>
<path display="none" fill="#696C71" d="M228.914,236.283c-0.545,0-1.09-0.263-1.432-0.727l-5.971-8.169v7.483
	c0,0.767-0.646,1.412-1.453,1.412c-0.766,0-1.412-0.646-1.412-1.412v-10.449c0-0.949,0.807-1.836,1.877-1.836
	c0.604,0,1.209,0.282,1.572,0.787l5.729,7.786v-7.161c0-0.767,0.646-1.412,1.453-1.412c0.766,0,1.412,0.646,1.412,1.412v10.55
	C230.689,235.455,229.943,236.283,228.914,236.283"/>
<path fill="#FFFFFE" d="M136.941,216.882c-0.786,0-1.521-0.475-1.811-1.234l-0.682-1.891h-7.508l-0.709,1.891
	c-0.288,0.76-1.024,1.234-1.837,1.234c-1.182,0-1.97-0.998-1.97-1.995c0-0.238,0.025-0.473,0.133-0.709l5.117-13.151
	c0.447-1.181,1.628-1.969,2.862-1.969c1.338-0.106,2.677,0.683,3.177,1.969l5.092,13.151c0.077,0.236,0.132,0.471,0.132,0.709
	C138.938,215.858,138.15,216.882,136.941,216.882 M130.695,202.943l-2.73,7.532h5.46L130.695,202.943z"/>
<path fill="#FFFFFE" d="M148.934,217.037c-2.547,0-5.697-0.84-6.668-2.281c-0.183-0.263-0.289-0.578-0.289-0.894
	c0-0.997,0.866-1.732,1.759-1.732c0.341,0,0.708,0.078,0.998,0.289c1.181,0.812,2.678,1.365,4.384,1.365
	c2.046,0,3.045-0.946,3.045-1.942c0-3.098-10.079-0.972-10.079-7.56c0-2.914,2.519-5.331,6.641-5.331
	c1.994,0,5.04,0.658,6.011,1.943c0.21,0.263,0.315,0.578,0.315,0.894c0,0.997-0.972,1.68-1.864,1.68
	c-0.315,0-0.63-0.078-0.944-0.263c-1.207-0.682-2.574-0.997-3.859-0.997c-1.601,0-2.494,0.708-2.494,1.759
	c0,2.783,10.054,0.919,10.054,7.454C155.941,214.625,153.657,217.037,148.934,217.037"/>
<path fill="#FFFFFE" d="M171.057,202.496h-3.649v12.522c0,1.022-0.839,1.862-1.89,1.862c-1.022,0-1.863-0.84-1.863-1.862v-12.522
	h-3.648c-0.892,0-1.627-0.734-1.627-1.68c0-0.866,0.735-1.602,1.627-1.602h11.051c0.866,0,1.602,0.735,1.602,1.655
	C172.658,201.762,171.923,202.496,171.057,202.496"/>
<path fill="#FFFFFE" d="M184.046,217.037c-5.276,0-9.135-3.778-9.135-9.055s3.858-9.055,9.135-9.055
	c5.303,0,9.161,3.778,9.161,9.055S189.349,217.037,184.046,217.037 M184.046,202.233c-3.229,0-5.304,2.467-5.304,5.749
	c0,3.256,2.075,5.749,5.304,5.749c3.228,0,5.328-2.493,5.328-5.749C189.374,204.7,187.273,202.233,184.046,202.233"/>
<path fill="#FFFFFE" d="M210.683,216.882c-0.709,0-1.417-0.342-1.863-0.946l-7.77-10.631v9.739c0,0.997-0.841,1.838-1.891,1.838
	c-0.997,0-1.838-0.841-1.838-1.838v-13.597c0-1.234,1.051-2.39,2.44-2.39c0.789,0,1.576,0.367,2.05,1.024l7.454,10.132v-9.319
	c0-0.996,0.84-1.837,1.891-1.837c0.997,0,1.837,0.841,1.837,1.837v13.73C212.993,215.805,212.021,216.882,210.683,216.882"/>
<path fill="#FFFFFE" d="M219.785,216.882c-0.996,0-1.837-0.841-1.837-1.838v-14.149c0-0.996,0.841-1.837,1.89-1.837
	c0.998,0,1.837,0.841,1.837,1.837v14.149C221.675,216.041,220.836,216.882,219.785,216.882"/>
<path fill="#FFFFFE" d="M232.854,217.037c-2.546,0-5.695-0.84-6.668-2.281c-0.183-0.263-0.288-0.578-0.288-0.894
	c0-0.997,0.867-1.732,1.759-1.732c0.341,0,0.709,0.078,0.998,0.289c1.181,0.812,2.677,1.365,4.384,1.365
	c2.047,0,3.044-0.946,3.044-1.942c0-3.098-10.079-0.972-10.079-7.56c0-2.914,2.52-5.331,6.642-5.331
	c1.995,0,5.041,0.658,6.011,1.943c0.21,0.263,0.315,0.578,0.315,0.894c0,0.997-0.972,1.68-1.864,1.68
	c-0.314,0-0.631-0.078-0.945-0.263c-1.207-0.682-2.572-0.997-3.858-0.997c-1.6,0-2.494,0.708-2.494,1.759
	c0,2.783,10.054,0.919,10.054,7.454C239.863,214.625,237.579,217.037,232.854,217.037"/>
<path fill="#FFFFFE" d="M257.735,216.882c-1.024,0-1.863-0.841-1.863-1.863v-5.646h-8.27v5.671c0,0.997-0.84,1.838-1.89,1.838
	c-0.997,0-1.837-0.841-1.837-1.838v-14.149c0-0.996,0.84-1.837,1.889-1.837c0.998,0,1.838,0.841,1.838,1.837v5.198h8.27v-5.198
	c0-0.996,0.839-1.837,1.915-1.837c0.999,0,1.838,0.841,1.838,1.837v14.124C259.625,216.041,258.786,216.882,257.735,216.882"/>
<path fill="#FFFFFE" d="M237.138,150.271c-1.941-1.141-36.434-21.639-36.434-21.639c-2.015-1.202-4.625-0.536-5.823,1.479
	c-1.199,2.021-0.535,4.626,1.484,5.824l30.287,17.989l-26.632,15.817c0,0-22.71-38.251-23.555-39.659
	c-0.843-1.401-2.175-2.081-3.664-2.081c-1.49,0-2.896,0.823-3.646,2.075c-0.747,1.252-25.729,43.319-25.729,43.319
	c-1.198,2.015-0.531,4.617,1.481,5.822c1.951,1.172,4.59,0.563,5.822-1.486c2.068-3.424,22.078-37.168,22.078-37.168
	s20.744,34.944,22.072,37.168c1.331,2.229,4.015,2.561,5.826,1.486c4.235-2.501,34.236-20.296,36.431-21.639
	c1.563-0.957,2.139-2.466,2.077-3.734C239.162,152.601,238.713,151.198,237.138,150.271"/>
<path fill="#FFFFFE" d="M154.359,239.667h-3.939c-0.947,0-1.724-0.774-1.724-1.723V227.03c0-0.946,0.776-1.722,1.724-1.722h3.939
	c4.499,0,7.62,2.863,7.62,7.19C161.979,236.827,158.858,239.667,154.359,239.667 M154.359,227.999h-2.605v8.979h2.605
	c2.841,0,4.499-2.047,4.499-4.479C158.858,229.958,157.309,227.999,154.359,227.999"/>
<path fill="#FFFFFE" d="M174.866,239.667h-7.253c-0.949,0-1.722-0.774-1.722-1.723V227.03c0-0.946,0.772-1.722,1.722-1.722h7.253
	c0.712,0,1.313,0.603,1.313,1.356c0,0.732-0.602,1.334-1.313,1.334h-5.919v3.036h5.77c0.709,0,1.313,0.602,1.313,1.356
	c0,0.731-0.604,1.334-1.313,1.334h-5.77v3.253h5.919c0.712,0,1.313,0.601,1.313,1.312
	C176.18,239.064,175.578,239.667,174.866,239.667"/>
<path fill="#FFFFFE" d="M185.479,239.926c-2.089,0-4.672-0.689-5.468-1.874c-0.151-0.214-0.237-0.473-0.237-0.731
	c0-0.817,0.711-1.422,1.442-1.422c0.281,0,0.581,0.065,0.817,0.238c0.971,0.667,2.197,1.119,3.597,1.119
	c1.679,0,2.496-0.775,2.496-1.592c0-2.541-8.267-0.798-8.267-6.201c0-2.388,2.067-4.37,5.447-4.37c1.637,0,4.134,0.539,4.929,1.594
	c0.173,0.214,0.259,0.474,0.259,0.731c0,0.817-0.796,1.379-1.528,1.379c-0.259,0-0.516-0.065-0.774-0.216
	c-0.991-0.56-2.11-0.818-3.166-0.818c-1.312,0-2.044,0.58-2.044,1.441c0,2.282,8.245,0.754,8.245,6.115
	C191.228,237.944,189.354,239.926,185.479,239.926"/>
<path fill="#FFFFFE" d="M196.736,239.798c-0.816,0-1.505-0.689-1.505-1.508v-11.604c0-0.817,0.688-1.508,1.55-1.508
	c0.818,0,1.506,0.69,1.506,1.508v11.604C198.287,239.108,197.6,239.798,196.736,239.798"/>
<path fill="#FFFFFE" d="M210.02,239.948c-4.197,0-7.643-2.929-7.643-7.448c0-4.544,3.445-7.43,7.643-7.43
	c2.324,0,3.981,0.906,5.101,2.111c0.238,0.259,0.368,0.603,0.368,0.926c0,0.752-0.691,1.377-1.444,1.377
	c-0.366,0-0.753-0.151-1.032-0.43c-0.817-0.797-1.896-1.271-2.992-1.271c-2.605,0-4.5,2.002-4.5,4.716
	c0,2.712,1.895,4.711,4.5,4.711c1.271,0,2.475-0.558,3.056-1.096v-1.723h-2.604c-0.731,0-1.313-0.581-1.313-1.355
	c0-0.733,0.582-1.312,1.313-1.312h3.938c0.949,0,1.724,0.775,1.724,1.721v2.433C216.133,238.484,212.926,239.948,210.02,239.948"/>
<path fill="#FFFFFE" d="M231.46,239.798c-0.582,0-1.164-0.28-1.528-0.776l-6.371-8.718v7.986c0,0.818-0.69,1.508-1.552,1.508
	c-0.816,0-1.507-0.689-1.507-1.508v-11.151c0-1.014,0.861-1.96,2.003-1.96c0.646,0,1.29,0.302,1.679,0.841l6.112,8.31v-7.643
	c0-0.817,0.69-1.508,1.552-1.508c0.817,0,1.507,0.69,1.507,1.508v11.258C233.354,238.913,232.558,239.798,231.46,239.798"/>
</svg>
