<?xml version="1.0" encoding="utf-8"?>
<!-- Generator: Adobe Illustrator 15.0.2, SVG Export Plug-In  -->
<!DOCTYPE svg PUBLIC "-//W3C//DTD SVG 1.1//EN" "http://www.w3.org/Graphics/SVG/1.1/DTD/svg11.dtd" [
	<!ENTITY ns_flows "http://ns.adobe.com/Flows/1.0/">
]>
<svg version="1.1"
	 xmlns="http://www.w3.org/2000/svg" xmlns:xlink="http://www.w3.org/1999/xlink" xmlns:a="http://ns.adobe.com/AdobeSVGViewerExtensions/3.0/"
	 x="0px" y="0px" width="140px" height="140px" viewBox="0 0 140 140" overflow="visible" enable-background="new 0 0 140 140"
	 xml:space="preserve">
<defs>
</defs>
<rect display="none" fill="#0A4B7F" width="140" height="140"/>
<path fill="#FFFFFF" d="M97.215,84.266c5.737-4.385,9.08-10.121,10.026-17.208c0.946-7.086-0.773-13.499-5.159-19.235
	c-1.878-2.459-4.499-4.699-7.859-6.716c-0.607-3.173-2.081-6.29-4.42-9.349c-4.384-5.738-10.119-9.082-17.207-10.027
	c-7.086-0.946-13.498,0.772-19.235,5.159L37.295,39.167c-0.035,0.027-0.062,0.058-0.095,0.086l-4.481,3.425l7.01,9.171l4.573-3.495
	c0.002-0.003,0.008-0.004,0.009-0.007l16.066-12.28c3.168-2.42,6.729-3.369,10.683-2.84c3.952,0.528,7.141,2.377,9.564,5.545
	c0.876,1.148,1.484,2.112,1.821,2.894c0.338,0.781,1.051,1.908,1.327,3.691c0.124,0.8,0.352,2.211,0.938,2.977
	c0.645,0.847,1.733,1.312,2.555,1.7c1.182,0.554,1.944,1.22,2.389,1.575c1.328,1.062,2.412,2.137,3.248,3.23
	c2.423,3.17,3.369,6.731,2.842,10.685c-0.529,3.952-2.378,7.14-5.546,9.562l-16.066,12.28c-0.012,0.009-0.021,0.021-0.036,0.031
	l-4.561,3.487l7.01,9.172l4.523-3.461c0.025-0.018,0.055-0.028,0.08-0.05L97.215,84.266z"/>
<path fill="#FFFFFF" d="M85.688,60.352c-0.961-1.258-2.153-2.055-3.581-2.393c-1.426-0.337-2.822,0.016-4.188,1.059l-11.477,8.772
	l-5.263-6.887l11.477-8.77c1.365-1.044,2.073-2.299,2.122-3.764c0.049-1.466-0.408-2.828-1.368-4.083
	c-0.961-1.258-2.156-2.055-3.582-2.392c-1.426-0.338-2.824,0.014-4.189,1.058L49.573,55.232c-0.011,0.01-0.021,0.021-0.032,0.031
	l-4.547,3.474l3.438,4.498c0.022,0.031,0.036,0.064,0.061,0.097l12.279,16.066c0.034,0.045,0.068,0.074,0.104,0.12l3.407,4.456
	l4.461-3.41c0.043-0.031,0.084-0.051,0.127-0.083L84.937,68.2c1.365-1.044,2.073-2.299,2.12-3.764
	C87.106,62.971,86.65,61.609,85.688,60.352"/>
<path fill="#FFFFFF" d="M1.4,105.254h7.8c3.046,0,5.076,0.855,5.076,3.313c0,1.639-0.801,2.244-1.496,2.689
	c0.909,0.392,1.995,1.495,1.995,3.188c0,2.44-1.941,3.758-5.094,3.758H1.4V105.254z M9.361,110.366c1.656,0,2.387-0.41,2.387-1.496
	c0-1.104-0.73-1.515-2.387-1.515H3.929v3.011H9.361z M9.433,116.101c1.603,0,2.813-0.321,2.813-1.853
	c0-1.352-1.104-1.781-2.813-1.781H3.929v3.634H9.433z"/>
<polygon fill="#FFFFFF" points="17.231,105.254 19.761,105.254 19.761,115.959 29.146,115.959 29.146,118.202 17.231,118.202 "/>
<path fill="#FFFFFF" d="M36.074,105.254h2.885l6.287,12.948h-2.671l-1.354-2.974h-7.464l-1.37,2.974h-2.69L36.074,105.254z
	 M40.225,113.055l-2.708-5.771l-2.707,5.771H40.225z"/>
<path fill="#FFFFFF" d="M60.526,113.59c-0.25,1.443-1.282,4.933-7.231,4.933c-4.097,0-7.319-2.278-7.319-7
	c0-3.774,2.368-6.589,7.516-6.589c5.788,0,6.644,3.758,6.839,4.452h-2.528c-0.143-0.444-1.141-2.277-4.168-2.277
	c-3.579,0-5.077,2.011-5.077,4.699c0,2.976,2.156,4.542,4.935,4.542c2.956,0,4.257-1.763,4.506-2.76H60.526z"/>
<polygon fill="#FFFFFF" points="62.751,105.254 65.28,105.254 65.28,111.292 72.458,105.254 76.056,105.254 69.875,110.384 
	76.679,118.202 73.366,118.202 68.041,111.879 65.28,114.178 65.28,118.202 62.751,118.202 "/>
<polygon fill="#FFFFFF" points="78.742,105.254 81.165,105.254 85.957,116.154 90.746,105.254 93.171,105.254 93.171,118.202 
	91.728,118.202 91.728,106.643 91.692,106.643 86.632,118.202 85.315,118.202 80.221,106.643 80.186,106.643 80.186,118.202 
	78.742,118.202 "/>
<polygon fill="#FFFFFF" points="96.553,105.254 108.094,105.254 108.094,106.643 98.119,106.643 98.119,110.776 106.454,110.776 
	106.454,112.164 98.119,112.164 98.119,116.814 108.307,116.814 108.307,118.202 96.553,118.202 "/>
<path fill="#FFFFFF" d="M110.532,114.498c0.748,0.996,1.995,2.637,5.878,2.637c1.994,0,4.719-0.57,4.719-2.584
	c0-3.937-11.291-0.479-11.291-5.733c0-2.762,2.546-3.884,6.074-3.884c3.418,0,5.52,1.407,6.411,2.653l-1.142,0.927
	c-0.532-0.606-1.779-2.262-5.306-2.262c-2.6,0-4.436,0.676-4.436,2.315c0,3.918,11.293,0.178,11.293,5.983
	c0,2.173-2.103,3.972-6.501,3.972c-4.24,0-5.807-1.763-6.912-2.991L110.532,114.498z"/>
<polygon fill="#FFFFFF" points="125.279,105.254 126.846,105.254 126.846,110.741 137.033,110.741 137.033,105.254 138.6,105.254 
	138.6,118.202 137.033,118.202 137.033,112.129 126.846,112.129 126.846,118.202 125.279,118.202 "/>
</svg>
