<?xml version="1.0" encoding="utf-8"?>
<!-- Generator: Adobe Illustrator 15.0.2, SVG Export Plug-In  -->
<!DOCTYPE svg PUBLIC "-//W3C//DTD SVG 1.1//EN" "http://www.w3.org/Graphics/SVG/1.1/DTD/svg11.dtd" [
	<!ENTITY ns_flows "http://ns.adobe.com/Flows/1.0/">
]>
<svg version="1.1"
	 xmlns="http://www.w3.org/2000/svg" xmlns:xlink="http://www.w3.org/1999/xlink" xmlns:a="http://ns.adobe.com/AdobeSVGViewerExtensions/3.0/"
	 x="0px" y="0px" width="140px" height="140px" viewBox="41.332 35 140 140"
	 overflow="visible" enable-background="new 41.332 35 140 140" xml:space="preserve">
<defs>
</defs>
<rect display="none" fill="#58595B" width="225" height="198"/>
<polygon fill="#FFFFFF" points="90.367,89.274 87.089,85.995 87.089,91.971 93.064,91.971 "/>
<path fill="#FFFFFF" d="M86.348,92.711v-7.086l-16.962-0.001c-0.001,0-0.488,0.014-0.651,0.034c-3.482,0-6.39,1.138-6.72,6.281
	c-0.33-5.144-3.239-6.281-6.721-6.281c-0.164-0.021-0.65-0.034-0.65-0.034c-0.002,0-4.101,0-8.311,0v33.979h6.854
	c3.524,0,6.387,1.896,6.804,4.772h1.969h0.111h1.969c0.417-2.876,3.281-4.772,6.805-4.772h22.591V92.711H86.348z M75.513,115.954
	c-3.333,0-6.345-1.63-7.196-3.224c-1.028-2.341-0.284-4.716,1.772-4.716c1.631,0,2.304,1.24,2.304,2.375
	c0,1.347-0.921,2.552-1.311,3.048c0.531,1.063,3.013,1.49,4.431,1.49c3.049,0,4.786-2.447,4.786-5.992
	c0-4.432-2.446-6.452-7.622-5.353l-0.567-1.241h0.037l-0.284-0.46c7.197-0.957,7.764-3.475,7.764-5.921
	c0-2.305-1.205-4.855-3.97-4.855c-1.17,0-2.588,0.211-3.617,1.027c0.603,0.991,1.206,1.879,1.206,3.332
	c0,1.666-0.957,2.409-2.447,2.409c-1.808,0-2.374-2.516-1.524-4.287c1.383-2.696,4.999-3.547,7.303-3.547
	c3.829,0,7.939,1.772,7.939,6.028c0,2.94-2.374,5.317-7.55,6.38l0.071,0.319c5.743,0.035,8.473,3.085,8.473,6.275
	C85.51,114.006,80.512,115.954,75.513,115.954z"/>
<path fill="#FFFFFF" d="M102.544,98.962c-1.28,0-2.451-0.476-3.328-1.354c-1.225-1.223-1.225-2.503-1.225-5.265
	c0-2.761,0-4.04,1.225-5.265c0.877-0.879,2.048-1.354,3.328-1.354c2.339,0,4.076,1.428,4.516,3.877h-1.426
	c-0.349-1.591-1.463-2.633-3.09-2.633c-0.86,0-1.684,0.329-2.25,0.914c-0.823,0.842-0.914,1.737-0.914,4.461s0.091,3.62,0.914,4.462
	c0.566,0.585,1.39,0.914,2.25,0.914c1.627,0,2.777-1.043,3.126-2.634h1.39C106.639,97.535,104.864,98.962,102.544,98.962z"/>
<path fill="#FFFFFF" d="M116.533,98.851v-6.014h-6.253v6.014h-1.405V85.677h1.405v5.902h6.253v-5.902h1.406v13.174H116.533z"/>
<path fill="#FFFFFF" d="M129.616,98.851l-1.054-2.979h-5.756l-1.054,2.979h-1.499l4.848-13.174h1.185l4.829,13.174H129.616z
	 M125.712,87.693l-2.479,6.957h4.921L125.712,87.693z"/>
<path fill="#FFFFFF" d="M138.701,93.429h-3.497v5.422h-1.406V85.677h4.903c2.406,0,4.07,1.498,4.07,3.866
	C142.771,91.912,141.107,93.429,138.701,93.429z M138.572,86.935h-3.368v5.237h3.368c1.646,0,2.793-0.889,2.793-2.629
	C141.365,87.804,140.219,86.935,138.572,86.935z"/>
<path fill="#FFFFFF" d="M149.877,86.935v11.916h-1.405V86.935h-3.812v-1.258h9.028v1.258H149.877z"/>
<path fill="#FFFFFF" d="M156.335,98.851V85.677h8.179v1.258h-6.771v4.645h5.771v1.258h-5.771v4.755h6.771v1.259H156.335z"/>
<path fill="#FFFFFF" d="M174.68,98.851l-3.006-5.865h-3.173v5.865h-1.411V85.637h5.066c2.302,0,3.915,1.393,3.915,3.675
	c0,1.931-1.168,3.192-2.875,3.545l3.136,5.994H174.68z M172.027,86.898h-3.526v4.844h3.526c1.539,0,2.634-0.799,2.634-2.412
	C174.661,87.715,173.566,86.898,172.027,86.898z"/>
<path fill="#FFFFFF" d="M106.414,104.129v15.249h-3.604v-15.249h-4.823v-3.216h13.252v3.216H106.414z"/>
<path fill="#FFFFFF" d="M124.282,119.378v-7.729h-6.25v7.729h-3.604v-18.465h3.604v7.547h6.25v-7.547h3.606v18.465H124.282z"/>
<path fill="#FFFFFF" d="M141.146,119.378l-3.605-7.364h-2.594v7.364h-3.605v-18.465h7.237c3.761,0,5.991,2.568,5.991,5.654
	c0,2.592-1.583,4.201-3.373,4.85l4.125,7.961H141.146z M138.344,104.129h-3.397v4.876h3.397c1.583,0,2.62-1.012,2.62-2.438
	C140.964,105.141,139.927,104.129,138.344,104.129z"/>
<path fill="#FFFFFF" d="M148.191,119.378v-18.465h12.164v3.216h-8.56v4.331h7.288v3.216h-7.288v4.487h8.56v3.215H148.191z"/>
<path fill="#FFFFFF" d="M164.14,119.378v-18.465h12.164v3.216h-8.559v4.331h7.288v3.216h-7.288v4.487h8.559v3.215H164.14z"/>
</svg>
