<?xml version="1.0" encoding="utf-8"?>
<!-- Generator: Adobe Illustrator 15.0.2, SVG Export Plug-In  -->
<!DOCTYPE svg PUBLIC "-//W3C//DTD SVG 1.1//EN" "http://www.w3.org/Graphics/SVG/1.1/DTD/svg11.dtd" [
	<!ENTITY ns_flows "http://ns.adobe.com/Flows/1.0/">
]>
<svg version="1.1"
	 xmlns="http://www.w3.org/2000/svg" xmlns:xlink="http://www.w3.org/1999/xlink" xmlns:a="http://ns.adobe.com/AdobeSVGViewerExtensions/3.0/"
	 x="0px" y="0px" width="140px" height="140px" viewBox="0 -50.54 140 140"
	 overflow="visible" enable-background="new 0 -50.54 140 140" xml:space="preserve">
<defs>
</defs>
<path fill="#FFFFFF" d="M71.756,32.802l3.934,0.5c0.066,0.479,0.217,0.809,0.454,0.988c0.327,0.258,0.844,0.386,1.545,0.386
	c0.901,0,1.574-0.141,2.022-0.425c0.302-0.188,0.532-0.491,0.687-0.911c0.106-0.3,0.157-0.852,0.157-1.657v-1.991
	c-1.027,1.474-2.328,2.209-3.896,2.209c-1.75,0-3.137-0.774-4.156-2.324c-0.802-1.225-1.201-2.748-1.201-4.573
	c0-2.286,0.521-4.033,1.574-5.241c1.05-1.208,2.356-1.812,3.917-1.812c1.609,0,2.938,0.741,3.985,2.222v-1.914h3.224V30.5
	c0,1.61-0.127,2.815-0.381,3.61c-0.251,0.798-0.607,1.422-1.066,1.876c-0.456,0.452-1.067,0.81-1.834,1.065
	c-0.764,0.258-1.73,0.386-2.897,0.386c-2.208,0-3.771-0.396-4.695-1.188c-0.924-0.794-1.386-1.797-1.386-3.013
	C71.742,33.117,71.746,32.971,71.756,32.802 M74.832,24.798c0,1.448,0.268,2.507,0.802,3.181c0.536,0.671,1.196,1.007,1.98,1.007
	c0.843,0,1.554-0.345,2.136-1.034c0.577-0.689,0.87-1.71,0.87-3.063c0-1.413-0.279-2.462-0.836-3.147
	c-0.554-0.685-1.26-1.027-2.107-1.027c-0.825,0-1.507,0.336-2.043,1.008C75.1,22.394,74.832,23.42,74.832,24.798"/>
<path fill="#FFFFFF" d="M94.334,31.9v-2.041c-0.473,0.728-1.097,1.302-1.869,1.72c-0.771,0.42-1.588,0.63-2.444,0.63
	c-0.877,0-1.661-0.2-2.356-0.604c-0.693-0.401-1.197-0.967-1.507-1.694c-0.311-0.729-0.465-1.735-0.465-3.02v-8.633h3.443v6.271
	c0,1.916,0.065,3.093,0.189,3.524c0.127,0.433,0.359,0.776,0.695,1.027c0.332,0.253,0.759,0.38,1.274,0.38
	c0.588,0,1.115-0.17,1.582-0.508c0.465-0.338,0.782-0.758,0.956-1.258c0.171-0.503,0.256-1.729,0.256-3.681v-5.756h3.446V31.9
	H94.334z"/>
<path fill="#FFFFFF" d="M98.484,18.258h3.664l3.115,9.688l3.042-9.688h3.567l-4.6,13.128l-0.82,2.378
	c-0.304,0.795-0.59,1.404-0.863,1.824c-0.273,0.419-0.589,0.76-0.945,1.021c-0.355,0.26-0.792,0.465-1.312,0.609
	s-1.104,0.218-1.76,0.218c-0.662,0-1.312-0.073-1.948-0.218l-0.309-2.825c0.541,0.109,1.026,0.165,1.461,0.165
	c0.801,0,1.394-0.245,1.777-0.738c0.383-0.491,0.679-1.119,0.882-1.882L98.484,18.258z"/>
<path fill="#FFFFFF" d="M111.219,28.01l3.457-0.553c0.147,0.703,0.447,1.236,0.896,1.598c0.449,0.365,1.077,0.547,1.887,0.547
	c0.891,0,1.562-0.172,2.011-0.513c0.302-0.241,0.454-0.562,0.454-0.964c0-0.272-0.082-0.502-0.245-0.682
	c-0.171-0.17-0.557-0.329-1.153-0.476c-2.777-0.642-4.538-1.228-5.282-1.76c-1.029-0.736-1.547-1.76-1.547-3.07
	c0-1.181,0.445-2.174,1.338-2.98c0.89-0.803,2.271-1.207,4.144-1.207c1.781,0,3.104,0.304,3.972,0.912
	c0.868,0.609,1.464,1.508,1.789,2.699l-3.247,0.629c-0.141-0.531-0.401-0.938-0.791-1.22c-0.389-0.283-0.943-0.424-1.662-0.424
	c-0.907,0-1.556,0.132-1.948,0.397c-0.262,0.189-0.392,0.434-0.392,0.732c0,0.258,0.112,0.477,0.344,0.655
	c0.309,0.239,1.381,0.577,3.216,1.016c1.835,0.436,3.117,0.973,3.844,1.604c0.721,0.642,1.079,1.537,1.079,2.685
	c0,1.251-0.497,2.325-1.496,3.225c-0.997,0.898-2.473,1.349-4.426,1.349c-1.773,0-3.179-0.375-4.211-1.13
	C112.215,30.325,111.54,29.302,111.219,28.01"/>
<path fill="#FFFFFF" d="M12.678,4.595L9.122,5.268c-0.119-0.744-0.39-1.304-0.814-1.68C7.884,3.211,7.335,3.023,6.659,3.023
	c-0.897,0-1.615,0.324-2.149,0.974c-0.534,0.649-0.803,1.737-0.803,3.26c0,1.694,0.271,2.891,0.816,3.59
	c0.543,0.699,1.271,1.049,2.188,1.049c0.685,0,1.243-0.203,1.681-0.612c0.437-0.407,0.744-1.109,0.924-2.103l3.543,0.631
	c-0.369,1.704-1.074,2.99-2.118,3.859c-1.043,0.869-2.442,1.305-4.196,1.305c-1.993,0-3.582-0.661-4.768-1.978
	C0.591,11.682,0,9.857,0,7.527c0-2.358,0.593-4.191,1.782-5.506c1.189-1.313,2.799-1.97,4.825-1.97c1.66,0,2.98,0.375,3.959,1.123
	C11.546,1.922,12.249,3.063,12.678,4.595"/>
<path fill="#FFFFFF" d="M28.763,0.373h3.324v1.951c1.189-1.515,2.604-2.273,4.247-2.273c0.875,0,1.629,0.19,2.272,0.565
	c0.644,0.377,1.167,0.946,1.577,1.708c0.599-0.763,1.247-1.332,1.94-1.708c0.692-0.375,1.434-0.565,2.219-0.565
	c1.002,0,1.849,0.214,2.541,0.638c0.695,0.426,1.211,1.052,1.553,1.876c0.249,0.61,0.373,1.595,0.373,2.958v9.128h-3.608V6.491
	c0-1.415-0.122-2.331-0.371-2.742c-0.332-0.538-0.846-0.807-1.539-0.807c-0.504,0-0.98,0.162-1.423,0.483
	c-0.447,0.324-0.769,0.797-0.964,1.419c-0.196,0.624-0.295,1.608-0.295,2.952v6.856h-3.605V6.828c0-1.39-0.065-2.286-0.193-2.689
	c-0.128-0.404-0.327-0.704-0.597-0.901c-0.27-0.197-0.634-0.295-1.096-0.295c-0.557,0-1.058,0.157-1.501,0.471
	c-0.448,0.314-0.764,0.767-0.956,1.358c-0.195,0.591-0.291,1.574-0.291,2.944v6.938h-3.605V0.373z"/>
<path fill="#FFFFFF" d="M50.555,0.373h3.323v1.951c1.188-1.515,2.603-2.273,4.249-2.273c0.871,0,1.629,0.19,2.271,0.565
	c0.639,0.377,1.166,0.946,1.577,1.708c0.599-0.763,1.245-1.332,1.938-1.708c0.691-0.375,1.433-0.565,2.22-0.565
	c1.001,0,1.849,0.214,2.541,0.638c0.692,0.426,1.21,1.052,1.552,1.876c0.249,0.61,0.372,1.595,0.372,2.958v9.128h-3.605V6.491
	c0-1.415-0.125-2.331-0.373-2.742c-0.334-0.538-0.846-0.807-1.541-0.807c-0.502,0-0.979,0.162-1.424,0.483
	c-0.444,0.324-0.765,0.797-0.962,1.419c-0.198,0.624-0.295,1.608-0.295,2.952v6.856h-3.605V6.828c0-1.39-0.062-2.286-0.193-2.689
	c-0.128-0.404-0.328-0.704-0.597-0.901c-0.267-0.197-0.636-0.295-1.096-0.295c-0.557,0-1.057,0.157-1.501,0.471
	s-0.764,0.767-0.956,1.358c-0.192,0.591-0.29,1.574-0.29,2.944v6.938h-3.604V0.373z"/>
<path fill="#FFFFFF" d="M81.493,10.107l3.593,0.632c-0.462,1.38-1.191,2.432-2.188,3.154c-0.998,0.72-2.245,1.083-3.74,1.083
	c-2.37,0-4.124-0.812-5.262-2.434c-0.898-1.3-1.347-2.94-1.347-4.92c0-2.367,0.589-4.219,1.77-5.561
	c1.18-1.339,2.674-2.01,4.479-2.01c2.026,0,3.629,0.702,4.799,2.104c1.173,1.404,1.733,3.553,1.682,6.448h-9.033
	c0.024,1.12,0.316,1.992,0.872,2.614c0.557,0.624,1.249,0.936,2.079,0.936c0.565,0,1.039-0.163,1.425-0.483
	C81.006,11.345,81.295,10.825,81.493,10.107 M81.699,6.289c-0.024-1.093-0.295-1.924-0.81-2.493
	c-0.513-0.569-1.137-0.854-1.874-0.854c-0.786,0-1.437,0.302-1.949,0.901c-0.513,0.601-0.766,1.415-0.758,2.446H81.699z"/>
<path fill="#FFFFFF" d="M90.422,14.654h-3.606V0.373h3.35v2.03c0.573-0.958,1.089-1.59,1.546-1.894
	c0.456-0.306,0.979-0.459,1.56-0.459c0.821,0,1.612,0.239,2.375,0.714l-1.118,3.292c-0.605-0.412-1.172-0.618-1.693-0.618
	c-0.504,0-0.933,0.146-1.283,0.437c-0.352,0.292-0.626,0.818-0.827,1.581c-0.2,0.761-0.302,2.355-0.302,4.786V14.654z"/>
<path fill="#FFFFFF" d="M108.491,4.609l-3.556,0.673c-0.12-0.745-0.392-1.304-0.813-1.68c-0.423-0.377-0.975-0.565-1.649-0.565
	c-0.896,0-1.614,0.325-2.15,0.976c-0.534,0.648-0.802,1.737-0.802,3.26c0,1.694,0.272,2.891,0.815,3.59s1.271,1.048,2.188,1.048
	c0.686,0,1.244-0.202,1.683-0.611c0.436-0.408,0.742-1.109,0.923-2.104l3.54,0.632c-0.365,1.705-1.073,2.989-2.117,3.859
	c-1.044,0.87-2.442,1.305-4.193,1.305c-1.993,0-3.583-0.66-4.769-1.978c-1.186-1.317-1.777-3.142-1.777-5.472
	c0-2.358,0.596-4.191,1.784-5.505s2.797-1.97,4.825-1.97c1.658,0,2.979,0.375,3.957,1.123C107.36,1.937,108.062,3.076,108.491,4.609
	"/>
<path fill="#FFFFFF" d="M119.245,10.107l3.593,0.632c-0.462,1.38-1.191,2.432-2.188,3.154c-0.997,0.72-2.243,1.083-3.741,1.083
	c-2.37,0-4.124-0.812-5.261-2.434c-0.898-1.3-1.348-2.94-1.348-4.92c0-2.367,0.591-4.219,1.771-5.561
	c1.18-1.339,2.674-2.01,4.479-2.01c2.028,0,3.627,0.702,4.799,2.104c1.172,1.404,1.733,3.553,1.682,6.448h-9.035
	c0.025,1.12,0.318,1.992,0.875,2.614c0.554,0.624,1.247,0.936,2.077,0.936c0.564,0,1.039-0.163,1.423-0.483
	C118.757,11.345,119.049,10.825,119.245,10.107 M119.449,6.289c-0.025-1.093-0.294-1.924-0.808-2.493s-1.138-0.854-1.876-0.854
	c-0.785,0-1.437,0.302-1.949,0.901c-0.514,0.601-0.766,1.415-0.757,2.446H119.449z"/>
<path fill="#FFFFFF" d="M27.695,7.526c0,4.127-3.192,7.473-7.133,7.473c-3.938,0-7.131-3.346-7.131-7.473
	c0-4.127,3.193-7.473,7.131-7.473C24.503,0.053,27.695,3.398,27.695,7.526z M22.473,3.735c-0.009-0.006-0.017-0.01-0.023-0.014
	c-0.422-0.276-0.833-0.406-1.239-0.652c-0.049-0.031-0.098-0.063-0.151-0.098c-0.286-0.202-0.681-0.685-1.013-1.101v0.001
	l-0.002-0.003c-0.021,0.206-0.052,0.375-0.091,0.515c-0.084,0.284-0.207,0.454-0.348,0.582c-0.012,0.011-0.026,0.023-0.041,0.035
	c-0.472,0.387-0.767,0.503-1.172,0.735c-0.033,0.019-0.083,0.048-0.145,0.087c-0.247,0.154-0.678,0.469-1.079,0.966
	c-0.508,0.625-0.972,1.535-0.972,2.782c0,0.797,0.204,1.526,0.557,2.149c0.376,0.673,0.924,1.223,1.569,1.604
	c0.003,0.001,0.007,0.003,0.011,0.005c0.014,0.007,0.024,0.016,0.037,0.021c0.009,0.006,0.021,0.012,0.031,0.019
	c0.012,0.006,0.024,0.012,0.037,0.018c0.01,0.006,0.022,0.013,0.035,0.019c0.005,0.004,0.012,0.008,0.016,0.011
	c0.019,0.008,0.035,0.017,0.049,0.025c0.002,0,0.006,0.002,0.006,0.002c0.577,0.294,1.217,0.459,1.879,0.459
	c2.225,0,4.153-1.692,4.153-4.253C24.576,5.087,22.767,3.929,22.473,3.735"/>
<g>
	<path fill="#FFFFFF" d="M139.445,25.907c-0.102-0.31-0.1-0.897-0.386-1.149c-0.239-0.21-0.519-0.277-0.519-0.277
		c-0.219-0.538-0.553-0.812-0.566-1.326c-0.008-0.295,0.166-0.841,0.226-1.154c0.067-0.413-0.092-0.885-0.057-1.312
		c0.014-0.15,0.226-0.035,0.205-0.231c-0.041-0.389-0.011-0.794-0.012-1.186c-0.011-1.538-0.202-3.066-0.42-4.593l-0.11-0.959
		c0,0-0.137-1.538-0.392-2.633c-0.073-0.597-0.298-1.07-0.287-1.67c0.01-0.658-0.652-1.024-0.652-1.024l-2.795-0.823
		c-0.283-0.178-0.536-0.381-0.722-0.619c0.95-0.502,1.614-1.47,1.614-2.726c0-1.872-1.384-2.718-1.61-2.86
		c-0.007-0.004-0.013-0.006-0.019-0.01c-0.321-0.202-0.638-0.297-0.948-0.477c-0.038-0.022-0.076-0.045-0.114-0.07
		c-0.22-0.15-0.521-0.502-0.776-0.806l-0.002,0.002V0c-0.015,0.151-0.041,0.273-0.07,0.375c-0.064,0.209-0.16,0.333-0.265,0.426
		c-0.011,0.008-0.021,0.017-0.032,0.025c-0.36,0.282-0.587,0.367-0.896,0.536c-0.027,0.015-0.065,0.036-0.114,0.064
		c-0.186,0.113-0.516,0.342-0.824,0.707c-0.388,0.455-0.743,1.122-0.743,2.033c0,0.583,0.156,1.115,0.424,1.571
		c0.291,0.491,0.709,0.894,1.202,1.171c0.002,0.002,0.007,0.003,0.009,0.005c0.01,0.005,0.02,0.009,0.029,0.015
		c0.007,0.004,0.016,0.008,0.023,0.013c0.008,0.003,0.017,0.009,0.026,0.015c0.007,0.004,0.019,0.008,0.026,0.013
		c0.005,0.002,0.011,0.004,0.015,0.008c0.012,0.006,0.025,0.011,0.037,0.018c0.002,0,0.002,0,0.004,0
		c0.033,0.017,0.069,0.033,0.103,0.047c-0.185,0.243-0.45,0.467-0.752,0.654l-0.977,0.435c0,0-1.103,0.483-1.312,0.585
		c-0.211,0.103-0.216,0.245-0.216,0.245l-0.248,1.179c0,0-0.221,1-0.254,1.141c-0.038,0.141-0.527,2.991-0.623,3.272
		c-0.096,0.282-0.491,1.001-0.455,1.254c0.035,0.254,0.42,2.338,0.42,2.338l0.388,1.162l0.492,0.985l0.14,0.776l0.493,0.422V20.39
		l0.026,0.044l0.135,0.734l0.6,1.224l0.017-0.039v0.001c0.098,0.459,0.199,0.946,0.199,0.989c0.288,0.368,0.408,2.527,0.408,2.527
		l0.244,0.571l-0.516,3.316l0.026,4.921l0.816,1.386l0.218,0.925l0.406,0.082l0.034-0.04l0.004,0.018l-0.009,0.104l-0.681,1.005
		v0.489l0.136,0.273l1.768-0.055l0.217-0.436h0.328l-0.022-1.333l0.006-0.014l0.151,0.096l0.163-0.216l0.026-0.491l-0.108-1.304
		l-0.216-3.289c0,0-0.164-1.033-0.191-1.143c-0.028-0.109,0.082-4.974,0.082-4.974l0.381-0.871l1.168,3.941l-0.407,2.475
		c0,0,0.599,2.202,0.623,2.283c0.029,0.082,0.137,0.652,0.137,0.652l0.101-0.009l-0.009,0.191l-0.002,0.027l0.002,0.001
		l-0.037,0.851l0.082,0.922l0.624,0.926l0.626-0.055l0.22-0.271l0.323-1.168l-0.08-0.899L134.8,33.84l-0.006,0.01l0.076-0.177
		c0,0,0.355-0.408,0.381-0.518c0.029-0.107,0.327-2.88,0.354-2.961c0.028-0.083,0.193-0.572,0.193-0.681
		c0-0.109-0.25-0.691-0.165-1.061c0.003-0.014,0.008-0.028,0.011-0.042c0.041,0.077,0.088,0.153,0.154,0.229
		c0.219,0.246,0.386,0.535,0.496,0.846c0.218,0.57,0.534,1.093,0.836,1.622c0.3,0.525,1.089,0.147,1.551,0.054
		c0.215-0.045,0.725-0.253,1.083-0.364C140.435,30.596,139.464,26.258,139.445,25.907z M127.707,20.299h-0.555v-0.216l0.316-0.6
		l0.213-0.422l0.158-0.174L127.707,20.299z M130.151,7.133c0,0,0.261,0.097,0.276,0.096c0.283,0.367,0.665,0.587,0.665,0.587
		s-0.333-0.203-0.835,0.549C130.239,8.354,130.151,7.133,130.151,7.133z M131.43,11.865l-0.952-2.727c0,0-0.274-0.633-0.158-0.772
		c0.12-0.14,0.226-0.248,0.471-0.356c0.244-0.109,0.139-0.11,0.67-0.205c0.589,0.013,1.156,0.321,1.281,0.638
		c0.087,0.263-0.018,0.439-0.14,0.768C132.711,9.065,131.43,11.865,131.43,11.865z M133,7.511c-0.006-0.046-0.009-0.072-0.009-0.072
		c-0.004,0.258-0.173,0.911-0.173,0.911s-0.266-0.391-0.834-0.581c-0.028,0.014,0.557-0.363,0.739-0.706c0,0,0.001,0,0.001-0.002
		c0.056-0.023,0.112-0.049,0.165-0.076c0,0,0.045,0.092,0.075,0.225c0.024,0.098,0.039,0.195,0.039,0.293L133,7.511z
		 M136.609,22.305c-0.028-0.028-0.01-0.051-0.019-0.11c0-0.136-0.095-0.613-0.192-1.161l0.104-0.083l0.352,0.036
		C136.849,21.433,136.717,22.305,136.609,22.305z M137.802,24.454c-0.074-0.027-0.358,0.016-0.303,0.039
		c-0.125-0.054-0.168,0.128-0.151-0.084c0.024-0.322,0.052-0.646,0.039-0.967c0.317,0.037,0.44,0.744,0.544,1.043
		C137.89,24.479,137.846,24.468,137.802,24.454z"/>
</g>
<polygon fill="#FFFFFF" points="130.998,7.804 131.979,7.804 131.595,8.55 132.157,10.258 131.422,11.865 130.908,10.409 
	131.368,8.528 "/>
</svg>
