<?xml version="1.0" encoding="utf-8"?>
<!-- Generator: Adobe Illustrator 15.0.2, SVG Export Plug-In  -->
<!DOCTYPE svg PUBLIC "-//W3C//DTD SVG 1.1//EN" "http://www.w3.org/Graphics/SVG/1.1/DTD/svg11.dtd" [
	<!ENTITY ns_flows "http://ns.adobe.com/Flows/1.0/">
]>
<svg version="1.1"
	 xmlns="http://www.w3.org/2000/svg" xmlns:xlink="http://www.w3.org/1999/xlink" xmlns:a="http://ns.adobe.com/AdobeSVGViewerExtensions/3.0/"
	 x="0px" y="0px" width="250px" height="140px" viewBox="0 0 250 140" overflow="visible" enable-background="new 0 0 250 140"
	 xml:space="preserve">
<defs>
</defs>
<rect display="none" fill="#262261" width="250" height="140"/>
<path fill="#FFFFFF" d="M28.155,90H13.681V50h14.223v4.553h-8.885v12.684h8.226v4.554h-8.226v13.783h9.136V90z"/>
<path fill="#FFFFFF" d="M52.833,90h-4.238L38.391,62.547l-0.125,0.012V90H33.43V50h4.301l10.236,27.449l0.125,0.023V50h4.741V90z"/>
<path fill="#FFFFFF" d="M75.625,54.553h-6.122V90h-5.4V54.553h-6.091V50h17.614V54.553z"/>
<path fill="#FFFFFF" d="M95.303,90H80.829V50h14.223v4.553h-8.885v12.684h8.226v4.554h-8.226v13.783h9.136V90z"/>
<path fill="#FFFFFF" d="M118.521,90h-5.603l-6.265-18.775h-0.471V90h-5.4V50h7.473c6.091,0,9.137,3.412,9.137,10.235
	c0,3.099-0.451,5.432-1.35,7.001c-0.9,1.57-2.365,2.754-4.395,3.549L118.521,90z M106.182,67.551
	c2.093-0.041,3.605-0.538,4.537-1.491c0.931-0.952,1.397-2.685,1.397-5.196c0-2.406-0.424-4.123-1.271-5.148
	s-2.297-1.539-4.349-1.539h-0.314V67.551z"/>
<path fill="#FFFFFF" d="M151.582,90H146.6l-2.031-25.589h-0.125L138.992,90h-3.359l-5.158-25.589h-0.158L128.217,90h-5.048l3.925-40
	h4.668l5.566,28.038h0.125L143.148,50h4.666L151.582,90z"/>
<path fill="#FFFFFF" d="M171.406,90h-14.473V50h14.223v4.553h-8.887v12.684h8.227v4.554h-8.227v13.783h9.137V90z"/>
<path fill="#FFFFFF" d="M177.018,50h7.787c3.684,0,6.588,1.387,8.713,4.16s3.188,7.99,3.188,15.651
	c0,7.39-0.932,12.602-2.795,15.636C192.047,88.482,188.697,90,183.863,90h-6.846V50z M182.418,54.113V85.95
	c2.262,0,3.977-0.419,5.15-1.256c1.172-0.837,2.045-2.396,2.621-4.679c0.576-2.281,0.863-5.703,0.863-10.267
	c0-5.819-0.539-9.88-1.617-12.183c-1.078-2.302-3.176-3.453-6.295-3.453H182.418z"/>
<path fill="#FFFFFF" d="M203.174,50h5.4v40h-5.4V50z"/>
<path fill="#FFFFFF" d="M236.318,90h-5.205l-1.463-7.912h-8.467L219.699,90h-5.139l8.635-40h4.426L236.318,90z M228.93,78.038
	l-3.516-18.979h-0.129l-3.324,18.979H228.93z"/>
</svg>
