<?xml version="1.0" encoding="utf-8"?>
<!-- Generator: Adobe Illustrator 15.0.2, SVG Export Plug-In  -->
<!DOCTYPE svg PUBLIC "-//W3C//DTD SVG 1.1//EN" "http://www.w3.org/Graphics/SVG/1.1/DTD/svg11.dtd" [
	<!ENTITY ns_flows "http://ns.adobe.com/Flows/1.0/">
]>
<svg version="1.1"
	 xmlns="http://www.w3.org/2000/svg" xmlns:xlink="http://www.w3.org/1999/xlink" xmlns:a="http://ns.adobe.com/AdobeSVGViewerExtensions/3.0/"
	 x="0px" y="0px" width="140px" height="140px" viewBox="676.435 52.596 140 140"
	 overflow="visible" enable-background="new 676.435 52.596 140 140" xml:space="preserve">
<defs>
</defs>
<rect display="none" fill="#0F009F" width="1504" height="408"/>
<path fill="#FFFFFF" d="M680.798,112.498h-0.081c-0.054,0.027-0.095,0.04-0.121,0.04h-0.081h-0.222h-0.182h-0.121h-0.121
	c-0.055,0.027-0.102,0.041-0.142,0.041h-0.142h-0.121h-0.121h-0.142h-0.142h-0.08h-0.081c-0.27,0-0.525-0.014-0.768-0.041
	c-0.242-0.026-0.472-0.066-0.687-0.121c-0.242-0.054-0.438-0.141-0.586-0.263c-0.148-0.121-0.249-0.262-0.303-0.424
	c-0.027-0.026-0.048-0.047-0.061-0.061c-0.014-0.014-0.021-0.033-0.021-0.061v-0.081v-0.08c-0.027,0-0.04-0.014-0.04-0.041v-0.08
	v-0.061v-0.062c0-0.188,0.04-0.356,0.121-0.505c0.081-0.147,0.202-0.275,0.363-0.384c0.135-0.134,0.289-0.228,0.465-0.282
	c0.175-0.054,0.356-0.081,0.545-0.081h11.755h0.444c0.161,0,0.336-0.013,0.524-0.04c0.216,0,0.425-0.007,0.627-0.021
	c0.201-0.013,0.424-0.033,0.666-0.061h0.202h0.242h0.242c0.081,0,0.162-0.013,0.242-0.04h0.425h0.464h0.242
	c0.081,0,0.148-0.014,0.202-0.041h0.223h0.222h0.243h0.242c0.08,0.027,0.154,0.041,0.222,0.041h0.223
	c0.134,0,0.255,0.007,0.363,0.02c0.107,0.015,0.215,0.034,0.323,0.061c0.188,0.027,0.343,0.088,0.465,0.183
	c0.121,0.095,0.194,0.209,0.222,0.343c0.054,0.136,0.094,0.276,0.121,0.424c0.026,0.148,0.04,0.304,0.04,0.465v0.121v0.081v0.081
	v0.101v0.142c-0.027,0.027-0.04,0.061-0.04,0.101v0.142v0.101v0.142l-0.202,4.646c-0.027,0.216-0.067,0.404-0.121,0.565
	c-0.055,0.161-0.135,0.31-0.242,0.444c-0.055,0.054-0.108,0.107-0.161,0.161c-0.055,0.055-0.108,0.095-0.162,0.121
	c-0.081,0.055-0.148,0.095-0.202,0.122c-0.054,0.026-0.107,0.04-0.161,0.04c-0.027,0.027-0.048,0.04-0.061,0.04h-0.061h-0.081
	c-0.135,0-0.263-0.026-0.384-0.08s-0.236-0.135-0.343-0.243c-0.108-0.08-0.196-0.194-0.263-0.343
	c-0.068-0.147-0.115-0.316-0.142-0.505c0-0.054-0.007-0.102-0.021-0.142s-0.021-0.087-0.021-0.142
	c-0.026-0.026-0.04-0.066-0.04-0.121v-0.121v-0.142v-0.141c-0.027-0.027-0.04-0.067-0.04-0.122v-0.161
	c-0.027-0.242-0.055-0.478-0.081-0.707c-0.027-0.229-0.067-0.45-0.121-0.666c-0.055-0.216-0.148-0.425-0.283-0.626
	c-0.135-0.202-0.31-0.397-0.524-0.586c-0.189-0.162-0.398-0.296-0.626-0.404c-0.229-0.107-0.465-0.202-0.707-0.282
	c-0.27-0.081-0.532-0.148-0.788-0.202s-0.519-0.095-0.787-0.121h-0.223c-0.067,0-0.128-0.014-0.182-0.041h-0.223h-0.182h-0.222
	c-0.067,0-0.128-0.013-0.182-0.04h-0.182h-0.183h-4.483v8.846h0.162h0.201h0.202h0.242c0.081,0.027,0.162,0.041,0.243,0.041h0.242
	h0.242h0.282h0.081h0.061h0.061h0.364c0.106,0,0.229-0.014,0.363-0.041c0.107,0,0.222-0.006,0.343-0.02s0.236-0.034,0.344-0.061
	c0.215-0.054,0.41-0.114,0.586-0.182c0.175-0.067,0.316-0.155,0.424-0.263c0.081-0.107,0.147-0.216,0.202-0.323
	c0.054-0.107,0.094-0.216,0.121-0.323c0.026-0.107,0.047-0.223,0.061-0.344s0.033-0.235,0.061-0.343v-0.061v-0.061v-0.081v-0.081
	c0.026-0.296,0.081-0.545,0.162-0.747c0.08-0.202,0.175-0.37,0.282-0.505c0.135-0.135,0.263-0.235,0.384-0.303
	s0.263-0.102,0.424-0.102h0.041h0.04c0.135,0,0.275,0.027,0.424,0.081c0.148,0.055,0.276,0.148,0.384,0.283
	c0.135,0.107,0.229,0.235,0.283,0.384c0.054,0.147,0.081,0.316,0.081,0.504v8.281c0,0.188-0.034,0.35-0.102,0.484
	s-0.168,0.27-0.303,0.404c-0.135,0.107-0.276,0.188-0.424,0.242c-0.148,0.054-0.304,0.081-0.465,0.081h-0.182
	c-0.067,0-0.128-0.014-0.182-0.041c-0.055-0.026-0.108-0.054-0.162-0.081c-0.054-0.026-0.107-0.054-0.161-0.08
	c-0.136-0.081-0.242-0.209-0.323-0.384s-0.148-0.384-0.202-0.626c-0.027-0.243-0.047-0.491-0.061-0.747s-0.021-0.519-0.021-0.788
	v-0.263v-0.303v-0.142v-0.142c0-0.026,0.007-0.066,0.021-0.121c0.014-0.054,0.021-0.094,0.021-0.121v-0.121v-0.121v-0.102v-0.101
	v-0.222v-0.142h-4.848v10.583h4.524c0.215,0,0.39,0.034,0.525,0.101c0.134,0.067,0.255,0.169,0.363,0.303
	c0.107,0.136,0.188,0.277,0.242,0.425c0.054,0.148,0.081,0.303,0.081,0.464c-0.027,0.162-0.067,0.311-0.121,0.445
	c-0.055,0.135-0.122,0.269-0.202,0.403c-0.108,0.108-0.229,0.196-0.363,0.263c-0.136,0.067-0.311,0.101-0.525,0.101h-10.341
	c-0.188,0-0.37-0.026-0.545-0.08c-0.176-0.054-0.33-0.135-0.465-0.242c-0.135-0.135-0.236-0.27-0.303-0.404
	c-0.067-0.135-0.102-0.296-0.102-0.485v-0.142c0-0.04,0.014-0.073,0.041-0.101c0-0.054,0.006-0.101,0.02-0.142
	c0.014-0.04,0.034-0.087,0.061-0.141c0.054-0.162,0.148-0.297,0.283-0.404s0.296-0.188,0.484-0.242
	c0.216-0.054,0.425-0.094,0.626-0.121c0.202-0.026,0.411-0.041,0.626-0.041h0.081h0.081h0.182h0.223h0.182h0.222
	c0.054,0.027,0.107,0.041,0.162,0.041h0.161h0.081h0.081h0.121v-21.731H680.798z"/>
<path fill="#FFFFFF" d="M713.051,135.562c-0.552,0.323-1.124,0.593-1.716,0.808c-0.593,0.216-1.199,0.384-1.818,0.505
	c-0.62,0.121-1.252,0.195-1.898,0.222h-0.061h-0.061h-0.061h-0.061h-0.101h-0.142c-0.027-0.026-0.061-0.04-0.102-0.04h-0.141h-0.243
	h-0.242c-0.593-0.08-1.158-0.202-1.696-0.363c-0.539-0.162-1.064-0.39-1.575-0.687c-0.512-0.296-0.929-0.673-1.252-1.132
	c-0.323-0.457-0.553-0.995-0.687-1.615c-0.027-0.107-0.048-0.215-0.062-0.323c-0.014-0.107-0.033-0.215-0.061-0.323
	c-0.026-0.135-0.04-0.248-0.04-0.343v-0.303c0-0.916,0.195-1.718,0.586-2.403c0.39-0.688,0.989-1.246,1.797-1.677
	c0.809-0.458,1.656-0.834,2.545-1.131c0.889-0.296,1.818-0.539,2.787-0.728c0.512-0.081,1.017-0.161,1.515-0.242
	s1.003-0.135,1.515-0.161c0.485-0.054,0.95-0.095,1.395-0.122c0.443-0.026,0.841-0.053,1.191-0.08v-0.121v-0.121v-0.102v-0.101
	v-0.242c0-0.081,0.013-0.162,0.04-0.243v-0.242v-0.242v-0.142v-0.141v-0.122v-0.121c0-0.349-0.027-0.687-0.081-1.01
	c-0.054-0.322-0.121-0.646-0.202-0.969c-0.107-0.323-0.275-0.599-0.505-0.828c-0.229-0.229-0.531-0.424-0.908-0.586
	c-0.081-0.054-0.169-0.087-0.263-0.101c-0.095-0.014-0.195-0.033-0.303-0.061c-0.108-0.026-0.209-0.047-0.304-0.061
	c-0.094-0.014-0.182-0.021-0.262-0.021h-0.081c-0.027,0-0.04-0.014-0.04-0.04h-0.081h-0.081h-0.121h-0.081h-0.08
	c-0.217,0-0.425,0.007-0.627,0.02c-0.201,0.015-0.41,0.048-0.626,0.102c-0.188,0.027-0.384,0.074-0.585,0.142
	c-0.202,0.067-0.398,0.128-0.586,0.182c-0.378,0.107-0.687,0.229-0.93,0.363c-0.242,0.135-0.431,0.282-0.565,0.444
	c-0.107,0.161-0.195,0.323-0.262,0.484c-0.068,0.162-0.102,0.323-0.102,0.485v0.101v0.142v0.08v0.062v0.06
	c0,0.136-0.007,0.271-0.021,0.404c-0.014,0.136-0.033,0.27-0.061,0.404c-0.026,0.135-0.094,0.262-0.201,0.384
	c-0.108,0.121-0.243,0.235-0.404,0.343c-0.108,0.055-0.216,0.101-0.323,0.142c-0.107,0.04-0.216,0.088-0.323,0.142
	c-0.107,0.026-0.209,0.047-0.303,0.061c-0.095,0.014-0.182,0.02-0.263,0.02c-0.27,0-0.512-0.054-0.727-0.161
	c-0.216-0.107-0.404-0.27-0.565-0.484c-0.162-0.216-0.277-0.458-0.344-0.728c-0.067-0.269-0.101-0.552-0.101-0.848v-0.041v-0.08
	v-0.061v-0.062v-0.08v-0.061v-0.061c0.026-0.026,0.04-0.054,0.04-0.081c0-0.107,0.014-0.215,0.04-0.323
	c0.026-0.107,0.054-0.215,0.081-0.323c0.026-0.081,0.066-0.175,0.121-0.282c0.054-0.107,0.107-0.216,0.162-0.323
	c0.106-0.216,0.242-0.41,0.403-0.586c0.162-0.175,0.337-0.316,0.525-0.424c0.296-0.188,0.626-0.364,0.989-0.525
	s0.761-0.323,1.191-0.484c0.431-0.135,0.869-0.263,1.313-0.384s0.882-0.235,1.312-0.344c0.215-0.054,0.431-0.087,0.646-0.101
	c0.215-0.014,0.431-0.034,0.646-0.061c0.215-0.027,0.437-0.047,0.666-0.062c0.229-0.013,0.438-0.02,0.626-0.02h0.223h0.222
	c0.054,0.027,0.114,0.04,0.182,0.04h0.223c0.054,0,0.114,0.007,0.182,0.021c0.066,0.014,0.142,0.021,0.222,0.021
	c0.054,0.026,0.114,0.047,0.183,0.061c0.066,0.014,0.127,0.02,0.182,0.02c0.35,0.081,0.687,0.182,1.01,0.304
	c0.323,0.121,0.646,0.276,0.969,0.464c0.297,0.188,0.572,0.411,0.828,0.667s0.479,0.532,0.667,0.828
	c0.188,0.297,0.336,0.605,0.444,0.929c0.107,0.323,0.175,0.646,0.202,0.97c0.054,0.323,0.087,0.653,0.101,0.989
	c0.014,0.337,0.021,0.681,0.021,1.03v0.061v0.061v0.08v10.099c0.054,0,0.114-0.013,0.182-0.04c0.066-0.027,0.142-0.054,0.222-0.081
	c0.081-0.054,0.168-0.101,0.263-0.142c0.094-0.04,0.195-0.074,0.303-0.101c0.054-0.026,0.114-0.047,0.183-0.061
	c0.066-0.014,0.127-0.034,0.182-0.061c0.054-0.027,0.114-0.047,0.182-0.061c0.066-0.014,0.142-0.034,0.222-0.061
	c0.054-0.026,0.121-0.047,0.202-0.062c0.081-0.013,0.162-0.033,0.242-0.06h0.121c0.026,0,0.067-0.014,0.121-0.041h0.102h0.101
	c0.135,0,0.256,0.021,0.364,0.061c0.106,0.04,0.215,0.088,0.322,0.142c0.081,0.054,0.162,0.135,0.243,0.242
	c0.08,0.108,0.134,0.229,0.161,0.363v0.081c0,0.027,0.014,0.04,0.04,0.04v0.081v0.081v0.081v0.04c0,0.188-0.033,0.351-0.101,0.484
	c-0.067,0.136-0.168,0.257-0.303,0.364s-0.283,0.195-0.444,0.262c-0.162,0.067-0.337,0.115-0.525,0.142
	c-0.055,0.027-0.107,0.048-0.161,0.061c-0.055,0.015-0.108,0.034-0.162,0.061c-0.055,0.027-0.114,0.048-0.182,0.061
	c-0.067,0.015-0.128,0.034-0.182,0.062c-0.027,0-0.067,0.014-0.121,0.04c-0.027,0.027-0.055,0.04-0.081,0.04h-0.081
	c-0.026,0-0.067,0.015-0.121,0.04c-0.026,0.027-0.054,0.048-0.081,0.061c-0.026,0.015-0.054,0.021-0.08,0.021
	c-0.242,0.081-0.472,0.162-0.687,0.243c-0.216,0.08-0.432,0.147-0.646,0.201c-0.216,0.055-0.424,0.095-0.626,0.121
	c-0.202,0.027-0.384,0.041-0.546,0.041c-0.242,0-0.458-0.034-0.646-0.102c-0.189-0.066-0.364-0.182-0.525-0.343
	c-0.162-0.162-0.283-0.397-0.363-0.707c-0.081-0.31-0.136-0.693-0.162-1.151C714.135,134.875,713.603,135.239,713.051,135.562
	 M713.576,128.11c-0.256,0.013-0.519,0.02-0.787,0.02c-0.27,0.027-0.532,0.048-0.788,0.061c-0.256,0.014-0.505,0.034-0.747,0.061
	c-0.136,0.027-0.27,0.048-0.404,0.061c-0.135,0.014-0.256,0.021-0.363,0.021c-0.135,0.027-0.27,0.048-0.404,0.061
	c-0.135,0.014-0.27,0.034-0.404,0.061c-0.269,0.027-0.531,0.074-0.787,0.142s-0.505,0.128-0.747,0.182
	c-0.027,0-0.061,0.007-0.102,0.021c-0.04,0.014-0.074,0.02-0.101,0.02c-0.055,0.027-0.095,0.048-0.121,0.061
	c-0.027,0.014-0.067,0.021-0.121,0.021c-0.027,0.027-0.061,0.047-0.101,0.061c-0.041,0.014-0.075,0.021-0.102,0.021
	c-0.055,0.026-0.095,0.047-0.121,0.061c-0.027,0.014-0.067,0.021-0.121,0.021c-0.323,0.135-0.633,0.296-0.93,0.484
	c-0.296,0.188-0.592,0.403-0.888,0.646c-0.27,0.243-0.472,0.513-0.606,0.809s-0.202,0.605-0.202,0.929
	c0,0.108,0.014,0.209,0.041,0.303c0.026,0.095,0.054,0.209,0.08,0.344c0.026,0.055,0.047,0.107,0.061,0.162
	c0.014,0.054,0.034,0.107,0.061,0.161c0.027,0.081,0.062,0.148,0.102,0.202s0.074,0.107,0.101,0.161
	c0.135,0.242,0.304,0.451,0.505,0.626c0.202,0.176,0.438,0.317,0.707,0.425c0.242,0.107,0.505,0.182,0.788,0.222
	c0.282,0.04,0.571,0.061,0.868,0.061h0.424c0.148,0,0.303-0.013,0.465-0.04c0.161-0.027,0.323-0.061,0.484-0.102
	c0.162-0.04,0.323-0.073,0.485-0.101c0.403-0.107,0.801-0.235,1.191-0.384c0.39-0.147,0.773-0.316,1.151-0.505
	c0.377-0.215,0.727-0.424,1.05-0.626s0.606-0.41,0.849-0.626c0.026-0.026,0.054-0.054,0.08-0.081
	c0.027-0.026,0.054-0.054,0.081-0.081c0.026-0.026,0.054-0.054,0.081-0.08c0.026-0.027,0.054-0.054,0.081-0.081v-3.838
	C714.095,128.076,713.832,128.097,713.576,128.11"/>
<path fill="#FFFFFF" d="M724.583,120.496h-0.081c-0.027,0.027-0.054,0.04-0.08,0.04h-0.081h-0.182h-0.183h-0.08h-0.081
	c-0.027,0.027-0.054,0.041-0.081,0.041h-0.08h-0.121h-0.081h-0.081h-0.061h-0.061h-0.061h-0.061c-0.216,0-0.424-0.014-0.626-0.041
	c-0.202-0.026-0.384-0.066-0.546-0.121c-0.134-0.054-0.262-0.135-0.383-0.242c-0.122-0.107-0.209-0.242-0.263-0.404
	c0-0.026-0.014-0.054-0.041-0.081v-0.04c0-0.026-0.013-0.054-0.04-0.081v-0.08v-0.121v-0.062v-0.06c0-0.188,0.034-0.364,0.101-0.525
	c0.067-0.162,0.169-0.31,0.304-0.444c0.107-0.135,0.235-0.235,0.384-0.303c0.147-0.067,0.315-0.114,0.505-0.142h7.068
	c0.215,0.027,0.41,0.067,0.586,0.121c0.175,0.054,0.329,0.148,0.464,0.283c0.135,0.107,0.235,0.235,0.304,0.383
	c0.066,0.148,0.101,0.33,0.101,0.546v0.061v0.101v0.081c-0.027,0.027-0.04,0.055-0.04,0.081c-0.027,0.216-0.095,0.397-0.202,0.545
	c-0.108,0.148-0.242,0.249-0.404,0.303c-0.161,0.055-0.323,0.095-0.484,0.121c-0.162,0.027-0.337,0.041-0.525,0.041h-0.04h-0.081
	h-0.242h-0.202h-0.222h-0.183c0.054,0.135,0.102,0.276,0.142,0.424c0.041,0.148,0.087,0.29,0.142,0.424
	c0.026,0.162,0.066,0.317,0.121,0.465c0.054,0.148,0.107,0.29,0.162,0.424c0.053,0.136,0.101,0.276,0.141,0.425
	c0.041,0.148,0.087,0.289,0.142,0.424c0.054,0.161,0.107,0.316,0.161,0.464c0.054,0.148,0.107,0.29,0.162,0.425
	c0.296,0.808,0.605,1.615,0.929,2.424c0.323,0.808,0.66,1.615,1.01,2.423c0.35,0.809,0.714,1.596,1.091,2.363
	s0.781,1.515,1.212,2.242c0.457-1.051,0.902-2.107,1.333-3.172c0.431-1.062,0.834-2.134,1.212-3.211
	c0.377-1.076,0.733-2.161,1.07-3.251c0.336-1.091,0.64-2.188,0.909-3.292h-0.081h-0.081c-0.055,0.027-0.095,0.04-0.121,0.04h-0.081
	h-0.182h-0.222h-0.102h-0.142c-0.026,0.027-0.061,0.041-0.101,0.041h-0.142h-0.242h-0.242h-0.081h-0.081h-0.061h-0.061
	c-0.216,0-0.424-0.021-0.626-0.061c-0.201-0.041-0.41-0.088-0.626-0.142c-0.188-0.054-0.35-0.135-0.484-0.242
	s-0.229-0.243-0.283-0.404c0-0.026-0.007-0.054-0.02-0.081c-0.015-0.026-0.021-0.054-0.021-0.081c-0.027,0-0.04-0.013-0.04-0.04
	v-0.081c-0.027-0.054-0.041-0.106-0.041-0.161v-0.162c0-0.215,0.041-0.396,0.121-0.545c0.081-0.147,0.202-0.275,0.364-0.384
	c0.161-0.134,0.343-0.229,0.545-0.282s0.41-0.081,0.626-0.081h7.23c0.215,0,0.404,0.027,0.565,0.081
	c0.162,0.054,0.31,0.148,0.444,0.282c0.135,0.108,0.242,0.242,0.323,0.404c0.081,0.161,0.121,0.337,0.121,0.524v0.081v0.061v0.061
	v0.081c-0.027,0.027-0.04,0.055-0.04,0.081c-0.055,0.188-0.136,0.356-0.243,0.505s-0.242,0.263-0.403,0.343
	c-0.162,0.081-0.323,0.136-0.484,0.162c-0.162,0.027-0.323,0.04-0.485,0.04H742.8h-0.08h-0.121h-0.081h-0.081h-0.101
	c-0.041,0-0.088-0.013-0.142-0.04h-0.101h-0.142h-0.102h-0.141c-0.081,0.188-0.155,0.384-0.223,0.586
	c-0.067,0.201-0.128,0.41-0.182,0.626c-0.054,0.188-0.115,0.384-0.182,0.585c-0.067,0.202-0.128,0.398-0.182,0.586
	c-0.108,0.297-0.209,0.6-0.304,0.909c-0.094,0.31-0.182,0.612-0.262,0.908c-0.108,0.297-0.209,0.6-0.303,0.909
	c-0.095,0.31-0.196,0.612-0.304,0.908c-0.188,0.593-0.397,1.186-0.626,1.778s-0.451,1.171-0.666,1.736
	c-0.027,0.108-0.067,0.216-0.121,0.323c-0.055,0.107-0.095,0.216-0.121,0.323c-0.055,0.107-0.102,0.229-0.142,0.363
	c-0.041,0.136-0.088,0.27-0.142,0.404c-0.055,0.135-0.108,0.276-0.161,0.424c-0.055,0.148-0.108,0.29-0.162,0.425
	c-0.055,0.161-0.107,0.316-0.161,0.464c-0.055,0.148-0.108,0.29-0.162,0.424c-0.161,0.378-0.33,0.748-0.505,1.111
	c-0.176,0.363-0.357,0.721-0.545,1.07c-0.189,0.351-0.384,0.646-0.586,0.889s-0.411,0.418-0.626,0.525
	c-0.108,0.08-0.209,0.154-0.303,0.222c-0.095,0.067-0.196,0.114-0.304,0.142c-0.107,0.054-0.222,0.087-0.343,0.101
	s-0.249,0.033-0.384,0.061h-0.04h-0.041h-0.081c-0.323,0-0.64-0.095-0.949-0.282c-0.31-0.188-0.612-0.458-0.908-0.808
	c-0.27-0.377-0.539-0.781-0.808-1.212c-0.27-0.431-0.513-0.875-0.728-1.333c-0.162-0.351-0.316-0.687-0.465-1.01
	s-0.289-0.646-0.424-0.97c-0.107-0.323-0.216-0.599-0.323-0.828c-0.107-0.229-0.188-0.424-0.242-0.586
	c-0.351-0.808-0.7-1.615-1.05-2.423c-0.351-0.809-0.688-1.616-1.011-2.424c-0.35-0.808-0.687-1.622-1.01-2.443
	s-0.646-1.649-0.969-2.484H724.583z"/>
<path fill="#FFFFFF" d="M750.515,121.062h-0.08h-0.041h-0.08h-0.081h-0.061h-0.061c-0.162-0.026-0.31-0.067-0.444-0.121
	c-0.136-0.054-0.27-0.121-0.404-0.202c-0.107-0.081-0.195-0.182-0.263-0.303s-0.101-0.276-0.101-0.465v-0.04v-0.081
	c0.026-0.269,0.101-0.491,0.222-0.666c0.122-0.176,0.304-0.316,0.546-0.425c0.215-0.08,0.45-0.154,0.707-0.222
	c0.255-0.067,0.518-0.114,0.787-0.142h0.142h0.142h0.121h0.121h0.142c0.04,0,0.087-0.014,0.141-0.04h0.122h0.121h0.121h0.121h0.101
	h0.102h0.182h0.182h0.161c0.054,0,0.107-0.014,0.162-0.041h0.161h0.162h0.161c0.054,0,0.121-0.013,0.202-0.04
	c0.054,0,0.107-0.007,0.161-0.021c0.054-0.013,0.107-0.02,0.162-0.02c0.215-0.055,0.438-0.102,0.666-0.142
	c0.229-0.041,0.451-0.074,0.667-0.102c0.215-0.054,0.438-0.107,0.666-0.161s0.451-0.121,0.667-0.202c0.026,0,0.054-0.014,0.08-0.04
	h0.081h0.061c0.014,0,0.034-0.014,0.061-0.041c0.027-0.026,0.054-0.04,0.081-0.04c0.054,0,0.094-0.014,0.121-0.04
	c0.026,0,0.054-0.014,0.081-0.041h0.081c0.054,0,0.101-0.006,0.141-0.021c0.041-0.013,0.088-0.033,0.142-0.06h0.081
	c0.026,0,0.054-0.014,0.081-0.041h0.08h0.081h0.04h0.081h0.04h0.081h0.081c0.215,0.027,0.397,0.081,0.545,0.162
	c0.148,0.08,0.263,0.188,0.344,0.322c0.054,0.162,0.101,0.331,0.142,0.506c0.04,0.175,0.061,0.37,0.061,0.585v13.896
	c0,0.188,0.013,0.37,0.04,0.545c0.026,0.176,0.081,0.33,0.162,0.465c0.08,0.161,0.194,0.276,0.343,0.343
	c0.147,0.068,0.33,0.102,0.545,0.102h0.041h0.04h5.574c0.27,0,0.505,0.034,0.707,0.101c0.202,0.067,0.37,0.169,0.505,0.303
	c0.135,0.108,0.235,0.236,0.303,0.384c0.067,0.148,0.102,0.29,0.102,0.425v0.04v0.04c0,0.162-0.034,0.311-0.102,0.445
	s-0.168,0.269-0.303,0.403c-0.135,0.108-0.303,0.196-0.505,0.263c-0.202,0.067-0.438,0.101-0.707,0.101H751
	c-0.27,0-0.512-0.033-0.728-0.101c-0.216-0.066-0.391-0.154-0.524-0.263c-0.136-0.135-0.243-0.263-0.323-0.384
	c-0.081-0.121-0.121-0.249-0.121-0.384v-0.04v-0.081c0-0.135,0.04-0.275,0.121-0.424c0.08-0.147,0.188-0.276,0.323-0.384
	c0.134-0.135,0.309-0.235,0.524-0.303s0.458-0.102,0.728-0.102h4.12c0.296,0,0.538-0.04,0.727-0.121s0.296-0.215,0.323-0.404
	c0.054-0.161,0.095-0.343,0.121-0.545s0.041-0.424,0.041-0.666v-0.081v-11.795L750.515,121.062z M756.049,114.962
	c-0.242-0.161-0.431-0.35-0.565-0.565c-0.135-0.215-0.236-0.438-0.303-0.666c-0.067-0.229-0.102-0.465-0.102-0.707v-0.081v-0.081
	v-0.08c0-0.027,0.014-0.054,0.041-0.081c0.054-0.377,0.161-0.747,0.323-1.111c0.161-0.363,0.403-0.706,0.727-1.029
	s0.673-0.565,1.051-0.728c0.376-0.161,0.78-0.242,1.211-0.242c0.107,0,0.216,0.007,0.323,0.021s0.216,0.033,0.323,0.061
	c0.054,0.026,0.107,0.047,0.162,0.061c0.054,0.014,0.121,0.034,0.202,0.061c0.054,0.027,0.106,0.054,0.161,0.08
	c0.054,0.027,0.107,0.055,0.161,0.081c0.243,0.136,0.458,0.283,0.646,0.444c0.188,0.162,0.337,0.351,0.444,0.565
	c0.107,0.189,0.188,0.384,0.242,0.586s0.081,0.411,0.081,0.626v0.061v0.061v0.081c-0.027,0.404-0.135,0.795-0.323,1.172
	s-0.431,0.727-0.727,1.05c-0.323,0.323-0.667,0.565-1.03,0.727c-0.363,0.162-0.747,0.242-1.151,0.242h-0.04h-0.041h-0.242
	c-0.081,0-0.161-0.013-0.242-0.04c-0.081,0-0.161-0.013-0.242-0.04c-0.081-0.026-0.161-0.054-0.242-0.081
	C756.574,115.271,756.291,115.124,756.049,114.962"/>
<path fill="#FFFFFF" d="M772.832,134.795c-0.014-0.081-0.021-0.175-0.021-0.283v-0.161v-0.162c-0.027-0.054-0.04-0.113-0.04-0.182
	v-0.182c-0.027-0.081-0.048-0.161-0.061-0.242c-0.015-0.081-0.021-0.161-0.021-0.242v-0.142v-0.142
	c-0.027-0.026-0.041-0.066-0.041-0.121v-0.161v-0.162v-0.161c-0.026-0.054-0.04-0.107-0.04-0.161v-0.162v-0.323v-0.323v-0.121
	v-0.121v-0.101v-0.102c0-0.08,0.007-0.154,0.021-0.222s0.033-0.128,0.061-0.182c0.054-0.135,0.114-0.263,0.182-0.385
	c0.067-0.12,0.154-0.222,0.263-0.303c0.107-0.08,0.222-0.141,0.344-0.182c0.121-0.04,0.248-0.073,0.383-0.101
	c0.027,0,0.054-0.014,0.081-0.04h0.081h0.101h0.061c0.243,0,0.444,0.054,0.606,0.161c0.161,0.108,0.296,0.27,0.403,0.484
	c0.107,0.188,0.202,0.404,0.283,0.646s0.162,0.484,0.242,0.728v0.08v0.04h0.04c0.027,0.162,0.061,0.324,0.102,0.485
	c0.04,0.161,0.074,0.311,0.101,0.444c0.054,0.135,0.114,0.256,0.182,0.363c0.067,0.108,0.142,0.202,0.223,0.283
	c0.215,0.27,0.484,0.512,0.808,0.727c0.323,0.216,0.687,0.391,1.091,0.525s0.814,0.236,1.231,0.303
	c0.418,0.067,0.842,0.102,1.272,0.102h0.041h0.081h0.08c0.377,0,0.761-0.021,1.151-0.061c0.39-0.041,0.761-0.114,1.111-0.223
	c0.376-0.107,0.713-0.235,1.01-0.384c0.296-0.147,0.565-0.315,0.808-0.505c0.135-0.135,0.263-0.275,0.384-0.424
	c0.121-0.147,0.222-0.316,0.303-0.505c0.081-0.162,0.147-0.344,0.202-0.546c0.054-0.201,0.081-0.396,0.081-0.586v-0.08v-0.081
	c-0.027,0-0.041-0.013-0.041-0.04v-0.081v-0.081v-0.08c-0.027-0.027-0.04-0.054-0.04-0.081v-0.081
	c-0.108-0.296-0.249-0.559-0.424-0.787c-0.176-0.229-0.385-0.397-0.627-0.505c-0.242-0.135-0.491-0.249-0.747-0.344
	c-0.256-0.094-0.519-0.168-0.787-0.223h-0.061c-0.015,0-0.021-0.013-0.021-0.04h-0.081h-0.061c-0.014,0-0.021-0.013-0.021-0.04
	h-0.08c-0.081,0-0.162-0.006-0.242-0.021c-0.081-0.013-0.162-0.033-0.243-0.061c-0.08,0-0.161-0.006-0.242-0.02
	s-0.161-0.034-0.242-0.062c-0.107-0.026-0.216-0.046-0.323-0.061c-0.107-0.013-0.202-0.033-0.282-0.061
	c-0.108,0-0.216-0.006-0.323-0.02c-0.108-0.014-0.216-0.033-0.323-0.061c-0.216-0.054-0.432-0.102-0.646-0.142
	c-0.216-0.041-0.431-0.074-0.646-0.101c-0.646-0.135-1.266-0.304-1.857-0.505c-0.593-0.202-1.172-0.438-1.737-0.707
	c-0.565-0.297-1.03-0.667-1.394-1.111s-0.653-0.963-0.868-1.555c-0.027-0.135-0.061-0.276-0.102-0.425
	c-0.04-0.147-0.074-0.275-0.101-0.384c0-0.054-0.007-0.114-0.021-0.182c-0.014-0.066-0.02-0.142-0.02-0.222v-0.183v-0.181
	c0-0.781,0.161-1.501,0.484-2.161s0.821-1.245,1.494-1.757c0.646-0.512,1.333-0.93,2.061-1.253c0.727-0.323,1.48-0.538,2.262-0.646
	h0.04h0.081h0.162c0.054,0,0.121-0.014,0.201-0.041h0.162h0.161h0.162c0.054,0,0.107-0.013,0.161-0.04h0.162h0.161
	c0.296,0,0.572,0.007,0.828,0.02c0.256,0.015,0.505,0.048,0.747,0.102c0.107,0.027,0.216,0.054,0.323,0.081
	c0.107,0.026,0.215,0.04,0.323,0.04c0.107,0.027,0.208,0.055,0.303,0.081s0.195,0.054,0.304,0.08
	c0.053,0.027,0.113,0.048,0.181,0.061c0.067,0.015,0.142,0.034,0.223,0.061c0.054,0.027,0.114,0.048,0.182,0.062
	s0.128,0.02,0.182,0.02c0.135,0.027,0.263,0.055,0.384,0.081c0.121,0.027,0.235,0.054,0.344,0.081h0.081h0.08
	c0.026,0.027,0.054,0.04,0.081,0.04h0.081h0.161h0.162h0.08h0.081h0.04h0.081h0.081h0.081h0.08c0.026,0,0.054-0.013,0.081-0.04
	h0.081h0.081h0.08h0.081c0.242,0,0.457,0.027,0.646,0.08c0.188,0.055,0.35,0.136,0.484,0.243s0.242,0.276,0.323,0.505
	s0.135,0.519,0.162,0.868v0.161v0.162v0.081c0,0.026,0.013,0.04,0.04,0.04c0,0.027,0.006,0.054,0.021,0.081
	c0.013,0.026,0.02,0.054,0.02,0.08c0,0.108,0.007,0.216,0.021,0.323c0.013,0.108,0.033,0.202,0.061,0.283
	c0,0.107,0.006,0.216,0.021,0.323c0.013,0.107,0.02,0.216,0.02,0.323s0.007,0.216,0.021,0.322c0.014,0.108,0.021,0.202,0.021,0.283
	c0.026,0.108,0.04,0.216,0.04,0.323v0.323v0.101v0.142v0.101v0.142c0,0.107-0.027,0.216-0.081,0.323s-0.121,0.202-0.201,0.282
	c-0.108,0.081-0.209,0.148-0.304,0.202c-0.095,0.055-0.195,0.108-0.303,0.162h-0.081c-0.026,0.026-0.054,0.04-0.08,0.04h-0.081
	h-0.081h-0.061h-0.061h-0.061h-0.061c-0.27,0-0.492-0.047-0.667-0.142c-0.175-0.094-0.316-0.235-0.424-0.424
	c-0.107-0.215-0.202-0.431-0.282-0.646c-0.081-0.215-0.148-0.444-0.202-0.687c-0.027,0-0.041-0.013-0.041-0.04v-0.081
	c-0.026-0.081-0.054-0.161-0.08-0.242c-0.027-0.081-0.055-0.175-0.081-0.283c-0.055-0.08-0.095-0.161-0.121-0.242
	c-0.027-0.081-0.055-0.161-0.081-0.242c-0.08-0.161-0.168-0.303-0.263-0.424s-0.209-0.235-0.343-0.344
	c-0.216-0.134-0.458-0.256-0.728-0.363s-0.552-0.202-0.848-0.283c-0.297-0.08-0.606-0.141-0.93-0.182
	c-0.323-0.04-0.646-0.061-0.969-0.061h-0.081h-0.081h-0.061h-0.061c-0.351,0.027-0.693,0.067-1.03,0.121
	c-0.337,0.055-0.666,0.121-0.989,0.202c-0.323,0.108-0.62,0.229-0.889,0.363c-0.27,0.136-0.512,0.283-0.728,0.444
	c-0.135,0.108-0.256,0.243-0.363,0.404s-0.202,0.323-0.282,0.484c-0.081,0.162-0.136,0.33-0.162,0.505
	c-0.027,0.176-0.04,0.357-0.04,0.546v0.08v0.081v0.081c0,0.027,0.013,0.055,0.04,0.081v0.08v0.081v0.061
	c0,0.014,0.014,0.021,0.041,0.021v0.08c0.08,0.297,0.201,0.56,0.363,0.788c0.161,0.229,0.363,0.411,0.605,0.545
	c0.242,0.136,0.491,0.257,0.747,0.363c0.256,0.108,0.519,0.202,0.788,0.283c0.162,0.027,0.337,0.061,0.525,0.101
	c0.188,0.041,0.377,0.088,0.565,0.142c0.107,0.027,0.208,0.048,0.303,0.061c0.094,0.014,0.195,0.021,0.303,0.021
	c0.107,0.027,0.215,0.047,0.323,0.061c0.107,0.014,0.216,0.034,0.323,0.061c0.135,0.027,0.263,0.047,0.384,0.061
	s0.249,0.034,0.384,0.061c0.135,0.027,0.275,0.048,0.424,0.061c0.147,0.015,0.289,0.034,0.425,0.061
	c0.565,0.108,1.131,0.229,1.696,0.364s1.104,0.31,1.615,0.524c0.539,0.188,0.996,0.451,1.374,0.788
	c0.377,0.337,0.699,0.733,0.969,1.191c0.054,0.107,0.102,0.209,0.142,0.303c0.04,0.095,0.087,0.182,0.142,0.263
	c0.026,0.108,0.061,0.209,0.101,0.303c0.04,0.095,0.074,0.196,0.102,0.304c0.054,0.188,0.094,0.383,0.121,0.585
	c0.026,0.202,0.04,0.411,0.04,0.626c0,0.593-0.101,1.151-0.303,1.677s-0.492,1.03-0.868,1.515c-0.404,0.484-0.849,0.909-1.333,1.272
	c-0.485,0.363-1.01,0.653-1.575,0.868c-0.324,0.081-0.653,0.162-0.99,0.242c-0.337,0.081-0.693,0.148-1.07,0.202
	c-0.188,0.026-0.37,0.047-0.545,0.061c-0.176,0.014-0.344,0.034-0.505,0.061c-0.189,0-0.371,0.007-0.546,0.021
	s-0.357,0.021-0.545,0.021h-0.303h-0.263c-0.108-0.027-0.209-0.041-0.304-0.041h-0.262c-0.189-0.026-0.371-0.047-0.546-0.061
	s-0.356-0.034-0.545-0.061c-0.108-0.027-0.223-0.047-0.344-0.061s-0.249-0.047-0.384-0.101c-0.054-0.027-0.114-0.048-0.182-0.061
	c-0.067-0.014-0.128-0.021-0.182-0.021c-0.081-0.027-0.155-0.048-0.222-0.061c-0.068-0.014-0.129-0.021-0.183-0.021
	c-0.188-0.054-0.377-0.101-0.565-0.142c-0.188-0.04-0.363-0.073-0.524-0.101c-0.188-0.054-0.351-0.094-0.485-0.121
	c-0.135-0.026-0.27-0.04-0.403-0.04h-0.081h-0.081c-0.054,0.026-0.095,0.04-0.121,0.04h-0.081h-0.182h-0.182h-0.081h-0.08
	c-0.027,0.027-0.055,0.041-0.081,0.041h-0.081h-0.161h-0.162c-0.188,0-0.35-0.021-0.484-0.062c-0.135-0.04-0.27-0.101-0.404-0.182
	c-0.107-0.081-0.195-0.215-0.262-0.403c-0.068-0.188-0.115-0.431-0.142-0.728C772.865,134.956,772.845,134.875,772.832,134.795"/>
<path fill="#FFFFFF" d="M807.974,136.633c-0.176-0.066-0.33-0.154-0.465-0.263c-0.135-0.135-0.236-0.275-0.303-0.424
	c-0.067-0.147-0.102-0.316-0.102-0.505v-0.081l0.041-0.04v-0.041v-0.08v-0.081v-0.061c0-0.014,0.013-0.033,0.04-0.061
	c0.026-0.027,0.041-0.054,0.041-0.081c0.053-0.135,0.127-0.256,0.222-0.363c0.094-0.107,0.195-0.175,0.303-0.202
	c0.135-0.054,0.27-0.087,0.404-0.101s0.282-0.034,0.444-0.062h0.142h0.101h0.142h0.101h0.061h0.061h0.081v-0.424
	c0-0.147,0.013-0.303,0.04-0.464v-0.425v-0.465c0-0.296,0.007-0.599,0.021-0.908s0.033-0.626,0.061-0.949v-0.424
	c0-0.148,0.014-0.304,0.04-0.465v-0.425v-0.464v-0.465c0-0.147,0.014-0.303,0.041-0.464v-0.425v-0.464v-0.243v-0.242v-0.242v-0.242
	c-0.027-0.054-0.041-0.121-0.041-0.202v-0.242v-0.242v-0.243v-0.161v-0.161c-0.026-0.054-0.04-0.107-0.04-0.162v-0.161v-0.162
	v-0.161c-0.027-0.054-0.04-0.107-0.04-0.162v-0.161c-0.027-0.269-0.081-0.531-0.162-0.787c-0.08-0.256-0.175-0.506-0.282-0.748
	c-0.108-0.242-0.25-0.471-0.425-0.687c-0.175-0.215-0.37-0.403-0.585-0.565c-0.189-0.135-0.378-0.242-0.566-0.323
	c-0.188-0.08-0.391-0.147-0.605-0.202c-0.107-0.026-0.216-0.046-0.323-0.061c-0.107-0.013-0.202-0.033-0.282-0.061
	c-0.108,0-0.216-0.006-0.323-0.02c-0.108-0.014-0.216-0.021-0.323-0.021h-0.121h-0.121c-0.055,0.027-0.102,0.04-0.142,0.04h-0.142
	h-0.101h-0.142c-0.027,0.027-0.061,0.041-0.101,0.041h-0.142c-0.323,0.054-0.646,0.121-0.97,0.202
	c-0.323,0.08-0.633,0.188-0.929,0.322c-0.297,0.108-0.586,0.223-0.869,0.344c-0.282,0.121-0.572,0.249-0.868,0.384
	c-0.081,0.027-0.155,0.061-0.222,0.101c-0.067,0.041-0.128,0.075-0.182,0.102c-0.055,0.027-0.108,0.054-0.162,0.08
	c-0.054,0.027-0.107,0.055-0.161,0.081v12.198h0.161h0.162h0.101c0.04,0,0.074-0.013,0.101-0.04h0.142h0.102h0.201h0.243h0.141
	c0.041,0,0.074-0.014,0.102-0.04h0.141h0.102c0.242,0,0.484,0.014,0.727,0.04c0.243,0.027,0.472,0.067,0.688,0.121
	c0.215,0.055,0.39,0.142,0.524,0.263s0.243,0.263,0.323,0.424v0.061c0,0.015,0.014,0.021,0.041,0.021v0.081
	c0,0.027,0.013,0.04,0.04,0.04v0.081v0.061c0,0.014,0.014,0.021,0.04,0.021v0.08v0.061v0.061c-0.026,0.189-0.08,0.357-0.161,0.505
	c-0.081,0.148-0.202,0.277-0.363,0.385c-0.162,0.107-0.331,0.188-0.506,0.242s-0.37,0.08-0.585,0.08h-6.705
	c-0.189,0-0.371-0.033-0.546-0.101c-0.175-0.066-0.33-0.154-0.464-0.263c-0.136-0.135-0.236-0.269-0.304-0.403
	s-0.101-0.297-0.101-0.485v-0.04V135.4v-0.141v-0.102c0-0.054,0.006-0.101,0.021-0.142c0.013-0.04,0.033-0.073,0.061-0.101
	c0.054-0.135,0.134-0.256,0.242-0.363c0.107-0.107,0.229-0.175,0.363-0.202c0.135-0.054,0.283-0.094,0.444-0.121
	c0.162-0.026,0.323-0.041,0.484-0.041h0.062h0.061h0.08h0.142h0.101h0.062h0.061h0.08h0.081v-22.861
	c-0.055,0.026-0.115,0.047-0.182,0.06c-0.067,0.015-0.142,0.021-0.223,0.021c-0.026,0-0.061,0.007-0.101,0.021
	s-0.074,0.021-0.101,0.021c-0.055,0.026-0.095,0.04-0.122,0.04h-0.121c-0.026,0-0.061,0.007-0.101,0.021
	c-0.041,0.014-0.074,0.02-0.101,0.02c-0.055,0.027-0.095,0.041-0.121,0.041h-0.122c-0.026,0-0.061,0.007-0.101,0.02
	c-0.04,0.015-0.074,0.021-0.102,0.021c-0.054,0.027-0.095,0.04-0.12,0.04h-0.122h-0.08h-0.081c-0.027,0.027-0.055,0.041-0.081,0.041
	h-0.081h-0.161h-0.161c-0.162,0-0.304-0.014-0.425-0.041c-0.121-0.026-0.249-0.054-0.384-0.08c-0.107-0.054-0.209-0.128-0.303-0.223
	c-0.095-0.094-0.168-0.194-0.223-0.303c0-0.026-0.007-0.054-0.02-0.081c-0.014-0.026-0.021-0.054-0.021-0.081
	c-0.027,0-0.04-0.013-0.04-0.04v-0.081c0-0.026-0.007-0.053-0.021-0.08c-0.014-0.026-0.02-0.054-0.02-0.081v-0.121
	c0-0.162,0.033-0.323,0.101-0.484c0.066-0.162,0.154-0.297,0.263-0.404c0.134-0.135,0.269-0.242,0.403-0.323
	s0.283-0.147,0.445-0.202c0.053,0,0.147-0.021,0.282-0.061s0.296-0.087,0.484-0.142c0.216-0.054,0.438-0.114,0.667-0.182
	c0.229-0.066,0.464-0.127,0.707-0.182c0.026,0,0.054-0.013,0.08-0.04h0.041h0.08c0.027,0,0.054-0.014,0.081-0.041
	c0.296-0.054,0.572-0.114,0.828-0.182c0.256-0.066,0.505-0.127,0.747-0.182c0.243-0.054,0.438-0.094,0.586-0.121
	c0.147-0.026,0.235-0.04,0.263-0.04c0.242,0.027,0.438,0.08,0.586,0.161c0.147,0.081,0.248,0.202,0.303,0.363
	c0.054,0.162,0.101,0.33,0.142,0.505c0.04,0.176,0.061,0.371,0.061,0.586v10.22c0.511-0.296,1.029-0.586,1.555-0.868
	c0.525-0.283,1.07-0.546,1.636-0.788s1.145-0.424,1.737-0.545c0.592-0.122,1.185-0.182,1.777-0.182c0.054,0,0.114,0.007,0.182,0.02
	c0.067,0.014,0.142,0.021,0.223,0.021c0.053,0.027,0.114,0.04,0.182,0.04h0.182c0.134,0.027,0.269,0.048,0.403,0.061
	c0.135,0.015,0.27,0.034,0.404,0.061c0.889,0.189,1.629,0.505,2.222,0.949c0.592,0.444,1.023,1.004,1.293,1.677
	c0.296,0.673,0.511,1.38,0.646,2.12c0.135,0.741,0.202,1.515,0.202,2.323v9.572h0.162h0.161h0.081c0.026,0,0.066-0.013,0.121-0.04
	h0.101h0.102h0.182h0.222h0.142c0.04,0,0.074-0.014,0.101-0.04h0.142h0.102h0.08h0.081c0.188,0,0.37,0.02,0.545,0.061
	c0.176,0.04,0.344,0.088,0.506,0.142c0.161,0.054,0.303,0.135,0.424,0.242s0.222,0.242,0.303,0.403
	c0.026,0.055,0.047,0.102,0.061,0.142s0.021,0.088,0.021,0.142v0.061c0,0.014,0.013,0.034,0.04,0.061v0.061v0.061
	c-0.027,0.188-0.081,0.351-0.161,0.485c-0.081,0.135-0.189,0.269-0.323,0.403c-0.162,0.108-0.323,0.196-0.485,0.263
	c-0.161,0.067-0.35,0.101-0.565,0.101h-6.382C808.33,136.733,808.148,136.7,807.974,136.633"/>
<path fill="#FFFFFF" d="M717.709,112.863c0,0.895-0.635,1.62-1.418,1.62h-12.154c-0.783,0-1.418-0.726-1.418-1.62
	c0-0.896,0.635-1.62,1.418-1.62h12.154C717.074,111.243,717.709,111.968,717.709,112.863"/>
</svg>
