<?xml version="1.0" encoding="utf-8"?>
<!-- Generator: Adobe Illustrator 15.0.2, SVG Export Plug-In  -->
<!DOCTYPE svg PUBLIC "-//W3C//DTD SVG 1.1//EN" "http://www.w3.org/Graphics/SVG/1.1/DTD/svg11.dtd" [
	<!ENTITY ns_flows "http://ns.adobe.com/Flows/1.0/">
]>
<svg version="1.1"
	 xmlns="http://www.w3.org/2000/svg" xmlns:xlink="http://www.w3.org/1999/xlink" xmlns:a="http://ns.adobe.com/AdobeSVGViewerExtensions/3.0/"
	 x="0px" y="0px" width="140px" height="140px" viewBox="-0.092 -57.519 140 140"
	 overflow="visible" enable-background="new -0.092 -57.519 140 140" xml:space="preserve">
<defs>
</defs>
<path fill="#FFFFFF" d="M108.74,18.816c-0.408,0.181-1.178,0.333-2.054,0.333c-2.386,0-3.911-1.45-3.911-3.776
	c0-2.16,1.48-3.926,4.229-3.926c0.604,0,1.269,0.106,1.752,0.287l-0.363,1.707c-0.271-0.121-0.679-0.227-1.283-0.227
	c-1.208,0-1.993,0.861-1.979,2.069c0,1.359,0.906,2.069,2.023,2.069c0.544,0,0.967-0.091,1.314-0.227L108.74,18.816z"/>
<path fill="#FFFFFF" d="M110.25,8.276h2.295v10.722h-2.295V8.276z"/>
<path fill="#FFFFFF" d="M121.937,15.222c0,2.703-1.917,3.941-3.896,3.941c-2.159,0-3.821-1.419-3.821-3.806
	c0-2.386,1.57-3.911,3.941-3.911C120.427,11.447,121.937,13.002,121.937,15.222z M116.591,15.298c0,1.269,0.529,2.22,1.51,2.22
	c0.892,0,1.465-0.891,1.465-2.22c0-1.103-0.422-2.22-1.465-2.22C117,13.078,116.591,14.21,116.591,15.298z"/>
<path fill="#FFFFFF" d="M130.56,16.626c0,0.967,0.029,1.752,0.061,2.371h-1.994l-0.105-1.042h-0.045
	c-0.287,0.453-0.982,1.208-2.311,1.208c-1.496,0-2.598-0.937-2.598-3.217v-4.334h2.311v3.972c0,1.072,0.348,1.722,1.147,1.722
	c0.635,0,0.997-0.438,1.147-0.8c0.061-0.136,0.076-0.317,0.076-0.499v-4.395h2.311V16.626z"/>
<path fill="#FFFFFF" d="M139.801,8.276v8.517c0,0.831,0.03,1.707,0.06,2.205h-2.038l-0.105-1.087h-0.03
	c-0.469,0.831-1.359,1.253-2.311,1.253c-1.752,0-3.156-1.495-3.156-3.791c-0.016-2.492,1.54-3.926,3.307-3.926
	c0.906,0,1.616,0.317,1.948,0.831h0.03V8.276H139.801z M137.505,14.739c0-0.121-0.015-0.287-0.03-0.408
	c-0.136-0.619-0.634-1.133-1.344-1.133c-1.042,0-1.586,0.937-1.586,2.1c0,1.253,0.619,2.038,1.571,2.038
	c0.664,0,1.193-0.453,1.328-1.102c0.046-0.167,0.061-0.333,0.061-0.528V14.739z"/>
<path fill="#FFFFFF" d="M78.052,18.998l-0.137-0.74h-0.045c-0.482,0.589-1.238,0.906-2.114,0.906c-1.495,0-2.386-1.087-2.386-2.265
	c0-1.918,1.722-2.839,4.333-2.824v-0.105c0-0.393-0.211-0.952-1.344-0.952c-0.755,0-1.555,0.257-2.039,0.559l-0.423-1.48
	c0.514-0.287,1.525-0.649,2.87-0.649c2.461,0,3.246,1.45,3.246,3.186V17.2c0,0.71,0.03,1.39,0.105,1.797H78.052z M77.781,15.509
	c-1.209-0.015-2.145,0.271-2.145,1.163c0,0.589,0.393,0.876,0.906,0.876c0.573,0,1.041-0.377,1.192-0.846
	c0.03-0.121,0.046-0.257,0.046-0.393V15.509z"/>
<path fill="#FFFFFF" d="M89.226,8.276v8.517c0,0.831,0.031,1.707,0.061,2.205h-2.039l-0.105-1.087h-0.029
	c-0.469,0.831-1.359,1.253-2.311,1.253c-1.752,0-3.156-1.495-3.156-3.791c-0.016-2.492,1.539-3.926,3.307-3.926
	c0.906,0,1.615,0.317,1.948,0.831h0.03V8.276H89.226z M86.931,14.739c0-0.121-0.016-0.287-0.03-0.408
	c-0.136-0.619-0.634-1.133-1.345-1.133c-1.041,0-1.585,0.937-1.585,2.1c0,1.253,0.619,2.038,1.571,2.038
	c0.664,0,1.192-0.453,1.328-1.102c0.045-0.167,0.061-0.333,0.061-0.528V14.739z"/>
<path fill="#FFFFFF" d="M98.468,8.276v8.517c0,0.831,0.029,1.707,0.061,2.205H96.49l-0.105-1.087h-0.031
	c-0.467,0.831-1.359,1.253-2.311,1.253c-1.752,0-3.156-1.495-3.156-3.791c-0.015-2.492,1.541-3.926,3.308-3.926
	c0.906,0,1.616,0.317,1.948,0.831h0.03V8.276H98.468z M96.172,14.739c0-0.121-0.015-0.287-0.03-0.408
	c-0.136-0.619-0.635-1.133-1.344-1.133c-1.043,0-1.586,0.937-1.586,2.1c0,1.253,0.619,2.038,1.57,2.038
	c0.664,0,1.193-0.453,1.329-1.102c0.046-0.167,0.061-0.333,0.061-0.528V14.739z"/>
<path fill="#FFFFFF" d="M43.094,20.356c0.604-0.045,1.073-0.181,1.359-0.483c0.333-0.348,0.453-0.937,0.453-2.401v-5.859h2.311
	v6.403c0,1.616-0.362,2.597-1.042,3.231s-1.752,0.906-2.854,0.906L43.094,20.356z M47.277,9.559c0,0.634-0.468,1.148-1.238,1.148
	c-0.725,0-1.193-0.514-1.193-1.148c0-0.665,0.468-1.163,1.224-1.163C46.809,8.396,47.262,8.895,47.277,9.559z"/>
<path fill="#FFFFFF" d="M56.217,16.626c0,0.967,0.03,1.752,0.061,2.371h-1.994l-0.106-1.042h-0.045
	c-0.287,0.453-0.981,1.208-2.311,1.208c-1.495,0-2.598-0.937-2.598-3.217v-4.334h2.311v3.972c0,1.072,0.347,1.722,1.148,1.722
	c0.634,0,0.997-0.438,1.147-0.8c0.061-0.136,0.076-0.317,0.076-0.499v-4.395h2.311V16.626z"/>
<path fill="#FFFFFF" d="M58.285,16.989c0.423,0.256,1.299,0.559,1.979,0.559c0.695,0,0.981-0.242,0.981-0.619
	c0-0.378-0.227-0.559-1.087-0.846c-1.525-0.513-2.114-1.344-2.099-2.22c0-1.375,1.178-2.417,3.005-2.417
	c0.861,0,1.631,0.196,2.084,0.423l-0.408,1.585c-0.332-0.181-0.966-0.423-1.601-0.423c-0.559,0-0.875,0.227-0.875,0.604
	c0,0.348,0.287,0.529,1.193,0.846c1.404,0.483,1.993,1.193,2.008,2.28c0,1.375-1.087,2.387-3.201,2.387
	c-0.967,0-1.828-0.212-2.386-0.514L58.285,16.989z"/>
<path fill="#FFFFFF" d="M67.662,9.499v2.114h1.646v1.691h-1.646v2.673c0,0.891,0.211,1.298,0.906,1.298
	c0.287,0,0.513-0.03,0.679-0.061l0.015,1.737c-0.302,0.121-0.846,0.197-1.495,0.197c-0.74,0-1.359-0.257-1.722-0.635
	c-0.423-0.438-0.635-1.147-0.635-2.19v-3.02h-0.981v-1.691h0.981v-1.601L67.662,9.499z"/>
<path fill="#FFFFFF" d="M30.07,5.041C28.127,2.045,24.238,0,19.754,0c-3.848,0-7.258,1.506-9.376,3.825
	C9.83,4.426,9.368,5.08,9.008,5.777l2.372,3.206l4.228,5.715l0.683,0.923l0.907,1.227l-0.96-1.833
	c-0.001-0.025-0.004-0.05-0.005-0.075c-0.014-0.005-0.028-0.01-0.042-0.015l-4.152-7.929c0.368-0.623,0.878-1.206,1.522-1.725
	c1.624-1.308,3.823-2.029,6.194-2.029c2.227,0,4.304,0.637,5.893,1.799c0.102,0.074,0.202,0.151,0.3,0.229
	c1.035,0.834,2.131,2.174,2.432,3.239c1.129-0.116,1.936-0.119,2.984,0.263c0.963,0.351,1.844,0.848,2.599,1.48
	c1.435,1.203,2.226,2.753,2.226,4.364s-0.791,3.161-2.226,4.364c-1.444,1.21-2.341,2.033-5.793,1.499l2.449,3.614
	c5.094-1.039,8.876-4.886,8.876-9.477C39.495,9.864,35.439,5.907,30.07,5.041z"/>
<path fill="#FFFFFF" d="M19.291,25.704c-3.833,0-6.227-1.405-7.396-2.34c-3.044,0.84-8.175,0.701-10.941-4.682
	c-3.127-6.086,2.162-11.106,5.395-12.91l1.569,2.813L7.134,7.178l0.788,1.405c-0.271,0.152-6.588,3.788-4.103,8.627
	c2.538,4.94,7.642,2.923,7.857,2.834l1.139-0.466l0.713,0.931c0.152,0.17,1.861,1.973,5.762,1.973c2.181,0,3.685-0.476,4.623-0.928
	c0,0-4.239-10.039-4.206-10.072l7.76,11.504C27.206,23.266,24.75,25.704,19.291,25.704z"/>
</svg>
