<?xml version="1.0" encoding="utf-8"?>
<!-- Generator: Adobe Illustrator 15.0.2, SVG Export Plug-In  -->
<!DOCTYPE svg PUBLIC "-//W3C//DTD SVG 1.1//EN" "http://www.w3.org/Graphics/SVG/1.1/DTD/svg11.dtd" [
	<!ENTITY ns_flows "http://ns.adobe.com/Flows/1.0/">
]>
<svg version="1.1"
	 xmlns="http://www.w3.org/2000/svg" xmlns:xlink="http://www.w3.org/1999/xlink" xmlns:a="http://ns.adobe.com/AdobeSVGViewerExtensions/3.0/"
	 x="0px" y="0px" width="140px" height="140px" viewBox="30 1 140 140" overflow="visible" enable-background="new 30 1 140 140"
	 xml:space="preserve">
<defs>
</defs>
<rect display="none" fill="#151A20" width="200" height="141"/>
<path fill="#FFFFFF" d="M123.451,98.721c-0.555,0.246-1.6,0.452-2.79,0.452c-3.24,0-5.313-1.97-5.313-5.129
	c0-2.934,2.012-5.334,5.745-5.334c0.819,0,1.723,0.144,2.379,0.39l-0.493,2.318c-0.368-0.165-0.922-0.309-1.743-0.309
	c-1.642,0-2.707,1.169-2.688,2.812c0,1.846,1.23,2.81,2.749,2.81c0.738,0,1.313-0.124,1.785-0.308L123.451,98.721z"/>
<path fill="#FFFFFF" d="M125.502,84.401h3.118v14.565h-3.118V84.401z"/>
<path fill="#FFFFFF" d="M141.379,93.838c0,3.672-2.604,5.354-5.291,5.354c-2.934,0-5.192-1.928-5.192-5.17
	c0-3.241,2.134-5.313,5.355-5.313C139.328,88.709,141.379,90.822,141.379,93.838z M134.117,93.941c0,1.723,0.719,3.016,2.051,3.016
	c1.212,0,1.99-1.211,1.99-3.016c0-1.498-0.573-3.016-1.99-3.016C134.672,90.925,134.117,92.463,134.117,93.941z"/>
<path fill="#FFFFFF" d="M153.094,95.746c0,1.313,0.04,2.38,0.083,3.221h-2.709l-0.145-1.416h-0.061
	c-0.39,0.615-1.334,1.641-3.139,1.641c-2.033,0-3.529-1.272-3.529-4.37v-5.888h3.14v5.396c0,1.457,0.472,2.339,1.559,2.339
	c0.861,0,1.354-0.595,1.559-1.087c0.082-0.185,0.104-0.432,0.104-0.677v-5.97h3.139V95.746z"/>
<path fill="#FFFFFF" d="M165.647,84.401v11.57c0,1.128,0.041,2.318,0.081,2.996h-2.769l-0.144-1.478h-0.041
	c-0.636,1.129-1.846,1.703-3.139,1.703c-2.38,0-4.288-2.031-4.288-5.149c-0.021-3.385,2.093-5.334,4.492-5.334
	c1.231,0,2.196,0.431,2.647,1.129h0.041v-5.437H165.647z M162.529,93.182c0-0.165-0.02-0.39-0.041-0.555
	c-0.185-0.84-0.861-1.539-1.826-1.539c-1.416,0-2.154,1.272-2.154,2.853c0,1.702,0.841,2.769,2.135,2.769
	c0.902,0,1.621-0.615,1.805-1.497c0.062-0.226,0.082-0.452,0.082-0.718V93.182z"/>
<path fill="#FFFFFF" d="M81.762,98.967l-0.186-1.005h-0.061c-0.655,0.8-1.683,1.231-2.872,1.231c-2.03,0-3.241-1.477-3.241-3.077
	c0-2.606,2.339-3.857,5.887-3.837v-0.144c0-0.533-0.287-1.292-1.826-1.292c-1.025,0-2.112,0.349-2.769,0.76l-0.574-2.011
	c0.698-0.39,2.073-0.882,3.898-0.882c3.344,0,4.41,1.97,4.41,4.328v3.488c0,0.964,0.041,1.888,0.144,2.442H81.762z M81.394,94.228
	c-1.643-0.021-2.914,0.369-2.914,1.58c0,0.799,0.534,1.189,1.231,1.189c0.779,0,1.415-0.512,1.62-1.148
	c0.041-0.164,0.062-0.349,0.062-0.533V94.228z"/>
<path fill="#FFFFFF" d="M96.941,84.401v11.57c0,1.128,0.043,2.318,0.083,2.996h-2.771l-0.143-1.478h-0.04
	c-0.638,1.129-1.847,1.703-3.14,1.703c-2.38,0-4.287-2.031-4.287-5.149c-0.021-3.385,2.091-5.334,4.491-5.334
	c1.232,0,2.195,0.431,2.647,1.129h0.041v-5.437H96.941z M93.824,93.182c0-0.165-0.021-0.39-0.041-0.555
	c-0.185-0.84-0.861-1.539-1.827-1.539c-1.414,0-2.153,1.272-2.153,2.853c0,1.702,0.842,2.769,2.135,2.769
	c0.902,0,1.62-0.615,1.805-1.497c0.061-0.226,0.082-0.452,0.082-0.718V93.182z"/>
<path fill="#FFFFFF" d="M109.498,84.401v11.57c0,1.128,0.038,2.318,0.081,2.996h-2.77l-0.144-1.478h-0.042
	c-0.634,1.129-1.847,1.703-3.139,1.703c-2.381,0-4.288-2.031-4.288-5.149c-0.02-3.385,2.094-5.334,4.493-5.334
	c1.231,0,2.195,0.431,2.646,1.129h0.042v-5.437H109.498z M106.379,93.182c0-0.165-0.021-0.39-0.042-0.555
	c-0.184-0.84-0.862-1.539-1.825-1.539c-1.417,0-2.155,1.272-2.155,2.853c0,1.702,0.842,2.769,2.134,2.769
	c0.902,0,1.621-0.615,1.806-1.497c0.062-0.226,0.083-0.452,0.083-0.718V93.182z"/>
<path fill="#FFFFFF" d="M34.271,100.813c0.821-0.061,1.458-0.246,1.847-0.656c0.452-0.472,0.615-1.272,0.615-3.262v-7.96h3.139
	v8.699c0,2.194-0.492,3.528-1.416,4.39c-0.923,0.862-2.38,1.231-3.877,1.231L34.271,100.813z M39.954,86.145
	c0,0.862-0.635,1.56-1.683,1.56c-0.984,0-1.62-0.698-1.62-1.56c0-0.903,0.636-1.58,1.662-1.58
	C39.319,84.565,39.933,85.242,39.954,86.145z"/>
<path fill="#FFFFFF" d="M52.099,95.746c0,1.313,0.042,2.38,0.083,3.221h-2.708l-0.144-1.416h-0.062
	c-0.389,0.615-1.333,1.641-3.139,1.641c-2.031,0-3.529-1.272-3.529-4.37v-5.888h3.139v5.396c0,1.457,0.471,2.339,1.559,2.339
	c0.861,0,1.354-0.595,1.559-1.087c0.083-0.185,0.103-0.432,0.103-0.677v-5.97h3.139V95.746z"/>
<path fill="#FFFFFF" d="M54.908,96.238c0.575,0.349,1.765,0.759,2.688,0.759c0.944,0,1.333-0.328,1.333-0.841
	c0-0.514-0.308-0.759-1.478-1.149c-2.072-0.697-2.872-1.826-2.852-3.015c0-1.868,1.601-3.283,4.082-3.283
	c1.17,0,2.217,0.267,2.832,0.575l-0.554,2.154c-0.451-0.246-1.313-0.574-2.175-0.574c-0.759,0-1.189,0.307-1.189,0.82
	c0,0.472,0.39,0.718,1.62,1.148c1.908,0.657,2.708,1.622,2.729,3.098c0,1.868-1.478,3.243-4.349,3.243
	c-1.314,0-2.483-0.288-3.242-0.699L54.908,96.238z"/>
<path fill="#FFFFFF" d="M67.647,86.062v2.872h2.236v2.298h-2.236v3.631c0,1.21,0.288,1.764,1.231,1.764
	c0.39,0,0.697-0.041,0.923-0.083l0.021,2.36c-0.41,0.165-1.149,0.267-2.03,0.267c-1.006,0-1.847-0.349-2.339-0.862
	c-0.575-0.595-0.862-1.559-0.862-2.975v-4.103h-1.333v-2.298h1.333V86.76L67.647,86.062z"/>
<path fill="#FFFFFF" d="M116.347,46.729c-3.077-4.744-9.235-7.983-16.335-7.983c-6.094,0-11.493,2.384-14.847,6.058
	c-0.869,0.951-1.6,1.986-2.17,3.09l3.755,5.077l6.694,9.05l1.082,1.461l1.437,1.943l-1.521-2.904
	c-0.002-0.039-0.006-0.078-0.008-0.118c-0.022-0.008-0.044-0.016-0.066-0.024l-6.574-12.555c0.582-0.986,1.391-1.91,2.41-2.732
	c2.571-2.07,6.054-3.212,9.809-3.212c3.526,0,6.815,1.009,9.332,2.85c0.161,0.118,0.319,0.239,0.476,0.363
	c1.638,1.322,3.375,3.443,3.851,5.13c1.788-0.183,3.065-0.188,4.726,0.417c1.524,0.556,2.92,1.342,4.116,2.345
	c2.271,1.905,3.524,4.359,3.524,6.91c0,2.551-1.253,5.005-3.524,6.91c-2.287,1.916-3.708,3.22-9.174,2.373l3.877,5.723
	c8.066-1.646,14.057-7.738,14.057-15.006C131.271,54.365,124.848,48.1,116.347,46.729z"/>
<path fill="#FFFFFF" d="M99.277,79.449c-6.069,0-9.86-2.224-11.711-3.706c-4.821,1.33-12.946,1.11-17.325-7.414
	c-4.951-9.638,3.423-17.587,8.543-20.443l2.485,4.455l-1.243-2.228l1.249,2.225c-0.429,0.241-10.432,5.998-6.496,13.661
	c4.019,7.822,12.101,4.628,12.442,4.488l1.804-0.738l1.129,1.475c0.241,0.27,2.946,3.125,9.124,3.125
	c3.454,0,5.835-0.754,7.32-1.469c0,0-6.712-15.896-6.66-15.949l12.288,18.217C111.81,75.587,107.921,79.449,99.277,79.449z"/>
</svg>
