<?xml version="1.0" encoding="utf-8"?>
<!-- Generator: Adobe Illustrator 15.0.2, SVG Export Plug-In  -->
<!DOCTYPE svg PUBLIC "-//W3C//DTD SVG 1.1//EN" "http://www.w3.org/Graphics/SVG/1.1/DTD/svg11.dtd" [
	<!ENTITY ns_flows "http://ns.adobe.com/Flows/1.0/">
]>
<svg version="1.1"
	 xmlns="http://www.w3.org/2000/svg" xmlns:xlink="http://www.w3.org/1999/xlink" xmlns:a="http://ns.adobe.com/AdobeSVGViewerExtensions/3.0/"
	 x="0px" y="0px" width="200px" height="140px" viewBox="0.375 0 200 140"
	 overflow="visible" enable-background="new 0.375 0 200 140" xml:space="preserve">
<defs>
</defs>
<rect display="none" fill="#0C202C" width="200" height="140"/>
<path id="OSS_1_" fill-rule="evenodd" clip-rule="evenodd" fill="#FFFFFF" d="M48.412,73.946c-2.252,0-3.901-0.1-4.95-0.304
	c-1.045-0.204-1.892-0.549-2.551-1.042c-0.739-0.554-1.278-1.274-1.606-2.169c-0.328-0.898-0.492-2.083-0.492-3.559v-3.93h5.999
	v2.543c0,1.389,0.35,2.345,1.044,2.862c0.694,0.517,2.079,0.778,4.154,0.778h3.742c2.084,0,3.463-0.262,4.148-0.783
	c0.681-0.523,1.022-1.495,1.022-2.911V62.7c0-1.415-0.342-2.392-1.022-2.911c-0.686-0.521-2.064-0.785-4.148-0.785h-3.77
	c-0.562,0-1.074,0.021-1.534,0.06v-4.881h6.872c2.196,0,3.831,0.104,4.919,0.311c1.085,0.207,1.946,0.554,2.585,1.039
	c0.716,0.546,1.242,1.288,1.575,2.232c0.33,0.941,0.498,2.145,0.498,3.612v5.379c0,1.487-0.168,2.693-0.498,3.623
	c-0.333,0.928-0.859,1.668-1.575,2.222c-0.646,0.493-1.506,0.838-2.567,1.042c-1.06,0.204-2.707,0.304-4.937,0.304H48.412z"/>
<path id="TWO_SQUARES_1_" fill-rule="evenodd" clip-rule="evenodd" fill="#FFFFFF" d="M34.041,52.58h5.247v5.248h-5.247V52.58z
	 M40.565,61.939h7.048v-7.048h-7.048V61.939z"/>
<path id="SHAPE_x5F_3_2_" fill-rule="evenodd" clip-rule="evenodd" fill="#FFFFFF" d="M13.9,78.126l6.847-6.844
	c0.387-0.387,1.018-0.387,1.409,0l6.818,6.821L22.873,84.2c-0.846,0.846-2.076,0.858-2.833,0.095L13.9,78.126z"/>
<path id="SHAPE_x5F_1_2_" fill-rule="evenodd" clip-rule="evenodd" fill="#FFFFFF" d="M19.941,53.227
	c0.896-0.736,2.232-0.685,3.067,0.156L36.73,67.105c0.887,0.881,0.896,2.311,0.035,3.205l-2.917,2.923l-0.002-0.003L22.599,61.989
	c-0.63-0.639-1.658-0.639-2.293,0L9.04,73.255l0.314,0.311l-0.003,0.003l-3.525-3.486l-0.032-0.035
	c-0.59-0.829-0.557-1.971,0.096-2.77L19.941,53.227z"/>
<path fill="#FFFFFF" d="M65.564,67.353l5.737-0.014v0.345c0,0.715,0.175,1.2,0.525,1.449c0.349,0.256,1.081,0.379,2.197,0.379h7.297
	c0.717,0,1.227-0.121,1.534-0.365c0.306-0.241,0.46-0.645,0.46-1.206c0-0.573-0.176-0.98-0.53-1.228
	c-0.354-0.246-1.114-0.413-2.282-0.498l-9.124-0.204c-2.282-0.068-3.827-0.504-4.633-1.305c-0.805-0.8-1.207-2.256-1.207-4.371
	c0-1.089,0.106-1.986,0.318-2.695c0.214-0.707,0.556-1.294,1.023-1.766c0.554-0.524,1.277-0.9,2.173-1.124
	c0.895-0.219,2.351-0.331,4.37-0.331h8.868c2.198,0,3.781,0.401,4.749,1.201c0.966,0.803,1.449,2.102,1.449,3.899
	c0,0.119-0.002,0.246-0.007,0.382c-0.004,0.137-0.019,0.357-0.044,0.665h-5.598v-0.078c0-0.63-0.158-1.103-0.479-1.417
	c-0.318-0.315-0.799-0.472-1.438-0.472h-6.697c-1.115,0-1.853,0.109-2.21,0.331c-0.359,0.223-0.536,0.61-0.536,1.164
	c0,0.543,0.161,0.938,0.483,1.182c0.325,0.241,0.921,0.398,1.79,0.467l9.56,0.15c2.18,0.062,3.716,0.552,4.606,1.471
	c0.892,0.922,1.335,2.493,1.335,4.717c0,1.319-0.162,2.343-0.49,3.067c-0.328,0.724-0.88,1.34-1.655,1.853
	c-0.513,0.322-1.206,0.557-2.084,0.696c-0.877,0.142-2.146,0.21-3.808,0.21h-7.744c-3.178,0-5.304-0.354-6.377-1.066
	c-1.075-0.712-1.61-2.038-1.61-3.981c0-0.111,0.007-0.294,0.019-0.557C65.521,68.044,65.539,67.728,65.564,67.353z"/>
<path fill="#FFFFFF" d="M89.981,67.353l5.736-0.014v0.345c0,0.715,0.175,1.2,0.525,1.449c0.349,0.256,1.081,0.379,2.198,0.379h7.296
	c0.718,0,1.228-0.121,1.535-0.365c0.306-0.241,0.459-0.645,0.459-1.206c0-0.573-0.177-0.98-0.53-1.228
	c-0.354-0.246-1.114-0.413-2.281-0.498l-9.124-0.204c-2.283-0.068-3.827-0.504-4.633-1.305c-0.805-0.8-1.208-2.256-1.208-4.371
	c0-1.089,0.107-1.986,0.319-2.695c0.214-0.707,0.555-1.294,1.022-1.766c0.555-0.524,1.278-0.9,2.173-1.124
	c0.896-0.219,2.352-0.331,4.369-0.331h8.87c2.198,0,3.781,0.401,4.748,1.201c0.967,0.803,1.45,2.102,1.45,3.899
	c0,0.119-0.003,0.246-0.007,0.382c-0.004,0.137-0.02,0.357-0.044,0.665h-5.598v-0.078c0-0.63-0.158-1.103-0.479-1.417
	c-0.319-0.315-0.798-0.472-1.438-0.472h-6.696c-1.115,0-1.853,0.109-2.211,0.331c-0.358,0.223-0.537,0.61-0.537,1.164
	c0,0.543,0.163,0.938,0.485,1.182c0.325,0.241,0.921,0.398,1.79,0.467l9.559,0.15c2.181,0.062,3.717,0.552,4.607,1.471
	c0.89,0.922,1.335,2.493,1.335,4.717c0,1.319-0.164,2.343-0.49,3.067c-0.328,0.724-0.881,1.34-1.655,1.853
	c-0.513,0.322-1.206,0.557-2.084,0.696c-0.877,0.142-2.147,0.21-3.809,0.21h-7.744c-3.177,0-5.303-0.354-6.379-1.066
	c-1.072-0.712-1.607-2.038-1.607-3.981c0-0.111,0.005-0.294,0.019-0.557C89.936,68.044,89.955,67.728,89.981,67.353z"/>
<path fill="#FFFFFF" d="M133.242,61.261v-0.194c0-0.758-0.25-1.312-0.75-1.664s-1.294-0.527-2.38-0.527h-4.748
	c-2.035,0-3.341,0.246-3.92,0.737c-0.578,0.49-0.867,1.52-0.867,3.083v2.701c0,1.399,0.322,2.358,0.965,2.881
	c0.645,0.522,1.916,0.784,3.822,0.784h3.442c1.888,0,3.125-0.188,3.711-0.567s0.88-1.081,0.88-2.107v-0.209h6.013
	c0,0.026,0.004,0.073,0.013,0.144c0.027,0.564,0.041,0.988,0.041,1.267c0,1.244-0.156,2.27-0.471,3.078
	c-0.313,0.808-0.803,1.457-1.474,1.942c-0.634,0.47-1.48,0.806-2.536,1.005c-1.057,0.201-2.606,0.3-4.65,0.3h-6.625
	c-2.028,0-3.518-0.109-4.475-0.327c-0.957-0.217-1.773-0.585-2.452-1.108c-0.781-0.616-1.352-1.375-1.708-2.275
	c-0.357-0.898-0.536-2.036-0.536-3.409v-5.296c0-2.783,0.661-4.724,1.984-5.824c1.32-1.101,3.717-1.651,7.187-1.651h6.625
	c2.131,0,3.7,0.096,4.707,0.286c1.011,0.193,1.806,0.516,2.388,0.969c0.617,0.469,1.072,1.103,1.363,1.894
	c0.292,0.799,0.438,1.795,0.438,2.996c0,0.286-0.003,0.506-0.007,0.657c-0.006,0.153-0.015,0.3-0.031,0.438H133.242z"/>
<path fill="#FFFFFF" d="M152.971,59.942h4.944v13.736h-4.944v-2.115c-0.549,0.846-1.261,1.438-2.141,1.782
	c-0.878,0.341-2.221,0.513-4.029,0.513c-2.304,0-4.003-0.412-5.093-1.244c-1.092-0.83-1.638-2.123-1.638-3.878v-8.794h4.943v7.007
	c0,1.182,0.265,1.967,0.796,2.354c0.531,0.386,1.513,0.579,2.949,0.579c1.599,0,2.702-0.235,3.306-0.71
	c0.605-0.475,0.906-1.317,0.906-2.526V59.942z"/>
<path fill="#FFFFFF" d="M164.274,62.488c0.269-0.931,0.855-1.588,1.76-1.97c0.903-0.385,2.382-0.576,4.435-0.576
	c2.609,0,4.454,0.366,5.537,1.097c1.081,0.731,1.624,1.979,1.624,3.744v4.538c0,1.67-0.543,2.853-1.624,3.547
	c-1.083,0.697-2.955,1.045-5.615,1.045c-2.139,0-3.668-0.208-4.585-0.619c-0.917-0.412-1.428-1.103-1.531-2.069v2.454h-4.944V54.258
	h4.944V62.488z M167.326,70.131h2.242c1.147,0,1.954-0.178,2.42-0.534c0.464-0.357,0.697-0.956,0.697-1.802v-1.708
	c0-0.835-0.241-1.433-0.723-1.799c-0.483-0.367-1.281-0.55-2.395-0.55h-2.242c-1.185,0-2,0.179-2.453,0.528
	c-0.452,0.353-0.678,0.991-0.678,1.911v1.643c0,0.835,0.236,1.43,0.711,1.781C165.38,69.954,166.187,70.131,167.326,70.131z"/>
<path fill="#FFFFFF" d="M190.693,69.112h4.657v0.209c0,1.609-0.492,2.767-1.474,3.476c-0.982,0.71-2.604,1.062-4.865,1.062h-4.592
	c-2.068,0-3.649-0.431-4.739-1.296c-1.092-0.865-1.64-2.115-1.64-3.75v-3.729c0-1.72,0.548-3.04,1.64-3.951
	c1.09-0.916,2.662-1.372,4.715-1.372h4.616c2.069,0,3.647,0.456,4.735,1.363c1.086,0.909,1.628,2.229,1.628,3.96v2.934h-12.402
	c0,0.043-0.004,0.109-0.013,0.196c-0.01,0.088-0.014,0.145-0.014,0.17c0,0.793,0.229,1.357,0.685,1.702
	c0.457,0.344,1.211,0.515,2.264,0.515h2.073c1.07,0,1.766-0.104,2.087-0.313C190.376,70.079,190.59,69.687,190.693,69.112z
	 M182.973,64.99h7.617v-0.05c0-0.652-0.207-1.113-0.62-1.385c-0.412-0.271-1.132-0.404-2.157-0.404h-2.035
	c-1.026,0-1.75,0.137-2.173,0.412c-0.42,0.273-0.632,0.731-0.632,1.377V64.99z"/>
<path fill="#FFFFFF" d="M42.526,79.201v6.202h-1.45v-6.202h-1.939v-1.31h5.328v1.31H42.526z"/>
<path fill="#FFFFFF" d="M50.684,85.403V82.05c0-0.729-0.459-0.97-0.887-0.97c-0.426,0-0.876,0.252-0.876,0.97v3.354h-1.355v-7.512
	h1.355v2.523c0.365-0.379,0.825-0.57,1.304-0.57c1.19,0,1.815,0.843,1.815,2.003v3.556H50.684z"/>
<path fill="#FFFFFF" d="M56.59,83.084c0,0.704,0.428,1.222,1.19,1.222c0.594,0,0.884-0.166,1.229-0.518l0.823,0.815
	c-0.553,0.559-1.084,0.862-2.063,0.862c-1.283,0-2.515-0.59-2.515-2.813c0-1.795,0.96-2.808,2.367-2.808
	c1.512,0,2.368,1.119,2.368,2.627v0.612H56.59z M58.528,81.555c-0.145-0.326-0.446-0.569-0.906-0.569
	c-0.458,0-0.761,0.243-0.908,0.569c-0.082,0.198-0.113,0.348-0.124,0.588h2.065C58.646,81.902,58.612,81.753,58.528,81.555z"/>
<path fill="#FFFFFF" d="M72.314,84.645c-0.521,0.528-1.156,0.821-2.001,0.821c-0.846,0-1.491-0.293-2.013-0.821
	c-0.752-0.761-0.731-1.698-0.731-2.995c0-1.299-0.021-2.236,0.731-2.997c0.521-0.528,1.167-0.821,2.013-0.821
	c0.845,0,1.48,0.293,2.001,0.821c0.752,0.761,0.74,1.698,0.74,2.997C73.055,82.946,73.066,83.884,72.314,84.645z M71.241,79.537
	c-0.208-0.241-0.532-0.399-0.928-0.399c-0.396,0-0.729,0.158-0.939,0.399c-0.281,0.318-0.354,0.665-0.354,2.112
	c0,1.445,0.072,1.792,0.354,2.108c0.21,0.243,0.543,0.401,0.939,0.401c0.396,0,0.72-0.158,0.928-0.401
	c0.282-0.316,0.366-0.663,0.366-2.108C71.607,80.202,71.523,79.855,71.241,79.537z"/>
<path fill="#FFFFFF" d="M80.454,84.972c-0.303,0.307-0.793,0.494-1.325,0.494c-0.553,0-0.96-0.147-1.315-0.548v2.502H76.46v-7.512
	h1.313v0.518c0.375-0.423,0.781-0.581,1.355-0.581c0.532,0,1.022,0.191,1.325,0.496c0.542,0.549,0.553,1.487,0.553,2.312
	C81.007,83.474,80.996,84.423,80.454,84.972z M78.731,81.08c-0.813,0-0.918,0.673-0.918,1.572c0,0.896,0.104,1.58,0.918,1.58
	s0.917-0.685,0.917-1.58C79.648,81.753,79.545,81.08,78.731,81.08z"/>
<path fill="#FFFFFF" d="M85.389,83.084c0,0.704,0.429,1.222,1.189,1.222c0.595,0,0.887-0.166,1.23-0.518l0.824,0.815
	c-0.554,0.559-1.085,0.862-2.063,0.862c-1.284,0-2.515-0.59-2.515-2.813c0-1.795,0.959-2.808,2.366-2.808
	c1.513,0,2.368,1.119,2.368,2.627v0.612H85.389z M87.329,81.555c-0.146-0.326-0.449-0.569-0.908-0.569s-0.761,0.243-0.907,0.569
	c-0.082,0.198-0.115,0.348-0.125,0.588h2.065C87.443,81.902,87.412,81.753,87.329,81.555z"/>
<path fill="#FFFFFF" d="M95.226,85.403v-3.321c0-0.75-0.468-1.002-0.897-1.002c-0.427,0-0.907,0.252-0.907,1.002v3.321h-1.354
	v-5.495h1.322v0.507c0.355-0.379,0.855-0.57,1.357-0.57c0.541,0,0.979,0.178,1.282,0.485c0.438,0.442,0.553,0.959,0.553,1.562v3.512
	H95.226z"/>
<path fill="#FFFFFF" d="M106.666,85.466c-1.127,0-1.98-0.24-2.713-0.99l0.939-0.949c0.47,0.475,1.105,0.633,1.794,0.633
	c0.856,0,1.314-0.328,1.314-0.931c0-0.262-0.072-0.483-0.231-0.63c-0.144-0.138-0.311-0.211-0.655-0.265l-0.897-0.128
	c-0.636-0.093-1.105-0.293-1.438-0.623c-0.354-0.354-0.532-0.843-0.532-1.476c0-1.338,0.98-2.276,2.585-2.276
	c1.022,0,1.763,0.251,2.4,0.873l-0.918,0.92c-0.468-0.456-1.031-0.519-1.522-0.519c-0.771,0-1.148,0.432-1.148,0.952
	c0,0.188,0.063,0.388,0.22,0.535c0.146,0.137,0.387,0.254,0.688,0.297l0.876,0.126c0.68,0.093,1.105,0.284,1.419,0.581
	c0.396,0.379,0.572,0.928,0.572,1.591C109.418,84.645,108.219,85.466,106.666,85.466z"/>
<path fill="#FFFFFF" d="M116.461,84.791c-0.333,0.36-0.888,0.675-1.688,0.675c-0.804,0-1.346-0.314-1.68-0.675
	c-0.49-0.518-0.614-1.137-0.614-2.139c0-0.992,0.124-1.615,0.614-2.131c0.334-0.36,0.876-0.677,1.68-0.677
	c0.801,0,1.355,0.316,1.688,0.677c0.491,0.516,0.616,1.139,0.616,2.131C117.077,83.654,116.952,84.273,116.461,84.791z
	 M115.407,81.321c-0.155-0.159-0.364-0.241-0.635-0.241c-0.271,0-0.47,0.082-0.627,0.241c-0.28,0.286-0.312,0.761-0.312,1.331
	s0.031,1.051,0.312,1.338c0.157,0.16,0.355,0.242,0.627,0.242c0.271,0,0.479-0.082,0.635-0.242c0.282-0.287,0.314-0.768,0.314-1.338
	S115.689,81.607,115.407,81.321z"/>
<path fill="#FFFFFF" d="M123.525,85.403v-0.507c-0.356,0.382-0.855,0.569-1.356,0.569c-0.542,0-0.98-0.177-1.283-0.483
	c-0.437-0.444-0.553-0.96-0.553-1.562v-3.512h1.355v3.32c0,0.751,0.468,1.004,0.898,1.004c0.426,0,0.906-0.253,0.906-1.004v-3.32
	h1.355v5.495H123.525z"/>
<path fill="#FFFFFF" d="M131.35,81.406c-0.207-0.213-0.387-0.326-0.72-0.326c-0.417,0-0.877,0.314-0.877,1.013v3.311h-1.354v-5.495
	h1.324v0.528c0.261-0.318,0.781-0.592,1.365-0.592c0.532,0,0.908,0.137,1.283,0.517L131.35,81.406z"/>
<path fill="#FFFFFF" d="M137.007,85.466c-1.085,0-2.431-0.59-2.431-2.813c0-2.227,1.346-2.808,2.431-2.808
	c0.751,0,1.313,0.229,1.794,0.737l-0.917,0.93c-0.282-0.308-0.523-0.432-0.877-0.432c-0.324,0-0.574,0.113-0.771,0.358
	c-0.209,0.265-0.304,0.633-0.304,1.214c0,0.576,0.095,0.958,0.304,1.222c0.196,0.244,0.446,0.358,0.771,0.358
	c0.354,0,0.595-0.125,0.877-0.434l0.917,0.92C138.32,85.226,137.758,85.466,137.007,85.466z"/>
<path fill="#FFFFFF" d="M142.757,83.084c0,0.704,0.429,1.222,1.19,1.222c0.594,0,0.885-0.166,1.229-0.518l0.822,0.815
	c-0.552,0.559-1.083,0.862-2.063,0.862c-1.283,0-2.513-0.59-2.513-2.813c0-1.795,0.958-2.808,2.366-2.808
	c1.514,0,2.369,1.119,2.369,2.627v0.612H142.757z M144.696,81.555c-0.145-0.326-0.447-0.569-0.907-0.569
	c-0.459,0-0.761,0.243-0.907,0.569c-0.082,0.198-0.114,0.348-0.125,0.588h2.066C144.812,81.902,144.781,81.753,144.696,81.555z"/>
<path fill="#FFFFFF" d="M156.866,82.577h-1.428v2.826h-1.451v-7.512h2.879c1.532,0,2.451,1.067,2.451,2.343
	C159.317,81.512,158.398,82.577,156.866,82.577z M156.792,79.201h-1.354v2.057h1.354c0.657,0,1.077-0.411,1.077-1.023
	C157.869,79.624,157.449,79.201,156.792,79.201z"/>
<path fill="#FFFFFF" d="M163.419,83.084c0,0.704,0.428,1.222,1.188,1.222c0.595,0,0.887-0.166,1.232-0.518l0.822,0.815
	c-0.553,0.559-1.085,0.862-2.066,0.862c-1.281,0-2.513-0.59-2.513-2.813c0-1.795,0.96-2.808,2.369-2.808
	c1.511,0,2.366,1.119,2.366,2.627v0.612H163.419z M165.358,81.555c-0.146-0.326-0.448-0.569-0.906-0.569
	c-0.46,0-0.763,0.243-0.909,0.569c-0.082,0.198-0.114,0.348-0.124,0.588h2.064C165.474,81.902,165.441,81.753,165.358,81.555z"/>
<path fill="#FFFFFF" d="M173.849,84.791c-0.332,0.36-0.886,0.675-1.688,0.675c-0.805,0-1.346-0.314-1.679-0.675
	c-0.491-0.518-0.616-1.137-0.616-2.139c0-0.992,0.125-1.615,0.616-2.131c0.333-0.36,0.874-0.677,1.679-0.677
	c0.802,0,1.355,0.316,1.688,0.677c0.491,0.516,0.617,1.139,0.617,2.131C174.466,83.654,174.34,84.273,173.849,84.791z
	 M172.796,81.321c-0.155-0.159-0.364-0.241-0.635-0.241c-0.272,0-0.469,0.082-0.628,0.241c-0.28,0.286-0.311,0.761-0.311,1.331
	s0.03,1.051,0.311,1.338c0.159,0.16,0.355,0.242,0.628,0.242c0.271,0,0.479-0.082,0.635-0.242c0.282-0.287,0.313-0.768,0.313-1.338
	S173.078,81.607,172.796,81.321z"/>
<path fill="#FFFFFF" d="M181.78,84.972c-0.303,0.307-0.793,0.494-1.324,0.494c-0.554,0-0.96-0.147-1.315-0.548v2.502h-1.354v-7.512
	h1.314v0.518c0.375-0.423,0.781-0.581,1.355-0.581c0.531,0,1.021,0.191,1.324,0.496c0.543,0.549,0.553,1.487,0.553,2.312
	C182.333,83.474,182.323,84.423,181.78,84.972z M180.06,81.08c-0.813,0-0.919,0.673-0.919,1.572c0,0.896,0.105,1.58,0.919,1.58
	s0.918-0.685,0.918-1.58C180.978,81.753,180.873,81.08,180.06,81.08z"/>
<path fill="#FFFFFF" d="M187.186,85.403c-1.116,0-1.585-0.789-1.585-1.572v-5.939h1.356v5.855c0,0.327,0.135,0.498,0.479,0.498
	h0.521v1.158H187.186z"/>
<path fill="#FFFFFF" d="M191.873,83.084c0,0.704,0.429,1.222,1.189,1.222c0.595,0,0.886-0.166,1.23-0.518l0.822,0.815
	c-0.552,0.559-1.083,0.862-2.064,0.862c-1.281,0-2.512-0.59-2.512-2.813c0-1.795,0.958-2.808,2.366-2.808
	c1.513,0,2.367,1.119,2.367,2.627v0.612H191.873z M193.812,81.555c-0.144-0.326-0.446-0.569-0.906-0.569
	c-0.459,0-0.761,0.243-0.907,0.569c-0.082,0.198-0.114,0.348-0.125,0.588h2.066C193.929,81.902,193.896,81.753,193.812,81.555z"/>
</svg>
