<?xml version="1.0" encoding="utf-8"?>
<!-- Generator: Adobe Illustrator 15.0.2, SVG Export Plug-In  -->
<!DOCTYPE svg PUBLIC "-//W3C//DTD SVG 1.1//EN" "http://www.w3.org/Graphics/SVG/1.1/DTD/svg11.dtd" [
	<!ENTITY ns_flows "http://ns.adobe.com/Flows/1.0/">
]>
<svg version="1.1"
	 xmlns="http://www.w3.org/2000/svg" xmlns:xlink="http://www.w3.org/1999/xlink" xmlns:a="http://ns.adobe.com/AdobeSVGViewerExtensions/3.0/"
	 x="0px" y="0px" width="200px" height="140px" viewBox="46.927 4.667 200 140"
	 overflow="visible" enable-background="new 46.927 4.667 200 140" xml:space="preserve">
<defs>
</defs>
<rect display="none" fill="#3FA9F5" width="328.249" height="146.755"/>
<path display="none" fill="#FFFFFF" d="M85.108,85.374h-6.682v16.792h4.365v-5.571h2.474c3.81,0,5.945-1.735,5.945-5.697
	C91.21,87.042,88.718,85.374,85.108,85.374z M83.528,93.079h-0.736v-4.188h0.736c1.692,0,3.136,0.022,3.136,2.14
	C86.664,93.079,85.108,93.079,83.528,93.079z M170.132,95.574h4.921v-3.7h-4.921v-2.802h6.646v-3.698h-11.009v16.792h11.009
	l0.026-3.696h-6.672V95.574z M130.989,89.072h4.22v13.094h4.366V89.072h4.22v-3.698h-12.806V89.072z M97.701,85.374l-6.459,16.792
	h4.633l1.158-2.918h6.009l1.094,2.918h4.652l-6.325-16.792H97.701z M98.233,95.906l1.808-5.343h0.042l1.784,5.343H98.233z
	 M187.854,85.039c-4.787,0-8.665,3.878-8.665,8.662c0,4.788,3.878,8.666,8.665,8.666c4.785,0,8.661-3.878,8.661-8.666
	C196.515,88.917,192.639,85.039,187.854,85.039z M187.854,98.105c-2.43,0-4.406-1.974-4.406-4.404c0-2.432,1.977-4.401,4.406-4.401
	c2.433,0,4.4,1.97,4.4,4.401C192.254,96.131,190.287,98.105,187.854,98.105z M211.063,85.374v10.268l-0.047-0.921l-7.074-9.347
	h-4.366v16.792h4.366V91.874l0.046,0.611l7.075,9.681h4.365V85.374H211.063z M157.911,91.852h-6.306v-6.479h-4.366v16.792h4.366
	v-6.881h6.306v6.881h4.366V85.374h-4.366V91.852z M123.197,95.641l-0.046-0.921l-7.075-9.347h-4.366v16.792h4.366V91.874
	l0.045,0.611l7.076,9.681h4.366V85.374h-4.366V95.641z"/>
<path display="none" fill="#FFFFFF" d="M137.788,23.63l5.196,12.346h-6.613l2.187,5.202h13.41L137.788,23.63z M155.333,67.859
	l-2.189-5.207h-3.07l-0.063-0.156l-4.248-10.084h-2.475l4.31,10.24h-7.86l14.178,17.552l-5.197-12.345H155.333z"/>
<path display="none" fill="#FFFFFF" d="M157.304,46.301c0.162,0,0.537-0.205,0.537-2.066c0-1.866-0.375-2.065-0.537-2.065h-9.219
	l1.738,4.132H157.304z"/>
<path display="none" fill="#FFFFFF" d="M158.068,52.412h-11.23l1.74,4.127h9.49c0.162,0,0.543-0.201,0.543-2.061
	C158.611,52.611,158.23,52.412,158.068,52.412z"/>
<path display="none" fill="#FFFFFF" d="M157.304,57.529h-8.311l1.74,4.133h6.57c0.162,0,0.537-0.206,0.537-2.066
	S157.466,57.529,157.304,57.529z"/>
<path display="none" fill="#FFFFFF" d="M146.419,51.419h4.485l-3.894-9.25h-9.702c-0.742,0-1.151,0-1.485,1.075
	c-0.397,1.287-0.579,3.956-0.579,8.67c0,4.717,0.181,7.385,0.579,8.673c0.334,1.074,0.743,1.074,1.485,1.074h8.796l-4.312-10.246
	h3.553l-2.153-5.114h1.076L146.419,51.419z"/>
<path display="none" fill="#FFFFFF" d="M158.068,47.293h-7.827l1.739,4.126h6.088c0.162,0,0.543-0.199,0.543-2.066
	C158.611,47.494,158.23,47.293,158.068,47.293z"/>
<path fill="#FFFFFF" d="M54.748,43.304l5.761,13.688h-7.332l2.425,5.768H70.47L54.748,43.304z M74.201,92.34l-2.427-5.772h-3.405
	l-0.069-0.173l-4.71-11.18h-2.744l4.779,11.353H56.91l15.718,19.461L66.867,92.34H74.201z"/>
<path fill="#FFFFFF" d="M76.385,68.44c0.181,0,0.596-0.228,0.596-2.291c0-2.069-0.416-2.29-0.596-2.29h-10.22l1.928,4.581H76.385z
	 M77.233,75.215H64.782l1.928,4.576h10.523c0.181,0,0.603-0.224,0.603-2.286C77.835,75.435,77.414,75.215,77.233,75.215z
	 M97.437,65.352h-7.409V83.97h4.84v-6.178h2.743c4.223,0,6.59-1.925,6.59-6.316C104.202,67.202,101.439,65.352,97.437,65.352z
	 M95.684,73.894h-0.816v-4.642h0.816c1.876,0,3.478,0.025,3.478,2.373C99.162,73.894,97.437,73.894,95.684,73.894z M76.385,80.888
	h-9.213L69.1,85.47h7.285c0.181,0,0.596-0.229,0.596-2.291C76.981,81.116,76.565,80.888,76.385,80.888z M64.317,74.115h4.973
	l-4.317-10.256H54.215c-0.823,0-1.276,0-1.647,1.191c-0.44,1.428-0.641,4.388-0.641,9.613c0,5.229,0.201,8.188,0.641,9.615
	c0.371,1.191,0.824,1.191,1.647,1.191h9.752l-4.781-11.36h3.938l-2.387-5.67h1.194L64.317,74.115z M77.233,69.54h-8.678l1.929,4.575
	h6.749c0.181,0,0.603-0.222,0.603-2.292C77.835,69.761,77.414,69.54,77.233,69.54z M191.707,76.661h5.456v-4.102h-5.456v-3.106
	h7.368v-4.101h-12.207V83.97h12.207l0.028-4.1h-7.396V76.661z M148.307,69.453h4.679V83.97h4.841V69.453h4.678v-4.101h-14.197
	V69.453z M111.399,65.352l-7.162,18.618h5.137l1.284-3.235h6.663l1.213,3.235h5.158l-7.013-18.618H111.399z M111.989,77.03
	l2.004-5.924h0.046l1.979,5.924H111.989z M211.355,64.981c-5.308,0-9.607,4.3-9.607,9.604c0,5.309,4.3,9.608,9.607,9.608
	c5.306,0,9.603-4.3,9.603-9.608C220.958,69.281,216.661,64.981,211.355,64.981z M211.355,79.468c-2.694,0-4.886-2.189-4.886-4.884
	c0-2.696,2.191-4.879,4.886-4.879c2.696,0,4.878,2.183,4.878,4.879C216.233,77.279,214.051,79.468,211.355,79.468z M237.086,65.352
	v11.384l-0.051-1.021l-7.845-10.362h-4.84V83.97h4.84V72.559l0.052,0.678l7.844,10.733h4.841V65.352H237.086z M178.156,72.536
	h-6.991v-7.184h-4.841V83.97h4.841v-7.629h6.991v7.629h4.84V65.352h-4.84V72.536z M139.667,76.736l-0.051-1.021l-7.844-10.362h-4.84
	V83.97h4.84V72.559l0.05,0.678l7.845,10.733h4.84V65.352h-4.84V76.736z"/>
</svg>
