<?xml version="1.0" encoding="utf-8"?>
<!-- Generator: Adobe Illustrator 15.0.2, SVG Export Plug-In  -->
<!DOCTYPE svg PUBLIC "-//W3C//DTD SVG 1.1//EN" "http://www.w3.org/Graphics/SVG/1.1/DTD/svg11.dtd" [
	<!ENTITY ns_flows "http://ns.adobe.com/Flows/1.0/">
]>
<svg version="1.1"
	 xmlns="http://www.w3.org/2000/svg" xmlns:xlink="http://www.w3.org/1999/xlink" xmlns:a="http://ns.adobe.com/AdobeSVGViewerExtensions/3.0/"
	 x="0px" y="0px" width="140px" height="140px" viewBox="76.927 4.667 140 140"
	 overflow="visible" enable-background="new 76.927 4.667 140 140" xml:space="preserve">
<defs>
</defs>
<rect display="none" fill="#3FA9F5" width="328.249" height="146.755"/>
<path fill="#FFFFFF" d="M79.976,51.888l4.185,9.942h-5.325l1.761,4.189h10.799L79.976,51.888z M94.104,87.504l-1.763-4.193h-2.473
	l-0.05-0.125l-3.421-8.121h-1.993l3.471,8.246h-6.33l11.417,14.135l-4.185-9.941H94.104z"/>
<path fill="#FFFFFF" d="M95.691,70.145c0.131,0,0.433-0.165,0.433-1.664c0-1.503-0.302-1.663-0.433-1.663h-7.423l1.4,3.327H95.691z
	 M96.307,75.065h-9.043l1.4,3.324h7.644c0.131,0,0.438-0.162,0.438-1.66C96.745,75.226,96.438,75.065,96.307,75.065z
	 M110.981,67.902h-5.381v13.522h3.515v-4.486h1.992c3.068,0,4.787-1.398,4.787-4.588C115.895,69.245,113.888,67.902,110.981,67.902z
	 M109.708,74.106h-0.593v-3.372h0.593c1.363,0,2.526,0.019,2.526,1.724C112.234,74.106,110.981,74.106,109.708,74.106z
	 M95.691,79.186h-6.692l1.401,3.328h5.291c0.131,0,0.433-0.166,0.433-1.664S95.822,79.186,95.691,79.186z M86.926,74.267h3.612
	l-3.136-7.449h-7.813c-0.598,0-0.927,0-1.196,0.866c-0.32,1.036-0.466,3.186-0.466,6.982c0,3.798,0.146,5.947,0.466,6.984
	c0.269,0.865,0.599,0.865,1.196,0.865h7.083L83.2,74.263h2.861l-1.734-4.118h0.867L86.926,74.267z M96.307,70.943h-6.303
	l1.401,3.323h4.902c0.131,0,0.438-0.161,0.438-1.665C96.745,71.104,96.438,70.943,96.307,70.943z M179.451,76.116h3.963v-2.979
	h-3.963V70.88h5.352v-2.978h-8.865v13.522h8.865l0.021-2.977h-5.373V76.116z M147.929,70.88h3.398v10.544h3.516V70.88h3.398v-2.978
	h-10.312V70.88z M121.122,67.902l-5.202,13.522h3.731l0.933-2.35h4.839l0.881,2.35h3.746l-5.093-13.522H121.122z M121.551,76.383
	l1.456-4.302h0.033l1.437,4.302H121.551z M193.722,67.632c-3.855,0-6.979,3.123-6.979,6.975c0,3.856,3.123,6.979,6.979,6.979
	c3.854,0,6.975-3.123,6.975-6.979C200.697,70.755,197.576,67.632,193.722,67.632z M193.722,78.155c-1.957,0-3.549-1.59-3.549-3.547
	c0-1.958,1.592-3.544,3.549-3.544c1.959,0,3.543,1.586,3.543,3.544C197.265,76.565,195.681,78.155,193.722,78.155z M212.412,67.902
	v8.269l-0.037-0.742l-5.697-7.527h-3.516v13.522h3.516v-8.288l0.037,0.492l5.697,7.795h3.516V67.902H212.412z M169.609,73.119
	h-5.078v-5.217h-3.516v13.522h3.516v-5.541h5.078v5.541h3.516V67.902h-3.516V73.119z M141.654,76.17l-0.037-0.742l-5.697-7.527
	h-3.516v13.522h3.516v-8.288l0.036,0.492l5.698,7.795h3.516V67.902h-3.516V76.17z"/>
</svg>
