<?xml version="1.0" encoding="utf-8"?>
<!-- Generator: Adobe Illustrator 15.0.2, SVG Export Plug-In  -->
<!DOCTYPE svg PUBLIC "-//W3C//DTD SVG 1.1//EN" "http://www.w3.org/Graphics/SVG/1.1/DTD/svg11.dtd" [
	<!ENTITY ns_flows "http://ns.adobe.com/Flows/1.0/">
]>
<svg version="1.1"
	 xmlns="http://www.w3.org/2000/svg" xmlns:xlink="http://www.w3.org/1999/xlink" xmlns:a="http://ns.adobe.com/AdobeSVGViewerExtensions/3.0/"
	 x="0px" y="0px" width="140px" height="140px" viewBox="0 0 140 140" overflow="visible" enable-background="new 0 0 140 140"
	 xml:space="preserve">
<defs>
</defs>
<rect display="none" fill="#04213E" width="140" height="140"/>
<path fill="#FFFFFF" d="M56.783,68.888l3.069-15.449h4.41c1.457,0,2.529,0.283,3.22,0.85c0.689,0.568,1.034,1.342,1.034,2.323
	c0,0.981-0.319,1.977-0.959,2.986c-0.64,1.009-1.504,1.78-2.592,2.312c-1.088,0.532-2.258,0.798-3.51,0.798h-1.262l-1.228,6.18
	H56.783z M60.518,61.069h0.991c1.557,0,2.731-0.456,3.523-1.367c0.792-0.912,1.188-1.879,1.188-2.902
	c0-0.724-0.266-1.192-0.799-1.404c-0.533-0.212-1.335-0.318-2.408-0.318h-1.305L60.518,61.069z"/>
<path fill="#FFFFFF" d="M72.683,69.235c-1.259,0-2.197-0.366-2.812-1.098c-0.616-0.731-0.924-1.64-0.924-2.727
	c0-1.344,0.322-2.674,0.966-3.991c0.644-1.317,1.452-2.319,2.421-3.009c0.972-0.69,2.107-1.034,3.409-1.034
	c1.308,0,2.263,0.367,2.864,1.102c0.603,0.735,0.903,1.639,0.903,2.711c0,1.337-0.317,2.659-0.955,3.965
	c-0.637,1.306-1.436,2.312-2.396,3.02C75.199,68.881,74.04,69.235,72.683,69.235z M73.143,67.69c1.154,0,2.141-0.629,2.955-1.887
	c0.812-1.258,1.22-2.649,1.22-4.175c0-0.906-0.172-1.583-0.516-2.033c-0.345-0.449-0.861-0.674-1.551-0.674
	c-1.106,0-2.068,0.624-2.886,1.871c-0.818,1.247-1.227,2.641-1.227,4.18c0,0.892,0.173,1.568,0.516,2.028
	C71.999,67.459,72.495,67.69,73.143,67.69z"/>
<path fill="#FFFFFF" d="M81.229,68.973l3.274-16.482h2.074l-3.284,16.482H81.229z"/>
<path fill="#FFFFFF" d="M87.488,73.097l2.588-4.133l-1.889-11.327h2.107l1.452,8.714l5.419-8.714h1.973l-9.677,15.459H87.488z"/>
<path fill="#FFFFFF" d="M106.93,68.029c-1.573,0.689-2.969,1.034-4.187,1.034c-1.189,0-2.104-0.347-2.739-1.04
	c-0.638-0.693-0.955-1.677-0.955-2.952c0-1.352,0.331-2.629,0.996-3.834c0.664-1.205,1.547-2.178,2.646-2.92
	c1.099-0.742,2.234-1.113,3.402-1.113c0.794,0,1.677,0.125,2.652,0.376l-0.334,1.649c-0.822-0.32-1.607-0.48-2.359-0.48
	c-0.843,0-1.623,0.254-2.344,0.763c-0.721,0.509-1.312,1.272-1.774,2.289c-0.463,1.017-0.695,2.066-0.695,3.146
	c0,0.85,0.202,1.461,0.606,1.834c0.403,0.372,0.901,0.559,1.492,0.559c0.293,0,0.649-0.048,1.07-0.146
	c0.421-0.097,0.875-0.229,1.362-0.396s1.009-0.411,1.565-0.731L106.93,68.029z"/>
<path fill="#FFFFFF" d="M113.465,69.063c-1.259,0-2.197-0.366-2.812-1.097c-0.616-0.731-0.925-1.64-0.925-2.727
	c0-1.344,0.322-2.674,0.966-3.991s1.451-2.319,2.422-3.009c0.971-0.689,2.107-1.034,3.408-1.034c1.309,0,2.264,0.368,2.865,1.102
	c0.603,0.735,0.903,1.639,0.903,2.711c0,1.337-0.319,2.659-0.955,3.965c-0.637,1.306-1.436,2.312-2.396,3.02
	C115.981,68.709,114.822,69.063,113.465,69.063z M113.925,67.518c1.154,0,2.139-0.629,2.953-1.886
	c0.814-1.258,1.222-2.65,1.222-4.175c0-0.906-0.172-1.583-0.517-2.033s-0.86-0.674-1.55-0.674c-1.106,0-2.069,0.624-2.886,1.871
	c-0.818,1.247-1.228,2.641-1.228,4.18c0,0.892,0.172,1.568,0.517,2.028C112.781,67.288,113.277,67.518,113.925,67.518z"/>
<path fill="#FFFFFF" d="M127.666,68.854c-0.49,0.139-0.943,0.209-1.36,0.209c-0.971,0-1.717-0.226-2.236-0.679
	c-0.519-0.453-0.778-1.027-0.778-1.723c0-0.445,0.062-0.991,0.188-1.639l1.196-6.013h-1.696l0.303-1.545h1.7l0.408-2.056l2.109-0.25
	l-0.458,2.307h2.89l-0.332,1.545h-2.863l-1.236,6.235c-0.118,0.576-0.178,0.957-0.178,1.141c0,0.295,0.103,0.558,0.308,0.787
	s0.577,0.345,1.115,0.345c0.36,0,0.769-0.069,1.225-0.209L127.666,68.854z"/>
<path fill="#FFFFFF" d="M67.488,85.201l5.892-10.237h1.451l1.981,10.237h-1.467l-0.529-2.636h-4.401l-1.502,2.636H67.488z
	 M71.035,81.479h3.583l-0.949-4.621L71.035,81.479z"/>
<path fill="#FFFFFF" d="M78.106,84.885l0.228-1.148c0.945,0.466,1.734,0.699,2.365,0.699c0.384,0,0.683-0.09,0.899-0.27
	c0.217-0.181,0.325-0.414,0.325-0.7c0-0.18-0.044-0.343-0.132-0.488s-0.255-0.347-0.505-0.606l-0.629-0.644
	c-0.53-0.544-0.864-0.959-1.003-1.242c-0.138-0.284-0.208-0.562-0.208-0.834c0-0.48,0.213-0.942,0.637-1.385s1.074-0.665,1.95-0.665
	c0.263,0,0.533,0.02,0.812,0.059s0.71,0.165,1.29,0.377l-0.228,1.148c-0.567-0.268-0.976-0.428-1.225-0.48
	c-0.25-0.053-0.489-0.08-0.72-0.08c-0.396,0-0.688,0.086-0.875,0.259c-0.187,0.173-0.279,0.38-0.279,0.62
	c0,0.157,0.041,0.31,0.124,0.457c0.082,0.148,0.29,0.39,0.622,0.728l0.685,0.692c0.379,0.383,0.647,0.723,0.806,1.018
	c0.16,0.295,0.239,0.616,0.239,0.962c0,0.624-0.242,1.129-0.726,1.517c-0.484,0.388-1.142,0.582-1.972,0.582
	c-0.24,0-0.49-0.02-0.751-0.059c-0.26-0.04-0.51-0.092-0.75-0.159C78.849,85.175,78.521,85.056,78.106,84.885z"/>
<path fill="#FFFFFF" d="M85.06,84.885l0.229-1.148c0.945,0.466,1.733,0.699,2.365,0.699c0.383,0,0.683-0.09,0.9-0.27
	c0.216-0.181,0.324-0.414,0.324-0.7c0-0.18-0.044-0.343-0.131-0.488c-0.088-0.146-0.256-0.347-0.506-0.606l-0.629-0.644
	c-0.531-0.544-0.865-0.959-1.003-1.242c-0.138-0.284-0.207-0.562-0.207-0.834c0-0.48,0.211-0.942,0.636-1.385
	s1.074-0.665,1.95-0.665c0.263,0,0.534,0.02,0.812,0.059c0.28,0.039,0.71,0.165,1.291,0.377l-0.229,1.148
	c-0.567-0.268-0.976-0.428-1.224-0.48c-0.25-0.053-0.489-0.08-0.721-0.08c-0.396,0-0.688,0.086-0.874,0.259
	c-0.187,0.173-0.281,0.38-0.281,0.62c0,0.157,0.043,0.31,0.125,0.457c0.083,0.148,0.291,0.39,0.623,0.728l0.685,0.692
	c0.378,0.383,0.646,0.723,0.806,1.018s0.239,0.616,0.239,0.962c0,0.624-0.243,1.129-0.727,1.517
	c-0.484,0.388-1.142,0.582-1.972,0.582c-0.24,0-0.49-0.02-0.75-0.059c-0.261-0.04-0.512-0.092-0.751-0.159
	C85.802,85.175,85.475,85.056,85.06,84.885z"/>
<path fill="#FFFFFF" d="M132.968,84.885l0.229-1.148c0.945,0.466,1.733,0.699,2.365,0.699c0.383,0,0.683-0.09,0.9-0.27
	c0.215-0.181,0.324-0.414,0.324-0.7c0-0.18-0.044-0.343-0.131-0.488c-0.088-0.146-0.257-0.347-0.506-0.606l-0.629-0.644
	c-0.531-0.544-0.865-0.959-1.004-1.242c-0.138-0.284-0.206-0.562-0.206-0.834c0-0.48,0.211-0.942,0.636-1.385
	c0.424-0.443,1.074-0.665,1.95-0.665c0.263,0,0.534,0.02,0.812,0.059c0.279,0.039,0.71,0.165,1.291,0.377l-0.229,1.148
	c-0.567-0.268-0.976-0.428-1.225-0.48c-0.249-0.053-0.488-0.08-0.72-0.08c-0.396,0-0.688,0.086-0.875,0.259
	c-0.186,0.173-0.28,0.38-0.28,0.62c0,0.157,0.042,0.31,0.125,0.457c0.083,0.148,0.29,0.39,0.622,0.728l0.686,0.692
	c0.378,0.383,0.646,0.723,0.806,1.018s0.239,0.616,0.239,0.962c0,0.624-0.243,1.129-0.728,1.517s-1.141,0.582-1.971,0.582
	c-0.24,0-0.49-0.02-0.75-0.059c-0.261-0.04-0.512-0.092-0.751-0.159C133.71,85.175,133.383,85.056,132.968,84.885z"/>
<path fill="#FFFFFF" d="M94.699,85.545c-0.834,0-1.456-0.243-1.864-0.728c-0.408-0.484-0.612-1.087-0.612-1.807
	c0-0.891,0.214-1.772,0.641-2.645c0.426-0.872,0.961-1.537,1.604-1.994c0.643-0.457,1.396-0.685,2.258-0.685
	c0.867,0,1.5,0.244,1.899,0.73c0.398,0.487,0.598,1.086,0.598,1.797c0,0.886-0.211,1.762-0.632,2.627
	c-0.423,0.865-0.951,1.532-1.588,2C96.366,85.311,95.599,85.545,94.699,85.545z M95.004,84.521c0.766,0,1.418-0.417,1.958-1.25
	c0.539-0.833,0.809-1.756,0.809-2.767c0-0.6-0.113-1.049-0.342-1.348c-0.229-0.297-0.571-0.446-1.027-0.446
	c-0.733,0-1.372,0.413-1.912,1.24c-0.542,0.826-0.813,1.75-0.813,2.77c0,0.591,0.114,1.039,0.343,1.344
	C94.246,84.369,94.574,84.521,95.004,84.521z"/>
<path fill="#FFFFFF" d="M105.207,84.86c-1.042,0.457-1.967,0.685-2.773,0.685c-0.789,0-1.395-0.23-1.815-0.689
	c-0.422-0.459-0.633-1.111-0.633-1.956c0-0.895,0.22-1.742,0.66-2.541c0.44-0.798,1.024-1.443,1.753-1.935
	c0.729-0.492,1.48-0.737,2.256-0.737c0.525,0,1.11,0.083,1.757,0.249l-0.222,1.093c-0.544-0.212-1.064-0.318-1.563-0.318
	c-0.558,0-1.075,0.168-1.553,0.505s-0.869,0.842-1.176,1.517s-0.461,1.37-0.461,2.085c0,0.563,0.134,0.968,0.401,1.215
	s0.599,0.371,0.99,0.371c0.193,0,0.43-0.032,0.708-0.097c0.279-0.064,0.581-0.152,0.903-0.263s0.669-0.272,1.037-0.484
	L105.207,84.86z"/>
<path fill="#FFFFFF" d="M107.537,85.244l1.493-7.512h1.374l-1.499,7.512H107.537z M109.302,76.369l0.276-1.363h1.369l-0.27,1.363
	H109.302z"/>
<path fill="#FFFFFF" d="M116.176,85.373l0.608-3.072c-0.58,0.978-1.216,1.763-1.911,2.355c-0.694,0.592-1.343,0.889-1.945,0.889
	c-0.438,0-0.785-0.187-1.046-0.561c-0.26-0.374-0.39-0.791-0.39-1.252c0-0.917,0.257-1.879,0.77-2.884
	c0.513-1.005,1.143-1.783,1.888-2.334c0.745-0.551,1.541-0.826,2.388-0.826c0.161,0,0.336,0.013,0.524,0.042
	c0.188,0.027,0.389,0.071,0.601,0.131h1.366l-1.485,7.512H116.176z M117.107,80.675l0.348-1.743
	c-0.166-0.088-0.336-0.154-0.512-0.197c-0.174-0.044-0.355-0.066-0.544-0.066c-0.52,0-1.048,0.217-1.586,0.65
	c-0.537,0.433-0.984,1.065-1.337,1.895c-0.354,0.83-0.531,1.582-0.531,2.255c0,0.212,0.047,0.39,0.142,0.532
	c0.094,0.143,0.235,0.215,0.424,0.215C114.192,84.217,115.391,83.037,117.107,80.675z"/>
<path fill="#FFFFFF" d="M123.863,85.407c-0.325,0.092-0.624,0.138-0.9,0.138c-0.645,0-1.138-0.15-1.482-0.45
	c-0.344-0.3-0.516-0.68-0.516-1.142c0-0.295,0.041-0.657,0.124-1.086l0.792-3.984h-1.123l0.2-1.023h1.126l0.271-1.363l1.396-0.166
	l-0.302,1.529h1.914l-0.22,1.023h-1.897l-0.819,4.132c-0.079,0.381-0.117,0.634-0.117,0.756c0,0.195,0.067,0.369,0.203,0.522
	c0.137,0.152,0.382,0.228,0.739,0.228c0.238,0,0.509-0.046,0.812-0.138L123.863,85.407z"/>
<path fill="#FFFFFF" d="M131.451,84.618c-1.189,0.618-2.311,0.927-3.361,0.927c-0.788,0-1.398-0.231-1.83-0.693
	c-0.432-0.461-0.646-1.089-0.646-1.883c0-0.863,0.198-1.699,0.595-2.506s0.935-1.472,1.615-1.994
	c0.681-0.522,1.419-0.782,2.217-0.782c0.554,0,0.978,0.131,1.272,0.395c0.296,0.263,0.442,0.633,0.442,1.108
	c0,0.568-0.181,1.091-0.543,1.569c-0.361,0.478-0.901,0.883-1.618,1.216c-0.717,0.333-1.588,0.54-2.611,0.623
	c0,0.641,0.14,1.112,0.419,1.411c0.278,0.3,0.642,0.45,1.09,0.45c0.354,0,0.831-0.093,1.428-0.28
	c0.598-0.186,1.195-0.479,1.795-0.875L131.451,84.618z M127.106,81.574c0.826-0.078,1.459-0.211,1.899-0.401
	c0.44-0.189,0.789-0.442,1.045-0.757c0.256-0.316,0.384-0.619,0.384-0.91c0-0.185-0.075-0.356-0.226-0.515
	c-0.149-0.159-0.343-0.239-0.577-0.239c-0.317,0-0.637,0.102-0.955,0.304c-0.258,0.161-0.496,0.374-0.712,0.636
	c-0.176,0.208-0.329,0.435-0.463,0.682C127.368,80.622,127.235,81.021,127.106,81.574z"/>
<path fill="#FFFFFF" d="M15.553,55.58c0,0,7.212-0.086,7.985,3.177c0.772,3.262-0.344,6.869-0.344,6.869S16.54,64.337,15.553,55.58z
	"/>
<path fill="#FFFFFF" d="M39.979,60.345c0,0,0.472,11.848-10.174,7.212c0,0-0.043-2.833,3.606-5.108c0,0,1.374-1.374,3.692-1.975
	C37.103,60.474,39.55,60.388,39.979,60.345z"/>
<path fill="#FFFFFF" d="M34.312,84.642c0,0,0-6.353-4.55-9.572c0,0-3.091-1.932-3.477,0.558c0,0-1.76,6.182,2.833,7.985
	C29.119,83.612,29.891,84.042,34.312,84.642z"/>
<path fill="#FFFFFF" d="M9.586,79.706c0,0,0.043-11.547,9.444-7.512c0,0,0.687,0.3,0.987,0.343
	C20.018,72.537,19.288,79.147,9.586,79.706z"/>
<path fill="#FFFFFF" d="M8.813,52.918c0,0,4.937-2.575,17.772-2.79c0,0,13.05,0.343,13.608,0.858v7.083
	c0,0-4.937-0.944-10.303,4.422c0,0-2.919,3.09-2.791,6.268c0,0,5.065,3.606,9.917,1.76c4.851-1.847,5.366-9.96,5.409-10.475
	c0.042-0.515,0.558-8.156,0.214-8.758c0,0,5.795-0.773,6.783,4.808c0,0-1.91,22.58-6.675,28.697l-6.117,0.064
	c-0.515-5.066-2.232-7.169-2.232-7.169s-3.262-5.323-6.354-5.795c-3.091-0.472-2.619-0.558-4.121,4.079
	c-1.503,4.636,0.214,8.328,5.108,10.174c0,0,2.275,1.159,11.978,1.202c0,0-6.396,3.691-31.424,2.146l-0.043-7.426
	c0,0,11.161,0.085,13.05-10.518c0,0-7.126-5.538-12.449-0.215c0,0-2.104,2.447-2.618,5.495c0,0-0.602,4.165-0.43,12.106
	c0,0-5.538-0.257-5.967-2.833c0,0-1.545-17.858,6.053-30.951l6.01,0.085c0,0-1.245,2.576,2.576,8.5
	c3.82,5.924,8.157,4.765,8.157,4.765s1.374-1.588,2.49-6.654c0,0,0.644-4.808-4.035-7.169S8.813,53.09,8.813,52.918z"/>
</svg>
