<?xml version="1.0" encoding="utf-8"?>
<!-- Generator: Adobe Illustrator 15.0.2, SVG Export Plug-In  -->
<!DOCTYPE svg PUBLIC "-//W3C//DTD SVG 1.1//EN" "http://www.w3.org/Graphics/SVG/1.1/DTD/svg11.dtd" [
	<!ENTITY ns_flows "http://ns.adobe.com/Flows/1.0/">
]>
<svg version="1.1"
	 xmlns="http://www.w3.org/2000/svg" xmlns:xlink="http://www.w3.org/1999/xlink" xmlns:a="http://ns.adobe.com/AdobeSVGViewerExtensions/3.0/"
	 x="0px" y="0px" width="140px" height="140px" viewBox="0 0 140 140" overflow="visible" enable-background="new 0 0 140 140"
	 xml:space="preserve">
<defs>
</defs>
<rect display="none" width="140" height="140"/>
<path display="none" fill="#58595B" d="M96.667,48.169c0,14.729-11.939,26.667-26.666,26.667c-14.729,0-26.668-11.938-26.668-26.667
	c0-14.728,11.939-26.667,26.668-26.667C84.728,21.502,96.667,33.441,96.667,48.169"/>
<path display="none" fill="#FFFFFF" d="M81.769,42.572c-0.383-4.259,1.027-5.947,5.814-6.964c4.789-1.015,6.103-4.216,6.103-4.216
	l-4.898-4.09l-1.689-1.408l-4.898-4.09c0,0-2.912,1.863-3.06,6.756c-0.143,4.893-1.554,6.582-5.814,6.965
	c-4.258,0.383-11.271-1.174-17.507,5.437c2.186,1.826,8.095,6.759,11.017,9.2c1.027,0.856,1.689,1.409,1.689,1.409
	c2.925,2.44,8.831,7.373,11.018,9.198C84.936,53.453,82.152,46.832,81.769,42.572"/>
<polygon display="none" fill="#FFFFFF" points="53.244,69.352 52.07,68.371 61.932,53.592 66.027,57.01 "/>
<path display="none" fill="#58595B" d="M70.001,81.836c-18.564,0-33.668-15.104-33.668-33.667c0-18.562,15.104-33.667,33.668-33.667
	c18.563,0,33.666,15.104,33.666,33.667C103.667,66.732,88.564,81.836,70.001,81.836 M70.001,16.502
	c-17.462,0-31.668,14.205-31.668,31.667s14.206,31.667,31.668,31.667c17.461,0,31.666-14.205,31.666-31.667
	S87.462,16.502,70.001,16.502"/>
<path display="none" fill="#58595B" d="M37.51,102.464h-2.219v3.9h1.387v0.867h-3.676v-0.867h1.041V95.442h-1.041v-0.867h4.508
	c1.63,0,2.693,0.41,3.19,1.231c0.243,0.404,0.404,0.809,0.485,1.213c0.081,0.405,0.121,0.873,0.121,1.404
	c0,0.532-0.02,0.966-0.061,1.301c-0.04,0.335-0.136,0.688-0.286,1.058s-0.358,0.67-0.624,0.901
	C39.712,102.204,38.77,102.464,37.51,102.464z M35.291,101.44h2.219c1.099,0,1.814-0.288,2.15-0.866
	c0.161-0.289,0.269-0.584,0.32-0.885c0.052-0.3,0.078-0.688,0.078-1.161s-0.026-0.864-0.078-1.171
	c-0.052-0.306-0.159-0.609-0.32-0.91c-0.336-0.565-1.052-0.85-2.15-0.85h-2.219V101.44z"/>
<path display="none" fill="#58595B" d="M43.127,95.442v-0.867h3.329v0.867h-1.04v7.61c0,1.445,0.341,2.388,1.022,2.826
	c0.323,0.208,0.656,0.35,0.997,0.425s0.751,0.113,1.23,0.113s0.891-0.038,1.231-0.113s0.679-0.217,1.014-0.425
	c0.683-0.438,1.023-1.381,1.023-2.826v-7.61h-1.04v-0.867h3.328v0.867h-1.04v7.61c0,1.48-0.307,2.572-0.919,3.277
	c-0.254,0.312-0.592,0.558-1.014,0.736c-0.423,0.18-0.827,0.292-1.214,0.339c-0.388,0.046-0.847,0.069-1.378,0.069
	c-0.532,0-0.988-0.023-1.37-0.069c-0.382-0.047-0.78-0.159-1.196-0.339c-0.416-0.179-0.751-0.425-1.006-0.736
	c-0.612-0.705-0.919-1.797-0.919-3.277v-7.61H43.127z"/>
<path display="none" fill="#58595B" d="M56.928,107.231h-0.937v-3.745h0.937c0.022,0.867,0.306,1.575,0.85,2.124
	c0.543,0.549,1.354,0.823,2.436,0.823s1.838-0.196,2.271-0.589s0.65-0.985,0.65-1.777s-0.156-1.35-0.469-1.673
	c-0.312-0.323-0.884-0.566-1.716-0.729l-1.561-0.295c-1.248-0.242-2.106-0.595-2.575-1.058c-0.468-0.462-0.702-1.263-0.702-2.4
	c0-1.139,0.277-2.021,0.833-2.645c0.555-0.624,1.514-0.937,2.878-0.937c1.583,0,2.687,0.532,3.312,1.596v-1.353h0.936v3.086h-0.936
	c-0.231-1.525-1.249-2.288-3.052-2.288c-1.052,0-1.769,0.214-2.149,0.642c-0.382,0.428-0.572,1.04-0.572,1.837
	c0,0.798,0.133,1.347,0.398,1.647s0.826,0.532,1.682,0.693l1.543,0.295c1.271,0.242,2.155,0.604,2.652,1.084
	s0.746,1.282,0.746,2.409s-0.298,1.991-0.893,2.592c-0.596,0.602-1.662,0.902-3.199,0.902s-2.658-0.578-3.363-1.734V107.231z"/>
<path display="none" fill="#58595B" d="M73.658,107.231v-0.867h1.04v-4.94h-6.033v4.94h1.04v0.867h-3.329v-0.867h1.041V95.442
	h-1.041v-0.867h3.329v0.867h-1.04v4.94h6.033v-4.94h-1.04v-0.867h3.329v0.867h-1.041v10.922h1.041v0.867H73.658z"/>
<path display="none" fill="#58595B" d="M83.922,102.464h-2.22v3.9h1.388v0.867h-3.676v-0.867h1.04V95.442h-1.04v-0.867h4.508
	c1.63,0,2.692,0.41,3.189,1.231c0.243,0.404,0.405,0.809,0.486,1.213c0.08,0.405,0.121,0.873,0.121,1.404
	c0,0.532-0.021,0.966-0.061,1.301c-0.041,0.335-0.137,0.688-0.286,1.058c-0.15,0.37-0.358,0.67-0.624,0.901
	C86.124,102.204,85.182,102.464,83.922,102.464z M81.702,101.44h2.22c1.098,0,1.814-0.288,2.149-0.866
	c0.162-0.289,0.269-0.584,0.321-0.885c0.052-0.3,0.078-0.688,0.078-1.161s-0.026-0.864-0.078-1.171
	c-0.053-0.306-0.159-0.609-0.321-0.91c-0.335-0.565-1.052-0.85-2.149-0.85h-2.22V101.44z"/>
<path display="none" fill="#58595B" d="M89.799,95.442v-0.867h3.676v0.867h-1.214v10.922h1.214v0.867h-3.676v-0.867h1.214V95.442
	H89.799z"/>
<path display="none" fill="#58595B" d="M103.669,95.442v-0.867h3.329v0.867h-1.041v11.789h-1.387l-6.38-10.576v9.709h1.04v0.867
	h-3.329v-0.867h1.041V95.442h-1.041v-0.867h2.428l6.38,10.593v-9.726H103.669z"/>
<path display="none" fill="#58595B" d="M50.328,115.643l0.21,0.15c-0.48,1.101-0.9,2.365-1.261,3.795h0.12l0.24-0.66
	c0.83-2.279,1.78-3.42,2.85-3.42c0.431,0,0.798,0.21,1.103,0.63c0.306,0.42,0.458,0.931,0.458,1.53s-0.078,1.157-0.232,1.673
	c-0.155,0.515-0.378,0.995-0.668,1.439c-0.29,0.445-0.67,0.808-1.14,1.088s-0.99,0.42-1.56,0.42c-0.87,0-1.551-0.385-2.04-1.155
	l0.104-0.255c0.48,0.73,1.11,1.095,1.89,1.095c0.45,0,0.853-0.149,1.208-0.449c0.354-0.301,0.627-0.676,0.817-1.125
	c0.38-0.92,0.57-1.82,0.57-2.7c0-0.511-0.073-0.908-0.218-1.192c-0.146-0.285-0.333-0.428-0.562-0.428
	c-0.47,0-0.997,0.455-1.582,1.365c-0.586,0.91-1.113,2.33-1.583,4.26l-0.9,3.705l-1.05,0.09l2.266-9.3l-0.96,0.075l-0.016-0.256
	C49.083,115.928,49.728,115.803,50.328,115.643z"/>
<path display="none" fill="#58595B" d="M56.058,121.433c0,0.33,0.125,0.495,0.375,0.495c0.19,0,0.396-0.127,0.615-0.382
	c0.22-0.256,0.41-0.618,0.57-1.088l0.239,0.06c-0.43,1.221-0.989,1.83-1.68,1.83c-0.62,0-0.93-0.392-0.93-1.177
	s0.654-3.553,1.965-8.303l-0.96,0.075l-0.015-0.256c0.689-0.09,1.335-0.215,1.935-0.375l0.21,0.15
	c-0.42,1.23-0.912,2.897-1.478,5.003C56.34,119.57,56.058,120.893,56.058,121.433z"/>
<path display="none" fill="#58595B" d="M64.022,119.138c-0.31,1.19-0.465,1.953-0.465,2.288s0.125,0.502,0.375,0.502
	c0.189,0,0.395-0.127,0.615-0.382c0.22-0.256,0.41-0.618,0.569-1.088l0.24,0.06c-0.43,1.221-0.99,1.83-1.68,1.83
	c-0.62,0-0.93-0.375-0.93-1.125c0-0.149,0.024-0.39,0.074-0.72h-0.074c-0.62,1.23-1.341,1.845-2.16,1.845
	c-0.471,0-0.862-0.207-1.178-0.622s-0.473-0.925-0.473-1.53c0-0.604,0.08-1.167,0.24-1.688c0.16-0.52,0.385-1.007,0.675-1.462
	s0.675-0.825,1.155-1.11c0.479-0.285,1.005-0.428,1.575-0.428c0.739,0,1.324,0.315,1.755,0.945l0.465-0.811l0.21,0.15
	C64.662,116.833,64.332,117.948,64.022,119.138z M60.947,121.898c0.42,0,0.846-0.325,1.275-0.976c0.49-0.75,0.945-1.975,1.365-3.675
	c0.09-0.4,0.159-0.69,0.21-0.87c-0.351-0.34-0.753-0.51-1.208-0.51s-0.859,0.155-1.215,0.465c-0.354,0.31-0.633,0.7-0.832,1.17
	c-0.41,0.96-0.615,1.865-0.615,2.715c0,0.561,0.092,0.98,0.277,1.26C60.39,121.758,60.638,121.898,60.947,121.898z"/>
<path display="none" fill="#58595B" d="M72.558,116.873c0,0.43-0.242,1.22-0.728,2.37c-0.485,1.149-0.728,1.885-0.728,2.205
	s0.125,0.479,0.375,0.479c0.19,0,0.396-0.127,0.615-0.382c0.22-0.256,0.41-0.618,0.57-1.088l0.239,0.06
	c-0.43,1.221-0.989,1.83-1.68,1.83c-0.62,0-0.93-0.34-0.93-1.02c0-0.29,0.227-1.01,0.683-2.16c0.454-1.149,0.682-1.89,0.682-2.22
	c0-0.63-0.229-0.945-0.689-0.945c-0.5,0-1.04,0.405-1.62,1.215c-0.67,0.971-1.266,2.62-1.785,4.95l-1.05,0.09l1.47-6.06l-0.96,0.075
	l-0.015-0.256c0.689-0.09,1.335-0.215,1.935-0.375l0.21,0.15c-0.479,1.101-0.899,2.365-1.26,3.795h0.12l0.24-0.66
	c0.54-1.51,1.125-2.49,1.755-2.939c0.3-0.2,0.547-0.33,0.742-0.391c0.195-0.06,0.44-0.09,0.735-0.09s0.547,0.12,0.757,0.36
	C72.453,116.108,72.558,116.443,72.558,116.873z"/>
<path display="none" fill="#58595B" d="M80.103,116.873c0,0.43-0.242,1.22-0.728,2.37c-0.485,1.149-0.728,1.885-0.728,2.205
	s0.125,0.479,0.375,0.479c0.19,0,0.396-0.127,0.615-0.382c0.22-0.256,0.41-0.618,0.57-1.088l0.239,0.06
	c-0.43,1.221-0.989,1.83-1.68,1.83c-0.62,0-0.93-0.34-0.93-1.02c0-0.29,0.227-1.01,0.683-2.16c0.454-1.149,0.682-1.89,0.682-2.22
	c0-0.63-0.229-0.945-0.689-0.945c-0.5,0-1.04,0.405-1.62,1.215c-0.67,0.971-1.266,2.62-1.785,4.95l-1.05,0.09l1.47-6.06l-0.96,0.075
	l-0.015-0.256c0.689-0.09,1.335-0.215,1.935-0.375l0.21,0.15c-0.479,1.101-0.899,2.365-1.26,3.795h0.12l0.24-0.66
	c0.54-1.51,1.125-2.49,1.755-2.939c0.3-0.2,0.547-0.33,0.742-0.391c0.195-0.06,0.44-0.09,0.735-0.09s0.547,0.12,0.757,0.36
	C79.998,116.108,80.103,116.443,80.103,116.873z"/>
<path display="none" fill="#58595B" d="M86.335,115.891c0.265,0.255,0.397,0.62,0.397,1.095c0,0.476-0.186,0.888-0.555,1.237
	c-0.63,0.601-1.565,0.9-2.806,0.9c-0.37,0-0.689-0.03-0.96-0.09v-0.285c0.351,0.05,0.641,0.075,0.87,0.075
	c0.83,0,1.473-0.21,1.928-0.63s0.683-0.88,0.683-1.381c0-0.27-0.072-0.494-0.218-0.675c-0.145-0.18-0.385-0.27-0.72-0.27
	s-0.675,0.155-1.021,0.465c-0.345,0.31-0.617,0.695-0.817,1.155c-0.399,0.97-0.6,1.81-0.6,2.52c0,1.32,0.399,1.98,1.2,1.98
	c0.989,0,1.715-0.54,2.175-1.62l0.24,0.06c-0.24,0.61-0.588,1.083-1.043,1.418s-0.968,0.502-1.537,0.502
	c-0.57,0-1.05-0.21-1.44-0.63c-0.39-0.42-0.585-0.984-0.585-1.694s0.135-1.397,0.405-2.062c0.27-0.665,0.689-1.24,1.26-1.726
	c0.57-0.484,1.22-0.728,1.95-0.728C85.673,115.508,86.07,115.636,86.335,115.891z"/>
<path display="none" fill="#58595B" d="M89.987,115.643l0.21,0.15c-0.48,1.101-0.9,2.365-1.26,3.795h0.119l0.24-0.66
	c0.47-1.279,0.936-2.17,1.396-2.67s0.859-0.75,1.199-0.75s0.593,0.11,0.758,0.33s0.248,0.505,0.248,0.855
	c0,0.35-0.065,0.654-0.195,0.915c-0.13,0.26-0.317,0.39-0.562,0.39s-0.447-0.08-0.607-0.24c0.1-0.13,0.195-0.319,0.285-0.57
	c0.09-0.249,0.135-0.47,0.135-0.659c0-0.29-0.12-0.436-0.36-0.436c-0.25,0-0.56,0.245-0.93,0.735c-0.81,1.06-1.495,2.84-2.055,5.34
	l-1.051,0.09l1.471-6.06l-0.96,0.075l-0.016-0.256C88.742,115.928,89.387,115.803,89.987,115.643z"/>
<path fill="#FFFFFF" d="M92.176,33.357c-0.943,0.864-2.401,1.786-4.593,2.251c-4.787,1.017-6.197,2.705-5.814,6.964
	c0.384,4.26,3.167,10.881-2.225,18.197c-2.187-1.825-8.093-6.758-11.018-9.198c0,0-0.662-0.553-1.689-1.409
	c-2.922-2.441-8.831-7.374-11.017-9.2c6.236-6.61,13.249-5.054,17.507-5.437c4.26-0.383,5.671-2.072,5.814-6.965
	c0.067-2.225,0.706-3.816,1.383-4.898c-3.229-1.389-6.785-2.16-10.522-2.16c-14.729,0-26.668,11.939-26.668,26.667
	c0,7.918,3.454,15.025,8.933,19.909l9.667-14.486l4.095,3.418L53.497,69.107c4.541,3.584,10.271,5.729,16.504,5.729
	c14.727,0,26.666-11.938,26.666-26.667C96.667,42.688,95.011,37.595,92.176,33.357z"/>
<path fill="#FFFFFF" d="M70.001,81.836c-18.564,0-33.668-15.104-33.668-33.667c0-18.562,15.104-33.667,33.668-33.667
	c18.563,0,33.666,15.104,33.666,33.667C103.667,66.732,88.564,81.836,70.001,81.836 M70.001,16.502
	c-17.462,0-31.668,14.205-31.668,31.667s14.206,31.667,31.668,31.667c17.461,0,31.666-14.205,31.666-31.667
	S87.462,16.502,70.001,16.502"/>
<path fill="#FFFFFF" d="M37.51,102.464h-2.219v3.9h1.387v0.867h-3.676v-0.867h1.041V95.442h-1.041v-0.867h4.508
	c1.63,0,2.693,0.41,3.19,1.231c0.243,0.404,0.404,0.809,0.485,1.213c0.081,0.405,0.121,0.873,0.121,1.404
	c0,0.532-0.02,0.966-0.061,1.301c-0.04,0.335-0.136,0.688-0.286,1.058s-0.358,0.67-0.624,0.901
	C39.712,102.204,38.77,102.464,37.51,102.464z M35.291,101.44h2.219c1.099,0,1.814-0.288,2.15-0.866
	c0.161-0.289,0.269-0.584,0.32-0.885c0.052-0.3,0.078-0.688,0.078-1.161s-0.026-0.864-0.078-1.171
	c-0.052-0.306-0.159-0.609-0.32-0.91c-0.336-0.565-1.052-0.85-2.15-0.85h-2.219V101.44z"/>
<path fill="#FFFFFF" d="M43.127,95.442v-0.867h3.329v0.867h-1.04v7.61c0,1.445,0.341,2.388,1.022,2.826
	c0.323,0.208,0.656,0.35,0.997,0.425s0.751,0.113,1.23,0.113s0.891-0.038,1.231-0.113s0.679-0.217,1.014-0.425
	c0.683-0.438,1.023-1.381,1.023-2.826v-7.61h-1.04v-0.867h3.328v0.867h-1.04v7.61c0,1.48-0.307,2.572-0.919,3.277
	c-0.254,0.312-0.592,0.558-1.014,0.736c-0.423,0.18-0.827,0.292-1.214,0.339c-0.388,0.046-0.847,0.069-1.378,0.069
	c-0.532,0-0.988-0.023-1.37-0.069c-0.382-0.047-0.78-0.159-1.196-0.339c-0.416-0.179-0.751-0.425-1.006-0.736
	c-0.612-0.705-0.919-1.797-0.919-3.277v-7.61H43.127z"/>
<path fill="#FFFFFF" d="M56.928,107.231h-0.937v-3.745h0.937c0.022,0.867,0.306,1.575,0.85,2.124
	c0.543,0.549,1.354,0.823,2.436,0.823s1.838-0.196,2.271-0.589s0.65-0.985,0.65-1.777s-0.156-1.35-0.469-1.673
	c-0.312-0.323-0.884-0.566-1.716-0.729l-1.561-0.295c-1.248-0.242-2.106-0.595-2.575-1.058c-0.468-0.462-0.702-1.263-0.702-2.4
	c0-1.139,0.277-2.021,0.833-2.645c0.555-0.624,1.514-0.937,2.878-0.937c1.583,0,2.687,0.532,3.312,1.596v-1.353h0.936v3.086h-0.936
	c-0.231-1.525-1.249-2.288-3.052-2.288c-1.052,0-1.769,0.214-2.149,0.642c-0.382,0.428-0.572,1.04-0.572,1.837
	c0,0.798,0.133,1.347,0.398,1.647s0.826,0.532,1.682,0.693l1.543,0.295c1.271,0.242,2.155,0.604,2.652,1.084
	s0.746,1.282,0.746,2.409s-0.298,1.991-0.893,2.592c-0.596,0.602-1.662,0.902-3.199,0.902s-2.658-0.578-3.363-1.734V107.231z"/>
<path fill="#FFFFFF" d="M73.658,107.231v-0.867h1.04v-4.94h-6.033v4.94h1.04v0.867h-3.329v-0.867h1.041V95.442h-1.041v-0.867h3.329
	v0.867h-1.04v4.94h6.033v-4.94h-1.04v-0.867h3.329v0.867h-1.041v10.922h1.041v0.867H73.658z"/>
<path fill="#FFFFFF" d="M83.922,102.464h-2.22v3.9h1.388v0.867h-3.676v-0.867h1.04V95.442h-1.04v-0.867h4.508
	c1.63,0,2.692,0.41,3.189,1.231c0.243,0.404,0.405,0.809,0.486,1.213c0.08,0.405,0.121,0.873,0.121,1.404
	c0,0.532-0.021,0.966-0.061,1.301c-0.041,0.335-0.137,0.688-0.286,1.058c-0.15,0.37-0.358,0.67-0.624,0.901
	C86.124,102.204,85.182,102.464,83.922,102.464z M81.702,101.44h2.22c1.098,0,1.814-0.288,2.149-0.866
	c0.162-0.289,0.269-0.584,0.321-0.885c0.052-0.3,0.078-0.688,0.078-1.161s-0.026-0.864-0.078-1.171
	c-0.053-0.306-0.159-0.609-0.321-0.91c-0.335-0.565-1.052-0.85-2.149-0.85h-2.22V101.44z"/>
<path fill="#FFFFFF" d="M89.799,95.442v-0.867h3.676v0.867h-1.214v10.922h1.214v0.867h-3.676v-0.867h1.214V95.442H89.799z"/>
<path fill="#FFFFFF" d="M103.669,95.442v-0.867h3.329v0.867h-1.041v11.789h-1.387l-6.38-10.576v9.709h1.04v0.867h-3.329v-0.867
	h1.041V95.442h-1.041v-0.867h2.428l6.38,10.593v-9.726H103.669z"/>
<path fill="#FFFFFF" d="M50.328,115.643l0.21,0.15c-0.48,1.101-0.9,2.365-1.261,3.795h0.12l0.24-0.66
	c0.83-2.279,1.78-3.42,2.85-3.42c0.431,0,0.798,0.21,1.103,0.63c0.306,0.42,0.458,0.931,0.458,1.53s-0.078,1.157-0.232,1.673
	c-0.155,0.515-0.378,0.995-0.668,1.439c-0.29,0.445-0.67,0.808-1.14,1.088s-0.99,0.42-1.56,0.42c-0.87,0-1.551-0.385-2.04-1.155
	l0.104-0.255c0.48,0.73,1.11,1.095,1.89,1.095c0.45,0,0.853-0.149,1.208-0.449c0.354-0.301,0.627-0.676,0.817-1.125
	c0.38-0.92,0.57-1.82,0.57-2.7c0-0.511-0.073-0.908-0.218-1.192c-0.146-0.285-0.333-0.428-0.562-0.428
	c-0.47,0-0.997,0.455-1.582,1.365c-0.586,0.91-1.113,2.33-1.583,4.26l-0.9,3.705l-1.05,0.09l2.266-9.3l-0.96,0.075l-0.016-0.256
	C49.083,115.928,49.728,115.803,50.328,115.643z"/>
<path fill="#FFFFFF" d="M56.058,121.433c0,0.33,0.125,0.495,0.375,0.495c0.19,0,0.396-0.127,0.615-0.382
	c0.22-0.256,0.41-0.618,0.57-1.088l0.239,0.06c-0.43,1.221-0.989,1.83-1.68,1.83c-0.62,0-0.93-0.392-0.93-1.177
	s0.654-3.553,1.965-8.303l-0.96,0.075l-0.015-0.256c0.689-0.09,1.335-0.215,1.935-0.375l0.21,0.15
	c-0.42,1.23-0.912,2.897-1.478,5.003C56.34,119.57,56.058,120.893,56.058,121.433z"/>
<path fill="#FFFFFF" d="M64.022,119.138c-0.31,1.19-0.465,1.953-0.465,2.288s0.125,0.502,0.375,0.502
	c0.189,0,0.395-0.127,0.615-0.382c0.22-0.256,0.41-0.618,0.569-1.088l0.24,0.06c-0.43,1.221-0.99,1.83-1.68,1.83
	c-0.62,0-0.93-0.375-0.93-1.125c0-0.149,0.024-0.39,0.074-0.72h-0.074c-0.62,1.23-1.341,1.845-2.16,1.845
	c-0.471,0-0.862-0.207-1.178-0.622s-0.473-0.925-0.473-1.53c0-0.604,0.08-1.167,0.24-1.688c0.16-0.52,0.385-1.007,0.675-1.462
	s0.675-0.825,1.155-1.11c0.479-0.285,1.005-0.428,1.575-0.428c0.739,0,1.324,0.315,1.755,0.945l0.465-0.811l0.21,0.15
	C64.662,116.833,64.332,117.948,64.022,119.138z M60.947,121.898c0.42,0,0.846-0.325,1.275-0.976c0.49-0.75,0.945-1.975,1.365-3.675
	c0.09-0.4,0.159-0.69,0.21-0.87c-0.351-0.34-0.753-0.51-1.208-0.51s-0.859,0.155-1.215,0.465c-0.354,0.31-0.633,0.7-0.832,1.17
	c-0.41,0.96-0.615,1.865-0.615,2.715c0,0.561,0.092,0.98,0.277,1.26C60.39,121.758,60.638,121.898,60.947,121.898z"/>
<path fill="#FFFFFF" d="M72.558,116.873c0,0.43-0.242,1.22-0.728,2.37c-0.485,1.149-0.728,1.885-0.728,2.205
	s0.125,0.479,0.375,0.479c0.19,0,0.396-0.127,0.615-0.382c0.22-0.256,0.41-0.618,0.57-1.088l0.239,0.06
	c-0.43,1.221-0.989,1.83-1.68,1.83c-0.62,0-0.93-0.34-0.93-1.02c0-0.29,0.227-1.01,0.683-2.16c0.454-1.149,0.682-1.89,0.682-2.22
	c0-0.63-0.229-0.945-0.689-0.945c-0.5,0-1.04,0.405-1.62,1.215c-0.67,0.971-1.266,2.62-1.785,4.95l-1.05,0.09l1.47-6.06l-0.96,0.075
	l-0.015-0.256c0.689-0.09,1.335-0.215,1.935-0.375l0.21,0.15c-0.479,1.101-0.899,2.365-1.26,3.795h0.12l0.24-0.66
	c0.54-1.51,1.125-2.49,1.755-2.939c0.3-0.2,0.547-0.33,0.742-0.391c0.195-0.06,0.44-0.09,0.735-0.09s0.547,0.12,0.757,0.36
	C72.453,116.108,72.558,116.443,72.558,116.873z"/>
<path fill="#FFFFFF" d="M80.103,116.873c0,0.43-0.242,1.22-0.728,2.37c-0.485,1.149-0.728,1.885-0.728,2.205
	s0.125,0.479,0.375,0.479c0.19,0,0.396-0.127,0.615-0.382c0.22-0.256,0.41-0.618,0.57-1.088l0.239,0.06
	c-0.43,1.221-0.989,1.83-1.68,1.83c-0.62,0-0.93-0.34-0.93-1.02c0-0.29,0.227-1.01,0.683-2.16c0.454-1.149,0.682-1.89,0.682-2.22
	c0-0.63-0.229-0.945-0.689-0.945c-0.5,0-1.04,0.405-1.62,1.215c-0.67,0.971-1.266,2.62-1.785,4.95l-1.05,0.09l1.47-6.06l-0.96,0.075
	l-0.015-0.256c0.689-0.09,1.335-0.215,1.935-0.375l0.21,0.15c-0.479,1.101-0.899,2.365-1.26,3.795h0.12l0.24-0.66
	c0.54-1.51,1.125-2.49,1.755-2.939c0.3-0.2,0.547-0.33,0.742-0.391c0.195-0.06,0.44-0.09,0.735-0.09s0.547,0.12,0.757,0.36
	C79.998,116.108,80.103,116.443,80.103,116.873z"/>
<path fill="#FFFFFF" d="M86.335,115.891c0.265,0.255,0.397,0.62,0.397,1.095c0,0.476-0.186,0.888-0.555,1.237
	c-0.63,0.601-1.565,0.9-2.806,0.9c-0.37,0-0.689-0.03-0.96-0.09v-0.285c0.351,0.05,0.641,0.075,0.87,0.075
	c0.83,0,1.473-0.21,1.928-0.63s0.683-0.88,0.683-1.381c0-0.27-0.072-0.494-0.218-0.675c-0.145-0.18-0.385-0.27-0.72-0.27
	s-0.675,0.155-1.021,0.465c-0.345,0.31-0.617,0.695-0.817,1.155c-0.399,0.97-0.6,1.81-0.6,2.52c0,1.32,0.399,1.98,1.2,1.98
	c0.989,0,1.715-0.54,2.175-1.62l0.24,0.06c-0.24,0.61-0.588,1.083-1.043,1.418s-0.968,0.502-1.537,0.502
	c-0.57,0-1.05-0.21-1.44-0.63c-0.39-0.42-0.585-0.984-0.585-1.694s0.135-1.397,0.405-2.062c0.27-0.665,0.689-1.24,1.26-1.726
	c0.57-0.484,1.22-0.728,1.95-0.728C85.673,115.508,86.07,115.636,86.335,115.891z"/>
<path fill="#FFFFFF" d="M89.987,115.643l0.21,0.15c-0.48,1.101-0.9,2.365-1.26,3.795h0.119l0.24-0.66
	c0.47-1.279,0.936-2.17,1.396-2.67s0.859-0.75,1.199-0.75s0.593,0.11,0.758,0.33s0.248,0.505,0.248,0.855
	c0,0.35-0.065,0.654-0.195,0.915c-0.13,0.26-0.317,0.39-0.562,0.39s-0.447-0.08-0.607-0.24c0.1-0.13,0.195-0.319,0.285-0.57
	c0.09-0.249,0.135-0.47,0.135-0.659c0-0.29-0.12-0.436-0.36-0.436c-0.25,0-0.56,0.245-0.93,0.735c-0.81,1.06-1.495,2.84-2.055,5.34
	l-1.051,0.09l1.471-6.06l-0.96,0.075l-0.016-0.256C88.742,115.928,89.387,115.803,89.987,115.643z"/>
</svg>
