<?xml version="1.0" encoding="utf-8"?>
<!-- Generator: Adobe Illustrator 15.0.2, SVG Export Plug-In . SVG Version: 6.00 Build 0)  -->
<!DOCTYPE svg PUBLIC "-//W3C//DTD SVG 1.1//EN" "http://www.w3.org/Graphics/SVG/1.1/DTD/svg11.dtd">
<svg version="1.1" id="Layer_1" xmlns="http://www.w3.org/2000/svg" xmlns:xlink="http://www.w3.org/1999/xlink" x="0px" y="0px"
	 width="140px" height="140px" viewBox="0 0 140 140" enable-background="new 0 0 140 140" xml:space="preserve">
<rect display="none" fill="#283A47" width="140" height="140"/>
<text transform="matrix(1 0 0 1 34.874 53.0488)" display="none" opacity="0.8"><tspan x="0" y="0" display="inline" fill="#FFFFFF" font-family="'GloriolaDisplayStdFat'" font-size="25.1529">Your</tspan><tspan x="1.409" y="25" display="inline" fill="#FFFFFF" font-family="'GloriolaDisplayStdFat'" font-size="25.1529">logo</tspan><tspan x="3.496" y="50" display="inline" fill="#FFFFFF" font-family="'GloriolaDisplayStdFat'" font-size="25.1529">here</tspan></text>
<rect x="25" y="23" display="none" fill="#FFFFFF" width="91" height="91"/>
<g opacity="0.6">
	<path fill="#FFFFFF" d="M59.009,66.354c-1.333,0-2.112,0.931-2.112,3.621c0,2.741,0.78,3.672,2.112,3.672s2.112-0.931,2.112-3.672
		C61.121,67.284,60.341,66.354,59.009,66.354z"/>
	<path fill="#FFFFFF" d="M61.402,48.646c1.333,0,2.112-0.93,2.112-3.671c0-2.69-0.78-3.621-2.112-3.621s-2.112,0.931-2.112,3.621
		C59.29,47.716,60.07,48.646,61.402,48.646z"/>
	<path fill="#FFFFFF" d="M94.627,66.354c-1.332,0-2.111,0.931-2.111,3.621c0,2.741,0.779,3.672,2.111,3.672
		c1.334,0,2.113-0.931,2.113-3.672C96.74,67.284,95.961,66.354,94.627,66.354z"/>
	<path fill="#FFFFFF" d="M79.084,91H78v2.969c1,0.075,0.692,0.101,0.894,0.101c0.781,0,1.503-0.466,1.503-1.598
		C80.396,91.592,79.99,91,79.084,91z"/>
	<path fill="#FFFFFF" d="M96.689,41H96v2.969c0,0.075,0.496,0.101,0.697,0.101c0.779,0,1.404-0.466,1.404-1.598
		C98.102,41.592,97.594,41,96.689,41z"/>
	<path fill="#FFFFFF" d="M25,25v91h91V25H25z M72,36h6v10.811c0,1.458,0.369,1.735,1.525,1.735c1.107,0,1.475-0.277,1.475-1.735V36
		h7v11.439c0,4.853-3.373,6.639-7.975,6.639c-4.727,0-8.025-1.786-8.025-6.639V36z M61.427,35.922c5.206,0,8.877,2.188,8.877,9.078
		c0,6.865-3.671,9.078-8.877,9.078c-5.255,0-8.927-2.213-8.927-9.078C52.5,38.109,56.172,35.922,61.427,35.922z M67.911,70
		c0,6.865-3.671,9.078-8.877,9.078c-5.255,0-8.927-2.213-8.927-9.078c0-6.891,3.671-9.078,8.927-9.078
		C64.239,60.922,67.911,63.109,67.911,70z M42.279,36.022l1.911,5.583l1.911-5.583l7.239,0.302L47,47.615V54h-6v-6.385l-6.15-11.291
		L42.279,36.022z M37,61h7v12h5.721l-0.251,6H37V61z M55,104h-7v-6h-3v6h-6V86h6v6h3v-6h7V104z M68.895,93l-0.252,4H63v1h7.404
		l-0.252,6H57V86h13.404l-0.252,6H63v1H68.895z M68.723,70c0-6.815,4.225-9.078,9.455-9.078c1.785,0,3.973,0.251,5.758,0.654
		l-1.105,5.583c-1.76-0.302-2.516-0.453-3.771-0.453c-2.164,0-3.547,0.58-3.547,3.647c0,2.816,0.83,3.647,2.742,3.647H78v-1h-0.93
		l0.252-5H85v9.946c-3,0.628-4.517,1.132-7.208,1.132C70.651,79.078,68.723,74.174,68.723,70z M80.393,104.078l-1.825-4.879
		c-0.125,0,0.433-0.025-0.567-0.051V104h-6V86h7.262c4.676,0,7.668,2.324,7.668,6.7c0,2.062-0.805,3.69-2.086,4.771l2.715,6.082
		L80.393,104.078z M100.41,93l-0.25,4H95v1h6.92l-0.252,6H88V86h13.92l-0.252,6H95v1H100.41z M94.652,79.078
		c-5.256,0-8.928-2.213-8.928-9.078c0-6.891,3.672-9.078,8.928-9.078c5.205,0,8.877,2.188,8.877,9.078
		C103.529,76.865,99.857,79.078,94.652,79.078z M97.996,54.078l-1.625-4.878c-0.127,0-0.371-0.025-0.371-0.05V54h-6V36h6.865
		c4.678,0,7.67,2.324,7.67,6.7c0,2.062-0.805,3.689-2.088,4.771l2.717,6.082L97.996,54.078z"/>
</g>
</svg>
