<?xml version="1.0" encoding="utf-8"?>
<!-- Generator: Adobe Illustrator 15.0.2, SVG Export Plug-In  -->
<!DOCTYPE svg PUBLIC "-//W3C//DTD SVG 1.1//EN" "http://www.w3.org/Graphics/SVG/1.1/DTD/svg11.dtd" [
	<!ENTITY ns_flows "http://ns.adobe.com/Flows/1.0/">
]>
<svg version="1.1"
	 xmlns="http://www.w3.org/2000/svg" xmlns:xlink="http://www.w3.org/1999/xlink" xmlns:a="http://ns.adobe.com/AdobeSVGViewerExtensions/3.0/"
	 x="0px" y="0px" width="140px" height="140px" viewBox="86.5 77.002 140 140"
	 overflow="visible" enable-background="new 86.5 77.002 140 140" xml:space="preserve">
<defs>
</defs>
<rect display="none" fill="#283A47" width="313" height="294.004"/>
<g display="none">
	<defs>
		<path id="SVGID_5_" d="M155.962,198.978c-56.065,0.002-101.497,3.69-101.476,8.242v0.006c0.022,4.551,45.488,8.239,101.552,8.236
			c56.065-0.003,101.497-3.691,101.475-8.242v-0.006c-0.02-4.551-45.461-8.237-101.51-8.236
			C155.993,198.978,155.972,198.978,155.962,198.978"/>
	</defs>
	<clipPath id="SVGID_6_" display="inline">
		<use xlink:href="#SVGID_5_"  display="none" overflow="visible"/>
	</clipPath>
	<defs>
		<filter id="Adobe_OpacityMaskFilter" filterUnits="userSpaceOnUse" x="54.465" y="198.977" width="203.07" height="16.488">
			<feColorMatrix  type="matrix" values="1 0 0 0 0  0 1 0 0 0  0 0 1 0 0  0 0 0 1 0"/>
		</filter>
	</defs>
	<mask maskUnits="userSpaceOnUse" x="54.465" y="198.977" width="203.07" height="16.488" id="SVGID_7_" display="inline">
		<g filter="url(#Adobe_OpacityMaskFilter)">
			
				<radialGradient id="SVGID_8_" cx="-19.002" cy="286.4448" r="1.0005" gradientTransform="matrix(101.5349 0 0 8.2405 2085.4131 -2153.2253)" gradientUnits="userSpaceOnUse">
				<stop  offset="0" style="stop-color:#FFFFFF"/>
				<stop  offset="1" style="stop-color:#000000"/>
			</radialGradient>
			<rect x="54.465" y="198.977" clip-path="url(#SVGID_6_)" fill="url(#SVGID_8_)" width="203.07" height="16.488"/>
		</g>
	</mask>
	
		<radialGradient id="SVGID_9_" cx="-19.002" cy="286.4448" r="1.0005" gradientTransform="matrix(101.5349 0 0 8.2405 2085.4131 -2153.2253)" gradientUnits="userSpaceOnUse">
		<stop  offset="0" style="stop-color:#000000"/>
		<stop  offset="1" style="stop-color:#000000"/>
	</radialGradient>
	
		<rect x="54.465" y="198.977" clip-path="url(#SVGID_6_)" mask="url(#SVGID_7_)" fill="url(#SVGID_9_)" width="203.07" height="16.488"/>
</g>
<g>
	<defs>
		<path id="SVGID_4_" d="M121.118,94.843c-2.871,2.872-4.951,8.675-6.246,15.819c3.715-2.073,7.812-3.991,12.31-5.607
			c7.599-2.731,15.534-4.43,23.476-5.288c3.311-0.357,6.624-0.545,9.894-0.593c9.805-0.141,19.278,1.076,27.625,3.602l0.077,0.031
			l-0.807,0.516l-0.503,0.273l-63.454,35.922c-0.084,0.057-0.187,0.085-0.273,0.137c-4.188,2.417-8.28,3.967-8.069,11.032
			c0.365,1.829,0.77,3.558,1.239,5.165c0.108-1.372,0.62-3.76,2.728-4.983c1.739-1.011,5.196-3.054,5.196-3.054l5.242-3.009
			l5.196-3.054l5.243-3.009l5.197-3.054l5.242-3.009l5.196-3.054l5.242-3.009l5.196-3.054l5.244-3.009l5.196-3.054l5.242-3.008
			l5.195-3.054c0,0,3.501-2.002,5.245-3.009c2.83-1.634,3.506-4.686,3.646-5.562c-1.162-3.493-2.609-6.301-4.331-8.023
			c-5.227-5.227-20.205-7.841-35.192-7.841C141.324,87.002,126.345,89.617,121.118,94.843"/>
	</defs>
	<use xlink:href="#SVGID_4_"  overflow="visible" fill="#FFFFFF"/>
	<clipPath id="SVGID_10_">
		<use xlink:href="#SVGID_4_"  overflow="visible"/>
	</clipPath>
	<rect x="114.872" y="87.002" clip-path="url(#SVGID_10_)" fill="#FFFFFF" width="80.962" height="68.85"/>
</g>
<g>
	<defs>
		<path id="SVGID_3_" d="M192.148,108.179c-1.741,1.006-5.242,3.009-5.242,3.009l-5.197,3.054l-5.241,3.008l-5.197,3.054
			l-5.242,3.009l-5.196,3.054l-5.242,3.009l-5.197,3.055l-5.242,3.008l-5.196,3.055l-5.242,3.008l-5.198,3.055l-5.242,3.008
			c0,0-3.457,2.043-5.196,3.055c-2.229,1.294-2.633,3.943-2.693,5.191c0.005,0.015-0.001,0.027,0.004,0.042
			c1.193,3.938,2.729,7.114,4.604,8.988c10.454,10.453,59.931,10.453,70.385,0c3.059-3.059,5.204-9.444,6.473-17.231
			c-3.832,2.164-8.1,4.158-12.765,5.834c-7.599,2.733-15.534,4.432-23.477,5.289c-13.237,1.43-26.389,0.358-37.517-3.008
			l-0.062-0.027l0.791-0.52l0.547-0.274l63.409-35.921c0.084-0.057,0.187-0.086,0.274-0.137c4.178-2.412,8.307-3.96,8.114-10.986
			c-0.39-1.796-0.834-3.456-1.336-5.011v0C195.567,104.084,194.681,106.719,192.148,108.179"/>
	</defs>
	<use xlink:href="#SVGID_3_"  overflow="visible" fill="#FFFFFF"/>
	<clipPath id="SVGID_11_">
		<use xlink:href="#SVGID_3_"  overflow="visible"/>
	</clipPath>
	<rect x="116.381" y="102.849" clip-path="url(#SVGID_11_)" fill="#FFFFFF" width="81.467" height="72.447"/>
</g>
<g>
	<defs>
		<path id="SVGID_2_" d="M131.942,104.208c-6.34,1.911-11.988,4.298-16.88,7.046l10.942,0.986l0.159-0.144
			c-0.067,0.096-0.129,0.19-0.195,0.284c4.441-2.845,9.544-5.33,15.229-7.337c11.173-3.943,22.923-5.419,33.75-4.705
			c-0.441-0.049-0.87-0.103-1.316-0.147c-3.415-0.336-6.911-0.507-10.451-0.507C152.838,99.685,142.117,101.143,131.942,104.208"/>
	</defs>
	<use xlink:href="#SVGID_2_"  overflow="visible" fill="#FFFFFF"/>
	<clipPath id="SVGID_12_">
		<use xlink:href="#SVGID_2_"  overflow="visible"/>
	</clipPath>
	<polygon clip-path="url(#SVGID_12_)" fill="#FFFFFF" points="119.798,123.03 180.173,111.373 170.214,88.976 109.839,100.633 	"/>
</g>
<g>
	<defs>
		<path id="SVGID_1_" d="M171.558,153.13c-11.171,3.943-22.923,5.419-33.749,4.705c0.442,0.05,0.87,0.104,1.316,0.147h-0.001
			c13.392,1.317,28.034,0.098,41.69-4.017c6.339-1.911,11.988-4.298,16.88-7.046l-10.941-0.986l-0.16,0.144
			c0.066-0.095,0.129-0.19,0.195-0.285C182.347,148.639,177.244,151.125,171.558,153.13"/>
	</defs>
	<clipPath id="SVGID_13_">
		<use xlink:href="#SVGID_1_"  overflow="visible"/>
	</clipPath>
	<polygon clip-path="url(#SVGID_13_)" fill="#FFFFFF" points="192.96,135.145 132.276,146.861 142.542,169.949 203.226,158.232 	"/>
</g>
<polygon fill="#FFFFFF" points="92.558,206.56 106.192,206.56 106.192,204.44 95.486,204.44 105.587,190.266 105.587,188.145 
	92.894,188.145 92.894,190.266 102.759,190.266 92.558,204.507 "/>
<path fill="#FFFFFF" d="M129.023,198.21c0.001-0.116,0.008-0.229,0.018-0.337c0.009-0.107,0.016-0.22,0.017-0.336
	c0.007-0.812-0.099-1.653-0.319-2.525c-0.221-0.871-0.597-1.746-1.128-2.625c-0.664-1.196-1.692-2.265-3.085-3.203
	c-1.392-0.938-3.103-1.443-5.13-1.511c-2.74,0.121-5.003,1.099-6.788,2.929s-2.71,4.088-2.773,6.768
	c0.078,2.788,1.033,5.074,2.866,6.859s4.076,2.709,6.729,2.77c2.152-0.04,4.032-0.658,5.639-1.856
	c1.605-1.197,2.745-2.733,3.417-4.608h-2.491c-0.434,1.179-1.217,2.181-2.353,3.005s-2.551,1.271-4.246,1.339
	c-1.862-0.053-3.481-0.714-4.856-1.982s-2.135-2.831-2.281-4.685H129.023z M112.258,196.09c0.412-2.163,1.331-3.755,2.753-4.776
	c1.422-1.022,2.895-1.528,4.419-1.52c1.535-0.009,3.009,0.497,4.423,1.52c1.412,1.021,2.339,2.613,2.781,4.776H112.258z"/>
<path fill="#FFFFFF" d="M134.639,206.56h2.357v-10.301c0.011-1.147,0.174-2.13,0.492-2.946c0.318-0.818,0.726-1.463,1.224-1.937
	c0.662-0.611,1.359-1.03,2.093-1.258c0.732-0.229,1.371-0.336,1.914-0.324c0.544-0.012,1.183,0.096,1.915,0.324
	c0.732,0.228,1.431,0.646,2.092,1.258c0.515,0.488,0.933,1.153,1.254,1.994c0.321,0.842,0.487,1.861,0.497,3.056v10.134h2.356
	v-10.134c-0.01-1.513-0.219-2.806-0.627-3.881c-0.409-1.074-0.963-1.945-1.662-2.617c-0.839-0.83-1.738-1.416-2.697-1.758
	c-0.961-0.343-2.004-0.508-3.128-0.497c-1.561,0.049-2.807,0.381-3.736,0.997c-0.931,0.617-1.57,1.228-1.919,1.831h-0.067v-2.356
	h-2.357V206.56z"/>
<path fill="#FFFFFF" d="M175.435,198.21c0.001-0.116,0.008-0.229,0.018-0.337c0.009-0.107,0.016-0.22,0.018-0.336
	c0.006-0.812-0.1-1.653-0.32-2.525c-0.221-0.871-0.597-1.746-1.128-2.625c-0.664-1.196-1.692-2.265-3.085-3.203
	c-1.392-0.938-3.103-1.443-5.131-1.511c-2.74,0.121-5.002,1.099-6.788,2.929c-1.783,1.83-2.709,4.088-2.772,6.768
	c0.078,2.788,1.033,5.074,2.866,6.859c1.832,1.785,4.075,2.709,6.729,2.77c2.151-0.04,4.032-0.658,5.639-1.856
	c1.606-1.197,2.745-2.733,3.417-4.608h-2.491c-0.433,1.179-1.218,2.181-2.354,3.005s-2.551,1.271-4.246,1.339
	c-1.862-0.053-3.481-0.714-4.855-1.982c-1.375-1.269-2.135-2.831-2.281-4.685H175.435z M158.669,196.09
	c0.413-2.163,1.33-3.755,2.753-4.776c1.421-1.022,2.894-1.528,4.419-1.52c1.534-0.009,3.009,0.497,4.422,1.52
	c1.413,1.021,2.342,2.613,2.782,4.776H158.669z"/>
<polygon fill="#FFFFFF" points="186.874,206.56 189.466,206.56 197.244,188.145 194.719,188.145 188.12,203.63 181.622,188.145 
	179.098,188.145 "/>
<path fill="#FFFFFF" d="M220.442,188.145h-2.356v3.231h-0.066c-1.029-1.494-2.221-2.495-3.574-3.001
	c-1.352-0.505-2.552-0.738-3.598-0.702c-3.05,0.094-5.451,1.084-7.209,2.971c-1.756,1.887-2.653,4.106-2.689,6.657
	c0.051,2.717,0.978,4.994,2.778,6.831s4.175,2.792,7.12,2.866c1.013,0.036,2.194-0.197,3.548-0.699s2.561-1.493,3.624-2.972h0.066
	v3.232h2.356V188.145z M203.306,197.404c0.062-2.366,0.814-4.219,2.257-5.561c1.442-1.341,3.203-2.025,5.285-2.049
	c2.163,0.062,3.922,0.82,5.278,2.272c1.354,1.452,2.053,3.219,2.094,5.303c-0.058,2.198-0.79,3.987-2.195,5.37
	c-1.405,1.382-3.131,2.094-5.177,2.138c-2.287-0.055-4.109-0.788-5.462-2.197C204.032,201.271,203.339,199.511,203.306,197.404"/>
</svg>
