<?xml version="1.0" encoding="utf-8"?>
<!-- Generator: Adobe Illustrator 15.0.2, SVG Export Plug-In  -->
<!DOCTYPE svg PUBLIC "-//W3C//DTD SVG 1.1//EN" "http://www.w3.org/Graphics/SVG/1.1/DTD/svg11.dtd" [
	<!ENTITY ns_flows "http://ns.adobe.com/Flows/1.0/">
]>
<svg version="1.1"
	 xmlns="http://www.w3.org/2000/svg" xmlns:xlink="http://www.w3.org/1999/xlink" xmlns:a="http://ns.adobe.com/AdobeSVGViewerExtensions/3.0/"
	 x="0px" y="0px" width="140px" height="140px" viewBox="86.5 77.002 140 140"
	 overflow="visible" enable-background="new 86.5 77.002 140 140" xml:space="preserve">
<defs>
</defs>
<rect display="none" fill="#283A47" width="313" height="294.004"/>
<g display="none">
	<defs>
		<path id="SVGID_5_" d="M155.962,198.978c-56.065,0.002-101.497,3.69-101.476,8.242v0.006c0.022,4.551,45.488,8.239,101.552,8.236
			c56.065-0.003,101.497-3.691,101.475-8.242v-0.006c-0.02-4.551-45.461-8.237-101.51-8.236
			C155.993,198.978,155.972,198.978,155.962,198.978"/>
	</defs>
	<clipPath id="SVGID_6_" display="inline">
		<use xlink:href="#SVGID_5_"  display="none" overflow="visible"/>
	</clipPath>
	<defs>
		<filter id="Adobe_OpacityMaskFilter" filterUnits="userSpaceOnUse" x="54.465" y="198.977" width="203.07" height="16.488">
			<feColorMatrix  type="matrix" values="1 0 0 0 0  0 1 0 0 0  0 0 1 0 0  0 0 0 1 0"/>
		</filter>
	</defs>
	<mask maskUnits="userSpaceOnUse" x="54.465" y="198.977" width="203.07" height="16.488" id="SVGID_7_" display="inline">
		<g filter="url(#Adobe_OpacityMaskFilter)">
			
				<radialGradient id="SVGID_8_" cx="-19.002" cy="286.4448" r="1.0005" gradientTransform="matrix(101.5349 0 0 8.2405 2085.4131 -2153.2253)" gradientUnits="userSpaceOnUse">
				<stop  offset="0" style="stop-color:#FFFFFF"/>
				<stop  offset="1" style="stop-color:#000000"/>
			</radialGradient>
			<rect x="54.465" y="198.977" clip-path="url(#SVGID_6_)" fill="url(#SVGID_8_)" width="203.07" height="16.488"/>
		</g>
	</mask>
	
		<radialGradient id="SVGID_9_" cx="-19.002" cy="286.4448" r="1.0005" gradientTransform="matrix(101.5349 0 0 8.2405 2085.4131 -2153.2253)" gradientUnits="userSpaceOnUse">
		<stop  offset="0" style="stop-color:#000000"/>
		<stop  offset="1" style="stop-color:#000000"/>
	</radialGradient>
	
		<rect x="54.465" y="198.977" clip-path="url(#SVGID_6_)" mask="url(#SVGID_7_)" fill="url(#SVGID_9_)" width="203.07" height="16.488"/>
</g>
<g>
	<defs>
		<path id="SVGID_4_" d="M127.899,104.84c-2.32,2.321-4.002,7.013-5.049,12.787c3.003-1.676,6.314-3.226,9.95-4.533
			c6.143-2.208,12.558-3.581,18.977-4.274c2.676-0.289,5.354-0.44,7.997-0.479c7.926-0.113,15.583,0.87,22.33,2.912l0.062,0.025
			l-0.652,0.417l-0.406,0.221l-51.292,29.037c-0.067,0.046-0.15,0.069-0.221,0.11c-3.385,1.954-6.693,3.207-6.523,8.918
			c0.296,1.479,0.622,2.875,1.002,4.175c0.088-1.109,0.502-3.039,2.205-4.028c1.406-0.817,4.2-2.469,4.2-2.469l4.237-2.432
			l4.2-2.469l4.238-2.432l4.201-2.468l4.237-2.433l4.201-2.469l4.236-2.432l4.201-2.468l4.238-2.433l4.201-2.469l4.237-2.432
			l4.199-2.469c0,0,2.83-1.619,4.24-2.432c2.287-1.321,2.834-3.788,2.946-4.496c-0.939-2.824-2.109-5.094-3.501-6.485
			c-4.225-4.225-16.332-6.338-28.447-6.338C144.233,98.502,132.125,100.616,127.899,104.84"/>
	</defs>
	<use xlink:href="#SVGID_4_"  overflow="visible" fill="#FFFFFF"/>
	<clipPath id="SVGID_10_">
		<use xlink:href="#SVGID_4_"  overflow="visible"/>
	</clipPath>
	<rect x="122.851" y="98.502" clip-path="url(#SVGID_10_)" fill="#FFFFFF" width="65.444" height="55.653"/>
</g>
<g>
	<defs>
		<path id="SVGID_3_" d="M185.315,115.621c-1.407,0.813-4.237,2.432-4.237,2.432l-4.201,2.469l-4.236,2.432l-4.201,2.469
			l-4.237,2.432l-4.2,2.469l-4.237,2.432l-4.201,2.469l-4.237,2.432l-4.2,2.469l-4.238,2.431l-4.201,2.47l-4.237,2.431
			c0,0-2.795,1.651-4.201,2.47c-1.802,1.046-2.128,3.188-2.177,4.196c0.004,0.012-0.001,0.021,0.003,0.034
			c0.965,3.184,2.207,5.751,3.723,7.266c8.45,8.449,48.443,8.449,56.894,0c2.473-2.473,4.207-7.635,5.232-13.93
			c-3.098,1.75-6.547,3.361-10.318,4.716c-6.142,2.21-12.557,3.583-18.977,4.275c-10.7,1.156-21.331,0.29-30.326-2.431l-0.05-0.022
			l0.64-0.42l0.442-0.222l51.255-29.036c0.068-0.046,0.151-0.07,0.223-0.111c3.377-1.95,6.714-3.201,6.559-8.88
			c-0.314-1.452-0.674-2.793-1.08-4.051v0C188.079,112.31,187.362,114.44,185.315,115.621"/>
	</defs>
	<use xlink:href="#SVGID_3_"  overflow="visible" fill="#FFFFFF"/>
	<clipPath id="SVGID_11_">
		<use xlink:href="#SVGID_3_"  overflow="visible"/>
	</clipPath>
	<rect x="124.07" y="111.312" clip-path="url(#SVGID_11_)" fill="#FFFFFF" width="65.853" height="58.561"/>
</g>
<g>
	<defs>
		<path id="SVGID_2_" d="M136.649,112.411c-5.125,1.545-9.69,3.474-13.645,5.695l8.845,0.797l0.129-0.116
			c-0.055,0.077-0.104,0.153-0.158,0.229c3.591-2.299,7.715-4.309,12.311-5.931c9.032-3.188,18.529-4.38,27.281-3.803
			c-0.356-0.04-0.703-0.083-1.063-0.119c-2.761-0.272-5.587-0.41-8.448-0.41C153.54,108.754,144.874,109.933,136.649,112.411"/>
	</defs>
	<use xlink:href="#SVGID_2_"  overflow="visible" fill="#FFFFFF"/>
	<clipPath id="SVGID_12_">
		<use xlink:href="#SVGID_2_"  overflow="visible"/>
	</clipPath>
	<polygon clip-path="url(#SVGID_12_)" fill="#FFFFFF" points="126.833,127.625 175.636,118.202 167.585,100.098 118.782,109.521 	
		"/>
</g>
<g>
	<defs>
		<path id="SVGID_1_" d="M168.672,151.956c-9.03,3.188-18.529,4.381-27.28,3.804c0.357,0.04,0.703,0.083,1.063,0.119l0,0
			c10.824,1.064,22.66,0.079,33.699-3.247c5.124-1.545,9.69-3.474,13.645-5.695l-8.845-0.797l-0.129,0.116
			c0.054-0.077,0.104-0.153,0.158-0.23C177.393,148.326,173.269,150.334,168.672,151.956"/>
	</defs>
	<clipPath id="SVGID_13_">
		<use xlink:href="#SVGID_1_"  overflow="visible"/>
	</clipPath>
	<polygon clip-path="url(#SVGID_13_)" fill="#FFFFFF" points="185.972,137.418 136.919,146.888 145.218,165.551 194.27,156.08 	"/>
</g>
<polygon fill="#FFFFFF" points="104.813,195.145 115.835,195.145 115.835,193.431 107.181,193.431 115.346,181.974 115.346,180.259 
	105.085,180.259 105.085,181.974 113.06,181.974 104.813,193.486 "/>
<path fill="#FFFFFF" d="M134.29,188.396c0.001-0.094,0.006-0.185,0.014-0.272c0.008-0.087,0.013-0.178,0.014-0.271
	c0.006-0.656-0.079-1.337-0.258-2.042c-0.179-0.704-0.482-1.411-0.912-2.121c-0.536-0.968-1.368-1.831-2.493-2.59
	c-1.125-0.758-2.508-1.166-4.146-1.221c-2.216,0.098-4.045,0.888-5.487,2.367c-1.443,1.479-2.19,3.305-2.242,5.471
	c0.063,2.254,0.835,4.102,2.317,5.545c1.481,1.442,3.295,2.189,5.439,2.238c1.739-0.032,3.259-0.532,4.558-1.501
	c1.298-0.968,2.219-2.209,2.763-3.725h-2.015c-0.35,0.952-0.983,1.763-1.901,2.429s-2.062,1.028-3.432,1.082
	c-1.506-0.042-2.814-0.577-3.926-1.603s-1.726-2.288-1.845-3.786H134.29z M120.737,186.682c0.334-1.749,1.076-3.035,2.226-3.861
	s2.34-1.235,3.572-1.228c1.241-0.008,2.432,0.401,3.575,1.228c1.142,0.826,1.891,2.112,2.248,3.861H120.737z"/>
<path fill="#FFFFFF" d="M138.829,195.145h1.905v-8.326c0.009-0.928,0.141-1.722,0.398-2.382c0.257-0.661,0.586-1.183,0.988-1.565
	c0.535-0.494,1.1-0.833,1.692-1.017c0.592-0.185,1.108-0.271,1.547-0.262c0.439-0.01,0.956,0.077,1.548,0.262
	c0.592,0.184,1.156,0.522,1.691,1.017c0.416,0.395,0.754,0.933,1.014,1.612c0.259,0.68,0.394,1.504,0.401,2.47v8.191h1.904v-8.191
	c-0.008-1.223-0.177-2.268-0.506-3.137c-0.331-0.869-0.778-1.573-1.344-2.116c-0.679-0.671-1.405-1.145-2.181-1.421
	c-0.776-0.276-1.62-0.41-2.528-0.401c-1.262,0.039-2.269,0.308-3.021,0.806c-0.752,0.499-1.269,0.992-1.551,1.48h-0.055v-1.905
	h-1.905V195.145z"/>
<path fill="#FFFFFF" d="M171.806,188.396c0.001-0.094,0.006-0.185,0.014-0.272c0.008-0.087,0.013-0.178,0.015-0.271
	c0.005-0.656-0.081-1.337-0.259-2.042c-0.179-0.704-0.482-1.411-0.912-2.121c-0.537-0.968-1.368-1.831-2.493-2.59
	c-1.125-0.758-2.508-1.166-4.147-1.221c-2.216,0.098-4.044,0.888-5.487,2.367c-1.441,1.479-2.189,3.305-2.241,5.471
	c0.063,2.254,0.835,4.102,2.316,5.545c1.481,1.442,3.295,2.189,5.44,2.238c1.738-0.032,3.259-0.532,4.558-1.501
	c1.299-0.968,2.219-2.209,2.762-3.725h-2.014c-0.35,0.952-0.984,1.763-1.902,2.429s-2.062,1.028-3.432,1.082
	c-1.506-0.042-2.814-0.577-3.925-1.603c-1.112-1.025-1.726-2.288-1.845-3.786H171.806z M158.253,186.682
	c0.334-1.749,1.075-3.035,2.226-3.861c1.148-0.826,2.339-1.235,3.572-1.228c1.24-0.008,2.432,0.401,3.574,1.228
	s1.893,2.112,2.249,3.861H158.253z"/>
<polygon fill="#FFFFFF" points="181.053,195.145 183.147,195.145 189.435,180.259 187.394,180.259 182.06,192.777 176.807,180.259 
	174.767,180.259 "/>
<path fill="#FFFFFF" d="M208.187,180.259h-1.904v2.612h-0.054c-0.832-1.208-1.795-2.017-2.89-2.426
	c-1.092-0.408-2.062-0.597-2.908-0.567c-2.465,0.075-4.406,0.876-5.827,2.401c-1.419,1.525-2.145,3.319-2.174,5.381
	c0.041,2.196,0.79,4.037,2.246,5.522c1.455,1.484,3.375,2.257,5.755,2.316c0.819,0.029,1.774-0.159,2.868-0.565
	c1.094-0.405,2.07-1.207,2.93-2.402h0.054v2.613h1.904V180.259z M194.335,187.744c0.05-1.912,0.658-3.41,1.824-4.495
	c1.166-1.083,2.589-1.637,4.271-1.655c1.749,0.05,3.171,0.663,4.268,1.837c1.094,1.174,1.659,2.602,1.692,4.286
	c-0.047,1.776-0.639,3.223-1.775,4.341c-1.136,1.117-2.53,1.692-4.185,1.728c-1.849-0.044-3.321-0.637-4.415-1.775
	C194.922,190.87,194.361,189.447,194.335,187.744"/>
</svg>
