<?xml version="1.0" encoding="utf-8"?>
<!-- Generator: Adobe Illustrator 15.0.2, SVG Export Plug-In  -->
<!DOCTYPE svg PUBLIC "-//W3C//DTD SVG 1.1//EN" "http://www.w3.org/Graphics/SVG/1.1/DTD/svg11.dtd" [
	<!ENTITY ns_flows "http://ns.adobe.com/Flows/1.0/">
]>
<svg version="1.1"
	 xmlns="http://www.w3.org/2000/svg" xmlns:xlink="http://www.w3.org/1999/xlink" xmlns:a="http://ns.adobe.com/AdobeSVGViewerExtensions/3.0/"
	 x="0px" y="0px" width="300px" height="300px" viewBox="0 0 300 300" overflow="visible" enable-background="new 0 0 300 300"
	 xml:space="preserve">
<defs>
	
		<pattern  x="-454" y="100" width="300" height="300" patternUnits="userSpaceOnUse" id="v11" viewBox="57.839 -324.055 300 300" overflow="visible">
		<g>
			<polygon fill="none" points="357.839,-24.055 57.839,-24.055 57.839,-324.055 357.839,-324.055 			"/>
			<polygon fill="#0F1D26" points="357.839,-24.055 57.839,-24.055 57.839,-324.055 357.839,-324.055 			"/>
			<g id="taco_8_">
				<path fill="#192F40" d="M134.443-92.275c23.373,15.553,16.859,34.426,16.439,36.213c1.072-0.219,2.807-0.93,3.633-2.197
					c4.457-0.486,5.539-5.002,1.793-7.457c-0.117-1.039-0.453-1.898-0.936-2.555c0.584-1.428,0.182-3.268-1.514-4.756
					c0.068-2.223-0.957-3.762-2.375-4.334c1.1-2.391,0.229-4.57-1.627-5.369c0.385-0.902,0.078-2.059-1.08-2.879
					c-0.139-1.918-1.588-2.816-2.943-2.312c-0.242-0.291-0.547-0.578-0.914-0.84c-0.172-2.439-1.898-3.672-3.631-3.281
					c0.316-1.785-1.043-3.475-3.535-3.512c-0.338-0.414-0.697-0.746-1.08-0.994c-0.209-1.221-1.242-2.299-3.006-2.635
					c-1.195-2.184-3.324-2.586-4.753-1.475c-0.469-1.719-2.369-2.662-4.603-1.668c-0.397-0.209-0.795-0.342-1.174-0.422
					c-0.183-1.436-1.653-2.291-3.413-1.51c-1.272-0.643-2.437-0.377-3.059,0.391c-1.477-1.197-3.623-1.043-5.21,0.729
					c-0.868-0.805-2.104-0.992-3.259-0.422c-0.631,0.086-1.297,0.314-1.975,0.701c-2.319-0.879-4.271-0.189-5.182,1.262
					c-2.55-0.805-4.636,1.225-3.789,4.062c-0.073,0.021-0.145,0.043-0.212,0.07c-2.237-1.342-4.328,0.367-3.456,2.824
					c-0.607,1.012-0.586,1.994-0.16,2.686C95.045-93.656,111.069-107.828,134.443-92.275z"/>
				<path fill="#192F40" d="M132.278-91.791c-25.721-15.564-38.998,2.723-40.192,4.184L148.23-54.32
					C148.781-55.869,157.998-76.229,132.278-91.791z"/>
			</g>
			<path fill-rule="evenodd" clip-rule="evenodd" fill="#192F40" d="M417.127-185.399c0.01,0.424,0.024,0.844,0.041,1.262
				c-10.203-0.582-12.081,6.598-14.663,13.119c-1.655-3.442-7.814-2.065-12.673-2.075c-3.877,2.075-5.249,6.478-7.201,10.338
				c-1.307-2.518-4.93-2.546-8.907-2.204c-3.493,1.609-4.005,6.009-5.979,9.037c-2.43-5.227-16.15-4.585-18.88,0.665
				c1.126-6.442-2.603-7.667-5.394-9.895c-5.297-0.881-5.858,2.658-9.983,2.87c-1.626-8.712-12.952-11.863-20.412-6.84
				c0.294-9.453-5.898-11.962-13.075-13.402c18.332-20.58,36.195,2.833,52.062,10.763c1.536-1.311-3.53-4.962,0.997-7.594
				c4.953,4.309,6.027,2.711,11.321-0.396c4.081,1.773-2.342,8.722,2.787,7.46C379.868-182.223,399.731-204.414,417.127-185.399"/>
			<path fill-rule="evenodd" clip-rule="evenodd" fill="#192F40" d="M117.127-185.399c0.01,0.424,0.024,0.844,0.041,1.262
				c-10.203-0.582-12.081,6.598-14.663,13.119c-1.655-3.442-7.814-2.065-12.673-2.075c-3.877,2.075-5.249,6.478-7.201,10.338
				c-1.307-2.518-4.93-2.546-8.907-2.204c-3.493,1.609-4.005,6.009-5.979,9.037c-2.43-5.227-16.15-4.585-18.88,0.665
				c1.126-6.442-2.603-7.667-5.394-9.895c-5.297-0.881-5.858,2.658-9.983,2.87c-1.626-8.712-12.952-11.863-20.412-6.84
				c0.294-9.453-5.898-11.962-13.075-13.402c18.332-20.58,36.195,2.833,52.062,10.763c1.536-1.311-3.53-4.962,0.997-7.594
				c4.953,4.309,6.027,2.711,11.321-0.396c4.081,1.773-2.342,8.722,2.787,7.46C79.868-182.223,99.731-204.414,117.127-185.399"/>
			<path id="drop_4_" fill="#192F40" d="M248.272-163.082c0,22.333-18.102,40.434-40.432,40.434
				c-22.328,0-40.436-18.101-40.436-40.432c0-34.209,36.133-37.52,40.436-62.381C211.933-200.6,248.272-197.289,248.272-163.082z
				 M186.669-168.916c1.84-5.567,1.792-15.094,9.958-25.921c0,0-16.015,10.523-20.312,19.857c-1.663,3.612-1.416,9.74,2.053,11.101
				C183.125-162.014,185.472-165.293,186.669-168.916z"/>
			<polygon id="stars_5_" fill="#192F40" points="201.378,-30.344 207.917,-47.812 214.307,-30.288 232.939,-29.467 
				218.248,-17.977 223.225,0 207.755,-10.423 192.199,-0.133 197.33,-18.066 182.738,-29.683 			"/>
			<polygon id="stars_4_" fill="#192F40" points="201.378,-330.344 207.917,-347.812 214.307,-330.288 232.939,-329.467 
				218.248,-317.977 223.225,-300 207.755,-310.423 192.199,-300.133 197.33,-318.067 182.738,-329.683 			"/>
			<g>
				<path fill="#192F40" d="M103.657-309.419c-0.584,0.446-2.818,2.195-2.818,2.195v36.557l0,0l-31.823,15.719
					c0,0-0.017,2.994-0.017,3.85c0,0.856,0.058,1.202,1.155,1.757c7.035,3.087,43.521,19.109,44.091,19.348
					c0.631,0.265,1.269,0.182,1.827-0.252c5.282-4.112,33.532-25.652,33.76-25.85c0.253-0.217,1.008-0.414,1.008-0.934
					s0-4.028,0-4.028v-0.03v-0.052c0,0,1.892-1.97,2.089-2.145c0.196-0.175,0.052-0.325,0.052-0.821
					c-0.005-4.649-0.158-35.748-0.15-36.011c0.001-1.74-0.721-2.263-2.408-2.639c-0.344-0.077-44.938-6.941-45.196-6.979
					C104.365-309.866,104.18-309.81,103.657-309.419z"/>
				<polygon fill="#0F1D26" points="103.839,-272.849 146.839,-263.684 146.839,-297.59 103.839,-304.64 				"/>
				<g>
					<polygon fill="#0F1D26" points="101.422,-268.333 107.063,-267.044 103.8,-265.208 98.202,-266.613 					"/>
					<polygon fill="#0F1D26" points="108.23,-266.777 113.871,-265.488 110.558,-263.513 104.959,-264.917 					"/>
					<polygon fill="#0F1D26" points="114.845,-265.266 120.486,-263.976 117.121,-261.865 111.522,-263.271 					"/>
					<polygon fill="#0F1D26" points="121.653,-263.71 127.293,-262.42 123.878,-260.169 118.28,-261.575 					"/>
					<polygon fill="#0F1D26" points="128.461,-262.154 134.102,-260.864 130.637,-258.474 125.037,-259.878 					"/>
					<polygon fill="#0F1D26" points="135.269,-260.598 140.714,-259.353 137.201,-256.826 131.793,-258.183 					"/>
					<polygon fill="#0F1D26" points="97.128,-266.039 102.712,-264.597 99.448,-262.76 93.906,-264.319 					"/>
					<polygon fill="#0F1D26" points="103.867,-264.298 109.452,-262.854 106.138,-260.878 100.596,-262.437 					"/>
					<polygon fill="#0F1D26" points="110.415,-262.605 116,-261.161 112.637,-259.051 107.095,-260.61 					"/>
					<polygon fill="#0F1D26" points="117.156,-260.863 122.741,-259.419 119.327,-257.168 113.783,-258.727 					"/>
					<polygon fill="#0F1D26" points="123.896,-259.12 129.48,-257.677 126.016,-255.286 120.473,-256.846 					"/>
					<polygon fill="#0F1D26" points="130.637,-257.378 136.028,-255.984 132.514,-253.459 127.162,-254.964 					"/>
					<polygon fill="#0F1D26" points="92.832,-263.745 98.362,-262.148 95.098,-260.312 89.611,-262.025 					"/>
					<polygon fill="#0F1D26" points="99.504,-261.816 105.035,-260.22 101.719,-258.244 96.233,-259.957 					"/>
					<polygon fill="#0F1D26" points="105.987,-259.944 111.516,-258.346 108.153,-256.235 102.665,-257.949 					"/>
					<polygon fill="#0F1D26" points="112.66,-258.016 118.188,-256.417 114.774,-254.167 109.287,-255.88 					"/>
					<polygon fill="#0F1D26" points="119.333,-256.088 124.861,-254.49 121.396,-252.1 115.908,-253.812 					"/>
					<polygon fill="#0F1D26" points="126.005,-254.16 131.344,-252.617 127.828,-250.091 122.532,-251.745 					"/>
					<polygon fill="#0F1D26" points="88.538,-261.452 94.01,-259.699 90.747,-257.863 85.315,-259.731 					"/>
					<polygon fill="#0F1D26" points="95.142,-259.337 100.615,-257.585 97.3,-255.61 91.87,-257.478 					"/>
					<polygon fill="#0F1D26" points="101.558,-257.283 107.031,-255.532 103.667,-253.419 98.237,-255.288 					"/>
					<polygon fill="#0F1D26" points="108.164,-255.168 113.635,-253.417 110.222,-251.166 104.792,-253.034 					"/>
					<polygon fill="#0F1D26" points="114.769,-253.055 120.241,-251.303 116.777,-248.913 111.345,-250.78 					"/>
					<polygon fill="#0F1D26" points="121.374,-250.94 126.657,-249.249 123.144,-246.723 117.9,-248.526 					"/>
					<polygon fill="#0F1D26" points="84.241,-259.157 89.659,-257.25 86.395,-255.416 81.021,-257.437 					"/>
					<polygon fill="#0F1D26" points="90.779,-256.857 96.196,-254.952 92.881,-252.976 87.507,-254.996 					"/>
					<polygon fill="#0F1D26" points="97.13,-254.623 102.545,-252.716 99.183,-250.605 93.809,-252.627 					"/>
					<polygon fill="#0F1D26" points="103.667,-252.322 109.084,-250.417 105.669,-248.166 100.295,-250.187 					"/>
					<polygon fill="#0F1D26" points="110.204,-250.021 115.622,-248.115 112.155,-245.726 106.782,-247.747 					"/>
					<polygon fill="#0F1D26" points="116.742,-247.722 121.971,-245.881 118.457,-243.355 113.268,-245.307 					"/>
					<polygon fill="#0F1D26" points="79.947,-256.863 85.307,-254.803 82.044,-252.967 76.725,-255.143 					"/>
					<polygon fill="#0F1D26" points="86.416,-254.377 91.777,-252.316 88.462,-250.341 83.145,-252.517 					"/>
					<polygon fill="#0F1D26" points="92.702,-251.961 98.062,-249.901 94.699,-247.79 89.379,-249.965 					"/>
					<polygon fill="#0F1D26" points="99.17,-249.475 104.532,-247.415 101.116,-245.165 95.799,-247.34 					"/>
					<polygon fill="#0F1D26" points="105.641,-246.989 111,-244.928 107.536,-242.539 102.217,-244.714 					"/>
					<polygon fill="#0F1D26" points="112.11,-244.503 117.287,-242.513 113.772,-239.987 108.636,-242.088 					"/>
				</g>
			</g>
			<g>
				<path fill="#192F40" d="M330.188-42.072c0,1.316-1.066,2.385-2.385,2.385h-35.586c-1.316,0-2.385-1.068-2.385-2.385v-62.016
					c0-1.316,1.068-2.385,2.385-2.385h35.586c1.318,0,2.385,1.068,2.385,2.385V-42.072z"/>
				<polygon fill="#0F1D26" points="326.486,-50.146 293.535,-50.146 293.535,-99.176 326.486,-99.176 				"/>
				<path fill="#0F1D26" d="M310.938-103.195c0,0.512-0.416,0.927-0.928,0.927s-0.928-0.415-0.928-0.927
					c0-0.513,0.416-0.928,0.928-0.928S310.938-103.708,310.938-103.195z"/>
			</g>
			<path fill="#192F40" d="M325.597-250.204c0,7.941-6.461,14.402-14.402,14.402s-14.402-6.461-14.402-14.402
				c0-5.522,3.125-10.325,7.697-12.741l-1.299-3.059l-14.287,15.662c0.311,0.553,0.49,1.189,0.49,1.868
				c0,2.104-1.705,3.809-3.809,3.809c-1.809,0-3.32-1.263-3.709-2.955l-2.053-0.19c-1.145,6.806-7.074,12.009-14.201,12.009
				c-7.941,0-14.402-6.461-14.402-14.402c0-7.941,6.461-14.402,14.402-14.402c2.371,0,4.607,0.579,6.58,1.599l4.699-7.395
				c0.014-0.022,0.029-0.043,0.045-0.063l-2.695-8.015l-1.949,0.398c-0.08,0.017-0.16,0.025-0.238,0.025
				c-0.258,0-0.512-0.083-0.721-0.241l-2.262-1.71c-0.408-0.308-0.574-0.845-0.41-1.331c0.162-0.486,0.617-0.813,1.131-0.813h10.623
				c0.611,0,1.125,0.463,1.188,1.073c0.061,0.609-0.35,1.167-0.949,1.289l-4.057,0.83l2.693,8.006h21.785l-2.805-6.601
				c-0.158-0.368-0.119-0.791,0.102-1.125c0.221-0.334,0.596-0.535,0.996-0.535h9.387c3.139,0,5.695,2.561,5.695,5.708
				c0,3.139-2.557,5.693-5.695,5.693c-0.658,0-1.191-0.534-1.191-1.193s0.533-1.193,1.191-1.193c1.824,0,3.307-1.484,3.307-3.307
				c0-1.832-1.482-3.322-3.307-3.322h-7.584l5.506,12.95c1.418-0.469,2.934-0.727,4.508-0.727
				C319.136-264.606,325.597-258.145,325.597-250.204z M277.438-248.031l-11.984-1.113c-0.414-0.038-0.779-0.289-0.961-0.662
				c-0.184-0.374-0.16-0.815,0.064-1.166l6.361-10.013c-1.6-0.789-3.396-1.234-5.297-1.234c-6.625,0-12.016,5.391-12.016,12.016
				c0,6.626,5.391,12.016,12.016,12.016C271.507-238.188,276.411-242.439,277.438-248.031z M277.634-250.41
				c-0.064-3.788-1.889-7.153-4.689-9.312l-5.326,8.382L277.634-250.41z M283.317-251.528l-5.393-16.034l-3.697,5.817
				c3.518,2.628,5.797,6.824,5.797,11.542c0,0.005,0,0.011,0,0.016l2.07,0.192C282.362-250.608,282.788-251.134,283.317-251.528z
				 M302.165-268.415l-0.092-0.213c-0.117,0.038-0.242,0.06-0.371,0.06h-21.6l5.479,16.287c0.002,0,0.002,0,0.004,0
				c0.555,0,1.08,0.121,1.555,0.334l14.977-16.418C302.132-268.385,302.149-268.399,302.165-268.415z M323.21-250.204
				c0-6.625-5.389-12.016-12.016-12.016c-1.242,0-2.443,0.19-3.572,0.542l4.855,11.421c0.258,0.606-0.025,1.307-0.633,1.565
				c-0.152,0.065-0.311,0.096-0.465,0.096c-0.465,0-0.906-0.273-1.1-0.727l-4.854-11.419c-3.721,2.045-6.248,6.001-6.248,10.538
				c0,6.626,5.391,12.016,12.016,12.016C317.821-238.188,323.21-243.578,323.21-250.204z"/>
		</g>
	</pattern>
</defs>
<pattern  id="SVGID_1_" xlink:href="#v11" patternTransform="matrix(1 0 0 1 0 -32)">
</pattern>
<rect fill="url(#SVGID_1_)" width="300" height="300"/>
</svg>
