<?xml version="1.0" encoding="utf-8"?>
<!-- Generator: Adobe Illustrator 15.0.2, SVG Export Plug-In  -->
<!DOCTYPE svg PUBLIC "-//W3C//DTD SVG 1.1//EN" "http://www.w3.org/Graphics/SVG/1.1/DTD/svg11.dtd" [
	<!ENTITY ns_flows "http://ns.adobe.com/Flows/1.0/">
]>
<svg version="1.1"
	 xmlns="http://www.w3.org/2000/svg" xmlns:xlink="http://www.w3.org/1999/xlink" xmlns:a="http://ns.adobe.com/AdobeSVGViewerExtensions/3.0/"
	 x="0px" y="0px" width="245px" height="218px" viewBox="390.949 19.908 245 218"
	 overflow="visible" enable-background="new 390.949 19.908 245 218" xml:space="preserve">
<defs>
	
		<pattern  x="113" y="89" width="300" height="300" patternUnits="userSpaceOnUse" id="v11" viewBox="57.839 -324.055 300 300" overflow="visible">
		<g>
			<polygon fill="none" points="357.839,-24.055 57.839,-24.055 57.839,-324.055 357.839,-324.055 			"/>
			<polygon fill="#0F1D26" points="357.839,-24.055 57.839,-24.055 57.839,-324.055 357.839,-324.055 			"/>
			<g id="taco_8_">
				<path fill="#192F40" d="M134.443-92.275c23.373,15.553,16.859,34.426,16.439,36.213c1.072-0.219,2.807-0.93,3.633-2.197
					c4.457-0.486,5.539-5.002,1.793-7.457c-0.117-1.039-0.453-1.898-0.936-2.555c0.584-1.428,0.182-3.268-1.514-4.756
					c0.068-2.223-0.957-3.762-2.375-4.334c1.1-2.391,0.229-4.57-1.627-5.369c0.385-0.902,0.078-2.059-1.08-2.879
					c-0.139-1.918-1.588-2.816-2.943-2.312c-0.242-0.291-0.547-0.578-0.914-0.84c-0.172-2.439-1.898-3.672-3.631-3.281
					c0.316-1.785-1.043-3.475-3.535-3.512c-0.338-0.414-0.697-0.746-1.08-0.994c-0.209-1.221-1.242-2.299-3.006-2.635
					c-1.195-2.184-3.324-2.586-4.753-1.475c-0.469-1.719-2.369-2.662-4.603-1.668c-0.397-0.209-0.795-0.342-1.174-0.422
					c-0.183-1.436-1.653-2.291-3.413-1.51c-1.272-0.643-2.437-0.377-3.059,0.391c-1.477-1.197-3.623-1.043-5.21,0.729
					c-0.868-0.805-2.104-0.992-3.259-0.422c-0.631,0.086-1.297,0.314-1.975,0.701c-2.319-0.879-4.271-0.189-5.182,1.262
					c-2.55-0.805-4.636,1.225-3.789,4.062c-0.073,0.021-0.145,0.043-0.212,0.07c-2.237-1.342-4.328,0.367-3.456,2.824
					c-0.607,1.012-0.586,1.994-0.16,2.686C95.045-93.656,111.069-107.828,134.443-92.275z"/>
				<path fill="#192F40" d="M132.278-91.791c-25.721-15.564-38.998,2.723-40.192,4.184L148.23-54.32
					C148.781-55.869,157.998-76.229,132.278-91.791z"/>
			</g>
			<path fill-rule="evenodd" clip-rule="evenodd" fill="#192F40" d="M417.127-185.399c0.01,0.424,0.024,0.844,0.041,1.262
				c-10.203-0.582-12.081,6.598-14.663,13.119c-1.655-3.442-7.814-2.065-12.673-2.075c-3.877,2.075-5.249,6.478-7.201,10.338
				c-1.307-2.518-4.93-2.546-8.907-2.204c-3.493,1.609-4.005,6.009-5.979,9.037c-2.43-5.227-16.15-4.585-18.88,0.665
				c1.126-6.442-2.603-7.667-5.394-9.895c-5.297-0.881-5.858,2.658-9.983,2.87c-1.626-8.712-12.952-11.863-20.412-6.84
				c0.294-9.453-5.898-11.962-13.075-13.402c18.332-20.58,36.195,2.833,52.062,10.763c1.536-1.311-3.53-4.962,0.997-7.594
				c4.953,4.309,6.027,2.711,11.321-0.396c4.081,1.773-2.342,8.722,2.787,7.46C379.868-182.223,399.731-204.414,417.127-185.399"/>
			<path fill-rule="evenodd" clip-rule="evenodd" fill="#192F40" d="M117.127-185.399c0.01,0.424,0.024,0.844,0.041,1.262
				c-10.203-0.582-12.081,6.598-14.663,13.119c-1.655-3.442-7.814-2.065-12.673-2.075c-3.877,2.075-5.249,6.478-7.201,10.338
				c-1.307-2.518-4.93-2.546-8.907-2.204c-3.493,1.609-4.005,6.009-5.979,9.037c-2.43-5.227-16.15-4.585-18.88,0.665
				c1.126-6.442-2.603-7.667-5.394-9.895c-5.297-0.881-5.858,2.658-9.983,2.87c-1.626-8.712-12.952-11.863-20.412-6.84
				c0.294-9.453-5.898-11.962-13.075-13.402c18.332-20.58,36.195,2.833,52.062,10.763c1.536-1.311-3.53-4.962,0.997-7.594
				c4.953,4.309,6.027,2.711,11.321-0.396c4.081,1.773-2.342,8.722,2.787,7.46C79.868-182.223,99.731-204.414,117.127-185.399"/>
			<path id="drop_4_" fill="#192F40" d="M248.272-163.082c0,22.333-18.102,40.434-40.432,40.434
				c-22.328,0-40.436-18.101-40.436-40.432c0-34.209,36.133-37.52,40.436-62.381C211.933-200.6,248.272-197.289,248.272-163.082z
				 M186.669-168.916c1.84-5.567,1.792-15.094,9.958-25.921c0,0-16.015,10.523-20.312,19.857c-1.663,3.612-1.416,9.74,2.053,11.101
				C183.125-162.014,185.472-165.293,186.669-168.916z"/>
			<polygon id="stars_5_" fill="#192F40" points="201.378,-30.344 207.917,-47.812 214.307,-30.288 232.939,-29.467 
				218.248,-17.977 223.225,0 207.755,-10.423 192.199,-0.133 197.33,-18.066 182.738,-29.683 			"/>
			<polygon id="stars_4_" fill="#192F40" points="201.378,-330.344 207.917,-347.812 214.307,-330.288 232.939,-329.467 
				218.248,-317.977 223.225,-300 207.755,-310.423 192.199,-300.133 197.33,-318.067 182.738,-329.683 			"/>
			<g>
				<path fill="#192F40" d="M103.657-309.419c-0.584,0.446-2.818,2.195-2.818,2.195v36.557l0,0l-31.823,15.719
					c0,0-0.017,2.994-0.017,3.85c0,0.856,0.058,1.202,1.155,1.757c7.035,3.087,43.521,19.109,44.091,19.348
					c0.631,0.265,1.269,0.182,1.827-0.252c5.282-4.112,33.532-25.652,33.76-25.85c0.253-0.217,1.008-0.414,1.008-0.934
					s0-4.028,0-4.028v-0.03v-0.052c0,0,1.892-1.97,2.089-2.145c0.196-0.175,0.052-0.325,0.052-0.821
					c-0.005-4.649-0.158-35.748-0.15-36.011c0.001-1.74-0.721-2.263-2.408-2.639c-0.344-0.077-44.938-6.941-45.196-6.979
					C104.365-309.866,104.18-309.81,103.657-309.419z"/>
				<polygon fill="#0F1D26" points="103.839,-272.849 146.839,-263.684 146.839,-297.59 103.839,-304.64 				"/>
				<g>
					<polygon fill="#0F1D26" points="101.422,-268.333 107.063,-267.044 103.8,-265.208 98.202,-266.613 					"/>
					<polygon fill="#0F1D26" points="108.23,-266.777 113.871,-265.488 110.558,-263.513 104.959,-264.917 					"/>
					<polygon fill="#0F1D26" points="114.845,-265.266 120.486,-263.976 117.121,-261.865 111.522,-263.271 					"/>
					<polygon fill="#0F1D26" points="121.653,-263.71 127.293,-262.42 123.878,-260.169 118.28,-261.575 					"/>
					<polygon fill="#0F1D26" points="128.461,-262.154 134.102,-260.864 130.637,-258.474 125.037,-259.878 					"/>
					<polygon fill="#0F1D26" points="135.269,-260.598 140.714,-259.353 137.201,-256.826 131.793,-258.183 					"/>
					<polygon fill="#0F1D26" points="97.128,-266.039 102.712,-264.597 99.448,-262.76 93.906,-264.319 					"/>
					<polygon fill="#0F1D26" points="103.867,-264.298 109.452,-262.854 106.138,-260.878 100.596,-262.437 					"/>
					<polygon fill="#0F1D26" points="110.415,-262.605 116,-261.161 112.637,-259.051 107.095,-260.61 					"/>
					<polygon fill="#0F1D26" points="117.156,-260.863 122.741,-259.419 119.327,-257.168 113.783,-258.727 					"/>
					<polygon fill="#0F1D26" points="123.896,-259.12 129.48,-257.677 126.016,-255.286 120.473,-256.846 					"/>
					<polygon fill="#0F1D26" points="130.637,-257.378 136.028,-255.984 132.514,-253.459 127.162,-254.964 					"/>
					<polygon fill="#0F1D26" points="92.832,-263.745 98.362,-262.148 95.098,-260.312 89.611,-262.025 					"/>
					<polygon fill="#0F1D26" points="99.504,-261.816 105.035,-260.22 101.719,-258.244 96.233,-259.957 					"/>
					<polygon fill="#0F1D26" points="105.987,-259.944 111.516,-258.346 108.153,-256.235 102.665,-257.949 					"/>
					<polygon fill="#0F1D26" points="112.66,-258.016 118.188,-256.417 114.774,-254.167 109.287,-255.88 					"/>
					<polygon fill="#0F1D26" points="119.333,-256.088 124.861,-254.49 121.396,-252.1 115.908,-253.812 					"/>
					<polygon fill="#0F1D26" points="126.005,-254.16 131.344,-252.617 127.828,-250.091 122.532,-251.745 					"/>
					<polygon fill="#0F1D26" points="88.538,-261.452 94.01,-259.699 90.747,-257.863 85.315,-259.731 					"/>
					<polygon fill="#0F1D26" points="95.142,-259.337 100.615,-257.585 97.3,-255.61 91.87,-257.478 					"/>
					<polygon fill="#0F1D26" points="101.558,-257.283 107.031,-255.532 103.667,-253.419 98.237,-255.288 					"/>
					<polygon fill="#0F1D26" points="108.164,-255.168 113.635,-253.417 110.222,-251.166 104.792,-253.034 					"/>
					<polygon fill="#0F1D26" points="114.769,-253.055 120.241,-251.303 116.777,-248.913 111.345,-250.78 					"/>
					<polygon fill="#0F1D26" points="121.374,-250.94 126.657,-249.249 123.144,-246.723 117.9,-248.526 					"/>
					<polygon fill="#0F1D26" points="84.241,-259.157 89.659,-257.25 86.395,-255.416 81.021,-257.437 					"/>
					<polygon fill="#0F1D26" points="90.779,-256.857 96.196,-254.952 92.881,-252.976 87.507,-254.996 					"/>
					<polygon fill="#0F1D26" points="97.13,-254.623 102.545,-252.716 99.183,-250.605 93.809,-252.627 					"/>
					<polygon fill="#0F1D26" points="103.667,-252.322 109.084,-250.417 105.669,-248.166 100.295,-250.187 					"/>
					<polygon fill="#0F1D26" points="110.204,-250.021 115.622,-248.115 112.155,-245.726 106.782,-247.747 					"/>
					<polygon fill="#0F1D26" points="116.742,-247.722 121.971,-245.881 118.457,-243.355 113.268,-245.307 					"/>
					<polygon fill="#0F1D26" points="79.947,-256.863 85.307,-254.803 82.044,-252.967 76.725,-255.143 					"/>
					<polygon fill="#0F1D26" points="86.416,-254.377 91.777,-252.316 88.462,-250.341 83.145,-252.517 					"/>
					<polygon fill="#0F1D26" points="92.702,-251.961 98.062,-249.901 94.699,-247.79 89.379,-249.965 					"/>
					<polygon fill="#0F1D26" points="99.17,-249.475 104.532,-247.415 101.116,-245.165 95.799,-247.34 					"/>
					<polygon fill="#0F1D26" points="105.641,-246.989 111,-244.928 107.536,-242.539 102.217,-244.714 					"/>
					<polygon fill="#0F1D26" points="112.11,-244.503 117.287,-242.513 113.772,-239.987 108.636,-242.088 					"/>
				</g>
			</g>
			<g>
				<path fill="#192F40" d="M330.188-42.072c0,1.316-1.066,2.385-2.385,2.385h-35.586c-1.316,0-2.385-1.068-2.385-2.385v-62.016
					c0-1.316,1.068-2.385,2.385-2.385h35.586c1.318,0,2.385,1.068,2.385,2.385V-42.072z"/>
				<polygon fill="#0F1D26" points="326.486,-50.146 293.535,-50.146 293.535,-99.176 326.486,-99.176 				"/>
				<path fill="#0F1D26" d="M310.938-103.195c0,0.512-0.416,0.927-0.928,0.927s-0.928-0.415-0.928-0.927
					c0-0.513,0.416-0.928,0.928-0.928S310.938-103.708,310.938-103.195z"/>
			</g>
			<path fill="#192F40" d="M325.597-250.204c0,7.941-6.461,14.402-14.402,14.402s-14.402-6.461-14.402-14.402
				c0-5.522,3.125-10.325,7.697-12.741l-1.299-3.059l-14.287,15.662c0.311,0.553,0.49,1.189,0.49,1.868
				c0,2.104-1.705,3.809-3.809,3.809c-1.809,0-3.32-1.263-3.709-2.955l-2.053-0.19c-1.145,6.806-7.074,12.009-14.201,12.009
				c-7.941,0-14.402-6.461-14.402-14.402c0-7.941,6.461-14.402,14.402-14.402c2.371,0,4.607,0.579,6.58,1.599l4.699-7.395
				c0.014-0.022,0.029-0.043,0.045-0.063l-2.695-8.015l-1.949,0.398c-0.08,0.017-0.16,0.025-0.238,0.025
				c-0.258,0-0.512-0.083-0.721-0.241l-2.262-1.71c-0.408-0.308-0.574-0.845-0.41-1.331c0.162-0.486,0.617-0.813,1.131-0.813h10.623
				c0.611,0,1.125,0.463,1.188,1.073c0.061,0.609-0.35,1.167-0.949,1.289l-4.057,0.83l2.693,8.006h21.785l-2.805-6.601
				c-0.158-0.368-0.119-0.791,0.102-1.125c0.221-0.334,0.596-0.535,0.996-0.535h9.387c3.139,0,5.695,2.561,5.695,5.708
				c0,3.139-2.557,5.693-5.695,5.693c-0.658,0-1.191-0.534-1.191-1.193s0.533-1.193,1.191-1.193c1.824,0,3.307-1.484,3.307-3.307
				c0-1.832-1.482-3.322-3.307-3.322h-7.584l5.506,12.95c1.418-0.469,2.934-0.727,4.508-0.727
				C319.136-264.606,325.597-258.145,325.597-250.204z M277.438-248.031l-11.984-1.113c-0.414-0.038-0.779-0.289-0.961-0.662
				c-0.184-0.374-0.16-0.815,0.064-1.166l6.361-10.013c-1.6-0.789-3.396-1.234-5.297-1.234c-6.625,0-12.016,5.391-12.016,12.016
				c0,6.626,5.391,12.016,12.016,12.016C271.507-238.188,276.411-242.439,277.438-248.031z M277.634-250.41
				c-0.064-3.788-1.889-7.153-4.689-9.312l-5.326,8.382L277.634-250.41z M283.317-251.528l-5.393-16.034l-3.697,5.817
				c3.518,2.628,5.797,6.824,5.797,11.542c0,0.005,0,0.011,0,0.016l2.07,0.192C282.362-250.608,282.788-251.134,283.317-251.528z
				 M302.165-268.415l-0.092-0.213c-0.117,0.038-0.242,0.06-0.371,0.06h-21.6l5.479,16.287c0.002,0,0.002,0,0.004,0
				c0.555,0,1.08,0.121,1.555,0.334l14.977-16.418C302.132-268.385,302.149-268.399,302.165-268.415z M323.21-250.204
				c0-6.625-5.389-12.016-12.016-12.016c-1.242,0-2.443,0.19-3.572,0.542l4.855,11.421c0.258,0.606-0.025,1.307-0.633,1.565
				c-0.152,0.065-0.311,0.096-0.465,0.096c-0.465,0-0.906-0.273-1.1-0.727l-4.854-11.419c-3.721,2.045-6.248,6.001-6.248,10.538
				c0,6.626,5.391,12.016,12.016,12.016C317.821-238.188,323.21-243.578,323.21-250.204z"/>
		</g>
	</pattern>
</defs>
<pattern  id="SVGID_1_" xlink:href="#v11" patternTransform="matrix(1 0 0 1 91 -13)">
</pattern>
<rect display="none" fill="url(#SVGID_1_)" width="1026" height="776"/>
<rect x="76" y="102" display="none" fill="#283A47" width="917" height="49"/>
<path fill="#176DAD" d="M512.885,21.707c-6.274,36.275-58.991,41.108-58.991,91.009c0,32.588,26.415,58.991,58.991,58.991
	c32.574,0,58.985-26.403,58.985-58.991C571.87,62.815,518.851,57.982,512.885,21.707z"/>
<path fill="#135C91" d="M512.885,21.707c-6.274,36.275,40.383,52.225,40.383,102.125c0,32.588-40.383,47.875-40.383,47.875
	c32.574,0,58.985-26.403,58.985-58.991C571.87,62.815,518.851,57.982,512.885,21.707z"/>
<g>
	<path fill="#152835" d="M550.328,140.146c-0.473-4.035-2.727-8.26-7.098-8.91c-3.818-0.568-7.22,2.353-7.348,6.204
		c-0.049,1.472,1.055-1.073,2.436-2.236c1.381-1.162,3.35-1.618,4.975-0.532c3.301,2.206,2.105,7.771-0.853,9.529
		c-3.538,2.899-9.891-1.766-12.673-4.185c-3.414-2.971-12.214-10.667-16.974-6.621c-4.761-4.046-13.561,3.65-16.975,6.621
		c-2.781,2.419-9.135,7.084-12.672,4.185c-2.959-1.759-4.153-7.323-0.854-9.529c1.625-1.086,3.595-0.63,4.976,0.532
		c1.382,1.163,2.483,3.708,2.435,2.236c-0.128-3.851-3.528-6.771-7.347-6.204c-4.372,0.65-6.625,4.875-7.099,8.91
		c-1.066,9.098,7.742,15.354,16.023,15.975c9.229,0.692,17.812-4.981,21.512-13.354c3.7,8.374,12.282,14.046,21.511,13.354
		C542.586,155.5,551.395,149.244,550.328,140.146z"/>
</g>
<g>
	<path fill="#0B151C" d="M549.407,146.468c-0.468,1.07-1.083,2.067-1.817,2.984c-3.094,3.866-8.286,6.294-13.285,6.669
		c-3.009,0.226-5.948-0.225-8.674-1.226c-1.279-0.47-2.512-1.06-3.682-1.76c-1.168-0.698-2.271-1.504-3.299-2.404
		c0,0,12.257,3.266,20.652,1.395C547.697,150.254,549.407,146.468,549.407,146.468z"/>
</g>
<g>
	<path fill="#0B151C" d="M512.794,142.767c-3.7,8.374-12.282,14.046-21.512,13.354c-4.141-0.311-8.413-2.03-11.518-4.809
		c0,0,4.381,4.105,14.562,1.349C504.51,149.904,512.794,142.767,512.794,142.767z"/>
</g>
<path fill="#152835" d="M576.91,79.3l-11.143-1.492c-5.152-0.856-10.284-1.29-15.273-1.29c-18.914,0-29.881,6.069-30.162,6.247
	c-0.823,0.294-1.703,0.904-2.582,1.093c-0.328-0.178-0.693,0.142-1.105,0.142h-7.302c-0.411,0-0.775-0.313-1.116-0.131
	c-0.821-0.178-1.653-0.552-2.382-0.803c-0.459-0.26-11.436-6.439-30.352-6.439c-4.979,0-10.12,0.379-15.228,1.231l-11.036,1.458
	l-2.454,0.867l0.493,11.781l0.692,0.255c0.035,0.012,3.287,1.62,3.709,4.327c0.071,0.416,0.329,1.337,0.671,2.481
	c0.411,1.432,0.927,3.245,1.361,5.118c0.799,2.336,1.62,4.744,2.795,7.015c1.444,2.801,3.229,6.275,6.938,7.567
	c3.816,2.288,8.84,3.499,15.275,3.699c0,0,0.938,0.095,2.454,0.095c4.859,0,16.647-0.988,21.157-10.122l5.271-10.087
	c0.013-0.036,0.646-2.312,2.184-3.312h6.411c1.562,1,2.23,3.348,2.29,3.523l5.188,10.186c4.51,9.134,16.309,9.967,21.17,9.967
	c1.455,0,2.371-0.167,2.371-0.173c6.517-0.199,11.543-1.454,15.157-3.644c3.897-1.385,5.694-4.879,7.127-7.673
	c1.188-2.277,2.007-4.694,2.899-7.361c0.328-1.542,0.858-3.362,1.27-4.793c0.327-1.144,0.587-2.068,0.655-2.493
	c0.366-2.265,2.562-3.886,3.723-4.321l0.694-0.26l0.492-11.788L576.91,79.3z M501.466,100.381
	c-1.012,3.077-4.476,11.583-8.338,13.927c-2.993,1.836-7.058,2.798-11.729,2.798c-2.581,0-5.249-0.292-7.914-0.892
	c-7.301-1.608-9.227-3.558-11-8.25c-1.868-4.947-2.724-8.481-2.524-15.186c0.177-5.859,8.184-7.596,8.253-7.614
	c3.852-0.794,7.738-1.192,11.566-1.192c10.65,0,18.326,3.159,19.901,4.768c1.96,2.031,2.266,4.533,2.336,6.235
	C502.075,96.336,501.605,99.46,501.466,100.381z M450.942,85.998c0-0.658,0.528-0.998,1.211-0.998h3.945
	c0.656,0,1.186,0.34,1.186,0.998c0,0.663-0.529,1.002-1.186,1.002h-3.945C451.471,87,450.942,86.66,450.942,85.998z M574.011,87
	h-3.956c-0.657,0-1.197-0.34-1.197-1.002c0-0.658,0.54-0.998,1.197-0.998h3.956c0.646,0,1.187,0.34,1.187,0.998
	C575.197,86.66,574.656,87,574.011,87z M552.653,116.214c-2.663,0.6-5.319,0.892-7.899,0.892c-4.672,0-8.736-0.962-11.742-2.798
	c-4.626-2.813-8.266-13.769-8.278-13.769c-0.186-1.091-0.656-4.209-0.609-5.563c0.071-1.703,0.387-4.211,2.349-6.235
	c1.574-1.609,9.24-4.768,19.9-4.768c3.814,0,7.702,0.398,11.554,1.192c0.069,0.018,8.078,1.755,8.254,7.614
	c0.199,6.693-0.694,10.366-2.513,15.193C561.896,112.647,559.969,114.602,552.653,116.214z"/>
<path fill="#C5D5F0" d="M479.779,83.973c-3.828,0-7.715,0.398-11.566,1.192c-0.069,0.018-8.076,1.755-8.253,7.614
	c-0.199,6.704,0.656,10.239,2.524,15.186c1.773,4.692,3.699,6.641,11,8.25c2.665,0.6,5.333,0.892,7.914,0.892
	c4.672,0,8.736-0.962,11.729-2.798c3.862-2.344,7.326-10.851,8.338-13.927c0.14-0.92,0.609-4.044,0.551-5.405
	c-0.07-1.703-0.376-4.204-2.336-6.235C498.105,87.132,490.43,83.973,479.779,83.973z"/>
<path fill="#C5D5F0" d="M557.927,85.165c-3.852-0.794-7.739-1.192-11.554-1.192c-10.66,0-18.326,3.159-19.9,4.768
	c-1.962,2.024-2.277,4.533-2.349,6.235c-0.047,1.354,0.424,4.472,0.609,5.563c0.013,0,3.652,10.955,8.278,13.769
	c3.006,1.836,7.07,2.798,11.742,2.798c2.58,0,5.236-0.292,7.899-0.892c7.315-1.612,9.242-3.567,11.015-8.242
	c1.818-4.827,2.712-8.5,2.513-15.193C566.005,86.92,557.996,85.183,557.927,85.165z"/>
<path fill="#C5D5F0" d="M456.099,85h-3.945c-0.683,0-1.211,0.34-1.211,0.998c0,0.663,0.528,1.002,1.211,1.002h3.945
	c0.656,0,1.186-0.34,1.186-1.002C457.284,85.34,456.755,85,456.099,85z"/>
<path fill="#C5D5F0" d="M574.011,85h-3.956c-0.657,0-1.197,0.34-1.197,0.998c0,0.663,0.54,1.002,1.197,1.002h3.956
	c0.646,0,1.187-0.34,1.187-1.002C575.197,85.34,574.656,85,574.011,85z"/>
<path fill="#A5B3C9" d="M557.927,85.165c-0.794,11.963-12.763,26.621-24.915,29.143c3.006,1.836,7.07,2.798,11.742,2.798
	c2.58,0,5.236-0.292,7.899-0.892c7.315-1.612,9.242-3.567,11.015-8.242c1.818-4.827,2.712-8.5,2.513-15.193
	C566.005,86.92,557.996,85.183,557.927,85.165z"/>
<path fill="#A5B3C9" d="M466.258,113.506c1.596,1.138,3.829,1.96,7.227,2.708c2.665,0.6,5.333,0.892,7.914,0.892
	c4.672,0,8.736-0.962,11.729-2.798c3.862-2.344,7.326-10.851,8.338-13.927c0.14-0.92,0.609-4.044,0.551-5.405
	c-0.07-1.703-0.376-4.204-2.336-6.235c-0.739-0.754-2.817-1.849-5.915-2.799C490.725,98.192,477.906,109.478,466.258,113.506z"/>
<path fill="#C5D5F0" d="M415.631,192.19c0,8.423-4.932,12.85-14.47,12.85c-2.952,0-5.688-0.36-8.927-1.08v-24.549h10.762
	C410.879,179.411,415.631,183.479,415.631,192.19z M401.449,187.187v10.006c0.252,0.036,0.576,0.072,0.9,0.072
	c2.591,0,3.563-1.764,3.563-4.932c0-3.671-1.116-5.147-2.916-5.147H401.449z"/>
<path fill="#C5D5F0" d="M426.648,204.68h-9.215v-25.269h10.475c6.695,0,10.979,3.204,10.979,9.467c0,2.952-1.152,5.22-2.988,6.768
	l3.888,8.675l-10.259,0.72l-2.34-6.983c-0.18,0-0.36-0.036-0.54-0.072V204.68z M426.648,190.57c0.396,0.108,0.72,0.144,1.008,0.144
	c1.116,0,2.016-0.432,2.016-2.052c0-1.26-0.72-1.872-2.016-1.872h-1.008V190.57z"/>
<path fill="#C5D5F0" d="M449.89,194.637c0,2.088,0.684,2.484,2.339,2.484c1.584,0,2.268-0.396,2.268-2.484v-15.226h9.215v16.126
	c0,6.947-4.896,9.503-11.483,9.503c-6.767,0-11.554-2.556-11.554-9.503v-16.126h9.215V194.637z"/>
<path fill="#C5D5F0" d="M475.608,204.68h-9.215v-25.269h11.23c6.119,0,10.115,3.204,10.115,9.611c0,6.191-4.392,9.503-10.187,9.503
	c-0.648,0-1.26-0.036-1.943-0.108V204.68z M475.608,190.966c0.324,0.108,0.684,0.144,0.972,0.144c1.08,0,1.944-0.576,1.944-2.304
	c0-1.152-0.54-1.979-1.692-1.979h-1.224V190.966z"/>
<path fill="#C5D5F0" d="M496.675,201.621l-0.504,3.06h-9.755l6.371-25.089l13.103-0.36l6.407,25.449h-9.791l-0.54-3.06H496.675z
	 M499.338,185.891l-1.332,7.811h2.628L499.338,185.891z"/>
<path fill="#C5D5F0" d="M522.418,179.411v17.494h8.675l-0.36,7.775h-17.529v-25.269H522.418z"/>
<path fill="#C5D5F0" d="M541.264,192.046c0,3.527,1.008,4.715,3.814,4.715c1.621,0,2.952-0.216,5.256-0.648l1.439,7.991
	c-2.375,0.576-5.291,0.936-7.631,0.936c-6.982,0-12.598-3.24-12.598-12.994c0-9.755,5.615-12.995,12.598-12.995
	c2.34,0,5.256,0.36,7.631,0.936l-1.439,7.991c-2.304-0.432-3.635-0.647-5.256-0.647
	C542.271,187.331,541.264,188.518,541.264,192.046z"/>
<path fill="#C5D5F0" d="M562.508,201.621l-0.504,3.06h-9.756l6.371-25.089l13.104-0.36l6.406,25.449h-9.791l-0.539-3.06H562.508z
	 M565.171,185.891l-1.332,7.811h2.628L565.171,185.891z"/>
<path fill="#C5D5F0" d="M588.013,189.346l-0.396,15.334h-8.928l2.7-25.089l11.663-0.36l2.016,13.966l1.799-13.606l11.663-0.36
	l3.023,25.449h-9.034l-0.433-15.298l-2.663,15.118l-8.639,0.36L588.013,189.346z"/>
<path fill="#C5D5F0" d="M622.533,204.68h-9.215v-25.269h11.23c6.119,0,10.115,3.204,10.115,9.611c0,6.191-4.393,9.503-10.188,9.503
	c-0.648,0-1.26-0.036-1.943-0.108V204.68z M622.533,190.966c0.324,0.108,0.684,0.144,0.972,0.144c1.08,0,1.944-0.576,1.944-2.304
	c0-1.152-0.541-1.979-1.692-1.979h-1.224V190.966z"/>
<path fill="#97C441" d="M457.567,232.689l-0.504,3.06h-9.755l6.371-25.089l13.103-0.36l6.407,25.449h-9.791l-0.54-3.06H457.567z
	 M460.23,216.959l-1.332,7.811h2.628L460.23,216.959z"/>
<path fill="#97C441" d="M482.68,225.706c0,2.088,0.684,2.484,2.339,2.484c1.584,0,2.268-0.396,2.268-2.484v-15.226h9.215v16.126
	c0,6.947-4.896,9.503-11.483,9.503c-6.767,0-11.554-2.556-11.554-9.503v-16.126h9.215V225.706z"/>
<path fill="#97C441" d="M500.627,227.146c3.563,1.008,6.587,1.44,8.999,1.44c1.476,0,1.116-1.584,0.396-1.584
	c-4.5,0.108-11.95-1.296-11.95-8.279c0-5.327,2.879-8.603,11.59-8.603c2.916,0,6.587,0.396,9.215,1.188l-1.512,7.775
	c-3.384-0.936-6.3-1.44-9-1.44c-1.44,0-1.116,1.584-0.396,1.584c0.828,0,11.95-0.432,11.95,8.423c0,5.219-2.807,8.459-11.482,8.459
	c-2.916,0-6.695-0.396-9.323-1.188L500.627,227.146z"/>
<path fill="#97C441" d="M519.857,218.255l0.36-7.775h21.021l-0.36,7.775h-5.723v17.494h-9.215v-17.494H519.857z"/>
<path fill="#97C441" d="M551.516,210.479v25.269h-9.215v-25.269H551.516z"/>
<path fill="#97C441" d="M563.066,235.749h-8.854V210.66l8.314-0.36l5.867,10.619v-10.439h8.855v25.089l-8.315,0.36l-5.868-10.619
	V235.749z"/>
<polygon fill="#D34913" points="602.009,219.967 611.89,220.121 604.044,226.127 606.949,235.572 598.812,229.967 590.729,235.648 
	593.545,226.178 585.644,220.245 595.521,219.998 598.72,210.648 "/>
<polygon fill="#D34913" points="433.468,219.967 443.348,220.121 435.503,226.127 438.409,235.572 430.271,229.967 422.188,235.648 
	425.004,226.178 417.103,220.245 426.98,219.998 430.18,210.648 "/>
<text transform="matrix(1 0 0 1 600.8281 136)" display="none" fill="#ED9310" font-family="'GloriolaDisplayStdFat'" font-size="24">Workshops</text>
<text transform="matrix(1 0 0 1 306.0254 136)" display="none" fill="#ED9310" font-family="'GloriolaDisplayStdFat'" font-size="24">Sessions</text>
</svg>
