<?xml version="1.0" encoding="utf-8"?>
<!-- Generator: Adobe Illustrator 15.0.2, SVG Export Plug-In  -->
<!DOCTYPE svg PUBLIC "-//W3C//DTD SVG 1.1//EN" "http://www.w3.org/Graphics/SVG/1.1/DTD/svg11.dtd" [
	<!ENTITY ns_flows "http://ns.adobe.com/Flows/1.0/">
]>
<svg version="1.1"
	 xmlns="http://www.w3.org/2000/svg" xmlns:xlink="http://www.w3.org/1999/xlink" xmlns:a="http://ns.adobe.com/AdobeSVGViewerExtensions/3.0/"
	 x="0px" y="0px" width="248px" height="190px" viewBox="-0.078 0 248 190"
	 overflow="visible" enable-background="new -0.078 0 248 190" xml:space="preserve">
<defs>
</defs>
<path fill="#97C441" d="M24.307,140.516c0,8.753-5.124,13.352-15.032,13.352c-3.066,0-5.908-0.375-9.274-1.123v-25.503h11.183
	C19.369,127.241,24.307,131.467,24.307,140.516z M9.573,135.32v10.395c0.261,0.039,0.599,0.075,0.934,0.075
	c2.691,0,3.702-1.831,3.702-5.122c0-3.815-1.16-5.348-3.026-5.348H9.573z"/>
<path fill="#97C441" d="M35.379,153.491h-9.575v-26.25h10.885c6.955,0,11.404,3.327,11.404,9.835c0,3.066-1.197,5.422-3.104,7.029
	l4.039,9.013l-10.66,0.749l-2.428-7.255c-0.189,0-0.375-0.038-0.562-0.074L35.379,153.491L35.379,153.491z M35.379,138.834
	c0.412,0.112,0.744,0.149,1.045,0.149c1.16,0,2.095-0.449,2.095-2.132c0-1.309-0.746-1.944-2.095-1.944h-1.045V138.834z"/>
<path fill="#97C441" d="M59.353,143.062c0,2.167,0.711,2.579,2.43,2.579c1.646,0,2.355-0.412,2.355-2.579v-15.819h9.575v16.753
	c0,7.218-5.087,9.873-11.933,9.873c-7.028,0-12.002-2.655-12.002-9.873v-16.753h9.572v15.819H59.353z"/>
<path fill="#97C441" d="M85.532,153.491h-9.576v-26.25h11.668c6.357,0,10.509,3.327,10.509,9.984c0,6.432-4.562,9.87-10.582,9.87
	c-0.675,0-1.312-0.036-2.019-0.111V153.491L85.532,153.491z M85.532,139.244c0.334,0.113,0.707,0.149,1.009,0.149
	c1.12,0,2.021-0.597,2.021-2.392c0-1.197-0.562-2.057-1.76-2.057H85.53v4.299H85.532z"/>
<path fill="#97C441" d="M106.362,150.315l-0.523,3.176H95.705l6.618-26.063l13.609-0.375l6.659,26.438h-10.171l-0.562-3.176H106.362
	z M109.13,133.971l-1.384,8.115h2.729L109.13,133.971z"/>
<path fill="#97C441" d="M132.918,127.241v18.174h9.012l-0.376,8.076h-18.212v-26.25H132.918z"/>
<path fill="#97C441" d="M152.399,140.366c0,3.665,1.049,4.899,3.967,4.899c1.683,0,3.063-0.227,5.459-0.674l1.494,8.301
	c-2.467,0.598-5.496,0.974-7.928,0.974c-7.253,0-13.088-3.366-13.088-13.5c0-10.135,5.835-13.5,13.088-13.5
	c2.432,0,5.461,0.375,7.928,0.972l-1.494,8.303c-2.396-0.449-3.776-0.674-5.459-0.674
	C153.448,135.469,152.399,136.702,152.399,140.366z"/>
<path fill="#97C441" d="M173.794,150.315l-0.523,3.176h-10.136l6.618-26.063l13.611-0.375l6.658,26.438h-10.174l-0.56-3.176H173.794
	z M176.562,133.971l-1.386,8.115h2.729L176.562,133.971z"/>
<path fill="#97C441" d="M199.71,137.563l-0.412,15.929h-9.273l2.806-26.062l12.116-0.375l2.094,14.509l1.869-14.136l12.115-0.375
	l3.142,26.438h-9.382l-0.451-15.894l-2.77,15.707l-8.974,0.375L199.71,137.563z"/>
<path fill="#97C441" d="M235.239,153.491h-9.572v-26.25h11.667c6.354,0,10.509,3.327,10.509,9.984c0,6.432-4.562,9.87-10.585,9.87
	c-0.673,0-1.31-0.036-2.019-0.111V153.491z M235.239,139.244c0.336,0.113,0.709,0.149,1.012,0.149c1.122,0,2.018-0.597,2.018-2.392
	c0-1.197-0.561-2.057-1.757-2.057h-1.272V139.244L235.239,139.244z"/>
<path fill="#97C441" d="M67.149,182.91l-0.524,3.178H56.489l6.617-26.063l13.613-0.375l6.657,26.438H73.204l-0.561-3.178H67.149z
	 M69.915,166.568l-1.385,8.115h2.73L69.915,166.568z"/>
<path fill="#97C441" d="M93.702,175.655c0,2.169,0.711,2.581,2.432,2.581c1.645,0,2.355-0.412,2.355-2.581v-15.819h9.574v16.756
	c0,7.217-5.086,9.871-11.931,9.871c-7.03,0-12.004-2.653-12.004-9.871v-16.756H93.7v15.819H93.702z"/>
<path fill="#97C441" d="M112.028,177.152c3.703,1.045,6.844,1.494,9.35,1.494c1.533,0,1.158-1.645,0.412-1.645
	c-4.674,0.111-12.416-1.347-12.416-8.602c0-5.535,2.992-8.938,12.041-8.938c3.029,0,6.844,0.412,9.574,1.233l-1.57,8.077
	c-3.516-0.971-6.547-1.494-9.35-1.494c-1.496,0-1.16,1.645-0.41,1.645c0.859,0,12.412-0.449,12.412,8.75
	c0,5.424-2.914,8.789-11.928,8.789c-3.027,0-6.955-0.412-9.687-1.234L112.028,177.152z"/>
<path fill="#97C441" d="M132.263,167.914l0.375-8.078h21.838l-0.373,8.078h-5.947v18.174h-9.573v-18.174H132.263z"/>
<path fill="#97C441" d="M165.173,159.836v26.252h-9.574v-26.252H165.173z"/>
<path fill="#97C441" d="M176.618,186.088h-9.199v-26.063l8.637-0.375l6.096,11.032v-10.846h9.201v26.065l-8.641,0.375l-6.094-11.032
	V186.088L176.618,186.088z"/>
<path display="none" fill="#176DAD" d="M123.829,0c-5.02,29.021-47.192,32.887-47.192,72.807c0,26.07,21.132,47.193,47.192,47.193
	c26.06,0,47.189-21.123,47.189-47.193C171.019,32.887,128.603,29.021,123.829,0z"/>
<path display="none" fill="#135C91" d="M123.829,0c-5.02,29.021,32.308,41.78,32.308,81.701c0,26.07-32.308,38.299-32.308,38.299
	c26.06,0,47.189-21.123,47.189-47.193C171.019,32.887,128.603,29.021,123.829,0z"/>
<path display="none" fill="#152835" d="M153.784,94.752c-0.379-3.228-2.182-6.607-5.68-7.127c-3.055-0.455-5.774,1.881-5.877,4.961
	c-0.039,1.178,0.842-0.856,1.947-1.787c1.104-0.931,2.682-1.295,3.979-0.428c2.642,1.766,1.686,6.217-0.682,7.624
	c-2.83,2.32-7.91-1.411-10.139-3.349c-2.729-2.376-9.771-8.533-13.579-5.295c-3.808-3.237-10.849,2.919-13.579,5.295
	c-2.227,1.938-7.307,5.669-10.139,3.349c-2.365-1.407-3.32-5.858-0.682-7.624c1.299-0.867,2.875-0.502,3.979,0.428
	s1.985,2.965,1.946,1.787c-0.102-3.08-2.821-5.416-5.877-4.961c-3.498,0.52-5.299,3.899-5.678,7.127
	c-0.854,7.277,6.192,12.282,12.818,12.779c7.382,0.555,14.249-3.984,17.208-10.684c2.962,6.699,9.825,11.238,17.209,10.684
	C147.591,107.034,154.637,102.029,153.784,94.752z"/>
<path display="none" fill="#0B151C" d="M153.048,99.81c-0.375,0.855-0.868,1.653-1.454,2.387c-2.478,3.093-6.63,5.036-10.629,5.335
	c-2.405,0.18-4.758-0.181-6.938-0.98c-1.021-0.375-2.008-0.849-2.944-1.407c-0.935-0.56-1.818-1.204-2.64-1.923
	c0,0,9.806,2.611,16.521,1.115C151.679,102.838,153.048,99.81,153.048,99.81z"/>
<path display="none" fill="#0B151C" d="M123.756,96.848c-2.959,6.699-9.826,11.238-17.208,10.684
	c-3.312-0.248-6.73-1.624-9.214-3.847c0,0,3.502,3.284,11.647,1.079C117.129,102.557,123.756,96.848,123.756,96.848z"/>
<path display="none" fill="#152835" d="M175.049,46.074l-8.913-1.193c-4.122-0.685-8.229-1.031-12.219-1.031
	c-15.132,0-23.905,4.855-24.131,4.996c-0.657,0.235-1.361,0.281-2.065,0.431c-0.262-0.144-0.556-0.331-0.884-0.331h-5.841
	c-0.329,0-0.621,0.193-0.894,0.34c-0.656-0.143-1.322-0.22-1.906-0.42c-0.366-0.208-9.147-5.04-24.28-5.04
	c-3.983,0-8.097,0.359-12.183,1.04l-8.83,1.194l-1.963,0.708l0.395,9.432l0.555,0.208c0.027,0.009,2.629,1.296,2.967,3.462
	c0.058,0.333,0.264,1.071,0.537,1.987c0.33,1.146,0.741,2.596,1.09,4.094c0.638,1.87,1.295,3.795,2.234,5.612
	c1.155,2.24,2.583,5.021,5.551,6.054c3.053,1.831,7.071,2.798,12.221,2.958c0,0,0.75,0.075,1.964,0.075
	c3.887,0,13.317-0.79,16.926-8.097l4.216-8.015c0.01-0.028,0.518-2.594,1.745-2.594h5.131c1.249,0,1.785,2.623,1.831,2.765
	l4.151,8.12c3.606,7.308,13.046,7.958,16.937,7.958c1.163,0,1.896-0.14,1.896-0.144c5.214-0.16,9.234-1.167,12.126-2.918
	c3.118-1.108,4.556-3.905,5.7-6.142c0.949-1.822,1.605-3.756,2.32-5.89c0.262-1.233,0.687-2.688,1.016-3.835
	c0.263-0.915,0.47-1.655,0.523-1.994c0.292-1.812,2.051-3.109,2.979-3.458l0.555-0.207l0.394-9.431L175.049,46.074z M114.694,62.94
	c-0.812,2.46-3.582,9.266-6.67,11.141c-2.396,1.47-5.647,2.239-9.385,2.239c-2.064,0-4.199-0.234-6.33-0.713
	c-5.843-1.288-7.383-2.848-8.801-6.6c-1.495-3.959-2.18-6.787-2.02-12.149c0.142-4.687,6.545-6.077,6.603-6.091
	c3.081-0.635,6.19-0.954,9.253-0.954c8.52,0,14.659,2.526,15.919,3.813c1.569,1.625,1.814,3.627,1.87,4.989
	C115.181,59.703,114.806,62.202,114.694,62.94z M74.274,50.943c0-0.527,0.422-0.998,0.97-0.998h3.155
	c0.524,0,0.949,0.471,0.949,0.998c0,0.531-0.424,1.002-0.949,1.002h-3.155C74.698,51.945,74.274,51.475,74.274,50.943z
	 M172.729,51.945h-3.164c-0.525,0-0.959-0.471-0.959-1.002c0-0.527,0.434-0.998,0.959-0.998h3.164c0.52,0,0.949,0.471,0.949,0.998
	C173.679,51.475,173.248,51.945,172.729,51.945z M155.646,75.606c-2.133,0.479-4.257,0.713-6.32,0.713
	c-3.737,0-6.99-0.771-9.395-2.239c-3.701-2.251-6.611-11.014-6.621-11.014c-0.149-0.874-0.524-3.368-0.488-4.451
	c0.059-1.361,0.31-3.369,1.879-4.988c1.26-1.289,7.392-3.814,15.921-3.814c3.052,0,6.161,0.318,9.243,0.953
	c0.057,0.016,6.461,1.404,6.603,6.092c0.16,5.355-0.556,8.293-2.012,12.154C163.038,72.752,161.497,74.316,155.646,75.606z"/>
<path display="none" fill="#C5D5F0" d="M97.346,49.813c-3.062,0-6.172,0.319-9.253,0.954c-0.058,0.015-6.461,1.404-6.604,6.091
	c-0.159,5.362,0.524,8.19,2.021,12.149c1.418,3.752,2.958,5.312,8.8,6.6c2.131,0.479,4.268,0.713,6.332,0.713
	c3.735,0,6.988-0.771,9.383-2.239c3.09-1.875,5.859-8.681,6.67-11.141c0.111-0.737,0.486-3.236,0.44-4.324
	c-0.056-1.362-0.301-3.364-1.87-4.989C112.005,52.34,105.864,49.813,97.346,49.813z"/>
<path display="none" fill="#C5D5F0" d="M159.862,50.766c-3.082-0.635-6.19-0.953-9.242-0.953c-8.529,0-14.661,2.525-15.922,3.814
	c-1.568,1.619-1.819,3.625-1.879,4.988c-0.035,1.083,0.34,3.578,0.488,4.451c0.01,0,2.922,8.763,6.622,11.014
	c2.403,1.469,5.656,2.239,9.396,2.239c2.062,0,4.188-0.233,6.318-0.713c5.854-1.291,7.395-2.854,8.811-6.595
	c1.456-3.861,2.172-6.799,2.012-12.154C166.325,52.172,159.92,50.781,159.862,50.766z"/>
<path display="none" fill="#C5D5F0" d="M78.399,49.945h-3.155c-0.546,0-0.97,0.471-0.97,0.998c0,0.531,0.422,1.002,0.97,1.002h3.155
	c0.524,0,0.949-0.471,0.949-1.002C79.349,50.416,78.925,49.945,78.399,49.945z"/>
<path display="none" fill="#C5D5F0" d="M172.729,49.945h-3.164c-0.525,0-0.959,0.471-0.959,0.998c0,0.531,0.434,1.002,0.959,1.002
	h3.164c0.52,0,0.949-0.471,0.949-1.002C173.679,50.416,173.248,49.945,172.729,49.945z"/>
<path display="none" fill="#A5B3C9" d="M159.862,50.766c-0.637,9.572-10.209,21.298-19.933,23.314
	c2.403,1.469,5.656,2.239,9.396,2.239c2.062,0,4.188-0.233,6.318-0.713c5.854-1.291,7.395-2.854,8.811-6.595
	c1.456-3.861,2.172-6.799,2.012-12.154C166.325,52.172,159.92,50.781,159.862,50.766z"/>
<path display="none" fill="#A5B3C9" d="M86.526,73.439c1.277,0.911,3.063,1.568,5.783,2.167c2.131,0.479,4.266,0.713,6.33,0.713
	c3.736,0,6.989-0.771,9.385-2.239c3.088-1.875,5.858-8.681,6.67-11.141c0.11-0.737,0.485-3.236,0.439-4.324
	c-0.056-1.361-0.301-3.363-1.87-4.988c-0.59-0.604-2.252-1.479-4.729-2.24C106.103,61.188,95.847,70.217,86.526,73.439z"/>
<path fill="#176DAD" d="M123.922,0C118.904,29.02,76.73,32.887,76.73,72.807c0,26.07,21.133,47.193,47.191,47.193
	c26.061,0,47.189-21.123,47.189-47.193C171.111,32.887,128.695,29.02,123.922,0z"/>
<path fill="#135C91" d="M123.922,0c-5.018,29.02,32.309,41.779,32.309,81.701c0,26.07-32.309,38.299-32.309,38.299
	c26.061,0,47.189-21.123,47.189-47.193C171.111,32.887,128.695,29.02,123.922,0z"/>
<path fill="#152835" d="M102.016,94.801c0,0,12.244-4.512,18.254-4.002c6.008,0.512,8.797,2.23,8.797,2.23s3.766-1.711,7.301-1.416
	c3.535,0.293,8.631,1.824,8.631,1.824s-4.666,15.84-17.582,15.324C114.498,108.248,109.418,96.234,102.016,94.801z"/>
<path fill="#0B151C" d="M142.059,99.771c-2.676,4.346-7.34,9.281-14.643,8.99c-7.443-0.297-12.283-4.41-16.467-8.119
	C119.969,105.727,129.729,110.564,142.059,99.771z"/>
<path fill="#C5D5F0" d="M109.922,95.35c3.057-0.641,8.516,0.732,10.953,1.535c2.498,0.82,5.059,1.611,7.709,1.615
	c2.582,0.006,9.615-2.502,11.811-2.396c-2.412,0.895-7.857,4.766-11.75,4.766C119.211,100.865,117.691,97.09,109.922,95.35z"/>
<path fill="#C5D5F0" d="M129.729,63.18c0,7.197,7.826,13.031,17.479,13.031c9.654,0,17.48-5.834,17.48-13.031
	c0-13.641-3.461-13.031-17.48-13.031C137.555,50.148,129.729,55.982,129.729,63.18z"/>
<path fill="#C5D5F0" d="M118.236,63.18c0,7.197-7.826,13.031-17.48,13.031s-17.48-5.834-17.48-13.031
	c0-13.641,3.463-13.031,17.48-13.031C110.41,50.148,118.236,55.982,118.236,63.18z"/>
<path fill="#A5B3C9" d="M153.932,50.598c4.441,6.637-2.16,22.027-11.883,25.508c12.004,3.842,22.326-11.402,22.326-11.402
	S165.656,47.656,153.932,50.598z"/>
<path fill="#A5B3C9" d="M116.555,62.844c0.193-2.393-1.791-4.619-4.902-6.471c-0.096,6.244-13.779,16.012-19.254,15.049
	c2.684,2.123,6.014,3.498,9.734,3.385C111.99,74.506,116.191,67.316,116.555,62.844z"/>
<path fill="#152835" d="M176.627,50.258c-0.393-0.369-8.936-7.594-28.807-2.541c-13.068,3.322-19.068,8.566-19.846,9.566
	c0,0-1.895-0.58-4.053-0.58s-4.055,0.58-4.055,0.58c-0.777-1-6.777-6.244-19.844-9.566c-19.873-5.053-28.414,2.172-28.809,2.541
	c-0.393,0.371-0.42,1.846,0.26,2.311c1.219,0.838,2.826,2.045,4.32,4.598c2.324,3.973,12.086,22.141,24.873,22.141
	c17.826,0,19.648-15.488,20.279-16.248c0.631-0.762,1.471-1.051,2.975-1.051s2.342,0.289,2.973,1.051
	c0.633,0.76,2.455,16.248,20.281,16.248c12.787,0,22.547-18.168,24.873-22.141c1.494-2.553,3.1-3.76,4.32-4.598
	C177.047,52.104,177.021,50.629,176.627,50.258z M116.555,62.844c-0.363,4.473-4.564,11.662-14.422,11.963
	c-9.855,0.301-16.959-9.84-16.598-16.652c0.363-6.811,8.164-7.568,16.145-5.621C109.662,54.479,116.918,58.371,116.555,62.844z
	 M145.709,74.807c-9.855-0.301-14.059-7.49-14.42-11.963c-0.363-4.473,6.893-8.365,14.873-10.311
	c7.982-1.947,15.783-1.189,16.145,5.621C162.67,64.967,155.566,75.107,145.709,74.807z"/>
<circle fill="#C5D5F0" cx="81.247" cy="50.598" r="0.938"/>
<circle fill="#C5D5F0" cx="77.929" cy="50.598" r="0.938"/>
<circle fill="#C5D5F0" cx="74.856" cy="51.184" r="0.938"/>
<circle fill="#C5D5F0" cx="80.418" cy="53.918" r="0.938"/>
<circle fill="#C5D5F0" cx="77.59" cy="54.162" r="0.938"/>
<circle fill="#C5D5F0" cx="79.591" cy="57.234" r="0.938"/>
<circle fill="#C5D5F0" cx="166.595" cy="50.598" r="0.938"/>
<circle fill="#C5D5F0" cx="169.913" cy="50.598" r="0.938"/>
<circle fill="#C5D5F0" cx="172.987" cy="51.184" r="0.938"/>
<circle fill="#C5D5F0" cx="167.425" cy="53.918" r="0.938"/>
<circle fill="#C5D5F0" cx="170.253" cy="54.162" r="0.938"/>
<circle fill="#C5D5F0" cx="168.253" cy="57.234" r="0.938"/>
</svg>
